<?xml version="1.0" encoding="UTF-8" standalone="no"?>
<svg
   xmlns:dc="http://purl.org/dc/elements/1.1/"
   xmlns:cc="http://creativecommons.org/ns#"
   xmlns:rdf="http://www.w3.org/1999/02/22-rdf-syntax-ns#"
   xmlns:svg="http://www.w3.org/2000/svg"
   xmlns="http://www.w3.org/2000/svg"
   xmlns:sodipodi="http://sodipodi.sourceforge.net/DTD/sodipodi-0.dtd"
   xmlns:inkscape="http://www.inkscape.org/namespaces/inkscape"
   width="1444.054"
   height="632.91443"
   viewBox="0 0 382.07261 167.45861"
   version="1.1"
   id="svg8"
   inkscape:version="1.0.1 (c497b03c, 2020-09-10)"
   sodipodi:docname="dab-single-symbol-diagram.svg">
  <defs
     id="defs2">
    <marker
       style="overflow:visible;"
       id="marker1731"
       refX="0.0"
       refY="0.0"
       orient="auto"
       inkscape:stockid="Arrow2Lend"
       inkscape:isstock="true">
      <path
         transform="scale(1.1) rotate(180) translate(1,0)"
         d="M 8.7185878,4.0337352 L -2.2072895,0.016013256 L 8.7185884,-4.0017078 C 6.9730900,-1.6296469 6.9831476,1.6157441 8.7185878,4.0337352 z "
         style="fill-rule:evenodd;stroke-width:0.625;stroke-linejoin:round;stroke:#000000;stroke-opacity:1;fill:#000000;fill-opacity:1"
         id="path1729" />
    </marker>
    <marker
       style="overflow:visible;"
       id="Arrow2Lend"
       refX="0.0"
       refY="0.0"
       orient="auto"
       inkscape:stockid="Arrow2Lend"
       inkscape:isstock="true"
       inkscape:collect="always">
      <path
         transform="scale(1.1) rotate(180) translate(1,0)"
         d="M 8.7185878,4.0337352 L -2.2072895,0.016013256 L 8.7185884,-4.0017078 C 6.9730900,-1.6296469 6.9831476,1.6157441 8.7185878,4.0337352 z "
         style="fill-rule:evenodd;stroke-width:0.625;stroke-linejoin:round;stroke:#000000;stroke-opacity:1;fill:#000000;fill-opacity:1"
         id="path1418" />
    </marker>
    <marker
       style="overflow:visible"
       id="marker1299"
       refX="0"
       refY="0"
       orient="auto"
       inkscape:stockid="Arrow1Lend"
       inkscape:isstock="true">
      <path
         transform="matrix(-0.8,0,0,-0.8,-10,0)"
         style="fill:#000000;fill-opacity:1;fill-rule:evenodd;stroke:#000000;stroke-width:1pt;stroke-opacity:1"
         d="M 0,0 5,-5 -12.5,0 5,5 Z"
         id="path1297" />
    </marker>
    <marker
       style="overflow:visible"
       id="marker4870"
       refX="0"
       refY="0"
       orient="auto"
       inkscape:stockid="Arrow2Lstart"
       inkscape:isstock="true">
      <path
         transform="matrix(1.1,0,0,1.1,1.1,0)"
         d="M 8.7185878,4.0337352 -2.2072895,0.01601326 8.7185884,-4.0017078 c -1.7454984,2.3720609 -1.7354408,5.6174519 -6e-7,8.035443 z"
         style="fill:#000000;fill-opacity:1;fill-rule:evenodd;stroke:#000000;stroke-width:0.625;stroke-linejoin:round;stroke-opacity:1"
         id="path4868" />
    </marker>
    <inkscape:path-effect
       effect="bspline"
       id="path-effect4866"
       is_visible="true"
       lpeversion="1"
       weight="33.333333"
       steps="2"
       helper_size="0"
       apply_no_weight="true"
       apply_with_weight="true"
       only_selected="false" />
    <marker
       style="overflow:visible"
       id="Arrow2Lstart"
       refX="0"
       refY="0"
       orient="auto"
       inkscape:stockid="Arrow2Lstart"
       inkscape:isstock="true"
       inkscape:collect="always">
      <path
         transform="matrix(1.1,0,0,1.1,1.1,0)"
         d="M 8.7185878,4.0337352 -2.2072895,0.01601326 8.7185884,-4.0017078 c -1.7454984,2.3720609 -1.7354408,5.6174519 -6e-7,8.035443 z"
         style="fill:#000000;fill-opacity:1;fill-rule:evenodd;stroke:#000000;stroke-width:0.625;stroke-linejoin:round;stroke-opacity:1"
         id="path4514" />
    </marker>
    <marker
       style="overflow:visible"
       id="marker4794"
       refX="0"
       refY="0"
       orient="auto"
       inkscape:stockid="Arrow1Lstart"
       inkscape:isstock="true">
      <path
         transform="matrix(0.8,0,0,0.8,10,0)"
         style="fill:#000000;fill-opacity:1;fill-rule:evenodd;stroke:#000000;stroke-width:1pt;stroke-opacity:1"
         d="M 0,0 5,-5 -12.5,0 5,5 Z"
         id="path4792" />
    </marker>
    <marker
       style="overflow:visible"
       id="Arrow1Lend"
       refX="0"
       refY="0"
       orient="auto"
       inkscape:stockid="Arrow1Lend"
       inkscape:isstock="true">
      <path
         transform="matrix(-0.8,0,0,-0.8,-10,0)"
         style="fill:#000000;fill-opacity:1;fill-rule:evenodd;stroke:#000000;stroke-width:1pt;stroke-opacity:1"
         d="M 0,0 5,-5 -12.5,0 5,5 Z"
         id="path4499" />
    </marker>
    <marker
       style="overflow:visible"
       id="Arrow1Lstart"
       refX="0"
       refY="0"
       orient="auto"
       inkscape:stockid="Arrow1Lstart"
       inkscape:isstock="true">
      <path
         transform="matrix(0.8,0,0,0.8,10,0)"
         style="fill:#000000;fill-opacity:1;fill-rule:evenodd;stroke:#000000;stroke-width:1pt;stroke-opacity:1"
         d="M 0,0 5,-5 -12.5,0 5,5 Z"
         id="path4496" />
    </marker>
    <inkscape:path-effect
       effect="bspline"
       id="path-effect4494"
       is_visible="true"
       lpeversion="1"
       weight="33.333333"
       steps="2"
       helper_size="0"
       apply_no_weight="true"
       apply_with_weight="true"
       only_selected="false" />
    <inkscape:path-effect
       effect="bspline"
       id="path-effect1847"
       is_visible="true"
       lpeversion="1"
       weight="33.333333"
       steps="2"
       helper_size="0"
       apply_no_weight="true"
       apply_with_weight="true"
       only_selected="false" />
    <inkscape:path-effect
       effect="bspline"
       id="path-effect1843"
       is_visible="true"
       lpeversion="1"
       weight="33.333333"
       steps="2"
       helper_size="0"
       apply_no_weight="true"
       apply_with_weight="true"
       only_selected="false" />
    <clipPath
       id="gxoeOdAzXwUV">
      <path
         fill="none"
         stroke="none"
         d="M 0,0 H 1220 V 790 H 0 Z"
         id="path4214" />
    </clipPath>
    <marker
       style="overflow:visible"
       id="marker1397"
       refX="0"
       refY="0"
       orient="auto"
       inkscape:stockid="Arrow1Lend"
       inkscape:isstock="true">
      <path
         transform="matrix(-0.8,0,0,-0.8,-10,0)"
         style="fill:#000000;fill-opacity:1;fill-rule:evenodd;stroke:#000000;stroke-width:1pt;stroke-opacity:1"
         d="M 0,0 5,-5 -12.5,0 5,5 Z"
         id="path1395" />
    </marker>
    <marker
       style="overflow:visible"
       id="marker1387"
       refX="0"
       refY="0"
       orient="auto"
       inkscape:stockid="Arrow1Lend"
       inkscape:isstock="true"
       inkscape:collect="always">
      <path
         transform="matrix(-0.8,0,0,-0.8,-10,0)"
         style="fill:#000000;fill-opacity:1;fill-rule:evenodd;stroke:#000000;stroke-width:1pt;stroke-opacity:1"
         d="M 0,0 5,-5 -12.5,0 5,5 Z"
         id="path1385" />
    </marker>
  </defs>
  <sodipodi:namedview
     id="base"
     pagecolor="#ffffff"
     bordercolor="#666666"
     borderopacity="1.0"
     inkscape:pageopacity="1"
     inkscape:pageshadow="2"
     inkscape:zoom="1.6866144"
     inkscape:cx="229.81926"
     inkscape:cy="265.72064"
     inkscape:document-units="px"
     inkscape:current-layer="layer1"
     inkscape:document-rotation="0"
     showgrid="false"
     units="px"
     inkscape:showpageshadow="false"
     inkscape:window-width="1600"
     inkscape:window-height="875"
     inkscape:window-x="1280"
     inkscape:window-y="25"
     inkscape:window-maximized="0"
     inkscape:pagecheckerboard="false"
     borderlayer="false"
     showguides="true"
     inkscape:guide-bbox="true"
     fit-margin-top="20"
     lock-margins="true"
     fit-margin-left="20"
     fit-margin-right="20"
     fit-margin-bottom="20" />
  <metadata
     id="metadata5">
    <rdf:RDF>
      <cc:Work
         rdf:about="">
        <dc:format>image/svg+xml</dc:format>
        <dc:type
           rdf:resource="http://purl.org/dc/dcmitype/StillImage" />
        <dc:title></dc:title>
      </cc:Work>
    </rdf:RDF>
  </metadata>
  <g
     inkscape:label="Layer 1"
     inkscape:groupmode="layer"
     id="layer1"
     transform="translate(-78.114545,-54.833446)">
    <path
       fill="none"
       stroke="#616161"
       paint-order="fill stroke markers"
       d="m 183.81603,184.9223 0.13933,-1.65625 0.0696,-0.93767 0.0696,-1.01001 0.0696,-1.08157 0.0696,-1.15218 0.0696,-1.22164 0.0696,-1.28976 0.0696,-1.35632 0.0696,-1.42122 0.0696,-1.48415 0.0696,-1.54506 0.0696,-1.60367 0.0696,-1.65986 0.0696,-1.71345 0.0696,-1.76428 0.0349,-0.9003 0.0349,-0.91191 0.0349,-0.92311 0.0347,-0.93393 0.0349,-0.94435 0.0349,-0.95434 0.0349,-0.96391 0.0349,-0.97307 0.0349,-0.98176 0.0347,-0.99005 0.0349,-0.99784 0.0349,-1.00518 0.0349,-1.01207 0.0349,-1.0185 0.0349,-1.0244 0.0347,-1.02986 0.0349,-1.03482 0.0349,-1.03926 0.0349,-1.04323 0.0349,-1.0467 0.0349,-1.04963 0.0347,-1.05207 0.0349,-1.05398 0.0349,-1.05537 0.0349,-1.05622 0.0349,-1.05658 0.0349,-1.05639 0.0347,-1.05567 0.0349,-1.05443 0.0349,-1.05262 0.0349,-1.05032 0.0349,-1.04743 0.0349,-1.04409 0.0347,-1.04012 0.0349,-1.03566 0.0349,-1.03065 0.0349,-1.02513 0.0349,-1.01903 0.0349,-1.01245 0.0347,-1.0053 0.0349,-0.99765 0.0349,-0.98947 0.0349,-0.98074 0.0349,-0.97153 0.0349,-0.96178 0.0347,-0.95152 0.0349,-0.94077 0.0349,-0.9295 0.0349,-0.91774 0.0349,-0.90547 0.0349,-0.89276 0.0347,-0.87953 0.0696,-1.71749 0.0696,-1.65903 0.0697,-1.59692 0.0696,-1.5314 0.0696,-1.46249 0.0696,-1.39038 0.0696,-1.31526 0.0696,-1.23719 0.0696,-1.156432 0.0697,-1.073111 0.0696,-0.987416 0.0696,-0.899535 0.13932,-1.527636 0.13933,-1.154754 0.13932,-0.771587 0.0696,-0.239818 0.0696,-0.141717 0.0696,-0.04328 0.0696,0.05522 0.0696,0.15361 0.0696,0.251655 0.13933,0.794992 0.13932,1.177634 0.13933,1.549793 0.0696,0.910271 0.0696,0.997918 0.0696,1.083322 0.0696,1.166331 0.0696,1.2468 0.0696,1.32449 0.0696,1.39928 0.0696,1.47099 0.0696,1.53949 0.0696,1.60465 0.0696,1.66629 0.0696,1.72432 0.0347,0.88277 0.0349,0.89589 0.0349,0.90849 0.0349,0.92063 0.0349,0.93226 0.0349,0.94342 0.0347,0.95404 0.0349,0.96419 0.0349,0.97381 0.0349,0.98289 0.0349,0.9915 0.0349,0.99956 0.0347,1.00708 0.0349,1.01408 0.0349,1.02055 0.0349,1.02651 0.0349,1.03193 0.0349,1.03679 0.0347,1.04113 0.0349,1.04492 0.0349,1.0482 0.0349,1.05093 0.0349,1.05311 0.0349,1.05477 0.0347,1.05589 0.0349,1.05648 0.0349,1.05655 0.0349,1.05608 0.0349,1.05507 0.0349,1.05355 0.0347,1.05154 0.0349,1.04896 0.0349,1.0459 0.0349,1.04231 0.0349,1.03825 0.0349,1.03365 0.0347,1.02859 0.0349,1.02303 0.0349,1.01697 0.0349,1.01046 0.0349,1.00345 0.0349,0.996 0.0347,0.98807 0.0349,0.97971 0.0349,0.97087 0.0349,0.96165 0.0349,0.95197 0.0349,0.94187 0.0347,0.93134 0.0349,0.92044 0.0349,0.90914 0.0349,0.89743 0.0696,1.75828 0.0696,1.7071 0.0696,1.65321 0.0696,1.59671 0.0696,1.5378 0.0696,1.47664 0.0697,1.41345 0.0696,1.34837 0.0696,1.2816 0.0696,1.21331 0.0696,1.14368 0.0696,1.07297 0.0696,1.0013 0.0697,0.92887 0.13933,1.63852"
       stroke-opacity="0.8"
       stroke-linecap="round"
       stroke-linejoin="round"
       stroke-miterlimit="10"
       stroke-width="1.4616"
       id="path1125"
       style="stroke:#ff9955;stroke-width:0.494567;stroke-miterlimit:10;stroke-dasharray:none"
       sodipodi:nodetypes="ccccccccccccccccccccccccccccccccccccccccccccccccccccccccccccccccccccccccccccccccccccccccccccccccccccccccccccccccccccccccccccccccccccccccccccccccccccccccccccccccccccccccccc" />
    <path
       fill="none"
       stroke="#616161"
       paint-order="fill stroke markers"
       d="m 180.19277,184.72818 0.13933,-1.65625 0.0696,-0.93767 0.0696,-1.01001 0.0696,-1.08157 0.0696,-1.15218 0.0696,-1.22164 0.0696,-1.28976 0.0696,-1.35632 0.0696,-1.42122 0.0696,-1.48415 0.0696,-1.54506 0.0696,-1.60367 0.0696,-1.65986 0.0696,-1.71345 0.0696,-1.76428 0.0349,-0.9003 0.0349,-0.91191 0.0349,-0.92311 0.0347,-0.93393 0.0349,-0.94435 0.0349,-0.95434 0.0349,-0.96391 0.0349,-0.97307 0.0349,-0.98176 0.0347,-0.99005 0.0349,-0.99784 0.0349,-1.00518 0.0349,-1.01207 0.0349,-1.0185 0.0349,-1.0244 0.0347,-1.02986 0.0349,-1.03482 0.0349,-1.03926 0.0349,-1.04323 0.0349,-1.0467 0.0349,-1.04963 0.0347,-1.05207 0.0349,-1.05398 0.0349,-1.05537 0.0349,-1.05622 0.0349,-1.05658 0.0349,-1.05639 0.0347,-1.05567 0.0349,-1.05443 0.0349,-1.05262 0.0349,-1.05032 0.0349,-1.04743 0.0349,-1.04409 0.0347,-1.04012 0.0349,-1.03566 0.0349,-1.03065 0.0349,-1.02513 0.0349,-1.01903 0.0349,-1.01245 0.0347,-1.0053 0.0349,-0.99765 0.0349,-0.98947 0.0349,-0.98074 0.0349,-0.97153 0.0349,-0.96178 0.0347,-0.95152 0.0349,-0.94077 0.0349,-0.9295 0.0349,-0.91774 0.0349,-0.90547 0.0349,-0.89276 0.0347,-0.87953 0.0696,-1.71749 0.0696,-1.65903 0.0697,-1.59692 0.0696,-1.5314 0.0696,-1.46249 0.0696,-1.39038 0.0696,-1.31526 0.0696,-1.23719 0.0696,-1.156432 0.0697,-1.073111 0.0696,-0.987416 0.0696,-0.899535 0.13932,-1.527636 0.13933,-1.154754 0.13932,-0.771587 0.0696,-0.239818 0.0696,-0.141717 0.0696,-0.04328 0.0696,0.05522 0.0696,0.15361 0.0696,0.251655 0.13933,0.794992 0.13932,1.177634 0.13933,1.549793 0.0696,0.910271 0.0696,0.997918 0.0696,1.083322 0.0696,1.166331 0.0696,1.2468 0.0696,1.32449 0.0696,1.39928 0.0696,1.47099 0.0696,1.53949 0.0696,1.60465 0.0696,1.66629 0.0696,1.72432 0.0347,0.88277 0.0349,0.89589 0.0349,0.90849 0.0349,0.92063 0.0349,0.93226 0.0349,0.94342 0.0347,0.95404 0.0349,0.96419 0.0349,0.97381 0.0349,0.98289 0.0349,0.9915 0.0349,0.99956 0.0347,1.00708 0.0349,1.01408 0.0349,1.02055 0.0349,1.02651 0.0349,1.03193 0.0349,1.03679 0.0347,1.04113 0.0349,1.04492 0.0349,1.0482 0.0349,1.05093 0.0349,1.05311 0.0349,1.05477 0.0347,1.05589 0.0349,1.05648 0.0349,1.05655 0.0349,1.05608 0.0349,1.05507 0.0349,1.05355 0.0347,1.05154 0.0349,1.04896 0.0349,1.0459 0.0349,1.04231 0.0349,1.03825 0.0349,1.03365 0.0347,1.02859 0.0349,1.02303 0.0349,1.01697 0.0349,1.01046 0.0349,1.00345 0.0349,0.996 0.0347,0.98807 0.0349,0.97971 0.0349,0.97087 0.0349,0.96165 0.0349,0.95197 0.0349,0.94187 0.0347,0.93134 0.0349,0.92044 0.0349,0.90914 0.0349,0.89743 0.0696,1.75828 0.0696,1.7071 0.0696,1.65321 0.0696,1.59671 0.0696,1.5378 0.0696,1.47664 0.0697,1.41345 0.0696,1.34837 0.0696,1.2816 0.0696,1.21331 0.0696,1.14368 0.0696,1.07297 0.0696,1.0013 0.0697,0.92887 0.13933,1.63852"
       stroke-opacity="0.8"
       stroke-linecap="round"
       stroke-linejoin="round"
       stroke-miterlimit="10"
       stroke-width="1.4616"
       id="path1123"
       style="stroke:#ff9955;stroke-width:0.494567;stroke-miterlimit:10;stroke-dasharray:none"
       sodipodi:nodetypes="ccccccccccccccccccccccccccccccccccccccccccccccccccccccccccccccccccccccccccccccccccccccccccccccccccccccccccccccccccccccccccccccccccccccccccccccccccccccccccccccccccccccccccc" />
    <circle
       id="path130"
       style="opacity:1;fill:none;fill-opacity:1;stroke:#000000;stroke-width:0.264583"
       cx="45.851349"
       cy="240.34169"
       r="0" />
    <path
       id="path1845"
       style="fill:none;stroke:#000000;stroke-width:0.661458;stroke-linecap:butt;stroke-linejoin:miter;stroke-miterlimit:4;stroke-dasharray:none;stroke-opacity:1"
       d="m 351.46026,87.687699 c 0,-2.371193 0,-4.742542 -15.87207,-5.928294 -15.87207,-1.185752 -47.61467,-1.185752 -63.48617,-2.190972 -15.87148,-1.00522 -15.87148,-3.015736 -15.87148,-5.026449 m -95.22973,13.145715 c 0,-2.371193 0,-4.742542 15.87206,-5.928294 15.87208,-1.185752 47.61468,-1.185752 63.48617,-2.190972 15.8715,-1.00522 15.8715,-3.015736 15.8715,-5.026449" />
    <text
       xml:space="preserve"
       style="font-size:12.6459px;line-height:1.25;font-family:'Times New Roman';-inkscape-font-specification:'Times New Roman, ';text-align:center;word-spacing:0px;text-anchor:middle;stroke-width:0.903276"
       x="256.44901"
       y="69.202003"
       id="text1854"><tspan
         sodipodi:role="line"
         id="tspan1852"
         x="256.44901"
         y="69.202003"
         style="stroke-width:0.903276">$K+1$</tspan></text>
    <path
       fill="none"
       stroke="#616161"
       paint-order="fill stroke markers"
       d="m 161.56224,184.90219 0.13932,-1.65625 0.0696,-0.93767 0.0696,-1.01002 0.0696,-1.08156 0.0696,-1.15219 0.0696,-1.22164 0.0696,-1.28975 0.0696,-1.35632 0.0696,-1.42122 0.0696,-1.48416 0.0696,-1.54505 0.0696,-1.60367 0.0696,-1.65987 0.0696,-1.71345 0.0696,-1.76428 0.0349,-0.90029 0.0349,-0.91191 0.0349,-0.92311 0.0347,-0.93393 0.0349,-0.94435 0.0349,-0.95434 0.0349,-0.96391 0.0349,-0.97307 0.0349,-0.98176 0.0347,-0.99005 0.0349,-0.99784 0.0349,-1.00519 0.0349,-1.01207 0.0349,-1.01849 0.0349,-1.0244 0.0347,-1.02987 0.0349,-1.03481 0.0349,-1.03926 0.0349,-1.04323 0.0349,-1.04671 0.0349,-1.04963 0.0347,-1.05207 0.0349,-1.05398 0.0349,-1.05536 0.0349,-1.05623 0.0349,-1.05658 0.0349,-1.05639 0.0347,-1.05567 0.0349,-1.05442 0.0349,-1.05263 0.0349,-1.05031 0.0349,-1.04744 0.0349,-1.04408 0.0347,-1.04013 0.0349,-1.03565 0.0349,-1.03066 0.0349,-1.02512 0.0349,-1.01904 0.0349,-1.01244 0.0347,-1.00531 0.0349,-0.99765 0.0349,-0.98947 0.0349,-0.98074 0.0349,-0.97153 0.0349,-0.96177 0.0347,-0.95152 0.0349,-0.94077 0.0349,-0.92951 0.0349,-0.91774 0.0349,-0.90547 0.0349,-0.89275 0.0347,-0.87953 0.0696,-1.71749 0.0696,-1.65904 0.0697,-1.59692 0.0696,-1.53139 0.0696,-1.46249 0.0696,-1.39039 0.0696,-1.31525 0.0696,-1.2372 0.0696,-1.156437 0.0697,-1.073111 0.0696,-0.987415 0.0696,-0.899536 0.13932,-1.527636 0.13933,-1.154754 0.13933,-0.771587 0.0696,-0.239817 0.0696,-0.141717 0.0696,-0.04328 0.0696,0.05522 0.0696,0.15361 0.0696,0.251655 0.13933,0.794993 0.13931,1.177633 0.13933,1.549793 0.0696,0.910271 0.0696,0.997918 0.0696,1.083322 0.0696,1.166335 0.0696,1.2468 0.0696,1.32449 0.0696,1.39928 0.0696,1.47099 0.0696,1.53949 0.0696,1.60466 0.0696,1.66628 0.0696,1.72432 0.0347,0.88277 0.0349,0.89589 0.0349,0.90849 0.0349,0.92064 0.0349,0.93225 0.0349,0.94342 0.0347,0.95405 0.0349,0.96418 0.0349,0.97381 0.0349,0.9829 0.0349,0.99149 0.0349,0.99956 0.0347,1.00708 0.0349,1.01408 0.0349,1.02056 0.0349,1.02651 0.0349,1.03193 0.0349,1.03679 0.0347,1.04112 0.0349,1.04493 0.0349,1.04819 0.0349,1.05093 0.0349,1.05311 0.0349,1.05477 0.0347,1.0559 0.0349,1.05648 0.0349,1.05655 0.0349,1.05607 0.0349,1.05507 0.0349,1.05356 0.0347,1.05153 0.0349,1.04896 0.0349,1.04591 0.0349,1.04231 0.0349,1.03825 0.0349,1.03365 0.0347,1.02859 0.0349,1.02302 0.0349,1.01698 0.0349,1.01046 0.0349,1.00344 0.0349,0.996 0.0347,0.98808 0.0349,0.9797 0.0349,0.97088 0.0349,0.96164 0.0349,0.95197 0.0349,0.94188 0.0347,0.93133 0.0349,0.92044 0.0349,0.90914 0.0349,0.89743 0.0696,1.75828 0.0696,1.70711 0.0696,1.6532 0.0696,1.59671 0.0696,1.5378 0.0696,1.47665 0.0697,1.41345 0.0696,1.34837 0.0696,1.28159 0.0696,1.21332 0.0696,1.14368 0.0696,1.07296 0.0696,1.0013 0.0697,0.92887 0.13933,1.63853"
       stroke-opacity="0.8"
       stroke-linecap="round"
       stroke-linejoin="round"
       stroke-miterlimit="10"
       stroke-width="1.4616"
       id="path4305"
       style="fill:none;stroke:#ff9955;stroke-width:0.494567;stroke-miterlimit:10;stroke-dasharray:none"
       sodipodi:nodetypes="ccccccccccccccccccccccccccccccccccccccccccccccccccccccccccccccccccccccccccccccccccccccccccccccccccccccccccccccccccccccccccccccccccccccccccccccccccccccccccccccccccccccccccc" />
    <path
       fill="none"
       stroke="#616161"
       paint-order="fill stroke markers"
       d="m 165.25531,184.79126 0.13933,-1.65625 0.0696,-0.93767 0.0696,-1.01002 0.0696,-1.08156 0.0696,-1.15219 0.0696,-1.22164 0.0696,-1.28975 0.0696,-1.35632 0.0696,-1.42122 0.0696,-1.48416 0.0696,-1.54505 0.0696,-1.60367 0.0696,-1.65987 0.0696,-1.71345 0.0696,-1.76428 0.0349,-0.90029 0.0349,-0.91191 0.0349,-0.92311 0.0347,-0.93393 0.0349,-0.94435 0.0349,-0.95434 0.0349,-0.96391 0.0349,-0.97307 0.0349,-0.98176 0.0347,-0.99005 0.0349,-0.99784 0.0349,-1.00519 0.0349,-1.01207 0.0349,-1.01849 0.0349,-1.0244 0.0347,-1.02987 0.0349,-1.03481 0.0349,-1.03926 0.0349,-1.04323 0.0349,-1.04671 0.0349,-1.04963 0.0347,-1.05207 0.0349,-1.05398 0.0349,-1.05536 0.0349,-1.05623 0.0349,-1.05658 0.0349,-1.05639 0.0347,-1.05567 0.0349,-1.05442 0.0349,-1.05263 0.0349,-1.05031 0.0349,-1.04744 0.0349,-1.04408 0.0347,-1.04013 0.0349,-1.03565 0.0349,-1.03066 0.0349,-1.02512 0.0349,-1.01904 0.0349,-1.01244 0.0347,-1.00531 0.0349,-0.99765 0.0349,-0.98947 0.0349,-0.98074 0.0349,-0.97153 0.0349,-0.96177 0.0347,-0.95152 0.0349,-0.94077 0.0349,-0.92951 0.0349,-0.91774 0.0349,-0.90547 0.0349,-0.89275 0.0347,-0.87953 0.0696,-1.71749 0.0696,-1.65904 0.0697,-1.59692 0.0696,-1.53139 0.0696,-1.46249 0.0696,-1.39039 0.0696,-1.31525 0.0696,-1.2372 0.0696,-1.156432 0.0697,-1.073111 0.0696,-0.987415 0.0696,-0.899536 0.13932,-1.527636 0.13932,-1.154754 0.13933,-0.771587 0.0696,-0.239817 0.0696,-0.141717 0.0696,-0.04328 0.0696,0.05522 0.0696,0.15361 0.0696,0.251655 0.13933,0.794993 0.13932,1.177633 0.13933,1.549793 0.0696,0.910271 0.0696,0.997918 0.0696,1.083322 0.0696,1.16633 0.0696,1.2468 0.0696,1.32449 0.0696,1.39928 0.0696,1.47099 0.0696,1.53949 0.0696,1.60466 0.0696,1.66628 0.0696,1.72432 0.0347,0.88277 0.0349,0.89589 0.0349,0.90849 0.0349,0.92064 0.0349,0.93225 0.0349,0.94342 0.0347,0.95405 0.0349,0.96418 0.0349,0.97381 0.0349,0.9829 0.0349,0.99149 0.0349,0.99956 0.0347,1.00708 0.0349,1.01408 0.0349,1.02056 0.0349,1.02651 0.0349,1.03193 0.0349,1.03679 0.0347,1.04112 0.0349,1.04493 0.0349,1.04819 0.0349,1.05093 0.0349,1.05311 0.0349,1.05477 0.0347,1.0559 0.0349,1.05648 0.0349,1.05655 0.0349,1.05607 0.0349,1.05507 0.0349,1.05356 0.0347,1.05153 0.0349,1.04896 0.0349,1.04591 0.0349,1.04231 0.0349,1.03825 0.0349,1.03365 0.0347,1.02859 0.0349,1.02302 0.0349,1.01698 0.0349,1.01046 0.0349,1.00344 0.0349,0.996 0.0347,0.98808 0.0349,0.9797 0.0349,0.97088 0.0349,0.96164 0.0349,0.95197 0.0349,0.94188 0.0347,0.93133 0.0349,0.92044 0.0349,0.90914 0.0349,0.89743 0.0696,1.75828 0.0696,1.70711 0.0696,1.6532 0.0696,1.59671 0.0696,1.5378 0.0696,1.47665 0.0697,1.41345 0.0696,1.34837 0.0696,1.28159 0.0696,1.21332 0.0696,1.14368 0.0696,1.07296 0.0696,1.0013 0.0697,0.92887 0.13932,1.63853"
       stroke-opacity="0.8"
       stroke-linecap="round"
       stroke-linejoin="round"
       stroke-miterlimit="10"
       stroke-width="1.4616"
       id="path4480"
       style="stroke:#ff9955;stroke-width:0.494567;stroke-miterlimit:10;stroke-dasharray:none"
       sodipodi:nodetypes="ccccccccccccccccccccccccccccccccccccccccccccccccccccccccccccccccccccccccccccccccccccccccccccccccccccccccccccccccccccccccccccccccccccccccccccccccccccccccccccccccccccccccccc" />
    <path
       fill="none"
       stroke="#616161"
       paint-order="fill stroke markers"
       d="m 168.84432,184.90219 0.13933,-1.65625 0.0696,-0.93767 0.0696,-1.01002 0.0696,-1.08156 0.0696,-1.15219 0.0696,-1.22164 0.0696,-1.28975 0.0696,-1.35632 0.0696,-1.42122 0.0696,-1.48416 0.0696,-1.54505 0.0696,-1.60367 0.0696,-1.65987 0.0696,-1.71345 0.0696,-1.76428 0.0349,-0.90029 0.0349,-0.91191 0.0349,-0.92311 0.0347,-0.93393 0.0349,-0.94435 0.0349,-0.95434 0.0349,-0.96391 0.0349,-0.97307 0.0349,-0.98176 0.0347,-0.99005 0.0349,-0.99784 0.0349,-1.00519 0.0349,-1.01207 0.0349,-1.01849 0.0349,-1.0244 0.0347,-1.02987 0.0349,-1.03481 0.0349,-1.03926 0.0349,-1.04323 0.0349,-1.04671 0.0349,-1.04963 0.0347,-1.05207 0.0349,-1.05398 0.0349,-1.05536 0.0349,-1.05623 0.0349,-1.05658 0.0349,-1.05639 0.0347,-1.05567 0.0349,-1.05442 0.0349,-1.05263 0.0349,-1.05031 0.0349,-1.04744 0.0349,-1.04408 0.0347,-1.04013 0.0349,-1.03565 0.0349,-1.03066 0.0349,-1.02512 0.0349,-1.01904 0.0349,-1.01244 0.0347,-1.00531 0.0349,-0.99765 0.0349,-0.98947 0.0349,-0.98074 0.0349,-0.97153 0.0349,-0.96177 0.0347,-0.95152 0.0349,-0.94077 0.0349,-0.92951 0.0349,-0.91774 0.0349,-0.90547 0.0349,-0.89275 0.0347,-0.87953 0.0696,-1.71749 0.0696,-1.65904 0.0697,-1.59692 0.0696,-1.53139 0.0696,-1.46249 0.0696,-1.39039 0.0696,-1.31525 0.0696,-1.2372 0.0696,-1.156437 0.0697,-1.073111 0.0696,-0.987415 0.0696,-0.899536 0.13932,-1.527636 0.13933,-1.154754 0.13932,-0.771587 0.0696,-0.239817 0.0696,-0.141717 0.0696,-0.04328 0.0696,0.05522 0.0696,0.15361 0.0696,0.251655 0.13933,0.794993 0.13932,1.177633 0.13933,1.549793 0.0696,0.910271 0.0696,0.997918 0.0696,1.083322 0.0696,1.166335 0.0696,1.2468 0.0696,1.32449 0.0696,1.39928 0.0696,1.47099 0.0696,1.53949 0.0696,1.60466 0.0696,1.66628 0.0696,1.72432 0.0347,0.88277 0.0349,0.89589 0.0349,0.90849 0.0349,0.92064 0.0349,0.93225 0.0349,0.94342 0.0347,0.95405 0.0349,0.96418 0.0349,0.97381 0.0349,0.9829 0.0349,0.99149 0.0349,0.99956 0.0347,1.00708 0.0349,1.01408 0.0349,1.02056 0.0349,1.02651 0.0349,1.03193 0.0349,1.03679 0.0347,1.04112 0.0349,1.04493 0.0349,1.04819 0.0349,1.05093 0.0349,1.05311 0.0349,1.05477 0.0347,1.0559 0.0349,1.05648 0.0349,1.05655 0.0349,1.05607 0.0349,1.05507 0.0349,1.05356 0.0347,1.05153 0.0349,1.04896 0.0349,1.04591 0.0349,1.04231 0.0349,1.03825 0.0349,1.03365 0.0347,1.02859 0.0349,1.02302 0.0349,1.01698 0.0349,1.01046 0.0349,1.00344 0.0349,0.996 0.0347,0.98808 0.0349,0.9797 0.0349,0.97088 0.0349,0.96164 0.0349,0.95197 0.0349,0.94188 0.0347,0.93133 0.0349,0.92044 0.0349,0.90914 0.0349,0.89743 0.0696,1.75828 0.0696,1.70711 0.0696,1.6532 0.0696,1.59671 0.0696,1.5378 0.0696,1.47665 0.0697,1.41345 0.0696,1.34837 0.0696,1.28159 0.0696,1.21332 0.0696,1.14368 0.0696,1.07296 0.0696,1.0013 0.0697,0.92887 0.13932,1.63853"
       stroke-opacity="0.8"
       stroke-linecap="round"
       stroke-linejoin="round"
       stroke-miterlimit="10"
       stroke-width="1.4616"
       id="path4482"
       style="stroke:#ff9955;stroke-width:0.494567;stroke-miterlimit:10;stroke-dasharray:none"
       sodipodi:nodetypes="ccccccccccccccccccccccccccccccccccccccccccccccccccccccccccccccccccccccccccccccccccccccccccccccccccccccccccccccccccccccccccccccccccccccccccccccccccccccccccccccccccccccccccc" />
    <path
       fill="none"
       stroke="#616161"
       paint-order="fill stroke markers"
       d="m 172.60757,184.66476 0.13933,-1.65625 0.0696,-0.93767 0.0696,-1.01001 0.0696,-1.08157 0.0696,-1.15218 0.0696,-1.22164 0.0696,-1.28975 0.0696,-1.35633 0.0696,-1.42122 0.0696,-1.48415 0.0696,-1.54506 0.0696,-1.60367 0.0696,-1.65986 0.0696,-1.71345 0.0696,-1.76428 0.0349,-0.9003 0.0349,-0.91191 0.0349,-0.92311 0.0347,-0.93393 0.0349,-0.94435 0.0349,-0.95434 0.0349,-0.96391 0.0349,-0.97307 0.0349,-0.98176 0.0347,-0.99005 0.0349,-0.99784 0.0349,-1.00518 0.0349,-1.01207 0.0349,-1.01849 0.0349,-1.02441 0.0347,-1.02986 0.0349,-1.03482 0.0349,-1.03926 0.0349,-1.04323 0.0349,-1.0467 0.0349,-1.04963 0.0347,-1.05207 0.0349,-1.05398 0.0349,-1.05537 0.0349,-1.05622 0.0349,-1.05658 0.0349,-1.05639 0.0347,-1.05567 0.0349,-1.05443 0.0349,-1.05262 0.0349,-1.05032 0.0349,-1.04743 0.0349,-1.04409 0.0347,-1.04012 0.0349,-1.03566 0.0349,-1.03065 0.0349,-1.02513 0.0349,-1.01903 0.0349,-1.01245 0.0347,-1.0053 0.0349,-0.99765 0.0349,-0.98947 0.0349,-0.98074 0.0349,-0.97153 0.0349,-0.96178 0.0347,-0.95152 0.0349,-0.94076 0.0349,-0.92951 0.0349,-0.91774 0.0349,-0.90547 0.0349,-0.89276 0.0347,-0.87953 0.0696,-1.71749 0.0696,-1.65903 0.0697,-1.59692 0.0696,-1.5314 0.0696,-1.46249 0.0696,-1.39038 0.0696,-1.31526 0.0696,-1.237189 0.0696,-1.156437 0.0697,-1.073111 0.0696,-0.987415 0.0696,-0.899536 0.13932,-1.527636 0.13932,-1.154754 0.13933,-0.771587 0.0696,-0.239817 0.0696,-0.141717 0.0696,-0.04328 0.0696,0.05522 0.0696,0.15361 0.0696,0.251655 0.13933,0.794993 0.13932,1.177633 0.13933,1.549793 0.0696,0.910271 0.0696,0.997918 0.0696,1.083322 0.0696,1.166334 0.0696,1.2468 0.0696,1.32449 0.0696,1.39928 0.0696,1.47099 0.0696,1.53949 0.0696,1.60465 0.0696,1.66629 0.0696,1.72432 0.0347,0.88277 0.0349,0.89589 0.0349,0.90849 0.0349,0.92063 0.0349,0.93226 0.0349,0.94342 0.0347,0.95405 0.0349,0.96418 0.0349,0.97381 0.0349,0.98289 0.0349,0.9915 0.0349,0.99956 0.0347,1.00708 0.0349,1.01408 0.0349,1.02055 0.0349,1.02651 0.0349,1.03193 0.0349,1.03679 0.0347,1.04113 0.0349,1.04492 0.0349,1.0482 0.0349,1.05093 0.0349,1.05311 0.0349,1.05477 0.0347,1.05589 0.0349,1.05648 0.0349,1.05655 0.0349,1.05608 0.0349,1.05507 0.0349,1.05355 0.0347,1.05154 0.0349,1.04896 0.0349,1.0459 0.0349,1.04232 0.0349,1.03824 0.0349,1.03365 0.0347,1.02859 0.0349,1.02303 0.0349,1.01697 0.0349,1.01046 0.0349,1.00345 0.0349,0.996 0.0347,0.98807 0.0349,0.97971 0.0349,0.97087 0.0349,0.96165 0.0349,0.95197 0.0349,0.94187 0.0347,0.93134 0.0349,0.92044 0.0349,0.90914 0.0349,0.89743 0.0696,1.75828 0.0696,1.7071 0.0696,1.65321 0.0696,1.59671 0.0696,1.5378 0.0696,1.47664 0.0697,1.41345 0.0696,1.34837 0.0696,1.2816 0.0696,1.21331 0.0696,1.14369 0.0696,1.07296 0.0696,1.0013 0.0697,0.92887 0.13932,1.63852"
       stroke-opacity="0.8"
       stroke-linecap="round"
       stroke-linejoin="round"
       stroke-miterlimit="10"
       stroke-width="1.4616"
       id="path4484"
       style="stroke:#ff9955;stroke-width:0.494567;stroke-miterlimit:10;stroke-dasharray:none"
       sodipodi:nodetypes="ccccccccccccccccccccccccccccccccccccccccccccccccccccccccccccccccccccccccccccccccccccccccccccccccccccccccccccccccccccccccccccccccccccccccccccccccccccccccccccccccccccccccccc" />
    <path
       fill="none"
       stroke="#616161"
       paint-order="fill stroke markers"
       d="m 176.19658,184.72088 0.13933,-1.65625 0.0696,-0.93767 0.0696,-1.01001 0.0696,-1.08157 0.0696,-1.15218 0.0696,-1.22164 0.0696,-1.28976 0.0696,-1.35632 0.0696,-1.42122 0.0696,-1.48415 0.0696,-1.54506 0.0696,-1.60367 0.0696,-1.65986 0.0696,-1.71345 0.0696,-1.76428 0.0349,-0.9003 0.0349,-0.91191 0.0349,-0.92311 0.0347,-0.93393 0.0349,-0.94435 0.0349,-0.95434 0.0349,-0.96391 0.0349,-0.97307 0.0349,-0.98176 0.0347,-0.99005 0.0349,-0.99784 0.0349,-1.00518 0.0349,-1.01207 0.0349,-1.0185 0.0349,-1.0244 0.0347,-1.02986 0.0349,-1.03482 0.0349,-1.03926 0.0349,-1.04323 0.0349,-1.0467 0.0349,-1.04963 0.0347,-1.05207 0.0349,-1.05398 0.0349,-1.05537 0.0349,-1.05622 0.0349,-1.05658 0.0349,-1.05639 0.0347,-1.05567 0.0349,-1.05443 0.0349,-1.05262 0.0349,-1.05032 0.0349,-1.04743 0.0349,-1.04409 0.0347,-1.04012 0.0349,-1.03566 0.0349,-1.03065 0.0349,-1.02513 0.0349,-1.01903 0.0349,-1.01245 0.0347,-1.0053 0.0349,-0.99765 0.0349,-0.98947 0.0349,-0.98074 0.0349,-0.97153 0.0349,-0.96178 0.0347,-0.95152 0.0349,-0.94077 0.0349,-0.9295 0.0349,-0.91774 0.0349,-0.90547 0.0349,-0.89276 0.0347,-0.87953 0.0696,-1.71749 0.0696,-1.65903 0.0697,-1.59692 0.0696,-1.5314 0.0696,-1.46249 0.0696,-1.39038 0.0696,-1.31526 0.0696,-1.23719 0.0696,-1.156433 0.0697,-1.073111 0.0696,-0.987416 0.0696,-0.899535 0.13932,-1.527636 0.13932,-1.154754 0.13933,-0.771587 0.0696,-0.239818 0.0696,-0.141717 0.0696,-0.04328 0.0696,0.05522 0.0696,0.15361 0.0696,0.251655 0.13933,0.794992 0.13932,1.177634 0.13933,1.549793 0.0696,0.910271 0.0696,0.997918 0.0696,1.083322 0.0696,1.166332 0.0696,1.2468 0.0696,1.32449 0.0696,1.39928 0.0696,1.47099 0.0696,1.53949 0.0696,1.60465 0.0696,1.66629 0.0696,1.72432 0.0347,0.88277 0.0349,0.89589 0.0349,0.90849 0.0349,0.92063 0.0349,0.93226 0.0349,0.94342 0.0347,0.95404 0.0349,0.96419 0.0349,0.97381 0.0349,0.98289 0.0349,0.9915 0.0349,0.99956 0.0347,1.00708 0.0349,1.01408 0.0349,1.02055 0.0349,1.02651 0.0349,1.03193 0.0349,1.03679 0.0347,1.04113 0.0349,1.04492 0.0349,1.0482 0.0349,1.05093 0.0349,1.05311 0.0349,1.05477 0.0347,1.05589 0.0349,1.05648 0.0349,1.05655 0.0349,1.05608 0.0349,1.05507 0.0349,1.05355 0.0347,1.05154 0.0349,1.04896 0.0349,1.0459 0.0349,1.04231 0.0349,1.03825 0.0349,1.03365 0.0347,1.02859 0.0349,1.02303 0.0349,1.01697 0.0349,1.01046 0.0349,1.00345 0.0349,0.996 0.0347,0.98807 0.0349,0.97971 0.0349,0.97087 0.0349,0.96165 0.0349,0.95197 0.0349,0.94187 0.0347,0.93134 0.0349,0.92044 0.0349,0.90914 0.0349,0.89743 0.0696,1.75828 0.0696,1.7071 0.0696,1.65321 0.0696,1.59671 0.0696,1.5378 0.0696,1.47664 0.0697,1.41345 0.0696,1.34837 0.0696,1.2816 0.0696,1.21331 0.0696,1.14368 0.0696,1.07297 0.0696,1.0013 0.0697,0.92887 0.13932,1.63852"
       stroke-opacity="0.8"
       stroke-linecap="round"
       stroke-linejoin="round"
       stroke-miterlimit="10"
       stroke-width="1.4616"
       id="path4486"
       style="stroke:#ff9955;stroke-width:0.494567;stroke-miterlimit:10;stroke-dasharray:none"
       sodipodi:nodetypes="ccccccccccccccccccccccccccccccccccccccccccccccccccccccccccccccccccccccccccccccccccccccccccccccccccccccccccccccccccccccccccccccccccccccccccccccccccccccccccccccccccccccccccc" />
    <g
       aria-label="..."
       id="text4490"
       style="font-size:13.1353px;line-height:1.25;font-family:'Times New Roman';-inkscape-font-specification:'Times New Roman, ';text-align:start;word-spacing:0px;text-anchor:start;fill:#ff7f2a;stroke:none;stroke-width:0.938235"
       transform="translate(1.9609056)">
      <path
         d="m 197.45518,142.16449 q 0.30144,0 0.50668,0.21165 0.20524,0.20524 0.20524,0.50027 0,0.29503 -0.21165,0.50669 -0.20524,0.20524 -0.50027,0.20524 -0.29504,0 -0.50669,-0.20524 -0.20524,-0.21166 -0.20524,-0.50669 0,-0.30144 0.20524,-0.50668 0.21165,-0.20524 0.50669,-0.20524 z"
         style="text-align:start;text-anchor:start;fill:#ff7f2a;stroke:none;stroke-width:0.938235"
         id="path1116" />
      <path
         d="m 200.739,142.16449 q 0.30145,0 0.50668,0.21165 0.20524,0.20524 0.20524,0.50027 0,0.29503 -0.21165,0.50669 -0.20524,0.20524 -0.50027,0.20524 -0.29503,0 -0.50668,-0.20524 -0.20524,-0.21166 -0.20524,-0.50669 0,-0.30144 0.20524,-0.50668 0.21165,-0.20524 0.50668,-0.20524 z"
         style="text-align:start;text-anchor:start;fill:#ff7f2a;stroke:none;stroke-width:0.938235"
         id="path1118" />
      <path
         d="m 204.02283,142.16449 q 0.30144,0 0.50668,0.21165 0.20524,0.20524 0.20524,0.50027 0,0.29503 -0.21165,0.50669 -0.20524,0.20524 -0.50027,0.20524 -0.29504,0 -0.50669,-0.20524 -0.20524,-0.21166 -0.20524,-0.50669 0,-0.30144 0.20524,-0.50668 0.21165,-0.20524 0.50669,-0.20524 z"
         style="text-align:start;text-anchor:start;fill:#ff7f2a;stroke:none;stroke-width:0.938235"
         id="path1120" />
    </g>
    <path
       style="fill:none;stroke:#000000;stroke-width:0.661458;stroke-linecap:butt;stroke-linejoin:miter;stroke-miterlimit:4;stroke-dasharray:none;stroke-opacity:1;marker-start:url(#Arrow2Lstart)"
       d="m 255.70136,186.16595 c -1.60179,3.85135 -3.20349,7.70249 -5.21171,11.65762 -2.00821,3.95514 -4.42274,8.01394 -1.95059,9.83273 2.47215,1.8188 9.8305,1.39747 17.1888,0.97614"
       id="path4492"
       inkscape:path-effect="#path-effect4494"
       inkscape:original-d="m 255.70136,186.16595 c -1.60147,3.85148 -3.20317,7.70262 -4.8052,11.55364 -2.41441,4.0593 -4.82894,8.1181 -7.24388,12.17688 7.35895,-0.42109 14.7173,-0.84242 22.07558,-1.26403"
       sodipodi:nodetypes="cccc" />
    <path
       id="path835"
       style="opacity:1;fill:none;fill-opacity:0.974747;stroke:#0044aa;stroke-width:2.64583334;stroke-linecap:butt;stroke-linejoin:miter;stroke-miterlimit:4;stroke-dasharray:none;stroke-opacity:1"
       d="M 429.05484,184.04927 H 351.46026 V 92.346573 h -95.22973 v 91.702697 m -172.824318,0 H 161.00081 V 92.346573 h 95.22972 v 91.702697" />
    <text
       xml:space="preserve"
       style="font-size:11.8139px;line-height:1.25;font-family:'Times New Roman';-inkscape-font-specification:'Times New Roman, ';text-align:start;word-spacing:0px;text-anchor:start;stroke-width:0.843846"
       x="273.20218"
       y="212.79774"
       id="text5216"><tspan
         sodipodi:role="line"
         id="tspan5214"
         x="273.20218"
         y="212.79774"
         style="text-align:start;text-anchor:start;stroke-width:0.843846">Centremost Carrier</tspan></text>
    <text
       xml:space="preserve"
       style="font-size:8.8769px;line-height:1.25;font-family:'Times New Roman';-inkscape-font-specification:'Times New Roman, ';text-align:end;word-spacing:0px;text-anchor:end;stroke-width:0.634063"
       x="124.084"
       y="117.90918"
       id="text5232"><tspan
         sodipodi:role="line"
         id="tspan5230"
         x="124.084"
         y="117.90918"
         style="text-align:end;text-anchor:end;stroke-width:0.634063">OFDM</tspan><tspan
         sodipodi:role="line"
         x="124.084"
         y="129.00531"
         style="text-align:end;text-anchor:end;stroke-width:0.634063"
         id="tspan5234">sub-carriers</tspan></text>
    <path
       style="fill:none;stroke:#000000;stroke-width:0.661458;stroke-linecap:butt;stroke-linejoin:miter;stroke-miterlimit:4;stroke-dasharray:none;stroke-opacity:1;marker-start:url(#marker4870)"
       d="m 170.73672,118.85981 c -9.73882,-2.98853 -19.47692,-5.97684 -22.21139,-4.73824 -2.73448,1.2386 1.53448,6.70394 -0.64632,8.64436 -2.1808,1.94043 -10.81101,0.35562 -19.44095,-1.22914"
       id="path4864"
       inkscape:path-effect="#path-effect4866"
       inkscape:original-d="m 170.73672,118.85981 c -9.73887,-2.98836 -19.47697,-5.97667 -29.21496,-8.96514 4.26912,5.46548 8.53808,10.93081 12.80736,16.39663 -8.63095,-1.58473 -17.26116,-3.16954 -25.89106,-4.75451"
       sodipodi:nodetypes="cccc" />
    <g
       id="g2144"
       transform="matrix(0.49410214,0,0,0.49410214,363.66803,80.029289)">
      <path
         style="fill:none;stroke:#000000;stroke-width:1px;stroke-linecap:butt;stroke-linejoin:miter;stroke-opacity:1;marker-end:url(#marker1397)"
         d="M 52.670692,105.85274 V 55.738887"
         id="path1079" />
      <path
         style="fill:none;stroke:#000000;stroke-width:1px;stroke-linecap:butt;stroke-linejoin:miter;stroke-opacity:1;marker-end:url(#marker1387)"
         d="M 52.670692,105.85274 H 102.78455"
         id="path1079-8" />
    </g>
    <text
       xml:space="preserve"
       style="font-size:8.08647px;line-height:1.25;font-family:'Times New Roman';-inkscape-font-specification:'Times New Roman, ';text-align:start;word-spacing:0px;text-anchor:start;stroke-width:0.0808647"
       x="423.43011"
       y="135.064"
       id="text1522"><tspan
         sodipodi:role="line"
         id="tspan1520"
         x="423.43011"
         y="135.064"
         style="text-align:start;text-anchor:start;stroke-width:0.0808647">$\omega$</tspan></text>
    <text
       xml:space="preserve"
       style="font-size:2.35993px;line-height:1.25;font-family:'Times New Roman';-inkscape-font-specification:'Times New Roman, ';text-align:center;word-spacing:0px;text-anchor:middle;stroke-width:0.168566"
       x="167.87854"
       y="217.82449"
       id="text1149"><tspan
         sodipodi:role="line"
         id="tspan1147"
         x="167.87854"
         y="217.82449"
         style="stroke-width:0.168566">$\Delta\omega$</tspan></text>
    <path
       style="fill:none;stroke:#000000;stroke-width:0.661458;stroke-linecap:butt;stroke-linejoin:miter;stroke-miterlimit:4;stroke-dasharray:none;stroke-opacity:1"
       d="m 165.95114,187.39066 v 16.84416"
       id="path1193"
       sodipodi:nodetypes="cc" />
    <path
       style="fill:none;stroke:#000000;stroke-width:0.661458;stroke-linecap:butt;stroke-linejoin:miter;stroke-miterlimit:4;stroke-dasharray:none;stroke-opacity:1"
       d="m 169.50501,187.39066 v 16.84416"
       id="path1195"
       sodipodi:nodetypes="cc" />
    <path
       style="fill:none;stroke:#000000;stroke-width:0.661458;stroke-linecap:butt;stroke-linejoin:miter;stroke-miterlimit:4;stroke-dasharray:none;stroke-opacity:1;marker-end:url(#Arrow2Lend)"
       d="m 189.10209,200.15614 h -18.3421"
       id="path1295"
       sodipodi:nodetypes="cc" />
    <path
       style="fill:none;stroke:#000000;stroke-width:0.661458;stroke-linecap:butt;stroke-linejoin:miter;stroke-miterlimit:4;stroke-dasharray:none;stroke-opacity:1;marker-end:url(#marker1731)"
       d="m 146.35867,200.15614 h 18.3421"
       id="path1727"
       sodipodi:nodetypes="cc" />
    <text
       xml:space="preserve"
       style="font-size:8.08647px;line-height:1.25;font-family:'Times New Roman';-inkscape-font-specification:'Times New Roman, ';text-align:start;word-spacing:0px;text-anchor:start;stroke-width:0.0808647"
       x="380.94562"
       y="101.78632"
       id="text1875"><tspan
         sodipodi:role="line"
         id="tspan1873"
         x="380.94562"
         y="101.78632"
         style="text-align:start;text-anchor:start;stroke-width:0.0808647">$|F(\omega)|$</tspan></text>
  </g>
</svg>
