<?xml version="1.0" encoding="UTF-8" standalone="no"?>
<svg
   xmlns:dc="http://purl.org/dc/elements/1.1/"
   xmlns:cc="http://creativecommons.org/ns#"
   xmlns:rdf="http://www.w3.org/1999/02/22-rdf-syntax-ns#"
   xmlns:svg="http://www.w3.org/2000/svg"
   xmlns="http://www.w3.org/2000/svg"
   xmlns:sodipodi="http://sodipodi.sourceforge.net/DTD/sodipodi-0.dtd"
   xmlns:inkscape="http://www.inkscape.org/namespaces/inkscape"
   width="1920"
   height="1080"
   viewBox="0 0 508 285.75"
   version="1.1"
   id="svg8"
   inkscape:version="1.0.1 (c497b03c, 2020-09-10)"
   sodipodi:docname="Elliptic_Curve.svg">
  <defs
     id="defs2">
    <inkscape:path-effect
       effect="powerclip"
       id="path-effect1854"
       is_visible="true"
       lpeversion="1"
       inverse="true"
       flatten="false"
       hide_clip="false"
       message="Use fill-rule evenodd on &lt;b&gt;fill and stroke&lt;/b&gt; dialog if no flatten result after convert clip to paths." />
    <inkscape:path-effect
       effect="powerclip"
       id="path-effect1850"
       is_visible="true"
       lpeversion="1"
       inverse="true"
       flatten="false"
       hide_clip="false"
       message="Use fill-rule evenodd on &lt;b&gt;fill and stroke&lt;/b&gt; dialog if no flatten result after convert clip to paths." />
    <inkscape:path-effect
       effect="powerclip"
       id="path-effect1846"
       is_visible="true"
       lpeversion="1"
       inverse="true"
       flatten="false"
       hide_clip="false"
       message="Use fill-rule evenodd on &lt;b&gt;fill and stroke&lt;/b&gt; dialog if no flatten result after convert clip to paths." />
    <inkscape:path-effect
       effect="powerclip"
       id="path-effect1842"
       is_visible="true"
       lpeversion="1"
       inverse="true"
       flatten="false"
       hide_clip="false"
       message="Use fill-rule evenodd on &lt;b&gt;fill and stroke&lt;/b&gt; dialog if no flatten result after convert clip to paths." />
    <inkscape:path-effect
       effect="powerclip"
       id="path-effect1838"
       is_visible="true"
       lpeversion="1"
       inverse="true"
       flatten="false"
       hide_clip="false"
       message="Use fill-rule evenodd on &lt;b&gt;fill and stroke&lt;/b&gt; dialog if no flatten result after convert clip to paths." />
    <inkscape:path-effect
       effect="powerclip"
       id="path-effect1834"
       is_visible="true"
       lpeversion="1"
       inverse="true"
       flatten="false"
       hide_clip="false"
       message="Use fill-rule evenodd on &lt;b&gt;fill and stroke&lt;/b&gt; dialog if no flatten result after convert clip to paths." />
    <inkscape:path-effect
       effect="powerclip"
       id="path-effect1830"
       is_visible="true"
       lpeversion="1"
       inverse="true"
       flatten="false"
       hide_clip="false"
       message="Use fill-rule evenodd on &lt;b&gt;fill and stroke&lt;/b&gt; dialog if no flatten result after convert clip to paths." />
    <inkscape:path-effect
       effect="powerclip"
       id="path-effect1826"
       is_visible="true"
       lpeversion="1"
       inverse="true"
       flatten="false"
       hide_clip="false"
       message="Use fill-rule evenodd on &lt;b&gt;fill and stroke&lt;/b&gt; dialog if no flatten result after convert clip to paths." />
    <g
       id="id-351d3faa-cf60-465d-8ee2-556c4241783a-5">
      <symbol
         overflow="visible"
         id="id-e30d3825-70a6-473e-805a-0406819a3e19-7">
        <path
           style="stroke:none"
           d=""
           id="id-3dda4161-3b91-448f-8f1c-ea8db4719fcd-2" />
      </symbol>
      <symbol
         overflow="visible"
         id="id-7c54cac5-ecab-4686-932b-85cb452b3bfa-9">
        <path
           style="stroke:none"
           d="M 3.328125,-3.015625 C 3.390625,-3.265625 3.625,-4.1875 4.3125,-4.1875 c 0.046875,0 0.296875,0 0.5,0.125 C 4.53125,-4 4.34375,-3.765625 4.34375,-3.515625 c 0,0.15625 0.109375,0.34375 0.375,0.34375 0.21875,0 0.53125,-0.171875 0.53125,-0.578125 0,-0.515625 -0.578125,-0.65625 -0.921875,-0.65625 -0.578125,0 -0.921875,0.53125 -1.046875,0.75 -0.25,-0.65625 -0.78125,-0.75 -1.078125,-0.75 -1.03125,0 -1.609375,1.28125 -1.609375,1.53125 0,0.109375 0.109375,0.109375 0.125,0.109375 0.078125,0 0.109375,-0.03125 0.125,-0.109375 0.34375,-1.0625 1,-1.3125 1.34375,-1.3125 0.1875,0 0.53125,0.09375 0.53125,0.671875 0,0.3125 -0.171875,0.96875 -0.53125,2.375 -0.15625,0.609375 -0.515625,1.03125 -0.953125,1.03125 -0.0625,0 -0.28125,0 -0.5,-0.125 0.25,-0.0625 0.46875,-0.265625 0.46875,-0.546875 0,-0.265625 -0.21875,-0.34375 -0.359375,-0.34375 -0.3125,0 -0.546875,0.25 -0.546875,0.578125 0,0.453125 0.484375,0.65625 0.921875,0.65625 0.671875,0 1.03125,-0.703125 1.046875,-0.75 0.125,0.359375 0.484375,0.75 1.078125,0.75 1.03125,0 1.59375,-1.28125 1.59375,-1.53125 0,-0.109375 -0.078125,-0.109375 -0.109375,-0.109375 -0.09375,0 -0.109375,0.046875 -0.140625,0.109375 -0.328125,1.078125 -1,1.3125 -1.3125,1.3125 -0.390625,0 -0.546875,-0.3125 -0.546875,-0.65625 0,-0.21875 0.046875,-0.4375 0.15625,-0.875 z m 0,0"
           id="id-4417960b-a13b-45af-b1eb-f9740257d159-7" />
      </symbol>
      <symbol
         overflow="visible"
         id="id-bf80d24c-9b2e-4340-a8c4-d5528fc068c0-5">
        <path
           style="stroke:none"
           d=""
           id="id-559ac780-6179-451c-947f-b4503c559184-6" />
      </symbol>
      <symbol
         overflow="visible"
         id="id-9f276a96-5a36-4904-b9c3-a668da3a9cd7-5">
        <path
           style="stroke:none"
           d="m 2.328125,-4.4375 c 0,-0.1875 0,-0.1875 -0.203125,-0.1875 -0.453125,0.4375 -1.078125,0.4375 -1.359375,0.4375 v 0.25 c 0.15625,0 0.625,0 1,-0.1875 v 3.546875 c 0,0.234375 0,0.328125 -0.6875,0.328125 H 0.8125 V 0 c 0.125,0 0.984375,-0.03125 1.234375,-0.03125 0.21875,0 1.09375,0.03125 1.25,0.03125 V -0.25 H 3.03125 c -0.703125,0 -0.703125,-0.09375 -0.703125,-0.328125 z m 0,0"
           id="id-95567113-1126-4a32-b637-d7de383f720e-3" />
      </symbol>
    </g>
    <g
       id="id-351d3faa-cf60-465d-8ee2-556c4241783a-8">
      <symbol
         overflow="visible"
         id="id-e30d3825-70a6-473e-805a-0406819a3e19-71">
        <path
           style="stroke:none"
           d=""
           id="id-3dda4161-3b91-448f-8f1c-ea8db4719fcd-5" />
      </symbol>
      <symbol
         overflow="visible"
         id="id-7c54cac5-ecab-4686-932b-85cb452b3bfa-5">
        <path
           style="stroke:none"
           d="M 3.328125,-3.015625 C 3.390625,-3.265625 3.625,-4.1875 4.3125,-4.1875 c 0.046875,0 0.296875,0 0.5,0.125 C 4.53125,-4 4.34375,-3.765625 4.34375,-3.515625 c 0,0.15625 0.109375,0.34375 0.375,0.34375 0.21875,0 0.53125,-0.171875 0.53125,-0.578125 0,-0.515625 -0.578125,-0.65625 -0.921875,-0.65625 -0.578125,0 -0.921875,0.53125 -1.046875,0.75 -0.25,-0.65625 -0.78125,-0.75 -1.078125,-0.75 -1.03125,0 -1.609375,1.28125 -1.609375,1.53125 0,0.109375 0.109375,0.109375 0.125,0.109375 0.078125,0 0.109375,-0.03125 0.125,-0.109375 0.34375,-1.0625 1,-1.3125 1.34375,-1.3125 0.1875,0 0.53125,0.09375 0.53125,0.671875 0,0.3125 -0.171875,0.96875 -0.53125,2.375 -0.15625,0.609375 -0.515625,1.03125 -0.953125,1.03125 -0.0625,0 -0.28125,0 -0.5,-0.125 0.25,-0.0625 0.46875,-0.265625 0.46875,-0.546875 0,-0.265625 -0.21875,-0.34375 -0.359375,-0.34375 -0.3125,0 -0.546875,0.25 -0.546875,0.578125 0,0.453125 0.484375,0.65625 0.921875,0.65625 0.671875,0 1.03125,-0.703125 1.046875,-0.75 0.125,0.359375 0.484375,0.75 1.078125,0.75 1.03125,0 1.59375,-1.28125 1.59375,-1.53125 0,-0.109375 -0.078125,-0.109375 -0.109375,-0.109375 -0.09375,0 -0.109375,0.046875 -0.140625,0.109375 -0.328125,1.078125 -1,1.3125 -1.3125,1.3125 -0.390625,0 -0.546875,-0.3125 -0.546875,-0.65625 0,-0.21875 0.046875,-0.4375 0.15625,-0.875 z m 0,0"
           id="id-4417960b-a13b-45af-b1eb-f9740257d159-8" />
      </symbol>
      <symbol
         overflow="visible"
         id="id-bf80d24c-9b2e-4340-a8c4-d5528fc068c0-56">
        <path
           style="stroke:none"
           d=""
           id="id-559ac780-6179-451c-947f-b4503c559184-7" />
      </symbol>
      <symbol
         overflow="visible"
         id="id-9f276a96-5a36-4904-b9c3-a668da3a9cd7-9">
        <path
           style="stroke:none"
           d="m 2.328125,-4.4375 c 0,-0.1875 0,-0.1875 -0.203125,-0.1875 -0.453125,0.4375 -1.078125,0.4375 -1.359375,0.4375 v 0.25 c 0.15625,0 0.625,0 1,-0.1875 v 3.546875 c 0,0.234375 0,0.328125 -0.6875,0.328125 H 0.8125 V 0 c 0.125,0 0.984375,-0.03125 1.234375,-0.03125 0.21875,0 1.09375,0.03125 1.25,0.03125 V -0.25 H 3.03125 c -0.703125,0 -0.703125,-0.09375 -0.703125,-0.328125 z m 0,0"
           id="id-95567113-1126-4a32-b637-d7de383f720e-4" />
      </symbol>
    </g>
    <g
       id="id-f143f0c5-4272-4ffa-be90-3807e3e3011c-7"
       style="opacity:1;stroke-width:0">
      <symbol
         overflow="visible"
         id="id-70d95ef7-beb4-40ef-93fe-eb000494be30-5"
         style="opacity:1;stroke-width:0">
        <path
           style="opacity:1;stroke:none;stroke-width:0"
           d=""
           id="id-93f05b28-5416-435d-ac74-52a2ef21cef0-3" />
      </symbol>
      <symbol
         overflow="visible"
         id="id-efe9702f-31f0-42d7-97b6-1275649430c4-9"
         style="opacity:1;stroke-width:0">
        <path
           style="opacity:1;stroke:none;stroke-width:0"
           d="m 4.84375,-3.796875 c 0.046875,-0.140625 0.046875,-0.15625 0.046875,-0.234375 0,-0.171875 -0.140625,-0.265625 -0.296875,-0.265625 -0.09375,0 -0.25,0.0625 -0.34375,0.203125 -0.015625,0.0625 -0.109375,0.359375 -0.140625,0.546875 -0.078125,0.25 -0.140625,0.53125 -0.203125,0.796875 l -0.453125,1.796875 c -0.03125,0.140625 -0.46875,0.84375 -1.125,0.84375 -0.5,0 -0.609375,-0.4375 -0.609375,-0.8125 C 1.71875,-1.375 1.890625,-2 2.21875,-2.875 2.375,-3.28125 2.421875,-3.390625 2.421875,-3.59375 c 0,-0.4375 -0.3125,-0.8125 -0.8125,-0.8125 -0.953125,0 -1.3125,1.453125 -1.3125,1.53125 0,0.109375 0.09375,0.109375 0.109375,0.109375 0.109375,0 0.109375,-0.03125 0.15625,-0.1875 0.28125,-0.9375 0.671875,-1.234375 1.015625,-1.234375 0.078125,0 0.25,0 0.25,0.3125 0,0.25 -0.109375,0.515625 -0.171875,0.703125 -0.40625,1.0625 -0.578125,1.625 -0.578125,2.09375 0,0.890625 0.625,1.1875 1.21875,1.1875 0.390625,0 0.71875,-0.171875 1,-0.453125 -0.125,0.515625 -0.25,1.015625 -0.640625,1.546875 -0.265625,0.328125 -0.640625,0.625 -1.09375,0.625 -0.140625,0 -0.59375,-0.03125 -0.765625,-0.421875 0.15625,0 0.296875,0 0.421875,-0.125 C 1.328125,1.203125 1.421875,1.0625 1.421875,0.875 1.421875,0.5625 1.15625,0.53125 1.0625,0.53125 0.828125,0.53125 0.5,0.6875 0.5,1.171875 c 0,0.5 0.4375,0.875 1.0625,0.875 1.015625,0 2.046875,-0.90625 2.328125,-2.03125 z m 0,0"
           id="id-fe64ea99-9d5f-4a12-9ef6-859ad1c89635-0" />
      </symbol>
      <symbol
         overflow="visible"
         id="id-39a37160-8135-4e71-8be1-54ea279e20b1-5"
         style="opacity:1;stroke-width:0">
        <path
           style="opacity:1;stroke:none;stroke-width:0"
           d=""
           id="id-d5d598f1-c6e7-44fc-b2bf-f6ee402cdf17-5" />
      </symbol>
      <symbol
         overflow="visible"
         id="id-03f70219-71a0-4277-a4ea-95e8bb59636a-6"
         style="opacity:1;stroke-width:0">
        <path
           style="opacity:1;stroke:none;stroke-width:0"
           d="m 2.328125,-4.4375 c 0,-0.1875 0,-0.1875 -0.203125,-0.1875 -0.453125,0.4375 -1.078125,0.4375 -1.359375,0.4375 v 0.25 c 0.15625,0 0.625,0 1,-0.1875 v 3.546875 c 0,0.234375 0,0.328125 -0.6875,0.328125 H 0.8125 V 0 c 0.125,0 0.984375,-0.03125 1.234375,-0.03125 0.21875,0 1.09375,0.03125 1.25,0.03125 V -0.25 H 3.03125 c -0.703125,0 -0.703125,-0.09375 -0.703125,-0.328125 z m 0,0"
           id="id-7948d9d1-e356-4a6f-a95d-f0048fe0a516-3" />
      </symbol>
    </g>
  </defs>
  <sodipodi:namedview
     id="base"
     pagecolor="#ffffff"
     bordercolor="#666666"
     borderopacity="1.0"
     inkscape:pageopacity="0"
     inkscape:pageshadow="2"
     inkscape:zoom="0.53692871"
     inkscape:cx="925.73069"
     inkscape:cy="563.77918"
     inkscape:document-units="px"
     inkscape:current-layer="g1038"
     inkscape:document-rotation="0"
     showgrid="false"
     units="px"
     inkscape:showpageshadow="false"
     inkscape:window-width="1600"
     inkscape:window-height="900"
     inkscape:window-x="1280"
     inkscape:window-y="0"
     inkscape:window-maximized="0"
     inkscape:pagecheckerboard="false"
     borderlayer="false" />
  <metadata
     id="metadata5">
    <rdf:RDF>
      <cc:Work
         rdf:about="">
        <dc:format>image/svg+xml</dc:format>
        <dc:type
           rdf:resource="http://purl.org/dc/dcmitype/StillImage" />
        <dc:title></dc:title>
      </cc:Work>
    </rdf:RDF>
  </metadata>
  <g
     inkscape:label="Layer 1"
     inkscape:groupmode="layer"
     id="layer1">
    <circle
       id="path130"
       style="fill:#000000;stroke:#000000;stroke-width:0.264583"
       cx="45.851349"
       cy="240.34169"
       r="0" />
    <g
       clip-path="none"
       id="g1040"
       transform="matrix(0.26458333,0,0,0.26458333,142.28106,53.755476)"
       style="display:inline;fill:none">
      <g
         id="g1038"
         transform="translate(129.83937,88.526844)"
         style="opacity:1;fill:none">
        <path
           fill="none"
           stroke="#000000"
           paint-order="fill stroke markers"
           d="m 1096.7088,213.12097 c 0,-236.073944 -353.35363,-427.4497 -789.2374,-427.4497 -435.88378,0 -789.23744,191.375756 -789.23744,427.4497 0,236.07395 353.35366,427.44968 789.23744,427.44968 435.88377,0 789.2374,-191.37573 789.2374,-427.44968 z"
           stroke-opacity="0.698039"
           stroke-linejoin="round"
           stroke-miterlimit="10"
           stroke-width="0.934241"
           stroke-dasharray="4.25592, 5.1071"
           id="path1010"
           style="fill:none"
           mask="none"
           clip-path="none" />
        <path
           fill="none"
           stroke="#000000"
           paint-order="fill stroke markers"
           d="M -355.99108,213.12097 698.6384,-158.13436"
           stroke-opacity="0.698039"
           stroke-linecap="round"
           stroke-linejoin="round"
           stroke-miterlimit="10"
           stroke-width="2.36883"
           id="path1012"
           style="fill:none"
           mask="none"
           clip-path="none" />
        <path
           fill="none"
           stroke="#000000"
           paint-order="fill stroke markers"
           d="M -355.99108,213.12097 304.28148,640.56716"
           stroke-opacity="0.698039"
           stroke-linecap="round"
           stroke-linejoin="round"
           stroke-miterlimit="10"
           stroke-width="2.36883"
           id="path1016"
           style="fill:none"
           mask="none"
           clip-path="none" />
        <path
           fill="none"
           stroke="#000000"
           paint-order="fill stroke markers"
           d="M 970.93395,213.12097 304.28148,640.56716"
           stroke-opacity="0.698039"
           stroke-linecap="round"
           stroke-linejoin="round"
           stroke-miterlimit="10"
           stroke-width="2.36883"
           id="path1018"
           style="fill:none"
           mask="none"
           clip-path="none" />
        <path
           fill="none"
           stroke="#616161"
           paint-order="fill stroke markers"
           d="M -355.99108,213.12097 H 970.93395"
           stroke-opacity="0.698039"
           stroke-linejoin="round"
           stroke-miterlimit="10"
           stroke-width="2.36883"
           stroke-dasharray="2.08144, 3.12216"
           id="path1020"
           style="fill:none"
           mask="none"
           clip-path="none" />
        <path
           fill="#616161"
           stroke="none"
           paint-order="stroke fill markers"
           d="m -346.51582,213.12097 c 0,5.23303 -4.24222,9.47526 -9.47526,9.47526 -5.23305,0 -9.47526,-4.24223 -9.47526,-9.47526 0,-5.23305 4.24221,-9.47527 9.47526,-9.47527 5.23304,0 9.47526,4.24222 9.47526,9.47527 z"
           fill-opacity="1"
           id="path1022"
           style="fill:none;stroke-width:2.36883"
           mask="none"
           clip-path="none" />
        <path
           fill="#1565c0"
           stroke="none"
           paint-order="stroke fill markers"
           d="m 316.12557,640.56716 c 0,6.54132 -5.30279,11.84409 -11.84409,11.84409 -6.54132,0 -11.84409,-5.30277 -11.84409,-11.84409 0,-6.54131 5.30277,-11.84407 11.84409,-11.84407 6.5413,0 11.84409,5.30276 11.84409,11.84407 z"
           fill-opacity="1"
           id="path1034"
           style="fill:none;stroke-width:2.36883"
           mask="none"
           clip-path="none" />
        <path
           fill="none"
           stroke="#000000"
           paint-order="fill stroke markers"
           d="m 316.12557,640.56719 c 0,6.54133 -5.30279,11.84402 -11.84409,11.84402 -6.54132,0 -11.84409,-5.30269 -11.84409,-11.84402 0,-6.54129 5.30277,-11.84413 11.84409,-11.84413 6.5413,0 11.84409,5.30284 11.84409,11.84413 z"
           stroke-opacity="1"
           stroke-linecap="round"
           stroke-linejoin="round"
           stroke-miterlimit="10"
           id="path1824"
           style="display:block;fill:#008000;stroke:none;stroke-width:2.36883"
           mask="none" />
        <path
           fill="none"
           stroke="#000000"
           paint-order="fill stroke markers"
           d="M 970.93395,213.12097 698.6384,-158.13436"
           stroke-opacity="0.698039"
           stroke-linecap="round"
           stroke-linejoin="round"
           stroke-miterlimit="10"
           stroke-width="2.36883"
           id="path1012-6"
           style="display:inline;opacity:1;fill:none"
           mask="none"
           clip-path="none"
           sodipodi:nodetypes="cc" />
        <path
           fill="none"
           stroke="#000000"
           paint-order="fill stroke markers"
           d="m 980.22184,213.00341 c 0,5.23303 -4.24222,9.47526 -9.47524,9.47526 -5.23313,0 -9.47526,-4.24223 -9.47526,-9.47526 0,-5.23305 4.24213,-9.47528 9.47526,-9.47528 5.23302,0 9.47524,4.24223 9.47524,9.47528 z"
           stroke-opacity="1"
           stroke-linecap="round"
           stroke-linejoin="round"
           stroke-miterlimit="10"
           id="path1024-9"
           style="display:inline;opacity:1;fill:#800000;stroke:none;stroke-width:2.36883"
           mask="none"
           clip-path="none" />
        <path
           fill="none"
           stroke="#000000"
           paint-order="fill stroke markers"
           d="m 708.51759,-157.71754 c 0,6.54132 -5.30279,11.84401 -11.84408,11.84401 -6.54133,0 -11.84409,-5.30269 -11.84409,-11.84401 0,-6.5413 5.30276,-11.84413 11.84409,-11.84413 6.54129,0 11.84408,5.30283 11.84408,11.84413 z"
           stroke-opacity="1"
           stroke-linecap="round"
           stroke-linejoin="round"
           stroke-miterlimit="10"
           id="path1824-6"
           style="display:block;opacity:1;fill:#008000;stroke:none;stroke-width:2.36883"
           mask="none" />
        <path
           fill="none"
           stroke="#000000"
           paint-order="fill stroke markers"
           d="m -346.51582,213.12097 c 0,5.23303 -4.24222,9.47526 -9.47526,9.47526 -5.23305,0 -9.47526,-4.24223 -9.47526,-9.47526 0,-5.23305 4.24221,-9.47527 9.47526,-9.47527 5.23304,0 9.47526,4.24222 9.47526,9.47527 z"
           stroke-opacity="1"
           stroke-linecap="round"
           stroke-linejoin="round"
           stroke-miterlimit="10"
           id="path1024"
           style="fill:#000080;stroke:none;stroke-width:2.36883"
           mask="none"
           clip-path="none" />
        <text
           xml:space="preserve"
           style="font-size:53.66340000000000288px;line-height:1.25;font-family:'Andale Mono';-inkscape-font-specification:'Andale Mono';word-spacing:0px;stroke-width:1.34158;text-anchor:middle;text-align:center;"
           x="390.7901"
           y="197.80444"
           id="text100"><tspan
             sodipodi:role="line"
             id="tspan98"
             x="209.55821"
             y="197.80444"
             style="font-style:normal;font-variant:normal;font-weight:normal;font-stretch:normal;font-family:'Times New Roman';-inkscape-font-specification:'Times New Roman, ';fill:#000000;stroke-width:1.34158;text-anchor:middle;text-align:center;">Bistatic Distance</tspan></text>
        <text
           xml:space="preserve"
           style="font-size:46.2282px;line-height:1.25;font-family:'Andale Mono';-inkscape-font-specification:'Andale Mono';text-align:center;word-spacing:0px;text-anchor:middle;display:inline;opacity:1;fill:#000080;stroke-width:1.15571"
           x="-401.34485"
           y="268.78946"
           id="text100-3"><tspan
             sodipodi:role="line"
             id="tspan98-6"
             x="-401.34485"
             y="268.78946"
             style="font-style:normal;font-variant:normal;font-weight:normal;font-stretch:normal;font-family:'Times New Roman';-inkscape-font-specification:'Times New Roman, ';text-align:center;text-anchor:middle;fill:#000080;stroke-width:1.15571">TX</tspan></text>
        <text
           xml:space="preserve"
           style="font-size:37.0249px;line-height:1.25;font-family:'Andale Mono';-inkscape-font-specification:'Andale Mono';text-align:center;word-spacing:0px;text-anchor:middle;fill:#000000;fill-opacity:1;stroke-width:0.926;stroke-miterlimit:4;stroke-dasharray:none"
           x="-194.54501"
           y="-229.88591"
           id="text140"
           transform="rotate(-30)"><tspan
             sodipodi:role="line"
             id="tspan138"
             x="-194.54501"
             y="-229.88591"
             style="font-style:normal;font-variant:normal;font-weight:normal;font-stretch:normal;font-family:'Times New Roman';-inkscape-font-specification:'Times New Roman, ';text-align:center;text-anchor:middle;fill:#000000;fill-opacity:1;stroke-width:0.926;stroke-miterlimit:4;stroke-dasharray:none">Elliptic Trace</tspan></text>
        <text
           xml:space="preserve"
           style="font-size:32.2637px;line-height:1.25;font-family:'Times New Roman';-inkscape-font-specification:'Times New Roman, ';word-spacing:0px;stroke-width:0.806592"
           x="744.07568"
           y="-188.03209"
           id="text144"><tspan
             sodipodi:role="line"
             id="tspan142"
             x="744.07568"
             y="-188.03209"
             style="fill:#000000;stroke-width:0.806592">Possible Target 1</tspan></text>
        <text
           xml:space="preserve"
           style="font-size:37.0249px;line-height:1.25;font-family:'Times New Roman';-inkscape-font-specification:'Times New Roman, ';word-spacing:0px;stroke-width:0.925623"
           x="-4.8288937"
           y="6.4624176"
           id="text166"><tspan
             sodipodi:role="line"
             id="tspan164"
             x="-4.8288937"
             y="6.4624176"
             style="stroke-width:0.925623" /></text>
        <text
           xml:space="preserve"
           style="font-size:35.6217px;line-height:1.25;font-family:'Times New Roman';-inkscape-font-specification:'Times New Roman, ';text-align:center;word-spacing:0px;text-anchor:middle;display:inline;opacity:1;fill:none;stroke-width:0.89054"
           x="304.1416"
           y="721.76953"
           id="text144-4"><tspan
             sodipodi:role="line"
             id="tspan142-5"
             x="304.1416"
             y="721.76953"
             style="text-align:center;text-anchor:middle;fill:#000000;stroke-width:0.89054">Possible Target 2</tspan></text>
        <text
           xml:space="preserve"
           style="font-size:46.22820000000000107px;line-height:1.25;font-family:'Andale Mono';-inkscape-font-specification:'Andale Mono';word-spacing:0px;display:inline;opacity:1;fill:#800000;stroke-width:1.15571;text-anchor:middle;text-align:center;"
           x="1023.0143"
           y="256.69608"
           id="text100-3-7"><tspan
             sodipodi:role="line"
             id="tspan98-6-5"
             x="991.5484"
             y="256.69608"
             style="font-style:normal;font-variant:normal;font-weight:normal;font-stretch:normal;font-family:'Times New Roman';-inkscape-font-specification:'Times New Roman, ';fill:#800000;stroke-width:1.15571;text-anchor:middle;text-align:center;">RX</tspan></text>
        <text
           xml:space="preserve"
           style="font-size:100px;line-height:1.25;font-family:'Times New Roman';-inkscape-font-specification:'Times New Roman, ';text-align:end;word-spacing:0px;text-anchor:end"
           x="2.8854816"
           y="876.05566"
           id="text152"><tspan
             sodipodi:role="line"
             id="tspan150"
             x="2.8854816"
             y="876.05566" /></text>
        <text
           xml:space="preserve"
           style="font-size:47.9411px;line-height:1.25;font-family:'Times New Roman';-inkscape-font-specification:'Times New Roman, ';text-align:center;word-spacing:0px;text-anchor:middle;fill:#000000;stroke-width:0.479411"
           x="165.2608"
           y="-21.581959"
           id="text156"><tspan
             sodipodi:role="line"
             id="tspan154"
             x="165.2608"
             y="-21.581959"
             style="stroke-width:0.479411">$x_1$</tspan></text>
        <text
           xml:space="preserve"
           style="font-size:47.9411px;line-height:1.25;font-family:'Times New Roman';-inkscape-font-specification:'Times New Roman, ';text-align:center;word-spacing:0px;text-anchor:middle;fill:#000000;stroke-width:0.479411"
           x="915.82599"
           y="54.778271"
           id="text160"><tspan
             sodipodi:role="line"
             id="tspan158"
             x="915.82599"
             y="54.778271"
             style="stroke-width:0.479411">$x_2$</tspan></text>
        <text
           xml:space="preserve"
           style="font-size:47.9411px;line-height:1.25;font-family:'Times New Roman';-inkscape-font-specification:'Times New Roman, ';text-align:center;word-spacing:0px;text-anchor:middle;fill:#000000;stroke-width:0.479411"
           x="731.44397"
           y="451.479"
           id="text164"><tspan
             sodipodi:role="line"
             id="tspan162"
             x="731.44397"
             y="451.479"
             style="stroke-width:0.479411">$y_2$</tspan></text>
        <text
           xml:space="preserve"
           style="font-size:47.9411px;line-height:1.25;font-family:'Times New Roman';-inkscape-font-specification:'Times New Roman, ';text-align:center;word-spacing:0px;text-anchor:middle;fill:#000000;stroke-width:0.479411"
           x="-93.619011"
           y="464.51611"
           id="text168"><tspan
             sodipodi:role="line"
             id="tspan166"
             x="-93.619011"
             y="464.51611"
             style="stroke-width:0.479411">$y_1$</tspan></text>
      </g>
    </g>
    <path
       fill="none"
       stroke="none"
       d="M 75.606391,76.876529 H 313.73139 V 255.20569 H 75.606391 Z"
       id="path1003"
       style="stroke-width:0.264583" />
  </g>
</svg>
