<?xml version="1.0" encoding="UTF-8" standalone="no"?>
<svg
   xmlns:ns2="http://www.iki.fi/pav/software/textext/"
   xmlns:dc="http://purl.org/dc/elements/1.1/"
   xmlns:cc="http://creativecommons.org/ns#"
   xmlns:rdf="http://www.w3.org/1999/02/22-rdf-syntax-ns#"
   xmlns:svg="http://www.w3.org/2000/svg"
   xmlns="http://www.w3.org/2000/svg"
   xmlns:sodipodi="http://sodipodi.sourceforge.net/DTD/sodipodi-0.dtd"
   xmlns:inkscape="http://www.inkscape.org/namespaces/inkscape"
   version="1.1"
   width="871.51562"
   height="340.25851"
   id="svg6430"
   sodipodi:docname="ofdm-three-sincs.svg"
   inkscape:version="1.0.1 (c497b03c, 2020-09-10)">
  <metadata
     id="metadata6434">
    <rdf:RDF>
      <cc:Work
         rdf:about="">
        <dc:format>image/svg+xml</dc:format>
        <dc:type
           rdf:resource="http://purl.org/dc/dcmitype/StillImage" />
        <dc:title></dc:title>
      </cc:Work>
    </rdf:RDF>
  </metadata>
  <sodipodi:namedview
     pagecolor="#ffffff"
     bordercolor="#666666"
     borderopacity="1"
     objecttolerance="10"
     gridtolerance="10"
     guidetolerance="10"
     inkscape:pageopacity="0"
     inkscape:pageshadow="2"
     inkscape:window-width="1600"
     inkscape:window-height="875"
     id="namedview6432"
     showgrid="false"
     inkscape:zoom="1.2704408"
     inkscape:cx="396.57702"
     inkscape:cy="143.83905"
     inkscape:window-x="1280"
     inkscape:window-y="25"
     inkscape:window-maximized="0"
     inkscape:current-layer="svg6430"
     inkscape:document-rotation="0" />
  <defs
     id="defs6374">
    <marker
       style="overflow:visible"
       id="marker7351"
       refX="0"
       refY="0"
       orient="auto"
       inkscape:stockid="Arrow1Lstart"
       inkscape:isstock="true">
      <path
         transform="matrix(0.8,0,0,0.8,10,0)"
         style="fill:#000000;fill-opacity:1;fill-rule:evenodd;stroke:#000000;stroke-width:1pt;stroke-opacity:1"
         d="M 0,0 5,-5 -12.5,0 5,5 Z"
         id="path7349" />
    </marker>
    <marker
       style="overflow:visible"
       id="marker7305"
       refX="0"
       refY="0"
       orient="auto"
       inkscape:stockid="Arrow1Lend"
       inkscape:isstock="true">
      <path
         transform="matrix(-0.8,0,0,-0.8,-10,0)"
         style="fill:#000000;fill-opacity:1;fill-rule:evenodd;stroke:#000000;stroke-width:1pt;stroke-opacity:1"
         d="M 0,0 5,-5 -12.5,0 5,5 Z"
         id="path7303" />
    </marker>
    <marker
       style="overflow:visible"
       id="marker7229"
       refX="0"
       refY="0"
       orient="auto"
       inkscape:stockid="Arrow1Lend"
       inkscape:isstock="true"
       inkscape:collect="always">
      <path
         transform="matrix(-0.8,0,0,-0.8,-10,0)"
         style="fill:#008000;fill-opacity:1;fill-rule:evenodd;stroke:#008000;stroke-width:1pt;stroke-opacity:1"
         d="M 0,0 5,-5 -12.5,0 5,5 Z"
         id="path7227" />
    </marker>
    <marker
       style="overflow:visible"
       id="Arrow1Lstart"
       refX="0"
       refY="0"
       orient="auto"
       inkscape:stockid="Arrow1Lstart"
       inkscape:isstock="true">
      <path
         transform="matrix(0.8,0,0,0.8,10,0)"
         style="fill:#008000;fill-opacity:1;fill-rule:evenodd;stroke:#008000;stroke-width:1pt;stroke-opacity:1"
         d="M 0,0 5,-5 -12.5,0 5,5 Z"
         id="path1096" />
    </marker>
    <marker
       style="overflow:visible"
       id="marker7155"
       refX="0"
       refY="0"
       orient="auto"
       inkscape:stockid="Arrow1Lend"
       inkscape:isstock="true">
      <path
         transform="matrix(-0.8,0,0,-0.8,-10,0)"
         style="fill:#000000;fill-opacity:1;fill-rule:evenodd;stroke:#000000;stroke-width:1pt;stroke-opacity:1"
         d="M 0,0 5,-5 -12.5,0 5,5 Z"
         id="path7153" />
    </marker>
    <marker
       style="overflow:visible"
       id="Arrow1Lend"
       refX="0"
       refY="0"
       orient="auto"
       inkscape:stockid="Arrow1Lend"
       inkscape:isstock="true">
      <path
         transform="matrix(-0.8,0,0,-0.8,-10,0)"
         style="fill:#000000;fill-opacity:1;fill-rule:evenodd;stroke:#000000;stroke-width:1pt;stroke-opacity:1"
         d="M 0,0 5,-5 -12.5,0 5,5 Z"
         id="path1099" />
    </marker>
    <marker
       style="overflow:visible"
       id="marker1397"
       refX="0"
       refY="0"
       orient="auto"
       inkscape:stockid="Arrow1Lend"
       inkscape:isstock="true">
      <path
         transform="matrix(-0.8,0,0,-0.8,-10,0)"
         style="fill:#000000;fill-opacity:1;fill-rule:evenodd;stroke:#000000;stroke-width:1pt;stroke-opacity:1"
         d="M 0,0 5,-5 -12.5,0 5,5 Z"
         id="path1395" />
    </marker>
    <marker
       style="overflow:visible"
       id="marker1387"
       refX="0"
       refY="0"
       orient="auto"
       inkscape:stockid="Arrow1Lend"
       inkscape:isstock="true">
      <path
         transform="matrix(-0.8,0,0,-0.8,-10,0)"
         style="fill:#000000;fill-opacity:1;fill-rule:evenodd;stroke:#000000;stroke-width:1pt;stroke-opacity:1"
         d="M 0,0 5,-5 -12.5,0 5,5 Z"
         id="path1385" />
    </marker>
    <g
       id="g5677">
      <symbol
         overflow="visible"
         id="symbol5671">
        <path
           style="stroke:none"
           d=""
           id="path5669" />
      </symbol>
      <symbol
         overflow="visible"
         id="symbol5675">
        <path
           style="stroke:none"
           d="m 6.03125,-3.703125 c 0,-0.453125 -0.171875,-0.703125 -0.40625,-0.703125 -0.25,0 -0.515625,0.234375 -0.515625,0.46875 0,0.09375 0.046875,0.203125 0.140625,0.296875 0.171875,0.15625 0.359375,0.421875 0.359375,0.84375 0,0.390625 -0.203125,0.96875 -0.5,1.421875 C 4.8125,-0.953125 4.4375,-0.609375 3.96875,-0.609375 3.40625,-0.609375 3.09375,-0.96875 3,-1.5 c 0.109375,-0.265625 0.34375,-0.90625 0.34375,-1.1875 0,-0.109375 -0.046875,-0.21875 -0.1875,-0.21875 -0.078125,0 -0.1875,0.03125 -0.265625,0.171875 C 2.78125,-2.53125 2.65625,-1.890625 2.65625,-1.53125 2.328125,-1.0625 1.9375,-0.609375 1.3125,-0.609375 c -0.671875,0 -0.875,-0.59375 -0.875,-1.140625 0,-1.25 1.015625,-2.296875 1.015625,-2.421875 0,-0.109375 -0.078125,-0.1875 -0.1875,-0.1875 -0.125,0 -0.203125,0.125 -0.265625,0.21875 -0.5,0.734375 -0.875,1.921875 -0.875,2.828125 0,0.6875 0.21875,1.421875 1.046875,1.421875 0.703125,0 1.171875,-0.5 1.53125,-1.046875 0.09375,0.578125 0.484375,1.046875 1.09375,1.046875 0.78125,0 1.25,-0.609375 1.609375,-1.359375 0.25,-0.484375 0.625,-1.84375 0.625,-2.453125 z m 0,0"
           id="path5673" />
      </symbol>
    </g>
    <g
       id="g5725">
      <symbol
         overflow="visible"
         id="symbol5687">
        <path
           style="stroke:none"
           d=""
           id="path5685" />
      </symbol>
      <symbol
         overflow="visible"
         id="symbol5691">
        <path
           style="stroke:none"
           d="m 1.578125,-7.125 c 0,-0.171875 0,-0.359375 -0.1875,-0.359375 -0.203125,0 -0.203125,0.1875 -0.203125,0.359375 v 9.265625 c 0,0.171875 0,0.359375 0.203125,0.359375 0.1875,0 0.1875,-0.1875 0.1875,-0.359375 z m 0,0"
           id="path5689" />
      </symbol>
      <symbol
         overflow="visible"
         id="symbol5695">
        <path
           style="stroke:none"
           d=""
           id="path5693" />
      </symbol>
      <symbol
         overflow="visible"
         id="symbol5699">
        <path
           style="stroke:none"
           d="m 3.015625,-3.234375 h 0.96875 c 0.75,0 0.828125,0.15625 0.828125,0.4375 0,0.078125 0,0.1875 -0.0625,0.5 C 4.71875,-2.25 4.71875,-2.21875 4.71875,-2.1875 c 0,0.078125 0.0625,0.109375 0.109375,0.109375 0.109375,0 0.109375,-0.03125 0.15625,-0.203125 L 5.53125,-4.453125 C 5.5625,-4.5625 5.5625,-4.578125 5.5625,-4.609375 5.5625,-4.625 5.546875,-4.71875 5.4375,-4.71875 5.34375,-4.71875 5.328125,-4.671875 5.296875,-4.5 5.078125,-3.734375 4.859375,-3.546875 4,-3.546875 H 3.09375 l 0.640625,-2.53125 C 3.828125,-6.4375 3.84375,-6.46875 4.28125,-6.46875 h 1.3125 c 1.21875,0 1.453125,0.328125 1.453125,1.09375 0,0.234375 0,0.265625 -0.03125,0.546875 C 7,-4.703125 7,-4.6875 7,-4.65625 c 0,0.046875 0.03125,0.125 0.125,0.125 0.109375,0 0.109375,-0.0625 0.125,-0.25 L 7.453125,-6.515625 C 7.484375,-6.78125 7.4375,-6.78125 7.1875,-6.78125 H 2.296875 c -0.1875,0 -0.296875,0 -0.296875,0.203125 0,0.109375 0.09375,0.109375 0.28125,0.109375 0.375,0 0.65625,0 0.65625,0.171875 0,0.046875 0,0.0625 -0.0625,0.25 L 1.5625,-0.78125 c -0.09375,0.390625 -0.109375,0.46875 -0.90625,0.46875 -0.171875,0 -0.28125,0 -0.28125,0.1875 C 0.375,0 0.5,0 0.53125,0 0.8125,0 1.5625,-0.03125 1.84375,-0.03125 2.171875,-0.03125 3,0 3.328125,0 3.421875,0 3.53125,0 3.53125,-0.1875 3.53125,-0.265625 3.484375,-0.296875 3.484375,-0.296875 3.453125,-0.3125 3.421875,-0.3125 3.203125,-0.3125 c -0.21875,0 -0.265625,0 -0.515625,-0.015625 -0.296875,-0.03125 -0.328125,-0.078125 -0.328125,-0.203125 0,-0.015625 0,-0.078125 0.046875,-0.21875 z m 0,0"
           id="path5697" />
      </symbol>
      <symbol
         overflow="visible"
         id="symbol5703">
        <path
           style="stroke:none"
           d="m 6.03125,-3.703125 c 0,-0.453125 -0.171875,-0.703125 -0.40625,-0.703125 -0.25,0 -0.515625,0.234375 -0.515625,0.46875 0,0.09375 0.046875,0.203125 0.140625,0.296875 0.171875,0.15625 0.359375,0.421875 0.359375,0.84375 0,0.390625 -0.203125,0.96875 -0.5,1.421875 C 4.8125,-0.953125 4.4375,-0.609375 3.96875,-0.609375 3.40625,-0.609375 3.09375,-0.96875 3,-1.5 c 0.109375,-0.265625 0.34375,-0.90625 0.34375,-1.1875 0,-0.109375 -0.046875,-0.21875 -0.1875,-0.21875 -0.078125,0 -0.1875,0.03125 -0.265625,0.171875 C 2.78125,-2.53125 2.65625,-1.890625 2.65625,-1.53125 2.328125,-1.0625 1.9375,-0.609375 1.3125,-0.609375 c -0.671875,0 -0.875,-0.59375 -0.875,-1.140625 0,-1.25 1.015625,-2.296875 1.015625,-2.421875 0,-0.109375 -0.078125,-0.1875 -0.1875,-0.1875 -0.125,0 -0.203125,0.125 -0.265625,0.21875 -0.5,0.734375 -0.875,1.921875 -0.875,2.828125 0,0.6875 0.21875,1.421875 1.046875,1.421875 0.703125,0 1.171875,-0.5 1.53125,-1.046875 0.09375,0.578125 0.484375,1.046875 1.09375,1.046875 0.78125,0 1.25,-0.609375 1.609375,-1.359375 0.25,-0.484375 0.625,-1.84375 0.625,-2.453125 z m 0,0"
           id="path5701" />
      </symbol>
      <symbol
         overflow="visible"
         id="symbol5707">
        <path
           style="stroke:none"
           d=""
           id="path5705" />
      </symbol>
      <symbol
         overflow="visible"
         id="symbol5711">
        <path
           style="stroke:none"
           d="m 0.84375,-0.4375 c -0.015625,0.09375 -0.0625,0.265625 -0.0625,0.28125 0,0.15625 0.125,0.21875 0.234375,0.21875 0.125,0 0.234375,-0.078125 0.28125,-0.140625 0.03125,-0.0625 0.078125,-0.296875 0.125,-0.4375 0.03125,-0.125 0.109375,-0.453125 0.140625,-0.625 0.046875,-0.15625 0.09375,-0.3125 0.125,-0.46875 0.078125,-0.28125 0.09375,-0.34375 0.296875,-0.625 C 2.171875,-2.515625 2.5,-2.875 3.03125,-2.875 c 0.390625,0 0.40625,0.359375 0.40625,0.484375 0,0.421875 -0.296875,1.1875 -0.40625,1.484375 -0.078125,0.203125 -0.109375,0.265625 -0.109375,0.375 0,0.375 0.296875,0.59375 0.65625,0.59375 0.703125,0 1,-0.953125 1,-1.0625 0,-0.09375 -0.078125,-0.09375 -0.109375,-0.09375 -0.09375,0 -0.09375,0.046875 -0.125,0.125 C 4.1875,-0.40625 3.875,-0.125 3.609375,-0.125 c -0.15625,0 -0.1875,-0.09375 -0.1875,-0.25 0,-0.15625 0.046875,-0.25 0.171875,-0.5625 0.078125,-0.21875 0.359375,-0.953125 0.359375,-1.34375 0,-0.671875 -0.53125,-0.796875 -0.90625,-0.796875 -0.578125,0 -0.96875,0.359375 -1.171875,0.640625 -0.046875,-0.484375 -0.453125,-0.640625 -0.75,-0.640625 -0.296875,0 -0.453125,0.21875 -0.546875,0.375 -0.15625,0.265625 -0.25,0.65625 -0.25,0.703125 0,0.078125 0.09375,0.078125 0.125,0.078125 0.09375,0 0.09375,-0.015625 0.140625,-0.203125 0.109375,-0.40625 0.25,-0.75 0.515625,-0.75 0.1875,0 0.234375,0.15625 0.234375,0.34375 0,0.125 -0.0625,0.390625 -0.125,0.578125 -0.046875,0.1875 -0.109375,0.46875 -0.140625,0.625 z m 0,0"
           id="path5709" />
      </symbol>
      <symbol
         overflow="visible"
         id="symbol5715">
        <path
           style="stroke:none"
           d=""
           id="path5713" />
      </symbol>
      <symbol
         overflow="visible"
         id="symbol5719">
        <path
           style="stroke:none"
           d="m 3.296875,2.390625 c 0,-0.03125 0,-0.046875 -0.171875,-0.21875 C 1.890625,0.921875 1.5625,-0.96875 1.5625,-2.5 c 0,-1.734375 0.375,-3.46875 1.609375,-4.703125 0.125,-0.125 0.125,-0.140625 0.125,-0.171875 0,-0.078125 -0.03125,-0.109375 -0.09375,-0.109375 -0.109375,0 -1,0.6875 -1.59375,1.953125 -0.5,1.09375 -0.625,2.203125 -0.625,3.03125 0,0.78125 0.109375,1.984375 0.65625,3.125 C 2.25,1.84375 3.09375,2.5 3.203125,2.5 c 0.0625,0 0.09375,-0.03125 0.09375,-0.109375 z m 0,0"
           id="path5717" />
      </symbol>
      <symbol
         overflow="visible"
         id="symbol5723">
        <path
           style="stroke:none"
           d="m 2.875,-2.5 c 0,-0.765625 -0.109375,-1.96875 -0.65625,-3.109375 -0.59375,-1.21875 -1.453125,-1.875 -1.546875,-1.875 -0.0625,0 -0.109375,0.046875 -0.109375,0.109375 0,0.03125 0,0.046875 0.1875,0.234375 0.984375,0.984375 1.546875,2.5625 1.546875,4.640625 0,1.71875 -0.359375,3.46875 -1.59375,4.71875 C 0.5625,2.34375 0.5625,2.359375 0.5625,2.390625 0.5625,2.453125 0.609375,2.5 0.671875,2.5 0.765625,2.5 1.671875,1.8125 2.25,0.546875 2.765625,-0.546875 2.875,-1.65625 2.875,-2.5 Z m 0,0"
           id="path5721" />
      </symbol>
    </g>
  </defs>
  <path
     style="fill:none;stroke:#666666;stroke-width:0.609284;stroke-linecap:butt;stroke-linejoin:miter;stroke-miterlimit:4;stroke-dasharray:4.87427, 2.43714;stroke-dashoffset:0;stroke-opacity:1"
     d="M 432.03365,273.57437 V 83.168221"
     id="path7133-5-5-1" />
  <path
     fill="none"
     stroke="#000000"
     paint-order="fill stroke markers"
     d="M 43.95717,276.31912 H 638.83833"
     stroke-opacity="1"
     stroke-miterlimit="10"
     id="path6378"
     sodipodi:nodetypes="cc"
     style="stroke-width:1.45291;stroke-miterlimit:10;stroke-dasharray:none" />
  <path
     fill="none"
     stroke="#000000"
     paint-order="fill stroke markers"
     d="m 58.676294,276.31912 v 1.49162"
     stroke-opacity="1"
     stroke-miterlimit="10"
     id="path6386"
     style="stroke-width:1.46776;stroke-miterlimit:10;stroke-dasharray:none" />
  <path
     fill="none"
     stroke="#000000"
     paint-order="fill stroke markers"
     d="m 105.39907,276.31912 v 1.49162"
     stroke-opacity="1"
     stroke-miterlimit="10"
     id="path6388"
     style="stroke-width:1.46776;stroke-miterlimit:10;stroke-dasharray:none" />
  <path
     fill="none"
     stroke="#000000"
     paint-order="fill stroke markers"
     d="m 152.12187,276.31912 v 1.49162"
     stroke-opacity="1"
     stroke-miterlimit="10"
     id="path6390"
     style="stroke-width:1.46776;stroke-miterlimit:10;stroke-dasharray:none" />
  <path
     fill="none"
     stroke="#000000"
     paint-order="fill stroke markers"
     d="m 198.84466,276.31912 v 1.49162"
     stroke-opacity="1"
     stroke-miterlimit="10"
     id="path6392"
     style="stroke-width:1.46776;stroke-miterlimit:10;stroke-dasharray:none" />
  <path
     fill="none"
     stroke="#000000"
     paint-order="fill stroke markers"
     d="m 245.56745,276.31912 v 1.49162"
     stroke-opacity="1"
     stroke-miterlimit="10"
     id="path6394"
     style="stroke-width:1.46776;stroke-miterlimit:10;stroke-dasharray:none" />
  <path
     fill="none"
     stroke="#000000"
     paint-order="fill stroke markers"
     d="m 292.29024,276.31912 v 1.49162"
     stroke-opacity="1"
     stroke-miterlimit="10"
     id="path6396"
     style="stroke-width:1.46776;stroke-miterlimit:10;stroke-dasharray:none" />
  <path
     fill="none"
     stroke="#000000"
     paint-order="fill stroke markers"
     d="m 339.01303,276.31912 v 1.49162"
     stroke-opacity="1"
     stroke-miterlimit="10"
     id="path6398"
     style="stroke-width:1.46776;stroke-miterlimit:10;stroke-dasharray:none" />
  <path
     fill="none"
     stroke="#000000"
     paint-order="fill stroke markers"
     d="m 385.73581,276.31912 v 1.49162"
     stroke-opacity="1"
     stroke-miterlimit="10"
     id="path6400"
     style="stroke-width:1.46776;stroke-miterlimit:10;stroke-dasharray:none" />
  <path
     fill="none"
     stroke="#000000"
     paint-order="fill stroke markers"
     d="m 432.45861,276.31912 v 1.49162"
     stroke-opacity="1"
     stroke-miterlimit="10"
     id="path6402"
     style="stroke-width:1.46776;stroke-miterlimit:10;stroke-dasharray:none" />
  <path
     fill="none"
     stroke="#000000"
     paint-order="fill stroke markers"
     d="m 479.1814,276.31912 v 1.49162"
     stroke-opacity="1"
     stroke-miterlimit="10"
     id="path6404"
     style="stroke-width:1.46776;stroke-miterlimit:10;stroke-dasharray:none" />
  <path
     fill="none"
     stroke="#000000"
     paint-order="fill stroke markers"
     d="m 525.90418,276.31912 v 1.49162"
     stroke-opacity="1"
     stroke-miterlimit="10"
     id="path6406"
     style="stroke-width:1.46776;stroke-miterlimit:10;stroke-dasharray:none" />
  <path
     fill="none"
     stroke="#000000"
     paint-order="fill stroke markers"
     d="m 572.62698,276.31912 v 1.49162"
     stroke-opacity="1"
     stroke-miterlimit="10"
     id="path6408"
     style="stroke-width:1.46776;stroke-miterlimit:10;stroke-dasharray:none" />
  <path
     fill="none"
     stroke="#000000"
     paint-order="fill stroke markers"
     d="m 619.3497,276.31912 v 1.49162"
     stroke-opacity="1"
     stroke-miterlimit="10"
     id="path6410"
     style="stroke-width:1.46776;stroke-miterlimit:10;stroke-dasharray:none" />
  <path
     fill="none"
     stroke="#1565c0"
     paint-order="fill stroke markers"
     d="m 56.497062,277.64335 3.323323,-2.29342 3.323332,-2.33911 3.32334,-2.35712 3.323332,-2.34651 3.323324,-2.30678 3.323339,-2.23766 3.323332,-2.13925 3.323331,-2.012 3.323332,-1.85672 3.323341,-1.67453 3.323323,-1.46691 3.32334,-1.23562 3.323323,-0.98285 3.323336,-0.71095 3.32332,-0.42265 3.32335,-0.12088 3.32333,0.19115 3.32333,0.51011 3.32333,0.83241 3.32333,1.15439 3.32334,1.47231 3.32334,1.78231 3.32332,2.08053 3.32334,2.3632 3.32334,2.62652 3.32333,2.86689 3.32332,3.08075 3.32335,3.26484 3.32332,3.41601 3.32334,3.53149 3.32333,3.60872 3.32333,3.64549 3.32334,3.63996 3.32332,3.59064 3.32334,3.49654 3.32333,3.35694 3.32334,3.17171 3.32333,2.94107 3.32334,2.66574 3.32332,2.34689 3.32333,1.98612 3.32334,1.58551 3.32333,1.14759 3.32334,0.67518 1.66165,0.1506 1.66168,0.0212 3.32332,-0.35924 1.66168,-0.38621 1.66166,-0.5274 3.32334,-1.48706 3.32332,-2.07506 3.32335,-2.67268 3.32331,-3.27505 3.32335,-3.87688 3.32333,-4.47303 1.66165,-2.45682 1.66168,-2.60132 1.66167,-2.74361 1.66167,-2.88336 1.66166,-3.02023 1.66166,-3.15398 1.66167,-3.28419 1.66167,-3.4106 1.66167,-3.53293 1.66167,-3.65079 1.66166,-3.764 1.66166,-3.87219 1.66167,-3.97512 1.66166,-4.07253 1.66168,-4.16414 1.66166,-4.24975 1.66167,-4.32906 1.66166,-4.40192 1.66167,-4.46806 1.66166,-4.52732 1.66169,-4.57951 1.66164,-4.62446 1.66167,-4.66203 1.66168,-4.69206 1.66167,-4.71441 1.66165,-4.72905 1.66166,-4.73581 1.66168,-4.73464 1.66167,-4.72549 1.66166,-4.70831 1.66166,-4.68307 1.66166,-4.6498 1.66168,-4.60845 1.66168,-4.55907 1.66165,-4.50175 1.66166,-4.43648 1.66167,-4.36336 1.66168,-4.2825 1.66166,-4.19403 1.66166,-4.09803 1.66167,-3.99468 1.66166,-3.88409 1.66168,-3.76651 1.66165,-3.6421 1.66168,-3.51104 1.66166,-3.37357 1.66167,-3.22993 1.66166,-3.08037 1.66168,-2.92517 1.66166,-2.76453 1.66166,-2.598826 1.66167,-2.428291 3.32333,-4.327363 3.32333,-3.595472 3.32334,-2.836852 3.32334,-2.057076 1.66166,-0.731086 1.66166,-0.530851 1.66166,-0.329615 1.66168,-0.127767 1.66167,0.07433 1.66165,0.276277 1.66167,0.477708 1.66167,0.678256 3.32334,1.95268 3.32332,2.734816 3.32334,3.496584 3.32332,4.232303 3.32335,4.936615 1.66165,2.72119 1.66168,2.88319 1.66166,3.03986 1.66167,3.19096 1.66167,3.33618 1.66166,3.47529 1.66168,3.60807 1.66166,3.73425 1.66166,3.85369 1.66166,3.96613 1.66168,4.07139 1.66167,4.16937 1.66166,4.25984 1.66166,4.34274 1.66167,4.41789 1.66167,4.48526 1.66167,4.54468 1.66166,4.59617 1.66166,4.63963 1.66167,4.67507 1.66167,4.70242 1.66166,4.72173 1.66167,4.733 1.66167,4.73625 1.66166,4.73161 1.66168,4.71906 1.66166,4.69871 1.66166,4.67071 1.66166,4.63512 1.66167,4.5921 1.66168,4.54183 1.66165,4.48441 1.66168,4.42006 1.66165,4.34898 1.66168,4.27133 1.66167,4.18738 1.66166,4.09734 1.66167,4.00143 1.66166,3.89994 1.66167,3.79312 1.66166,3.68119 1.66167,3.56453 1.66167,3.44337 1.66166,3.318 1.66166,3.18877 1.66168,3.05594 1.66166,2.91985 1.66168,2.78082 1.66165,2.63917 1.66167,2.49525 3.32334,4.55114 3.32332,3.95617 3.32334,3.35474 3.32333,2.7522 3.32333,2.15363 3.32334,1.5641 1.66167,0.56512 1.66166,0.42332 3.32333,0.43128 1.66167,0.0138 1.66167,-0.11667 3.32333,-0.61033 1.66167,-0.48597 1.66166,-0.60105 3.32333,-1.5297 3.32334,-1.93537 3.32333,-2.30154 3.32333,-2.62604 3.32334,-2.9072 3.32332,-3.14381 3.32333,-3.33507 3.32335,-3.48069 3.32332,-3.5808 3.32335,-3.63598 3.32332,-3.64722 3.32333,-3.61593 3.32334,-3.54395 3.32333,-3.4334 3.32333,-3.28678 3.32334,-3.10687 3.32332,-2.89676 3.32335,-2.65971 3.32332,-2.39921 3.32334,-2.11888 3.32333,-1.8225 3.32334,-1.51383 3.32332,-1.19676 3.32333,-0.87509 3.32334,-0.55261 3.32333,-0.23302 3.32334,0.0802 3.32334,0.38345 3.32331,0.6737 3.32332,0.94794 3.32337,1.20339 3.32332,1.43762 3.3233,1.6485 3.32338,1.83415 3.32331,1.99306 3.32331,2.12406 3.32332,2.22632 3.32337,2.29932 3.32332,2.34294 3.3233,2.35738 3.32331,2.34311 3.32338,2.301"
     stroke-opacity="0.8"
     stroke-linecap="round"
     stroke-linejoin="round"
     stroke-miterlimit="10"
     stroke-width="3.00886"
     id="path6420"
     sodipodi:nodetypes="ccccccccccccccccccccccccccccccccccccccccccccccccccccccccccccccccccccccccccccccccccccccccccccccccccccccccccccccccccccccccccccccccccccccccccccccccccccccccccccccccccccccccccccccccccccccccccccccccccccccccccccccccccccccccccccccccccccccc"
     style="stroke:#000080;stroke-width:1.46776;stroke-miterlimit:10;stroke-dasharray:none" />
  <path
     fill="none"
     stroke="#d32f2f"
     paint-order="fill stroke markers"
     d="m 56.497062,274.94752 3.323323,1.72179 3.323332,1.74568 3.32334,1.7483 3.323332,1.72927 3.323324,1.68846 3.323339,1.62593 3.323332,1.5421 3.323331,1.43749 3.323332,1.31314 3.323341,1.17005 3.323323,1.00972 3.32334,0.83369 3.323323,0.64386 3.323336,0.44223 3.32332,0.23105 3.32335,0.0127 3.32333,-0.21036 3.32333,-0.43547 3.32333,-0.65994 3.32333,-0.88103 3.32334,-1.09601 3.32334,-1.30212 3.32332,-1.49672 3.32334,-1.67712 3.32334,-1.84092 3.32333,-1.98571 3.32332,-2.10933 3.32335,-2.20982 3.32332,-2.28545 3.32334,-2.33468 3.32333,-2.35637 3.32333,-2.34956 3.32334,-2.31364 3.32332,-2.24836 3.32334,-2.15377 3.32333,-2.03026 3.32334,-1.87858 3.32333,-1.69984 3.32334,-1.49542 3.32332,-1.26714 3.32333,-1.01704 3.32334,-0.74749 3.32333,-0.46118 3.32334,-0.16099 3.32333,0.14989 3.32332,0.46814 3.32334,0.79022 3.32334,1.11246 3.32332,1.4311 3.32335,1.74235 3.32331,2.04235 3.32335,2.32726 3.32333,2.59333 3.32333,2.83689 3.32334,3.0544 3.32332,3.24257 3.32334,3.39823 3.32334,3.51851 3.32332,3.60089 3.32333,3.64305 3.32334,3.64313 3.32333,3.59964 3.32333,3.51139 3.32333,3.3778 3.32335,3.19853 3.32332,2.97377 3.32334,2.70425 3.32333,2.39099 3.32332,2.03559 3.32336,1.64008 3.32331,1.20686 3.32335,0.73879 1.66166,0.18388 1.66166,0.0553 3.32333,-0.28839 1.66168,-0.3497 1.66165,-0.49024 3.32334,-1.41117 3.32333,-1.99752 3.32334,-2.59418 3.32333,-3.19618 3.32333,-3.79843 3.32333,-4.39559 1.66167,-2.41873 1.66167,-2.56373 1.66166,-2.70663 1.66168,-2.84707 1.66166,-2.98475 1.66166,-3.11934 1.66166,-3.25048 1.66168,-3.37795 1.66167,-3.50133 1.66165,-3.62044 1.66167,-3.73485 1.66167,-3.84439 1.66167,-3.94874 1.66167,-4.0476 1.66166,-4.14077 1.66166,-4.22795 1.66167,-4.30895 1.66167,-4.38349 1.66167,-4.45142 1.66165,-4.51251 1.66169,-4.56656 1.66166,-4.61341 1.66165,-4.65293 1.66168,-4.68494 1.66166,-4.70931 1.66167,-4.72598 1.66167,-4.7348 1.66166,-4.73572 1.66168,-4.72865 1.66166,-4.71356 1.66166,-4.69047 1.66166,-4.65927 1.66168,-4.62004 1.66167,-4.57275 1.66166,-4.51752 1.66166,-4.45428 1.66167,-4.38325 1.66167,-4.3044 1.66167,-4.2179 1.66166,-4.12384 1.66166,-4.0224 1.66167,-3.91369 1.66167,-3.79793 1.66166,-3.67527 1.66167,-3.54595 1.66167,-3.41012 1.66166,-3.26809 1.66168,-3.12003 1.66166,-2.96628 1.66166,-2.80703 1.66166,-2.642638 1.66167,-2.473333 3.32333,-4.42078 3.32333,-3.692805 3.32335,-2.93736 3.32333,-2.160021 1.66166,-0.783245 1.66167,-0.583318 1.66166,-0.382314 1.66167,-0.180586 1.66167,0.0215 1.66166,0.223509 1.66166,0.425109 1.66168,0.625917 1.66166,0.825561 1.66168,1.023657 3.32332,2.633599 3.32334,3.398333 3.32332,4.137788 3.32334,4.84649 1.66167,2.677997 1.66166,2.84134 1.66167,2.99942 1.66166,3.152 1.66168,3.29877 1.66166,3.43952 1.66167,3.57398 1.66166,3.70191 1.66167,3.82312 1.66166,3.9374 1.66167,4.04458 1.66167,4.14447 1.66166,4.23691 1.66167,4.3218 1.66167,4.39899 1.66166,4.46839 1.66167,4.52992 1.66166,4.58349 1.66167,4.62903 1.66167,4.66658 1.66167,4.69605 1.66166,4.71745 1.66167,4.73082 1.66166,4.73619 1.66166,4.73359 1.66168,4.72309 1.66167,4.70478 1.66165,4.67876 1.66167,4.64515 1.66166,4.60406 1.66169,4.55567 1.66166,4.5001 1.66165,4.43756 1.66167,4.3682 1.66167,4.29226 1.66168,4.20993 1.66165,4.12146 1.66167,4.02705 1.66168,3.927 1.66165,3.82155 1.66167,3.71092 1.66167,3.5955 1.66167,3.47546 1.66166,3.35119 1.66166,3.2229 1.66167,3.09101 1.66167,2.95573 1.66167,2.81745 1.66166,2.67644 1.66166,2.53309 3.32335,4.62817 3.32332,4.03445 3.32334,3.43356 3.32333,2.83085 3.32334,2.23149 3.32332,1.64046 1.66167,0.60259 1.66166,0.46016 3.32334,0.50294 1.66167,0.0483 1.66166,-0.0829 3.32334,-0.54566 1.66167,-0.4552 1.66167,-0.57136 3.32331,-1.47385 3.32332,-1.88454 3.32337,-2.256 3.32332,-2.58604 3.3233,-2.87295 3.32338,-3.11544 3.32331,-3.31266 3.32331,-3.46424 3.32332,-3.57028 3.32337,-3.63129 3.32332,-3.64819 3.3233,-3.62239 3.32331,-3.5556"
     stroke-opacity="0.8"
     stroke-linecap="round"
     stroke-linejoin="round"
     stroke-miterlimit="10"
     stroke-width="3.00886"
     id="path6422"
     sodipodi:nodetypes="ccccccccccccccccccccccccccccccccccccccccccccccccccccccccccccccccccccccccccccccccccccccccccccccccccccccccccccccccccccccccccccccccccccccccccccccccccccccccccccccccccccccccccccccccccccccccccccccccccccccccccccccccccccccccccccccccccccccc"
     style="stroke:#000080;stroke-width:1.46776;stroke-miterlimit:10;stroke-dasharray:none" />
  <path
     fill="none"
     stroke="#2e7d32"
     paint-order="fill stroke markers"
     d="m 59.820385,277.23776 3.323332,3.5438 3.32334,3.61587 3.323332,3.64721 3.323324,3.63603 3.323339,3.58091 3.323332,3.48087 3.323331,3.33533 3.323332,3.14412 3.323341,2.90759 3.323323,2.62648 3.32334,2.30206 3.323323,1.93597 3.323336,1.53033 3.32332,1.08768 1.66168,0.36713 1.66167,0.24394 3.32333,0.10376 1.66167,-0.14693 1.66166,-0.28354 3.32333,-0.98759 1.66168,-0.70869 1.66165,-0.85453 3.32334,-2.15273 3.32334,-2.75131 3.32332,-3.35386 3.32334,-3.95526 3.32334,-4.55027 1.66166,-2.49481 1.66167,-2.63874 1.66166,-2.78041 1.66166,-2.91944 1.66168,-3.05553 1.66167,-3.18839 1.66166,-3.31762 1.66166,-3.443 1.66168,-3.56417 1.66166,-3.68087 1.66166,-3.79277 1.66167,-3.89963 1.66166,-4.00114 1.66167,-4.09706 1.66168,-4.18712 1.66166,-4.27108 1.66166,-4.34877 1.66166,-4.41985 1.66168,-4.48423 1.66166,-4.54167 1.66166,-4.59197 1.66167,-4.63501 1.66167,-4.67061 1.66167,-4.69864 1.66166,-4.719 1.66167,-4.73158 1.66165,-4.73626 1.66169,-4.73302 1.66166,-4.72178 1.66166,-4.70249 1.66167,-4.67515 1.66166,-4.63975 1.66168,-4.5963 1.66166,-4.54487 1.66166,-4.48544 1.66167,-4.4181 1.66167,-4.34297 1.66167,-4.26012 1.66165,-4.16964 1.66168,-4.07171 1.66167,-3.96645 1.66165,-3.854 1.66168,-3.73464 1.66166,-3.60847 1.66168,-3.47569 1.66166,-3.3366 1.66166,-3.19138 1.66166,-3.04034 1.66167,-2.88365 1.66168,-2.72169 3.32331,-4.937636 3.32335,-4.233375 3.32333,-3.4977 3.32333,-2.735973 3.32334,-1.953857 1.66166,-0.678847 1.66166,-0.478315 1.66167,-0.276875 1.66167,-0.07493 1.66167,0.127159 1.66167,0.329022 1.66166,0.530244 1.66166,0.730496 3.32333,2.055905 3.32334,2.835696 3.32333,3.594361 3.32333,4.326274 1.66169,2.427791 1.66164,2.59832 1.66167,2.76405 1.66168,2.92467 1.66167,3.07993 1.66165,3.2295 1.66166,3.37315 1.66168,3.51064 1.66167,3.64171 1.66166,3.76615 1.66166,3.88377 1.66166,3.99433 1.66168,4.09774 1.66168,4.19376 1.66165,4.28227 1.66166,4.36312 1.66167,4.43627 1.66168,4.50156 1.66166,4.55891 1.66166,4.60832 1.66167,4.64969 1.66166,4.68298 1.66168,4.70825 1.66165,4.72544 1.66168,4.73463 1.66166,4.73582 1.66167,4.72907 1.66166,4.71448 1.66168,4.69213 1.66166,4.66213 1.66166,4.62458 1.66167,4.57966 1.66167,4.52748 1.66166,4.46825 1.66168,4.40212 1.66165,4.3293 1.66167,4.24999 1.66167,4.16441 1.66166,4.07281 1.66168,3.97543 1.66166,3.8725 1.66166,3.76432 1.66166,3.65115 1.66168,3.53327 1.66167,3.41098 1.66165,3.28458 1.66167,3.15436 1.66167,3.02066 1.66167,2.88377 1.66167,2.74401 1.66166,2.60174 1.66166,2.45728 3.32334,4.47389 3.32332,3.8778 3.32335,3.27593 3.32333,2.6736 3.32333,2.07593 3.32333,1.48792 1.66168,0.52783 1.66166,0.38662 3.32332,0.36005 1.66168,-0.0208 1.66167,-0.15021 3.32332,-0.67447 3.32334,-1.14689 3.32333,-1.5849 3.32333,-1.98554 3.32333,-2.34638 3.32334,-2.6653 3.32334,-2.94069 3.32332,-3.17141 3.32333,-3.35669 3.32333,-3.49637 3.32333,-3.59054 3.32335,-3.63991 3.32333,-3.64551 3.32333,-3.60881 3.32333,-3.53163 3.32333,-3.41624 3.32334,-3.26507 3.32334,-3.08106 3.32332,-2.86721 3.32334,-2.62691 3.32332,-2.3636 3.32334,-2.08097 3.32333,-1.78275 3.32333,-1.47278 3.32334,-1.15489 3.32333,-0.83288 3.32333,-0.51059 3.32334,-0.19163 3.32333,0.12044 3.32333,0.42219 3.32333,0.71055 3.32334,0.98244 3.32333,1.23527 3.32333,1.46657 3.32334,1.67424 3.32332,1.85647 3.32333,2.0118 3.32335,2.13908 3.32332,2.23754 3.32335,2.3067 3.32332,2.34647 3.32333,2.35713 3.32334,2.33916 3.32333,2.2935 3.32333,2.22129 3.32334,2.12399 3.32332,2.0033 3.32335,1.86121 3.32332,1.69979 3.32334,1.52143 3.32333,1.32858 3.32334,1.12383 3.32332,0.90988 3.32333,0.68942 3.32334,0.46525 3.32333,0.24006 3.32334,0.0166 3.32334,-0.20253 3.32331,-0.4148 3.32332,-0.61783 3.32337,-0.80934 3.32332,-0.9873 3.3233,-1.14982 3.32338,-1.29525 3.32331,-1.42218 3.32331,-1.52942 3.32332,-1.61606 3.32337,-1.68143 3.32332,-1.72513 3.3233,-1.74703 3.32331,-1.74725"
     stroke-opacity="0.8"
     stroke-linecap="round"
     stroke-linejoin="round"
     stroke-miterlimit="10"
     stroke-width="3.00886"
     id="path6424"
     sodipodi:nodetypes="ccccccccccccccccccccccccccccccccccccccccccccccccccccccccccccccccccccccccccccccccccccccccccccccccccccccccccccccccccccccccccccccccccccccccccccccccccccccccccccccccccccccccccccccccccccccccccccccccccccccccccccccccccccccccccccccccccccc"
     style="stroke:#000080;stroke-width:1.46776;stroke-miterlimit:10;stroke-dasharray:none;fill:none" />
  <path
     style="fill:none;stroke:#000000;stroke-width:0.609284;stroke-linecap:butt;stroke-linejoin:miter;stroke-miterlimit:4;stroke-dasharray:none;stroke-opacity:1"
     d="M 245.56745,87.404575 V 58.38903"
     id="path7133" />
  <path
     style="fill:none;stroke:#008000;stroke-width:0.761605;stroke-linecap:butt;stroke-linejoin:miter;stroke-miterlimit:4;stroke-dasharray:none;stroke-opacity:1;marker-start:url(#Arrow1Lstart)"
     d="M 432.89266,274.64555 C 447.26848,208.31073 477.45315,153.15887 579.25241,148.66621"
     id="path7137"
     sodipodi:nodetypes="cc" />
  <path
     style="fill:none;stroke:#008000;stroke-width:0.761605px;stroke-linecap:butt;stroke-linejoin:miter;stroke-opacity:1;marker-end:url(#marker7229)"
     d="M 579.25241,148.66621 C 496.74327,155.93544 431.73788,147.96995 432.03365,83.168221"
     id="path7219"
     sodipodi:nodetypes="cc" />
  <path
     style="fill:none;stroke:#000000;stroke-width:0.609284;stroke-linecap:butt;stroke-linejoin:miter;stroke-miterlimit:4;stroke-dasharray:none;stroke-opacity:1;marker-start:url(#marker7351);marker-end:url(#marker7305)"
     d="m 246.32004,71.728285 h 92.11087"
     id="path7133-9" />
  <path
     style="fill:none;stroke:#000000;stroke-width:0.609284;stroke-linecap:butt;stroke-linejoin:miter;stroke-miterlimit:4;stroke-dasharray:none;stroke-opacity:1"
     d="M 339.2194,87.404575 V 58.38903"
     id="path7133-5" />
  <path
     style="fill:none;stroke:#666666;stroke-width:0.609284;stroke-linecap:butt;stroke-linejoin:miter;stroke-miterlimit:4;stroke-dasharray:4.87427, 2.43714;stroke-dashoffset:0;stroke-opacity:1"
     d="M 245.56745,277.81074 V 87.404575"
     id="path7133-7" />
  <path
     style="fill:none;stroke:#666666;stroke-width:0.609284;stroke-linecap:butt;stroke-linejoin:miter;stroke-miterlimit:4;stroke-dasharray:4.87427, 2.43714;stroke-dashoffset:0;stroke-opacity:1"
     d="M 339.2194,277.81074 V 87.404575"
     id="path7133-5-5" />
  <g
     transform="matrix(4.0637924,0,0,4.0637924,282.20119,13.175896)"
     ns2:version="1.1.0"
     ns2:texconverter="pdflatex"
     ns2:pdfconverter="inkscape"
     ns2:text="$\\frac{1}{T}$\n"
     ns2:preamble="default_packages.tex"
     ns2:scale="3.737630927550309"
     ns2:alignment="middle center"
     ns2:inkscapeversion="1.0.1"
     ns2:jacobian_sqrt="4.9835"
     id="g7743">
    <defs
       id="id-6d4c3c74-7346-4626-b0ed-c3a4242b8047">
      <g
         id="id-7070d2e9-4c4a-486c-9b43-03c004d2967d">
        <symbol
           overflow="visible"
           id="id-38ee6e52-f590-42d5-b3f8-4f365fd0de24">
          <path
             style="stroke:none"
             d=""
             id="id-c9d95a76-1c5d-491c-9e92-804e577f9b2f" />
        </symbol>
        <symbol
           overflow="visible"
           id="id-9a39a590-08d6-47f1-9c8a-f1819beace8a">
          <path
             style="stroke:none"
             d="m 2.328125,-4.4375 c 0,-0.1875 0,-0.1875 -0.203125,-0.1875 -0.453125,0.4375 -1.078125,0.4375 -1.359375,0.4375 v 0.25 c 0.15625,0 0.625,0 1,-0.1875 v 3.546875 c 0,0.234375 0,0.328125 -0.6875,0.328125 H 0.8125 V 0 c 0.125,0 0.984375,-0.03125 1.234375,-0.03125 0.21875,0 1.09375,0.03125 1.25,0.03125 V -0.25 H 3.03125 c -0.703125,0 -0.703125,-0.09375 -0.703125,-0.328125 z m 0,0"
             id="id-1f78de02-54a6-4ad3-bd57-e631739ca5a5" />
        </symbol>
        <symbol
           overflow="visible"
           id="id-a07301c4-6405-4876-8294-b2efe783a3cd">
          <path
             style="stroke:none"
             d=""
             id="id-958f6067-9ddd-4b1b-bd7d-143ecbd70971" />
        </symbol>
        <symbol
           overflow="visible"
           id="id-b4f8c21a-d479-42e5-b8b3-f02e63d45591">
          <path
             style="stroke:none"
             d="m 3.390625,-4.21875 c 0.046875,-0.203125 0.0625,-0.21875 0.21875,-0.234375 0.03125,0 0.265625,0 0.40625,0 0.4375,0 0.609375,0 0.78125,0.046875 0.3125,0.09375 0.328125,0.296875 0.328125,0.546875 0,0.109375 0,0.203125 -0.046875,0.5625 L 5.0625,-3.21875 c 0,0.078125 0.046875,0.109375 0.125,0.109375 0.109375,0 0.109375,-0.0625 0.125,-0.171875 L 5.5,-4.609375 c 0,-0.09375 -0.078125,-0.09375 -0.203125,-0.09375 h -4.28125 c -0.171875,0 -0.1875,0 -0.234375,0.140625 l -0.453125,1.234375 c 0,0.03125 -0.03125,0.09375 -0.03125,0.125 0,0.03125 0.015625,0.09375 0.125,0.09375 0.09375,0 0.09375,-0.03125 0.140625,-0.171875 0.40625,-1.109375 0.640625,-1.171875 1.703125,-1.171875 h 0.28125 c 0.21875,0 0.21875,0 0.21875,0.0625 0,0 0,0.046875 -0.03125,0.140625 L 1.8125,-0.578125 C 1.75,-0.328125 1.734375,-0.25 1,-0.25 c -0.25,0 -0.3125,0 -0.3125,0.15625 C 0.6875,-0.078125 0.703125,0 0.8125,0 1,0 1.21875,-0.015625 1.40625,-0.015625 1.609375,-0.015625 1.8125,-0.03125 2,-0.03125 c 0.203125,0 0.4375,0 0.640625,0.015625 C 2.828125,-0.015625 3.03125,0 3.21875,0 3.28125,0 3.375,0 3.375,-0.15625 3.375,-0.25 3.3125,-0.25 3.09375,-0.25 c -0.125,0 -0.265625,-0.015625 -0.40625,-0.015625 -0.234375,-0.015625 -0.25,-0.046875 -0.25,-0.125 0,-0.0625 0,-0.0625 0.03125,-0.171875 z m 0,0"
             id="id-799309ea-debf-456f-b976-49976e14dfd2" />
        </symbol>
      </g>
    </defs>
    <g
       id="id-6f8168e5-b153-4952-ab07-a3eab653ee27"
       transform="translate(-149.906,-126.217)">
      <g
         style="fill:#000000;fill-opacity:1"
         id="id-c6a0dc8f-63c5-4c5b-99ac-7e9c34c35b99">
        <g
           transform="translate(150.811,130.842)"
           id="g7734">
          <path
             style="stroke:none"
             d="m 2.328125,-4.4375 c 0,-0.1875 0,-0.1875 -0.203125,-0.1875 -0.453125,0.4375 -1.078125,0.4375 -1.359375,0.4375 v 0.25 c 0.15625,0 0.625,0 1,-0.1875 v 3.546875 c 0,0.234375 0,0.328125 -0.6875,0.328125 H 0.8125 V 0 c 0.125,0 0.984375,-0.03125 1.234375,-0.03125 0.21875,0 1.09375,0.03125 1.25,0.03125 V -0.25 H 3.03125 c -0.703125,0 -0.703125,-0.09375 -0.703125,-0.328125 z m 0,0"
             id="id-79bf66c9-d322-4c79-8e2c-8692260eff95" />
        </g>
      </g>
      <path
         style="fill:none;stroke:#000000;stroke-width:0.398;stroke-linecap:butt;stroke-linejoin:miter;stroke-miterlimit:10;stroke-opacity:1"
         d="M -0.00175,5.625e-4 H 5.7795"
         transform="matrix(1,0,0,-1,149.908,132.274)"
         id="id-17ccac86-f21d-4757-98e2-f6e87ef2624f" />
      <g
         style="fill:#000000;fill-opacity:1"
         id="id-aa0ccbc4-1191-46b9-9838-c77db1b3ba77">
        <g
           transform="translate(149.908,138.2)"
           id="g7739">
          <path
             style="stroke:none"
             d="m 3.390625,-4.21875 c 0.046875,-0.203125 0.0625,-0.21875 0.21875,-0.234375 0.03125,0 0.265625,0 0.40625,0 0.4375,0 0.609375,0 0.78125,0.046875 0.3125,0.09375 0.328125,0.296875 0.328125,0.546875 0,0.109375 0,0.203125 -0.046875,0.5625 L 5.0625,-3.21875 c 0,0.078125 0.046875,0.109375 0.125,0.109375 0.109375,0 0.109375,-0.0625 0.125,-0.171875 L 5.5,-4.609375 c 0,-0.09375 -0.078125,-0.09375 -0.203125,-0.09375 h -4.28125 c -0.171875,0 -0.1875,0 -0.234375,0.140625 l -0.453125,1.234375 c 0,0.03125 -0.03125,0.09375 -0.03125,0.125 0,0.03125 0.015625,0.09375 0.125,0.09375 0.09375,0 0.09375,-0.03125 0.140625,-0.171875 0.40625,-1.109375 0.640625,-1.171875 1.703125,-1.171875 h 0.28125 c 0.21875,0 0.21875,0 0.21875,0.0625 0,0 0,0.046875 -0.03125,0.140625 L 1.8125,-0.578125 C 1.75,-0.328125 1.734375,-0.25 1,-0.25 c -0.25,0 -0.3125,0 -0.3125,0.15625 C 0.6875,-0.078125 0.703125,0 0.8125,0 1,0 1.21875,-0.015625 1.40625,-0.015625 1.609375,-0.015625 1.8125,-0.03125 2,-0.03125 c 0.203125,0 0.4375,0 0.640625,0.015625 C 2.828125,-0.015625 3.03125,0 3.21875,0 3.28125,0 3.375,0 3.375,-0.15625 3.375,-0.25 3.3125,-0.25 3.09375,-0.25 c -0.125,0 -0.265625,-0.015625 -0.40625,-0.015625 -0.234375,-0.015625 -0.25,-0.046875 -0.25,-0.125 0,-0.0625 0,-0.0625 0.03125,-0.171875 z m 0,0"
             id="id-2a1a4033-70d9-49ea-80db-707146cc37de" />
        </g>
      </g>
    </g>
  </g>
  <g
     id="g2144"
     transform="matrix(0.63934895,0,0,0.63934895,2.9231142,9.8116022)">
    <path
       style="fill:none;stroke:#000000;stroke-width:1px;stroke-linecap:butt;stroke-linejoin:miter;stroke-opacity:1;marker-end:url(#marker1397)"
       d="M 52.670692,105.85274 V 55.738887"
       id="path1079" />
    <path
       style="fill:none;stroke:#000000;stroke-width:1px;stroke-linecap:butt;stroke-linejoin:miter;stroke-opacity:1;marker-end:url(#marker1387)"
       d="M 52.670692,105.85274 H 102.78455"
       id="path1079-8" />
  </g>
  <g
     transform="matrix(2.4097436,0,0,2.4097436,76.720555,71.61256)"
     ns2:version="1.1.0"
     ns2:texconverter="pdflatex"
     ns2:pdfconverter="inkscape"
     ns2:text="$\\omega$\n"
     ns2:preamble="default_packages.tex"
     ns2:scale="3.737630927550309"
     ns2:alignment="middle center"
     ns2:inkscapeversion="1.0.1"
     ns2:jacobian_sqrt="4.9835"
     id="g1741">
    <defs
       id="id-9cb08fcc-0041-4334-8472-349649f16552">
      <g
         id="g9533">
        <symbol
           overflow="visible"
           id="symbol9527">
          <path
             style="stroke:none"
             d=""
             id="path9525" />
        </symbol>
        <symbol
           overflow="visible"
           id="symbol9531">
          <path
             style="stroke:none"
             d="m 6.03125,-3.703125 c 0,-0.453125 -0.171875,-0.703125 -0.40625,-0.703125 -0.25,0 -0.515625,0.234375 -0.515625,0.46875 0,0.09375 0.046875,0.203125 0.140625,0.296875 0.171875,0.15625 0.359375,0.421875 0.359375,0.84375 0,0.390625 -0.203125,0.96875 -0.5,1.421875 C 4.8125,-0.953125 4.4375,-0.609375 3.96875,-0.609375 3.40625,-0.609375 3.09375,-0.96875 3,-1.5 c 0.109375,-0.265625 0.34375,-0.90625 0.34375,-1.1875 0,-0.109375 -0.046875,-0.21875 -0.1875,-0.21875 -0.078125,0 -0.1875,0.03125 -0.265625,0.171875 C 2.78125,-2.53125 2.65625,-1.890625 2.65625,-1.53125 2.328125,-1.0625 1.9375,-0.609375 1.3125,-0.609375 c -0.671875,0 -0.875,-0.59375 -0.875,-1.140625 0,-1.25 1.015625,-2.296875 1.015625,-2.421875 0,-0.109375 -0.078125,-0.1875 -0.1875,-0.1875 -0.125,0 -0.203125,0.125 -0.265625,0.21875 -0.5,0.734375 -0.875,1.921875 -0.875,2.828125 0,0.6875 0.21875,1.421875 1.046875,1.421875 0.703125,0 1.171875,-0.5 1.53125,-1.046875 0.09375,0.578125 0.484375,1.046875 1.09375,1.046875 0.78125,0 1.25,-0.609375 1.609375,-1.359375 0.25,-0.484375 0.625,-1.84375 0.625,-2.453125 z m 0,0"
             id="path9529" />
        </symbol>
      </g>
    </defs>
    <g
       id="id-2983c31d-612f-4a9c-a91e-6bb6c9462c4c"
       transform="translate(-148.837,-130.359)">
      <g
         style="fill:#000000;fill-opacity:1"
         id="id-2602d433-0e6b-4820-9cfd-676027461d7d">
        <g
           transform="translate(148.712,134.765)"
           id="g1737">
          <path
             style="stroke:none"
             d="m 6.03125,-3.703125 c 0,-0.453125 -0.171875,-0.703125 -0.40625,-0.703125 -0.25,0 -0.515625,0.234375 -0.515625,0.46875 0,0.09375 0.046875,0.203125 0.140625,0.296875 0.171875,0.15625 0.359375,0.421875 0.359375,0.84375 0,0.390625 -0.203125,0.96875 -0.5,1.421875 C 4.8125,-0.953125 4.4375,-0.609375 3.96875,-0.609375 3.40625,-0.609375 3.09375,-0.96875 3,-1.5 c 0.109375,-0.265625 0.34375,-0.90625 0.34375,-1.1875 0,-0.109375 -0.046875,-0.21875 -0.1875,-0.21875 -0.078125,0 -0.1875,0.03125 -0.265625,0.171875 C 2.78125,-2.53125 2.65625,-1.890625 2.65625,-1.53125 2.328125,-1.0625 1.9375,-0.609375 1.3125,-0.609375 c -0.671875,0 -0.875,-0.59375 -0.875,-1.140625 0,-1.25 1.015625,-2.296875 1.015625,-2.421875 0,-0.109375 -0.078125,-0.1875 -0.1875,-0.1875 -0.125,0 -0.203125,0.125 -0.265625,0.21875 -0.5,0.734375 -0.875,1.921875 -0.875,2.828125 0,0.6875 0.21875,1.421875 1.046875,1.421875 0.703125,0 1.171875,-0.5 1.53125,-1.046875 0.09375,0.578125 0.484375,1.046875 1.09375,1.046875 0.78125,0 1.25,-0.609375 1.609375,-1.359375 0.25,-0.484375 0.625,-1.84375 0.625,-2.453125 z m 0,0"
             id="id-1164d206-fe43-4b5f-81b3-8f9b6f9a905e" />
        </g>
      </g>
    </g>
  </g>
  <g
     transform="matrix(1.9639644,0,0,1.9639644,22.576212,20.267699)"
     ns2:version="1.1.0"
     ns2:texconverter="pdflatex"
     ns2:pdfconverter="inkscape"
     ns2:text="$|F_n(\\omega)|$\n"
     ns2:preamble="default_packages.tex"
     ns2:scale="3.737630927550309"
     ns2:alignment="middle center"
     ns2:inkscapeversion="1.0.1"
     ns2:jacobian_sqrt="4.9835"
     id="g2076">
    <defs
       id="id-fca7b9ff-56a4-4e29-b4ec-e3e8d85678f5">
      <g
         id="g9581">
        <symbol
           overflow="visible"
           id="symbol9543">
          <path
             style="stroke:none"
             d=""
             id="path9541" />
        </symbol>
        <symbol
           overflow="visible"
           id="symbol9547">
          <path
             style="stroke:none"
             d="m 1.578125,-7.125 c 0,-0.171875 0,-0.359375 -0.1875,-0.359375 -0.203125,0 -0.203125,0.1875 -0.203125,0.359375 v 9.265625 c 0,0.171875 0,0.359375 0.203125,0.359375 0.1875,0 0.1875,-0.1875 0.1875,-0.359375 z m 0,0"
             id="path9545" />
        </symbol>
        <symbol
           overflow="visible"
           id="symbol9551">
          <path
             style="stroke:none"
             d=""
             id="path9549" />
        </symbol>
        <symbol
           overflow="visible"
           id="symbol9555">
          <path
             style="stroke:none"
             d="m 3.015625,-3.234375 h 0.96875 c 0.75,0 0.828125,0.15625 0.828125,0.4375 0,0.078125 0,0.1875 -0.0625,0.5 C 4.71875,-2.25 4.71875,-2.21875 4.71875,-2.1875 c 0,0.078125 0.0625,0.109375 0.109375,0.109375 0.109375,0 0.109375,-0.03125 0.15625,-0.203125 L 5.53125,-4.453125 C 5.5625,-4.5625 5.5625,-4.578125 5.5625,-4.609375 5.5625,-4.625 5.546875,-4.71875 5.4375,-4.71875 5.34375,-4.71875 5.328125,-4.671875 5.296875,-4.5 5.078125,-3.734375 4.859375,-3.546875 4,-3.546875 H 3.09375 l 0.640625,-2.53125 C 3.828125,-6.4375 3.84375,-6.46875 4.28125,-6.46875 h 1.3125 c 1.21875,0 1.453125,0.328125 1.453125,1.09375 0,0.234375 0,0.265625 -0.03125,0.546875 C 7,-4.703125 7,-4.6875 7,-4.65625 c 0,0.046875 0.03125,0.125 0.125,0.125 0.109375,0 0.109375,-0.0625 0.125,-0.25 L 7.453125,-6.515625 C 7.484375,-6.78125 7.4375,-6.78125 7.1875,-6.78125 H 2.296875 c -0.1875,0 -0.296875,0 -0.296875,0.203125 0,0.109375 0.09375,0.109375 0.28125,0.109375 0.375,0 0.65625,0 0.65625,0.171875 0,0.046875 0,0.0625 -0.0625,0.25 L 1.5625,-0.78125 c -0.09375,0.390625 -0.109375,0.46875 -0.90625,0.46875 -0.171875,0 -0.28125,0 -0.28125,0.1875 C 0.375,0 0.5,0 0.53125,0 0.8125,0 1.5625,-0.03125 1.84375,-0.03125 2.171875,-0.03125 3,0 3.328125,0 3.421875,0 3.53125,0 3.53125,-0.1875 3.53125,-0.265625 3.484375,-0.296875 3.484375,-0.296875 3.453125,-0.3125 3.421875,-0.3125 3.203125,-0.3125 c -0.21875,0 -0.265625,0 -0.515625,-0.015625 -0.296875,-0.03125 -0.328125,-0.078125 -0.328125,-0.203125 0,-0.015625 0,-0.078125 0.046875,-0.21875 z m 0,0"
             id="path9553" />
        </symbol>
        <symbol
           overflow="visible"
           id="symbol9559">
          <path
             style="stroke:none"
             d="m 6.03125,-3.703125 c 0,-0.453125 -0.171875,-0.703125 -0.40625,-0.703125 -0.25,0 -0.515625,0.234375 -0.515625,0.46875 0,0.09375 0.046875,0.203125 0.140625,0.296875 0.171875,0.15625 0.359375,0.421875 0.359375,0.84375 0,0.390625 -0.203125,0.96875 -0.5,1.421875 C 4.8125,-0.953125 4.4375,-0.609375 3.96875,-0.609375 3.40625,-0.609375 3.09375,-0.96875 3,-1.5 c 0.109375,-0.265625 0.34375,-0.90625 0.34375,-1.1875 0,-0.109375 -0.046875,-0.21875 -0.1875,-0.21875 -0.078125,0 -0.1875,0.03125 -0.265625,0.171875 C 2.78125,-2.53125 2.65625,-1.890625 2.65625,-1.53125 2.328125,-1.0625 1.9375,-0.609375 1.3125,-0.609375 c -0.671875,0 -0.875,-0.59375 -0.875,-1.140625 0,-1.25 1.015625,-2.296875 1.015625,-2.421875 0,-0.109375 -0.078125,-0.1875 -0.1875,-0.1875 -0.125,0 -0.203125,0.125 -0.265625,0.21875 -0.5,0.734375 -0.875,1.921875 -0.875,2.828125 0,0.6875 0.21875,1.421875 1.046875,1.421875 0.703125,0 1.171875,-0.5 1.53125,-1.046875 0.09375,0.578125 0.484375,1.046875 1.09375,1.046875 0.78125,0 1.25,-0.609375 1.609375,-1.359375 0.25,-0.484375 0.625,-1.84375 0.625,-2.453125 z m 0,0"
             id="path9557" />
        </symbol>
        <symbol
           overflow="visible"
           id="symbol9563">
          <path
             style="stroke:none"
             d=""
             id="path9561" />
        </symbol>
        <symbol
           overflow="visible"
           id="symbol9567">
          <path
             style="stroke:none"
             d="m 0.84375,-0.4375 c -0.015625,0.09375 -0.0625,0.265625 -0.0625,0.28125 0,0.15625 0.125,0.21875 0.234375,0.21875 0.125,0 0.234375,-0.078125 0.28125,-0.140625 0.03125,-0.0625 0.078125,-0.296875 0.125,-0.4375 0.03125,-0.125 0.109375,-0.453125 0.140625,-0.625 0.046875,-0.15625 0.09375,-0.3125 0.125,-0.46875 0.078125,-0.28125 0.09375,-0.34375 0.296875,-0.625 C 2.171875,-2.515625 2.5,-2.875 3.03125,-2.875 c 0.390625,0 0.40625,0.359375 0.40625,0.484375 0,0.421875 -0.296875,1.1875 -0.40625,1.484375 -0.078125,0.203125 -0.109375,0.265625 -0.109375,0.375 0,0.375 0.296875,0.59375 0.65625,0.59375 0.703125,0 1,-0.953125 1,-1.0625 0,-0.09375 -0.078125,-0.09375 -0.109375,-0.09375 -0.09375,0 -0.09375,0.046875 -0.125,0.125 C 4.1875,-0.40625 3.875,-0.125 3.609375,-0.125 c -0.15625,0 -0.1875,-0.09375 -0.1875,-0.25 0,-0.15625 0.046875,-0.25 0.171875,-0.5625 0.078125,-0.21875 0.359375,-0.953125 0.359375,-1.34375 0,-0.671875 -0.53125,-0.796875 -0.90625,-0.796875 -0.578125,0 -0.96875,0.359375 -1.171875,0.640625 -0.046875,-0.484375 -0.453125,-0.640625 -0.75,-0.640625 -0.296875,0 -0.453125,0.21875 -0.546875,0.375 -0.15625,0.265625 -0.25,0.65625 -0.25,0.703125 0,0.078125 0.09375,0.078125 0.125,0.078125 0.09375,0 0.09375,-0.015625 0.140625,-0.203125 0.109375,-0.40625 0.25,-0.75 0.515625,-0.75 0.1875,0 0.234375,0.15625 0.234375,0.34375 0,0.125 -0.0625,0.390625 -0.125,0.578125 -0.046875,0.1875 -0.109375,0.46875 -0.140625,0.625 z m 0,0"
             id="path9565" />
        </symbol>
        <symbol
           overflow="visible"
           id="symbol9571">
          <path
             style="stroke:none"
             d=""
             id="path9569" />
        </symbol>
        <symbol
           overflow="visible"
           id="symbol9575">
          <path
             style="stroke:none"
             d="m 3.296875,2.390625 c 0,-0.03125 0,-0.046875 -0.171875,-0.21875 C 1.890625,0.921875 1.5625,-0.96875 1.5625,-2.5 c 0,-1.734375 0.375,-3.46875 1.609375,-4.703125 0.125,-0.125 0.125,-0.140625 0.125,-0.171875 0,-0.078125 -0.03125,-0.109375 -0.09375,-0.109375 -0.109375,0 -1,0.6875 -1.59375,1.953125 -0.5,1.09375 -0.625,2.203125 -0.625,3.03125 0,0.78125 0.109375,1.984375 0.65625,3.125 C 2.25,1.84375 3.09375,2.5 3.203125,2.5 c 0.0625,0 0.09375,-0.03125 0.09375,-0.109375 z m 0,0"
             id="path9573" />
        </symbol>
        <symbol
           overflow="visible"
           id="symbol9579">
          <path
             style="stroke:none"
             d="m 2.875,-2.5 c 0,-0.765625 -0.109375,-1.96875 -0.65625,-3.109375 -0.59375,-1.21875 -1.453125,-1.875 -1.546875,-1.875 -0.0625,0 -0.109375,0.046875 -0.109375,0.109375 0,0.03125 0,0.046875 0.1875,0.234375 0.984375,0.984375 1.546875,2.5625 1.546875,4.640625 0,1.71875 -0.359375,3.46875 -1.59375,4.71875 C 0.5625,2.34375 0.5625,2.359375 0.5625,2.390625 0.5625,2.453125 0.609375,2.5 0.671875,2.5 0.765625,2.5 1.671875,1.8125 2.25,0.546875 2.765625,-0.546875 2.875,-1.65625 2.875,-2.5 Z m 0,0"
             id="path9577" />
        </symbol>
      </g>
    </defs>
    <g
       id="id-8e30642d-dbd3-4caa-a8c5-87cf82177ab1"
       transform="translate(-149.9,-127.281)">
      <g
         style="fill:#000000;fill-opacity:1"
         id="id-65405037-f1c1-4d75-9d09-3fdb9988cc11">
        <g
           transform="translate(148.712,134.765)"
           id="g2048">
          <path
             style="stroke:none"
             d="m 1.578125,-7.125 c 0,-0.171875 0,-0.359375 -0.1875,-0.359375 -0.203125,0 -0.203125,0.1875 -0.203125,0.359375 v 9.265625 c 0,0.171875 0,0.359375 0.203125,0.359375 0.1875,0 0.1875,-0.1875 0.1875,-0.359375 z m 0,0"
             id="id-4d25a6ce-c8f4-4046-9cf8-9955598571e5" />
        </g>
      </g>
      <g
         style="fill:#000000;fill-opacity:1"
         id="id-16321f15-39d4-4d2d-98ef-046a47c4e29e">
        <g
           transform="translate(151.48,134.765)"
           id="g2052">
          <path
             style="stroke:none"
             d="m 3.015625,-3.234375 h 0.96875 c 0.75,0 0.828125,0.15625 0.828125,0.4375 0,0.078125 0,0.1875 -0.0625,0.5 C 4.71875,-2.25 4.71875,-2.21875 4.71875,-2.1875 c 0,0.078125 0.0625,0.109375 0.109375,0.109375 0.109375,0 0.109375,-0.03125 0.15625,-0.203125 L 5.53125,-4.453125 C 5.5625,-4.5625 5.5625,-4.578125 5.5625,-4.609375 5.5625,-4.625 5.546875,-4.71875 5.4375,-4.71875 5.34375,-4.71875 5.328125,-4.671875 5.296875,-4.5 5.078125,-3.734375 4.859375,-3.546875 4,-3.546875 H 3.09375 l 0.640625,-2.53125 C 3.828125,-6.4375 3.84375,-6.46875 4.28125,-6.46875 h 1.3125 c 1.21875,0 1.453125,0.328125 1.453125,1.09375 0,0.234375 0,0.265625 -0.03125,0.546875 C 7,-4.703125 7,-4.6875 7,-4.65625 c 0,0.046875 0.03125,0.125 0.125,0.125 0.109375,0 0.109375,-0.0625 0.125,-0.25 L 7.453125,-6.515625 C 7.484375,-6.78125 7.4375,-6.78125 7.1875,-6.78125 H 2.296875 c -0.1875,0 -0.296875,0 -0.296875,0.203125 0,0.109375 0.09375,0.109375 0.28125,0.109375 0.375,0 0.65625,0 0.65625,0.171875 0,0.046875 0,0.0625 -0.0625,0.25 L 1.5625,-0.78125 c -0.09375,0.390625 -0.109375,0.46875 -0.90625,0.46875 -0.171875,0 -0.28125,0 -0.28125,0.1875 C 0.375,0 0.5,0 0.53125,0 0.8125,0 1.5625,-0.03125 1.84375,-0.03125 2.171875,-0.03125 3,0 3.328125,0 3.421875,0 3.53125,0 3.53125,-0.1875 3.53125,-0.265625 3.484375,-0.296875 3.484375,-0.296875 3.453125,-0.3125 3.421875,-0.3125 3.203125,-0.3125 c -0.21875,0 -0.265625,0 -0.515625,-0.015625 -0.296875,-0.03125 -0.328125,-0.078125 -0.328125,-0.203125 0,-0.015625 0,-0.078125 0.046875,-0.21875 z m 0,0"
             id="id-e14052db-c63b-49e4-8ddd-ea374ade1417" />
        </g>
      </g>
      <g
         style="fill:#000000;fill-opacity:1"
         id="id-7fb40556-b328-4d57-bf05-0d1d0c223625">
        <g
           transform="translate(157.886,136.259)"
           id="g2056">
          <path
             style="stroke:none"
             d="m 0.84375,-0.4375 c -0.015625,0.09375 -0.0625,0.265625 -0.0625,0.28125 0,0.15625 0.125,0.21875 0.234375,0.21875 0.125,0 0.234375,-0.078125 0.28125,-0.140625 0.03125,-0.0625 0.078125,-0.296875 0.125,-0.4375 0.03125,-0.125 0.109375,-0.453125 0.140625,-0.625 0.046875,-0.15625 0.09375,-0.3125 0.125,-0.46875 0.078125,-0.28125 0.09375,-0.34375 0.296875,-0.625 C 2.171875,-2.515625 2.5,-2.875 3.03125,-2.875 c 0.390625,0 0.40625,0.359375 0.40625,0.484375 0,0.421875 -0.296875,1.1875 -0.40625,1.484375 -0.078125,0.203125 -0.109375,0.265625 -0.109375,0.375 0,0.375 0.296875,0.59375 0.65625,0.59375 0.703125,0 1,-0.953125 1,-1.0625 0,-0.09375 -0.078125,-0.09375 -0.109375,-0.09375 -0.09375,0 -0.09375,0.046875 -0.125,0.125 C 4.1875,-0.40625 3.875,-0.125 3.609375,-0.125 c -0.15625,0 -0.1875,-0.09375 -0.1875,-0.25 0,-0.15625 0.046875,-0.25 0.171875,-0.5625 0.078125,-0.21875 0.359375,-0.953125 0.359375,-1.34375 0,-0.671875 -0.53125,-0.796875 -0.90625,-0.796875 -0.578125,0 -0.96875,0.359375 -1.171875,0.640625 -0.046875,-0.484375 -0.453125,-0.640625 -0.75,-0.640625 -0.296875,0 -0.453125,0.21875 -0.546875,0.375 -0.15625,0.265625 -0.25,0.65625 -0.25,0.703125 0,0.078125 0.09375,0.078125 0.125,0.078125 0.09375,0 0.09375,-0.015625 0.140625,-0.203125 0.109375,-0.40625 0.25,-0.75 0.515625,-0.75 0.1875,0 0.234375,0.15625 0.234375,0.34375 0,0.125 -0.0625,0.390625 -0.125,0.578125 -0.046875,0.1875 -0.109375,0.46875 -0.140625,0.625 z m 0,0"
             id="id-f476a4f9-c341-4e19-a870-17898b1a7a0e" />
        </g>
      </g>
      <g
         style="fill:#000000;fill-opacity:1"
         id="id-3472e85e-044f-4b8d-b18b-7d5be5d02425">
        <g
           transform="translate(163.309,134.765)"
           id="g2060">
          <path
             style="stroke:none"
             d="m 3.296875,2.390625 c 0,-0.03125 0,-0.046875 -0.171875,-0.21875 C 1.890625,0.921875 1.5625,-0.96875 1.5625,-2.5 c 0,-1.734375 0.375,-3.46875 1.609375,-4.703125 0.125,-0.125 0.125,-0.140625 0.125,-0.171875 0,-0.078125 -0.03125,-0.109375 -0.09375,-0.109375 -0.109375,0 -1,0.6875 -1.59375,1.953125 -0.5,1.09375 -0.625,2.203125 -0.625,3.03125 0,0.78125 0.109375,1.984375 0.65625,3.125 C 2.25,1.84375 3.09375,2.5 3.203125,2.5 c 0.0625,0 0.09375,-0.03125 0.09375,-0.109375 z m 0,0"
             id="id-d6e042b9-be96-4023-9bc5-9f3099b256a2" />
        </g>
      </g>
      <g
         style="fill:#000000;fill-opacity:1"
         id="id-a910b7ba-bb5e-42ed-a910-13eeaa2546ca">
        <g
           transform="translate(167.184,134.765)"
           id="g2064">
          <path
             style="stroke:none"
             d="m 6.03125,-3.703125 c 0,-0.453125 -0.171875,-0.703125 -0.40625,-0.703125 -0.25,0 -0.515625,0.234375 -0.515625,0.46875 0,0.09375 0.046875,0.203125 0.140625,0.296875 0.171875,0.15625 0.359375,0.421875 0.359375,0.84375 0,0.390625 -0.203125,0.96875 -0.5,1.421875 C 4.8125,-0.953125 4.4375,-0.609375 3.96875,-0.609375 3.40625,-0.609375 3.09375,-0.96875 3,-1.5 c 0.109375,-0.265625 0.34375,-0.90625 0.34375,-1.1875 0,-0.109375 -0.046875,-0.21875 -0.1875,-0.21875 -0.078125,0 -0.1875,0.03125 -0.265625,0.171875 C 2.78125,-2.53125 2.65625,-1.890625 2.65625,-1.53125 2.328125,-1.0625 1.9375,-0.609375 1.3125,-0.609375 c -0.671875,0 -0.875,-0.59375 -0.875,-1.140625 0,-1.25 1.015625,-2.296875 1.015625,-2.421875 0,-0.109375 -0.078125,-0.1875 -0.1875,-0.1875 -0.125,0 -0.203125,0.125 -0.265625,0.21875 -0.5,0.734375 -0.875,1.921875 -0.875,2.828125 0,0.6875 0.21875,1.421875 1.046875,1.421875 0.703125,0 1.171875,-0.5 1.53125,-1.046875 0.09375,0.578125 0.484375,1.046875 1.09375,1.046875 0.78125,0 1.25,-0.609375 1.609375,-1.359375 0.25,-0.484375 0.625,-1.84375 0.625,-2.453125 z m 0,0"
             id="id-9171dfa2-4d98-4933-b298-c52242d4b7c8" />
        </g>
      </g>
      <g
         style="fill:#000000;fill-opacity:1"
         id="id-b885e5f6-52f7-4696-9714-7751d2433214">
        <g
           transform="translate(173.742,134.765)"
           id="g2068">
          <path
             style="stroke:none"
             d="m 2.875,-2.5 c 0,-0.765625 -0.109375,-1.96875 -0.65625,-3.109375 -0.59375,-1.21875 -1.453125,-1.875 -1.546875,-1.875 -0.0625,0 -0.109375,0.046875 -0.109375,0.109375 0,0.03125 0,0.046875 0.1875,0.234375 0.984375,0.984375 1.546875,2.5625 1.546875,4.640625 0,1.71875 -0.359375,3.46875 -1.59375,4.71875 C 0.5625,2.34375 0.5625,2.359375 0.5625,2.390625 0.5625,2.453125 0.609375,2.5 0.671875,2.5 0.765625,2.5 1.671875,1.8125 2.25,0.546875 2.765625,-0.546875 2.875,-1.65625 2.875,-2.5 Z m 0,0"
             id="id-0379b920-1ede-431f-8dda-3d4655dc65cd" />
        </g>
      </g>
      <g
         style="fill:#000000;fill-opacity:1"
         id="id-e1f267a2-2ad3-452f-8dc3-5cfe96dfbc0b">
        <g
           transform="translate(177.617,134.765)"
           id="g2072">
          <path
             style="stroke:none"
             d="m 1.578125,-7.125 c 0,-0.171875 0,-0.359375 -0.1875,-0.359375 -0.203125,0 -0.203125,0.1875 -0.203125,0.359375 v 9.265625 c 0,0.171875 0,0.359375 0.203125,0.359375 0.1875,0 0.1875,-0.1875 0.1875,-0.359375 z m 0,0"
             id="id-be374382-6436-4a8a-ba15-2cc82f0fdacf" />
        </g>
      </g>
    </g>
  </g>
  <text
     xml:space="preserve"
     style="font-size:23.68710000000000093px;line-height:1.25;font-family:'Times New Roman';-inkscape-font-specification:'Times New Roman, ';word-spacing:0px;stroke-width:0.592179;stroke:none;fill:#008000;"
     x="588.46729"
     y="155.50323"
     id="text9721"><tspan
       sodipodi:role="line"
       id="tspan9719"
       x="588.46729"
       y="155.50323"
       style="stroke-width:0.592179;stroke:none;fill:#008000;">No interference</tspan></text>
</svg>
