<?xml version="1.0" encoding="UTF-8" standalone="no"?>
<svg
   xmlns:dc="http://purl.org/dc/elements/1.1/"
   xmlns:cc="http://creativecommons.org/ns#"
   xmlns:rdf="http://www.w3.org/1999/02/22-rdf-syntax-ns#"
   xmlns:svg="http://www.w3.org/2000/svg"
   xmlns="http://www.w3.org/2000/svg"
   xmlns:xlink="http://www.w3.org/1999/xlink"
   xmlns:sodipodi="http://sodipodi.sourceforge.net/DTD/sodipodi-0.dtd"
   xmlns:inkscape="http://www.inkscape.org/namespaces/inkscape"
   version="1.1"
   width="1220"
   height="812"
   id="svg269"
   sodipodi:docname="sinc.svg"
   inkscape:version="1.0.1 (c497b03c, 2020-09-10)">
  <metadata
     id="metadata273">
    <rdf:RDF>
      <cc:Work
         rdf:about="">
        <dc:format>image/svg+xml</dc:format>
        <dc:type
           rdf:resource="http://purl.org/dc/dcmitype/StillImage" />
      </cc:Work>
    </rdf:RDF>
  </metadata>
  <sodipodi:namedview
     pagecolor="#ffffff"
     bordercolor="#666666"
     borderopacity="1"
     objecttolerance="10"
     gridtolerance="10"
     guidetolerance="10"
     inkscape:pageopacity="0"
     inkscape:pageshadow="2"
     inkscape:window-width="1600"
     inkscape:window-height="900"
     id="namedview271"
     showgrid="false"
     inkscape:zoom="0.70644382"
     inkscape:cx="630.45314"
     inkscape:cy="376.80828"
     inkscape:window-x="1280"
     inkscape:window-y="0"
     inkscape:window-maximized="0"
     inkscape:current-layer="svg269"
     inkscape:document-rotation="0" />
  <defs
     id="defs11">
    <linearGradient
       inkscape:collect="always"
       id="linearGradient1248">
      <stop
         style="stop-color:#333333;stop-opacity:1;"
         offset="0"
         id="stop1244" />
      <stop
         style="stop-color:#333333;stop-opacity:0;"
         offset="1"
         id="stop1246" />
    </linearGradient>
    <inkscape:path-effect
       effect="spiro"
       id="path-effect1120"
       is_visible="true"
       lpeversion="1" />
    <inkscape:path-effect
       effect="skeletal"
       id="path-effect1116"
       is_visible="true"
       lpeversion="1"
       pattern="M 0,5 C 0,2.24 2.24,0 5,0 7.76,0 10,2.24 10,5 10,7.76 7.76,10 5,10 2.24,10 0,7.76 0,5 Z"
       copytype="single_stretched"
       prop_scale="-0.50392"
       scale_y_rel="false"
       spacing="0"
       normal_offset="0"
       tang_offset="0"
       prop_units="false"
       vertical_pattern="false"
       hide_knot="false"
       fuse_tolerance="0" />
    <inkscape:path-effect
       effect="spiro"
       id="path-effect1096"
       is_visible="true"
       lpeversion="1" />
    <inkscape:path-effect
       effect="spiro"
       id="path-effect42"
       is_visible="true"
       lpeversion="1" />
    <inkscape:perspective
       sodipodi:type="inkscape:persp3d"
       inkscape:vp_x="0 : 406 : 1"
       inkscape:vp_y="0 : 1000 : 0"
       inkscape:vp_z="1220 : 406 : 1"
       inkscape:persp3d-origin="610 : 270.66667 : 1"
       id="perspective2220" />
    <clipPath
       id="hODlfAlSrsxy">
      <path
         fill="none"
         stroke="none"
         d=" M 0 0 L 1220 0 L 1220 812 L 0 812 L 0 0 Z"
         id="path8" />
    </clipPath>
    <clipPath
       id="hODlfAlSrsxy-0-1">
      <path
         fill="none"
         stroke="none"
         d="M 0,0 H 1220 V 812 H 0 Z"
         id="path1392-8" />
    </clipPath>
    <clipPath
       id="hODlfAlSrsxy-0-2-8">
      <path
         fill="none"
         stroke="none"
         d="M 0,0 H 1220 V 812 H 0 Z"
         id="path1392-2-2" />
    </clipPath>
    <clipPath
       id="hODlfAlSrsxy-0-2-5">
      <path
         fill="none"
         stroke="none"
         d="M 0,0 H 1220 V 812 H 0 Z"
         id="path1392-2-8" />
    </clipPath>
    <clipPath
       id="hODlfAlSrsxy-0-3">
      <path
         fill="none"
         stroke="none"
         d="M 0,0 H 1220 V 812 H 0 Z"
         id="path1392-0" />
    </clipPath>
    <linearGradient
       inkscape:collect="always"
       xlink:href="#linearGradient1248"
       id="linearGradient1250"
       x1="726.74792"
       y1="664.96069"
       x2="261.88867"
       y2="308.92004"
       gradientUnits="userSpaceOnUse" />
    <linearGradient
       inkscape:collect="always"
       xlink:href="#linearGradient1248"
       id="linearGradient1252"
       x1="891.10724"
       y1="594.12128"
       x2="425.05649"
       y2="239.93414"
       gradientUnits="userSpaceOnUse" />
    <linearGradient
       inkscape:collect="always"
       xlink:href="#linearGradient1248"
       id="linearGradient1254"
       x1="1057.4025"
       y1="521.59106"
       x2="581.44971"
       y2="173.44514"
       gradientUnits="userSpaceOnUse" />
  </defs>
  <path
     style="fill:none;stroke:#000000;stroke-width:1px;stroke-linecap:butt;stroke-linejoin:miter;stroke-opacity:1"
     d="M -205.02369,3448.1257 C 5125.5922,6020.2411 10996.725,5498.3626 8629.6335,3634.5109"
     id="path563" />
  <path
     fill="none"
     stroke="none"
     d="m 75.161928,-468.19385 1219.999972,610 v 812 l -1219.999972,-610 z"
     id="path1392-2" />
  <path
     fill="none"
     stroke="#000000"
     paint-order="fill stroke markers"
     d="M 24.80229,323.92749 541.70096,743.1982"
     stroke-opacity="1"
     stroke-miterlimit="10"
     id="path1405"
     style="stroke-width:0.696441;stroke-miterlimit:10;stroke-dasharray:none"
     sodipodi:nodetypes="cc" />
  <path
     fill="none"
     stroke="#2e7d32"
     paint-order="fill stroke markers"
     d="m 24.80229,324.94136 2.019127,3.81024 2.019145,3.88774 2.019127,3.94393 2.019146,3.97791 2.019127,3.98892 2.019136,3.9766 2.019136,3.94061 2.019136,3.88096 2.019136,3.7978 2.019137,3.69164 2.019136,3.56306 2.019136,3.413 2.019136,3.24255 2.019136,3.05304 2.019137,2.84601 2.019126,2.62315 2.019146,2.38641 2.019136,2.13787 2.019136,1.87974 2.019127,1.61435 2.019136,1.34425 2.019137,1.07184 2.019145,0.79989 2.019127,0.53104 2.019127,0.26789 2.019145,0.0132 2.019127,-0.23038 2.019146,-0.46035 2.019136,-0.67407 2.019127,-0.86926 2.019136,-1.04361 2.019136,-1.19499 2.019136,-1.32148 2.019137,-1.42132 2.019126,-1.49302 2.019136,-1.53527 2.019146,-1.54709 2.019139,-1.52762 2.01914,-1.47646 2.01913,-1.39337 2.01913,-1.27844 2.01913,-1.13211 2.01914,-0.95498 2.01914,-0.74816 2.01913,-0.5129 2.01913,-0.25078 2.01914,0.0363 2.01914,0.34628 2.01914,0.67667 2.01914,1.02484 2.01913,1.38796 2.01913,1.76288 2.01913,2.14642 2.01914,2.53517 2.01913,2.9256 2.01915,3.31403 2.01913,3.69683 2.01913,4.0702 2.01914,4.43046 2.01914,4.7738 2.01913,5.09662 2.01913,5.39531 2.01913,5.66644 2.01915,5.9067 2.01913,6.11291 2.01914,6.28224 2.01913,6.41198 2.01914,6.49974 1.00956,3.26905 1.00958,3.27433 1.00956,3.27379 1.00958,3.26738 2.01912,6.49155 2.01914,6.39352 2.01914,6.24626 2.01913,6.04942 2.01914,5.80309 2.01913,5.50762 2.01914,5.1639 2.01913,4.77311 2.01912,4.33687 2.01916,3.85725 2.01913,3.33653 1.00956,1.46095 1.00958,1.31663 2.01913,2.18347 0.50479,0.44934 0.50479,0.40897 1.00956,0.69871 1.00957,0.53523 1.00956,0.36857 1.00958,0.1991 1.00956,0.027 2.01913,-0.47138 2.01914,-1.18391 2.01913,-1.90685 2.01915,-2.63532 1.00955,-1.59122 1.00958,-1.77311 1.00956,-1.95428 1.00957,-2.13441 1.00956,-2.31317 1.00957,-2.4902 1.00958,-2.66524 1.00956,-2.8379 1.00958,-3.00792 1.00955,-3.17494 1.00957,-3.33866 1.00957,-3.49881 1.00957,-3.65498 1.00957,-3.80697 1.00956,-3.95442 0.50479,-2.03103 0.50478,-2.06605 0.5048,-2.10046 0.50477,-2.1342 0.50478,-2.16723 0.50478,-2.19961 0.50479,-2.23123 0.50479,-2.26216 0.50477,-2.29231 0.50479,-2.32173 0.50478,-2.35035 0.50479,-2.37818 0.50479,-2.40521 0.50478,-2.43142 0.50479,-2.45679 0.50477,-2.48129 0.50479,-2.50496 0.50479,-2.52772 0.50478,-2.54961 0.50479,-2.57059 0.50478,-2.59067 0.50478,-2.60978 0.50479,-2.628 0.50478,-2.64525 0.50479,-2.66154 0.50477,-2.67685 0.50479,-2.69118 0.50478,-2.70452 0.50479,-2.71687 0.50478,-2.72819 0.50478,-2.73854 0.50479,-2.74779 0.50478,-2.75606 0.50478,-2.76328 0.5048,-2.76943 0.50477,-2.77455 0.50479,-2.77862 0.50479,-2.7816 0.50478,-2.78352 0.50478,-2.78437 0.50478,-2.78412 0.50479,-2.78282 0.50479,-2.78042 0.50477,-2.77692 0.50479,-2.77235 0.50477,-2.76669 0.5048,-2.75992 0.50478,-2.75205 0.50478,-2.74312 0.50479,-2.73305 0.50478,-2.72193 0.50479,-2.70969 0.50478,-2.69636 0.50477,-2.68195 0.50479,-2.66645 0.50478,-2.64988 0.50481,-2.63219 0.50477,-2.61347 0.50478,-2.59364 0.50479,-2.57278 0.50478,-2.55081 0.50479,-2.52783 0.50478,-2.50377 0.50478,-2.47868 0.50479,-2.45255 0.50477,-2.42539 0.5048,-2.39719 0.50478,-2.36802 0.50478,-2.3378 0.50478,-2.30662 0.50478,-2.27443 0.50481,-2.24128 0.50476,-2.20715 0.50479,-2.1721 0.50478,-2.13607 0.50478,-2.09913 0.5048,-2.06128 0.50478,-2.02251 1.00956,-3.92515 1.00958,-3.75956 1.00957,-3.58724 1.00955,-3.4084 1.00957,-3.22331 1.00958,-3.03223 1.00958,-2.8354 1.00954,-2.63323 1.00957,-2.42582 1.00958,-2.2136 1.00954,-1.99691 1.00959,-1.77591 2.01912,-2.87385 2.01915,-1.94778 2.01913,-1.0003 1.00958,-0.13965 1.00957,0.10273 1.00954,0.34613 0.5048,0.26461 0.50479,0.32568 1.00958,0.83478 0.50478,0.50909 0.50477,0.57013 1.00957,1.32332 1.00957,1.5666 1.00959,1.80876 1.00954,2.04939 2.01915,4.81303 2.01913,5.74875 1.00958,3.21777 1.00957,3.44198 1.00955,3.66227 1.00957,3.87831 1.00959,4.08979 1.00953,4.29631 1.00959,4.49771 1.00958,4.69361 1.00953,4.88371 1.00958,5.06785 1.00958,5.24567 1.00954,5.41689 1.00958,5.58142 0.50479,2.8502 0.50478,2.88867 0.50481,2.92627 0.50478,2.96289 0.50475,2.99857 0.50478,3.03339 0.5048,3.06718 0.50479,3.10002 0.50479,3.1319 0.50479,3.16277 0.50479,3.19265 0.50478,3.2215 0.50476,3.24935 0.50478,3.2762 0.5048,3.302 0.50478,3.32677 0.5048,3.35048 0.50475,3.3731 0.50478,3.39474 0.5048,3.41528 0.50482,3.43478 0.50473,3.45308 0.50478,3.47047 0.50482,3.48672 0.5048,3.50185 0.50478,3.51591 0.50479,3.52889 0.50476,3.54074 0.50478,3.55156 0.5048,3.56124 0.50478,3.56985 0.50477,3.57733 0.50478,3.58377 0.50478,3.58909 0.50479,3.59331 0.50479,3.59645 0.50476,3.59847 0.50479,3.5995 0.50482,3.59938 0.5048,3.59815 0.50478,3.59591 0.50476,3.59255 0.50478,3.58817 0.50479,3.58273 0.50479,3.5762 0.50475,3.56865 0.5048,3.56007 0.50478,3.55045 0.50479,3.53983 0.50479,3.52815 0.50475,3.51547 0.5048,3.50182 0.50478,3.48719 0.50483,3.47159 0.50479,3.45495 0.50474,3.43737 0.5048,3.4189 0.50479,3.39946 0.50479,3.37911 0.50479,3.35781 0.50474,3.33563 0.50481,3.3126 0.50478,3.28865 0.50479,3.26388 0.50475,3.23821 0.50479,3.21175 0.5048,3.18448 0.50478,3.15638 0.50479,3.12751 0.50474,3.09782 0.50483,3.06749 0.50479,3.03629 0.50479,3.00442 0.5048,2.97185 0.50475,2.93854 0.50479,2.90463 0.50479,2.87001 0.50478,2.83478 1.00954,5.56133 1.00959,5.41313 1.00953,5.26045 1.00959,5.10361 1.00961,4.94291 1.00954,4.77861 1.00958,4.61108 1.00954,4.44058 1.00958,4.26758 1.00955,4.09213 1.00956,3.91488 1.00959,3.73586 1.00958,3.55554 1.00958,3.37422 2.01911,6.20207 2.01913,5.47271 2.01913,4.7469 2.01917,4.02948 2.01914,3.32506 1.00954,1.40376 1.00957,1.23475 1.00955,1.06857 1.00962,0.90566 1.00957,0.74599 1.00955,0.5901 1.00957,0.43805 1.00954,0.29011 2.01913,0.15415 2.01918,-0.38296 2.01913,-0.88015 2.01912,-1.33489 2.01912,-1.74501 2.01915,-2.10861 2.01913,-2.42443 2.01911,-2.69153 2.01916,-2.90914 2.01916,-3.07711 2.01912,-3.19578 1.00958,-1.62711 1.00954,-1.63857 1.00959,-1.64395 1.00953,-1.6436 1.00961,-1.63731 1.00959,-1.62558 2.01912,-3.19347 2.01912,-3.0811 2.01912,-2.92807 2.01915,-2.73698 2.01913,-2.51063 2.01912,-2.25213 2.01913,-1.96453 2.01918,-1.65136 2.01913,-1.31625 2.01911,-0.96269 2.01912,-0.5943 2.01917,-0.21504 2.01914,0.17154 2.01913,0.56152 2.01911,0.95148 2.01917,1.33761 2.01912,1.71652 2.01912,2.08499 2.01912,2.43974 2.01919,2.77805 2.01908,3.09674 2.01916,3.39377 2.01912,3.66666 2.01913,3.91333 2.01912,4.13236 2.01918,4.32206 2.01913,4.48137 2.01913,4.60958 2.01914,4.70607 2.01913,4.77057 2.01912,4.80334 2.01912,4.80452 2.0192,4.77505 2.01911,4.71548 2.01912,4.62727 2.01912,4.51174 2.01916,4.37067 2.01912,4.20562 2.01913,4.01901 2.01914,3.81269 2.01917,3.58934 2.01911,3.35104 2.01913,3.10071 2.01912,2.84084 2.01919,2.57411 2.01912,2.30306 2.01912,2.03052 2.01913,1.75919 2.01916,1.49147 2.01911,1.23 2.01912,0.9771 2.01912,0.73522 2.0192,0.5063 2.01912,0.29236 2.01912,0.0953 2.01912,-0.0833 2.01916,-0.24207 2.01915,-0.37973 2.01913,-0.49546 2.01912,-0.58835 2.01915,-0.65784 2.01912,-0.70388 2.01912,-0.72601 2.01912,-0.72482 2.0192,-0.70032 2.01911,-0.65343 2.01912,-0.58473"
     stroke-opacity="0.8"
     stroke-linecap="round"
     stroke-linejoin="round"
     stroke-miterlimit="10"
     stroke-width="2.98676"
     id="path1641"
     style="opacity:1;fill:#515151;fill-opacity:0.245283;stroke:#000000;stroke-width:4.91408;stroke-miterlimit:10;stroke-dasharray:none;stroke-opacity:1" />
  <path
     fill="none"
     stroke="none"
     d="m -132.25681,-399.02179 1220.00001,610 V 1022.9782 L -132.25681,412.97821 Z"
     id="path1392" />
  <path
     fill="none"
     stroke="#000000"
     paint-order="fill stroke markers"
     d="M 24.80229,323.92749 651.60161,60.77263"
     stroke-opacity="1"
     stroke-miterlimit="10"
     id="path1405-5"
     style="stroke-width:0.661529;stroke-miterlimit:10;stroke-dasharray:none"
     inkscape:transform-center-x="-315.92977"
     inkscape:transform-center-y="-128.69413" />
  <path
     fill="none"
     stroke="#2e7d32"
     paint-order="fill stroke markers"
     d="m 185.44945,253.71397 2.14537,2.66383 2.14539,2.70279 2.14537,2.73103 2.14539,2.74812 2.14537,2.75364 2.14538,2.74745 2.14538,2.72937 2.14538,2.69937 2.14538,2.65758 2.14538,2.60421 2.14538,2.53958 2.14538,2.46414 2.14538,2.37845 2.14537,2.2832 2.14538,2.17911 2.14537,2.06709 2.14539,1.9481 2.14538,1.82315 2.14538,1.69338 2.14537,1.55994 2.14538,1.42423 2.14538,1.28726 2.14539,1.15057 2.14537,1.01541 2.14537,0.88313 2.14539,0.75509 2.14537,0.63265 2.14539,0.51705 2.14538,0.40963 2.14537,0.31149 2.14538,0.22385 2.14538,0.14776 2.14538,0.0842 2.14537,0.034 2.14537,-0.002 2.14538,-0.0233 2.14539,-0.0292 2.14538,-0.0195 2.14539,0.006 2.14537,0.0481 2.14537,0.10581 2.14538,0.17937 2.14538,0.2684 2.14538,0.37238 2.14538,0.49063 2.14537,0.62241 2.14539,0.7667 2.14538,0.92253 2.14538,1.08863 2.14539,1.26364 2.14537,1.44614 2.14537,1.63464 2.14538,1.82745 2.14537,2.02286 2.14538,2.21913 2.14539,2.4144 2.14537,2.60681 2.14538,2.79451 2.14538,2.9756 2.14539,3.1482 2.14537,3.31048 2.14537,3.46062 2.14538,3.59691 2.14539,3.7177 2.14537,3.82136 2.14539,3.90647 2.14537,3.9717 2.14538,4.0158 1.07269,2.01754 1.0727,2.02022 1.07268,2.01992 1.0727,2.01671 2.14537,4.01168 2.14538,3.96242 2.14538,3.88838 2.14537,3.78943 2.14538,3.66562 2.14537,3.51709 2.14539,3.3443 2.14537,3.14784 2.14537,2.92856 2.1454,2.68746 2.14537,2.4257 1.07269,1.10864 1.0727,1.03609 2.14537,1.84606 0.53636,0.41302 0.53634,0.39272 1.07268,0.7255 1.0727,0.64329 1.07268,0.55951 1.0727,0.47431 1.07268,0.38779 2.14538,0.5115 2.14538,0.15333 2.14537,-0.2101 2.1454,-0.57627 1.07267,-0.42565 1.0727,-0.51709 1.07268,-0.60817 1.0727,-0.69871 1.07268,-0.78858 1.07269,-0.87755 1.0727,-0.96555 1.07267,-1.05235 1.0727,-1.13781 1.07268,-1.22179 1.07269,-1.30407 1.07269,-1.38457 1.07269,-1.46309 1.07269,-1.53948 1.07269,-1.61362 0.53635,-0.83385 0.53634,-0.85146 0.53636,-0.86876 0.53633,-0.88572 0.53635,-0.90234 0.53633,-0.91859 0.53636,-0.9345 0.53634,-0.95005 0.53634,-0.9652 0.53635,-0.97999 0.53634,-0.99438 0.53635,-1.00836 0.53635,-1.02196 0.53634,-1.03512 0.53635,-1.0479 0.53633,-1.06019 0.53636,-1.0721 0.53634,-1.08354 0.53635,-1.09454 0.53634,-1.1051 0.53635,-1.11518 0.53634,-1.12478 0.53635,-1.13395 0.53634,-1.14262 0.53635,-1.15081 0.53633,-1.1585 0.53636,-1.16571 0.53633,-1.17242 0.53635,-1.17862 0.53634,-1.18432 0.53634,-1.18952 0.53636,-1.19416 0.53633,-1.19832 0.53635,-1.20195 0.53635,-1.20506 0.53634,-1.20762 0.53635,-1.20965 0.53635,-1.21117 0.53634,-1.21211 0.53634,-1.21256 0.53634,-1.21244 0.53636,-1.21176 0.53634,-1.21058 0.53634,-1.20881 0.53634,-1.2065 0.53634,-1.20368 0.53636,-1.20025 0.53634,-1.19631 0.53634,-1.19183 0.53635,-1.18675 0.53634,-1.18117 0.53635,-1.17502 0.53634,-1.1683 0.53634,-1.16108 0.53634,-1.15328 0.53635,-1.14493 0.53636,-1.13606 0.53634,-1.12665 0.53634,-1.11668 0.53635,-1.10618 0.53634,-1.09516 0.53635,-1.08359 0.53634,-1.0715 0.53635,-1.05888 0.53634,-1.04576 0.53634,-1.0321 0.53635,-1.01792 0.53634,-1.00325 0.53635,-0.98808 0.53633,-0.97239 0.53635,-0.95621 0.53636,-0.93955 0.53633,-0.92239 0.53634,-0.90478 0.53635,-0.88667 0.53634,-0.86809 0.53636,-0.84906 0.53634,-0.82957 1.07268,-1.59891 1.0727,-1.51564 1.07269,-1.42903 1.07268,-1.33913 1.07269,-1.24609 1.0727,-1.15004 1.0727,-1.05108 1.07266,-0.94947 1.0727,-0.8452 1.0727,-0.73851 1.07266,-0.6296 1.07271,-0.5185 2.14536,-0.69619 2.1454,-0.23066 2.14537,0.24562 1.0727,0.30404 1.0727,0.42588 1.07266,0.54822 0.53635,0.32013 0.53636,0.35083 1.0727,0.79387 0.53634,0.44304 0.53633,0.47371 1.0727,1.03945 1.07269,1.16174 1.07271,1.28348 1.07266,1.40443 2.1454,3.16793 2.14537,3.63829 1.0727,1.99177 1.07269,2.10447 1.07266,2.21521 1.0727,2.32383 1.07271,2.43013 1.07265,2.53392 1.07271,2.63518 1.0727,2.73366 1.07266,2.82921 1.0727,2.92178 1.0727,3.01117 1.07266,3.09724 1.0727,3.17994 0.53636,1.61989 0.53634,1.63921 0.53637,1.65813 0.53634,1.67653 0.53631,1.69445 0.53634,1.71196 0.53636,1.72896 0.53635,1.74547 0.53636,1.76148 0.53634,1.777 0.53636,1.79203 0.53634,1.80653 0.53632,1.82051 0.53634,1.83403 0.53636,1.84699 0.53634,1.85945 0.53636,1.87136 0.53631,1.88274 0.53634,1.89361 0.53636,1.90393 0.53639,1.91376 0.53628,1.92292 0.53634,1.93168 0.53639,1.93986 0.53635,1.94747 0.53635,1.95452 0.53635,1.96104 0.53632,1.967 0.53634,1.97245 0.53636,1.97731 0.53634,1.98164 0.53633,1.9854 0.53634,1.98862 0.53635,1.99132 0.53634,1.99342 0.53636,1.99502 0.53631,1.99602 0.53636,1.99655 0.53638,1.99649 0.53636,1.99586 0.53634,1.99475 0.53632,1.99303 0.53634,1.99086 0.53636,1.98811 0.53634,1.98483 0.53632,1.98103 0.53635,1.97672 0.53635,1.97189 0.53634,1.96654 0.53636,1.96068 0.53631,1.9543 0.53636,1.94744 0.53634,1.9401 0.5364,1.93225 0.53634,1.92388 0.53631,1.91502 0.53635,1.90576 0.53636,1.89599 0.53634,1.88577 0.53636,1.87504 0.5363,1.86389 0.53636,1.85233 0.53635,1.84028 0.53634,1.82783 0.53632,1.81492 0.53634,1.80163 0.53637,1.78791 0.53634,1.7738 0.53635,1.75928 0.5363,1.74434 0.5364,1.72913 0.53634,1.71342 0.53636,1.69741 0.53635,1.68103 0.53632,1.66427 0.53634,1.64725 0.53636,1.62984 0.53634,1.61213 1.07266,3.16983 1.07271,3.09536 1.07265,3.01858 1.07271,2.93977 1.07274,2.85899 1.07266,2.77637 1.0727,2.69218 1.07266,2.60644 1.0727,2.5195 1.07267,2.4313 1.07269,2.34219 1.07271,2.25222 1.0727,2.16156 1.0727,2.07042 2.14536,3.86617 2.14537,3.49953 2.14537,3.13467 2.14542,2.77405 2.14538,2.41994 1.07266,1.07988 1.0727,0.99493 1.07267,0.91138 1.07274,0.82949 1.07269,0.74873 1.07267,0.67083 1.0727,0.59444 1.07265,0.52006 2.14537,0.82595 2.14543,0.55597 2.14537,0.30603 2.14536,0.0774 2.14537,-0.12874 2.14539,-0.31151 2.14537,-0.47027 2.14536,-0.60454 2.1454,-0.71392 2.14541,-0.79835 2.14536,-0.85802 1.0727,-0.4437 1.07266,-0.44947 1.07271,-0.45215 1.07265,-0.452 1.07274,-0.44881 1.07271,-0.44292 2.14536,-0.85686 2.14537,-0.80037 2.14536,-0.72345 2.1454,-0.62738 2.14537,-0.5136 2.14535,-0.38366 2.14537,-0.23908 2.14543,-0.0817 2.14537,0.0868 2.14536,0.26451 2.14536,0.44972 2.14541,0.64038 2.14539,0.83469 2.14537,1.03074 2.14536,1.22675 2.14541,1.42092 2.14536,1.61133 2.14537,1.79657 2.14536,1.97489 2.14544,2.14497 2.14532,2.30514 2.1454,2.45448 2.14537,2.59165 2.14537,2.71565 2.14536,2.82575 2.14543,2.92113 2.14536,3.00119 2.14537,3.06565 2.14539,3.11415 2.14537,3.14657 2.14536,3.16305 2.14537,3.16363 2.14544,3.14886 2.14536,3.11887 2.14536,3.07453 2.14536,3.01645 2.14541,2.94557 2.14536,2.86257 2.14537,2.76877 2.14539,2.66506 2.14541,2.5528 2.14536,2.43299 2.14537,2.30715 2.14536,2.17651 2.14544,2.04246 2.14536,1.90618 2.14536,1.76918 2.14537,1.63279 2.1454,1.49849 2.14536,1.36676 2.14536,1.23963 2.14536,1.11805 2.14545,1.003 2.14536,0.89542 2.14537,0.79639 2.14536,0.70659 2.1454,0.62679 2.1454,0.55758 2.14537,0.49941 2.14536,0.4527 2.1454,0.41777 2.14536,0.39464 2.14536,0.38349 2.14537,0.38411 2.14544,0.39645 2.14536,0.41997 2.14535,0.45453"
     stroke-opacity="0.8"
     stroke-linecap="round"
     stroke-linejoin="round"
     stroke-miterlimit="10"
     stroke-width="2.98676"
     id="path1641-1"
     style="stroke:url(#linearGradient1250);stroke-width:5;stroke-miterlimit:10;stroke-dasharray:none;fill:#515151;fill-opacity:0.24528304;stroke-opacity:1" />
  <path
     fill="none"
     stroke="#000000"
     paint-order="fill stroke markers"
     d="M 541.70096,743.19815 1168.5003,480.04329"
     stroke-opacity="1"
     stroke-miterlimit="10"
     id="path1405-5-2"
     style="stroke-width:0.661529;stroke-miterlimit:10;stroke-dasharray:none"
     inkscape:transform-center-x="-315.92977"
     inkscape:transform-center-y="-128.69413" />
  <path
     fill="none"
     stroke="#2e7d32"
     paint-order="fill stroke markers"
     d="m 350.32197,182.47406 2.11243,3.75003 2.11245,3.8263 2.11244,3.88161 2.11245,3.91504 2.11243,3.92589 2.11245,3.91376 2.11244,3.87834 2.11244,3.81962 2.11245,3.73779 2.11244,3.6333 2.11244,3.50676 2.11245,3.35907 2.11244,3.19131 2.11244,3.00479 2.11245,2.80103 2.11243,2.5817 2.11245,2.3487 2.11245,2.10409 2.11244,1.85003 2.11243,1.58885 2.11245,1.323 2.11244,1.0549 2.11245,0.78725 2.11244,0.52265 2.11243,0.26366 2.11245,0.013 2.11244,-0.22675 2.11245,-0.45306 2.11244,-0.66342 2.11244,-0.85553 2.11244,-1.02712 2.11244,-1.1761 2.11245,-1.3006 2.11244,-1.39886 2.11243,-1.46942 2.11245,-1.51102 2.11245,-1.52263 2.11244,-1.50348 2.11246,-1.45314 2.11243,-1.37135 2.11243,-1.25824 2.11245,-1.11422 2.11244,-0.93988 2.11244,-0.73634 2.11245,-0.5048 2.11243,-0.24681 2.11245,0.0357 2.11245,0.34082 2.11244,0.66597 2.11246,1.00865 2.11243,1.36602 2.11243,1.73502 2.11245,2.11251 2.11244,2.49511 2.11244,2.87936 2.11246,3.26166 2.11243,3.63841 2.11244,4.00588 2.11245,4.36045 2.11245,4.69836 2.11243,5.01608 2.11244,5.31005 2.11244,5.5769 2.11245,5.81335 2.11244,6.01632 2.11245,6.18296 2.11243,6.31065 2.11245,6.39703 1.05622,3.2174 1.05623,3.22259 1.05621,3.22205 1.05623,3.21574 2.11244,6.38897 2.11244,6.29249 2.11244,6.14755 2.11245,5.95383 2.11244,5.71138 2.11243,5.42059 2.11246,5.0823 2.11243,4.69768 2.11243,4.26833 2.11247,3.79629 2.11243,3.28381 1.05622,1.43786 1.05623,1.29583 2.11244,2.14896 0.52812,0.44225 0.52811,0.4025 1.05621,0.68767 1.05623,0.52678 1.05621,0.36274 1.05624,0.19595 1.05621,0.0265 2.11244,-0.46394 2.11244,-1.16519 2.11244,-1.87673 2.11246,-2.59367 1.0562,-1.56607 1.05623,-1.74509 1.05622,-1.9234 1.05623,-2.10068 1.05621,-2.27662 1.05622,-2.45084 1.05623,-2.62313 1.05621,-2.79306 1.05624,-2.96038 1.05621,-3.12476 1.05622,-3.28591 1.05622,-3.44351 1.05622,-3.59723 1.05622,-3.74681 1.05623,-3.89193 0.52811,-1.99893 0.52811,-2.03341 0.52812,-2.06726 0.5281,-2.10048 0.52811,-2.13298 0.5281,-2.16485 0.52812,-2.19598 0.52811,-2.22641 0.5281,-2.25608 0.52812,-2.28504 0.52811,-2.3132 0.52812,-2.34061 0.52811,-2.3672 0.52811,-2.39299 0.52811,-2.41797 0.5281,-2.44208 0.52812,-2.46537 0.52811,-2.48778 0.52811,-2.50932 0.52811,-2.52997 0.52811,-2.54973 0.52811,-2.56854 0.52812,-2.58647 0.52811,-2.60345 0.52811,-2.61948 0.5281,-2.63455 0.52812,-2.64865 0.5281,-2.66179 0.52812,-2.67393 0.5281,-2.68508 0.52811,-2.69526 0.52812,-2.70437 0.5281,-2.7125 0.52812,-2.71962 0.52812,-2.72566 0.5281,-2.73072 0.52812,-2.73471 0.52811,-2.73764 0.52811,-2.73953 0.5281,-2.74037 0.52811,-2.74013 0.52812,-2.73883 0.52811,-2.73649 0.5281,-2.73304 0.52811,-2.72853 0.52811,-2.72298 0.52813,-2.7163 0.5281,-2.70856 0.52811,-2.69977 0.52811,-2.68986 0.52811,-2.67892 0.52811,-2.66687 0.52811,-2.65375 0.5281,-2.63957 0.52811,-2.62432 0.52811,-2.608 0.52813,-2.59059 0.52811,-2.57218 0.52811,-2.55264 0.52811,-2.53213 0.52811,-2.5105 0.52811,-2.48788 0.52811,-2.46421 0.52811,-2.43951 0.52811,-2.4138 0.5281,-2.38705 0.52812,-2.35932 0.52811,-2.33059 0.52811,-2.30086 0.52811,-2.27017 0.52811,-2.23849 0.52813,-2.20586 0.52809,-2.17227 0.52811,-2.13777 0.52811,-2.10232 0.52811,-2.06596 0.52812,-2.0287 0.52811,-1.99055 1.05621,-3.86312 1.05624,-3.70016 1.05622,-3.53054 1.05621,-3.35455 1.05622,-3.17237 1.05623,-2.98431 1.05623,-2.79059 1.0562,-2.59163 1.05623,-2.38749 1.05623,-2.17861 1.05619,-1.96535 1.05624,-1.74785 2.11243,-2.82844 2.11246,-1.91699 2.11243,-0.9845 1.05623,-0.13744 1.05624,0.1011 1.05619,0.34066 0.52812,0.26044 0.52812,0.32053 1.05623,0.82158 0.52811,0.50105 0.52809,0.56112 1.05623,1.30241 1.05623,1.54184 1.05624,1.78018 1.05619,2.017 2.11246,4.73698 2.11244,5.6579 1.05623,3.16692 1.05622,3.38759 1.0562,3.6044 1.05623,3.81702 1.05625,4.02515 1.05618,4.22842 1.05624,4.42664 1.05623,4.61944 1.05619,4.80654 1.05623,4.98776 1.05624,5.16277 1.05619,5.3313 1.05623,5.49321 0.52812,2.80516 0.52811,2.84303 0.52813,2.88002 0.52811,2.91607 0.52807,2.95119 0.52811,2.98545 0.52812,3.01871 0.52813,3.05104 0.52812,3.0824 0.52811,3.11279 0.52812,3.1422 0.52811,3.17059 0.52808,3.198 0.52811,3.22443 0.52812,3.24982 0.52811,3.2742 0.52812,3.29753 0.52808,3.31979 0.52811,3.34111 0.52813,3.3613 0.52815,3.3805 0.52805,3.39852 0.52811,3.41562 0.52815,3.43163 0.52812,3.44651 0.52811,3.46035 0.52812,3.47313 0.52808,3.48478 0.52811,3.49544 0.52812,3.50496 0.52811,3.51344 0.5281,3.5208 0.52811,3.52714 0.52811,3.53237 0.52811,3.53652 0.52812,3.53962 0.52808,3.54161 0.52812,3.54261 0.52815,3.5425 0.52812,3.5413 0.52811,3.53908 0.52808,3.53578 0.52812,3.53147 0.52812,3.52611 0.52811,3.51968 0.52808,3.51226 0.52812,3.50381 0.52811,3.49435 0.52811,3.48389 0.52812,3.4724 0.52808,3.45991 0.52812,3.44649 0.52811,3.43208 0.52816,3.41673 0.52812,3.40035 0.52807,3.38305 0.52812,3.36487 0.52812,3.34574 0.52811,3.32572 0.52812,3.30474 0.52807,3.28292 0.52813,3.26025 0.52811,3.23669 0.52811,3.2123 0.52808,3.18704 0.52811,3.16099 0.52814,3.13416 0.52811,3.1065 0.52811,3.07809 0.52807,3.04886 0.52816,3.01902 0.52811,2.98831 0.52812,2.95694 0.52812,2.92489 0.52808,2.89211 0.52811,2.85873 0.52812,2.82465 0.52811,2.78999 1.0562,5.47344 1.05624,5.32759 1.05618,5.17732 1.05624,5.02296 1.05627,4.8648 1.05619,4.70309 1.05624,4.53822 1.05619,4.37041 1.05623,4.20013 1.0562,4.02747 1.05622,3.85301 1.05625,3.67683 1.05623,3.49935 1.05623,3.3209 2.11242,6.10406 2.11244,5.38623 2.11243,4.67189 2.11248,3.9658 2.11245,3.27252 1.05619,1.38157 1.05623,1.21524 1.0562,1.05169 1.05627,0.89134 1.05622,0.7342 1.05621,0.58078 1.05623,0.43112 1.05619,0.28554 2.11243,0.15171 2.1125,-0.37691 2.11243,-0.86624 2.11242,-1.3138 2.11244,-1.71743 2.11245,-2.07529 2.11243,-2.38612 2.11243,-2.64899 2.11246,-2.86317 2.11247,-3.02849 2.11243,-3.14527 1.05623,-1.60141 1.05619,-1.61267 1.05624,-1.61797 1.05618,-1.61763 1.05627,-1.61143 1.05625,-1.5999 2.11242,-3.143 2.11243,-3.03241 2.11243,-2.8818 2.1125,-2.69373 2.1124,-2.47096 2.1124,-2.21654 2.1124,-1.93348 2.1125,-1.62526 2.1125,-1.29545 2.1124,-0.94749 2.1124,-0.5849 2.1125,-0.21164 2.1125,0.16882 2.1124,0.55266 2.1124,0.93643 2.1124,1.31648 2.1125,1.6894 2.1125,2.05204 2.1124,2.40119 2.1124,2.73414 2.1124,3.0478 2.1125,3.34015 2.1124,3.60871 2.1125,3.8515 2.1124,4.06705 2.1125,4.25376 2.1124,4.41055 2.1124,4.53674 2.1125,4.6317 2.1125,4.69518 2.1124,4.72744 2.1124,4.7286 2.1125,4.69959 2.1125,4.64096 2.1124,4.55414 2.1124,4.44045 2.1124,4.3016 2.1124,4.13916 2.1125,3.9555 2.1125,3.75244 2.1124,3.53262 2.1124,3.29808 2.1125,3.05172 2.1124,2.79594 2.1125,2.53343 2.1124,2.26667 2.1125,1.99844 2.1124,1.73139 2.1125,1.4679 2.1124,1.21056 2.1124,0.96166 2.1125,0.72361 2.1125,0.49829 2.1124,0.28774 2.1124,0.0938 2.1125,-0.082 2.1124,-0.23825 2.1124,-0.37373 2.1125,-0.48763 2.1125,-0.57906 2.1124,-0.64744 2.1124,-0.69276 2.1124,-0.71453 2.1125,-0.71337 2.1125,-0.68925 2.1124,-0.64311 2.1124,-0.57549"
     stroke-opacity="0.8"
     stroke-linecap="round"
     stroke-linejoin="round"
     stroke-miterlimit="10"
     stroke-width="2.98676"
     id="path1641-7"
     style="stroke:url(#linearGradient1252);stroke-width:4.98647;stroke-miterlimit:10;stroke-dasharray:none;fill:#515151;fill-opacity:0.24528304;stroke-opacity:1" />
  <path
     fill="none"
     stroke="#000000"
     paint-order="fill stroke markers"
     d="M 185.44945,253.71397 734.66639,655.57338"
     stroke-opacity="1"
     stroke-miterlimit="10"
     id="path1405-7"
     style="stroke-width:0.661677;stroke-miterlimit:10;stroke-dasharray:0.661677, 0.661677;stroke-dashoffset:0"
     sodipodi:nodetypes="cc" />
  <path
     fill="none"
     stroke="#000000"
     paint-order="fill stroke markers"
     d="m 349.8088,182.87456 541.29845,411.2467"
     stroke-opacity="1"
     stroke-miterlimit="10"
     id="path1405-7-4"
     style="stroke-width:0.661677;stroke-miterlimit:10;stroke-dasharray:0.661677, 0.661677;stroke-dashoffset:0" />
  <path
     fill="none"
     stroke="#2e7d32"
     paint-order="fill stroke markers"
     d="m 508.18556,119.73168 2.14537,2.66383 2.14539,2.70279 2.14537,2.73103 2.14539,2.74812 2.14537,2.75364 2.14538,2.74745 2.14538,2.72937 2.14538,2.69937 2.14538,2.65758 2.14538,2.60421 2.14538,2.53958 2.14538,2.46414 2.14538,2.37845 2.14537,2.2832 2.14538,2.17911 2.14537,2.06709 2.14539,1.9481 2.14538,1.82315 2.14538,1.69338 2.14537,1.55994 2.14538,1.42423 2.14538,1.28726 2.14539,1.15057 2.14537,1.01541 2.14537,0.88313 2.14539,0.75509 2.14537,0.63265 2.14539,0.51705 2.14538,0.40963 2.14537,0.31149 2.14538,0.22385 2.14538,0.14776 2.14538,0.0842 2.14537,0.034 2.14537,-0.002 2.14538,-0.0233 2.14539,-0.0292 2.14538,-0.0195 2.14539,0.006 2.14537,0.0481 2.14537,0.10581 2.14538,0.17937 2.14538,0.2684 2.14538,0.37238 2.14538,0.49063 2.14537,0.62241 2.14539,0.7667 2.14538,0.92253 2.14538,1.08863 2.14539,1.26364 2.14537,1.44614 2.14537,1.63464 2.14538,1.82745 2.14537,2.02286 2.14538,2.21913 2.14539,2.4144 2.14537,2.60681 2.14538,2.79451 2.14538,2.9756 2.14539,3.1482 2.14537,3.31048 2.14537,3.46062 2.14538,3.59691 2.14539,3.7177 2.14537,3.82136 2.14539,3.90647 2.14537,3.9717 2.14538,4.0158 1.07269,2.01754 1.0727,2.02022 1.07268,2.01992 1.0727,2.01671 2.14537,4.01168 2.14538,3.96242 2.14538,3.88838 2.14537,3.78943 2.14538,3.66562 2.14537,3.51709 2.14539,3.3443 2.14537,3.14784 2.14537,2.92856 2.1454,2.68746 2.14537,2.4257 1.07269,1.10864 1.0727,1.03609 2.14537,1.84606 0.53636,0.41302 0.53634,0.39272 1.07268,0.7255 1.0727,0.64329 1.07268,0.55951 1.0727,0.47431 1.07268,0.38779 2.14538,0.5115 2.14538,0.15333 2.14537,-0.2101 2.1454,-0.57627 1.07267,-0.42565 1.0727,-0.51709 1.07268,-0.60817 1.0727,-0.69871 1.07268,-0.78858 1.07269,-0.87755 1.0727,-0.96555 1.07267,-1.05235 1.0727,-1.13781 1.07268,-1.22179 1.07269,-1.30407 1.07269,-1.38457 1.07269,-1.46309 1.07269,-1.53948 1.07269,-1.61362 0.53635,-0.83385 0.53634,-0.85146 0.53636,-0.86876 0.53633,-0.88572 0.53635,-0.90234 0.53633,-0.91859 0.53636,-0.9345 0.53634,-0.95005 0.53634,-0.9652 0.53635,-0.97999 0.53634,-0.99438 0.53635,-1.00836 0.53635,-1.02196 0.53634,-1.03512 0.53635,-1.0479 0.53633,-1.06019 0.53636,-1.0721 0.53634,-1.08354 0.53635,-1.09454 0.53634,-1.1051 0.53635,-1.11518 0.53634,-1.12478 0.53635,-1.13395 0.53634,-1.14262 0.53635,-1.15081 0.53633,-1.1585 0.53636,-1.16571 0.53633,-1.17242 0.53635,-1.17862 0.53634,-1.18432 0.53634,-1.18952 0.53636,-1.19416 0.53633,-1.19832 0.53635,-1.20195 0.53635,-1.20506 0.53634,-1.20762 0.53635,-1.20965 0.53635,-1.21117 0.53634,-1.21211 0.53634,-1.21256 0.53634,-1.21244 0.53636,-1.21176 0.53634,-1.21058 0.53634,-1.20881 0.53634,-1.2065 0.53634,-1.20368 0.53636,-1.20025 0.53634,-1.19631 0.53634,-1.19183 0.53635,-1.18675 0.53634,-1.18117 0.53635,-1.17502 0.53634,-1.1683 0.53634,-1.16108 0.53634,-1.15328 0.53635,-1.14493 0.53636,-1.13606 0.53634,-1.12665 0.53634,-1.11668 0.53635,-1.10618 0.53634,-1.09516 0.53635,-1.08359 0.53634,-1.0715 0.53635,-1.05888 0.53634,-1.04576 0.53634,-1.0321 0.53635,-1.01792 0.53634,-1.00325 0.53635,-0.98808 0.53633,-0.97239 0.53635,-0.95621 0.53636,-0.93955 0.53633,-0.92239 0.53634,-0.90478 0.53635,-0.88667 0.53634,-0.86809 0.53636,-0.84906 0.53634,-0.82957 1.07268,-1.59891 1.0727,-1.51564 1.07269,-1.42903 1.07268,-1.33913 1.07269,-1.24609 1.0727,-1.15004 1.0727,-1.05108 1.07266,-0.94947 1.0727,-0.8452 1.0727,-0.73851 1.07266,-0.6296 1.07271,-0.5185 2.14536,-0.69619 2.1454,-0.23066 2.14537,0.24562 1.0727,0.30404 1.0727,0.42588 1.07266,0.54822 0.53635,0.32013 0.53636,0.35083 1.0727,0.79387 0.53634,0.44304 0.53633,0.47371 1.0727,1.03945 1.07269,1.16174 1.07271,1.28348 1.07266,1.40443 2.1454,3.16793 2.14537,3.63829 1.0727,1.99177 1.07269,2.10447 1.07266,2.21521 1.0727,2.32383 1.07271,2.43013 1.07265,2.53392 1.07271,2.63518 1.0727,2.73366 1.07266,2.82921 1.0727,2.92178 1.0727,3.01117 1.07266,3.09724 1.0727,3.17994 0.53636,1.61989 0.53634,1.63921 0.53637,1.65813 0.53634,1.67653 0.53631,1.69445 0.53634,1.71196 0.53636,1.72896 0.53635,1.74547 0.53636,1.76148 0.53634,1.777 0.53636,1.79203 0.53634,1.80653 0.53632,1.82051 0.53634,1.83403 0.53636,1.84699 0.53634,1.85945 0.53636,1.87136 0.53631,1.88274 0.53634,1.89361 0.53636,1.90393 0.53639,1.91376 0.53628,1.92292 0.53634,1.93168 0.53639,1.93986 0.53635,1.94747 0.53635,1.95452 0.53635,1.96104 0.53632,1.967 0.53634,1.97245 0.53636,1.97731 0.53634,1.98164 0.53633,1.9854 0.53634,1.98862 0.53635,1.99132 0.53634,1.99342 0.53636,1.99502 0.53631,1.99602 0.53636,1.99655 0.53638,1.99649 0.53636,1.99586 0.53634,1.99475 0.53632,1.99303 0.53634,1.99086 0.53636,1.98811 0.53634,1.98483 0.53632,1.98103 0.53635,1.97672 0.53635,1.97189 0.53634,1.96654 0.53636,1.96068 0.53631,1.9543 0.53636,1.94744 0.53634,1.9401 0.5364,1.93225 0.53634,1.92388 0.53631,1.91502 0.53635,1.90576 0.53636,1.89599 0.53634,1.88577 0.53636,1.87504 0.5363,1.86389 0.53636,1.85233 0.53635,1.84028 0.53634,1.82783 0.53632,1.81492 0.53634,1.80163 0.53637,1.78791 0.53634,1.7738 0.53635,1.75928 0.5363,1.74434 0.5364,1.72913 0.53634,1.71342 0.53636,1.69741 0.53635,1.68103 0.53632,1.66427 0.53634,1.64725 0.53636,1.62984 0.53634,1.61213 1.07266,3.16983 1.07271,3.09536 1.07265,3.01858 1.07271,2.93977 1.07274,2.85899 1.07266,2.77637 1.0727,2.69218 1.07266,2.60644 1.0727,2.5195 1.07267,2.4313 1.07269,2.34219 1.07271,2.25222 1.0727,2.16156 1.0727,2.07042 2.14536,3.86617 2.14537,3.49953 2.14537,3.13467 2.14542,2.77405 2.14538,2.41994 1.07266,1.07988 1.0727,0.99493 1.07267,0.91138 1.07274,0.82949 1.07269,0.74873 1.07267,0.67083 1.0727,0.59444 1.07265,0.52006 2.14537,0.82595 2.14543,0.55597 2.14537,0.30603 2.14536,0.0774 2.14537,-0.12874 2.14539,-0.31151 2.14537,-0.47027 2.14536,-0.60454 2.1454,-0.71392 2.14541,-0.79835 2.14536,-0.85802 1.0727,-0.4437 1.07266,-0.44947 1.07271,-0.45215 1.07265,-0.452 1.07274,-0.44881 1.07271,-0.44292 2.14536,-0.85686 2.14537,-0.80037 2.14536,-0.72345 2.1454,-0.62738 2.14537,-0.5136 2.14535,-0.38366 2.14537,-0.23908 2.14543,-0.0817 2.14537,0.0868 2.14536,0.26451 2.14536,0.44972 2.14541,0.64038 2.14539,0.83469 2.14537,1.03074 2.14536,1.22675 2.14541,1.42092 2.14536,1.61133 2.14537,1.79657 2.14536,1.97489 2.14544,2.14497 2.14532,2.30514 2.1454,2.45448 2.14537,2.59165 2.14537,2.71565 2.14536,2.82575 2.14543,2.92113 2.14536,3.00119 2.14537,3.06565 2.14539,3.11415 2.14537,3.14657 2.14536,3.16305 2.14537,3.16363 2.14544,3.14886 2.14536,3.11887 2.14536,3.07453 2.14536,3.01645 2.14541,2.94557 2.14536,2.86257 2.14537,2.76877 2.14539,2.66506 2.14542,2.5528 2.1453,2.43299 2.1454,2.30715 2.1454,2.17651 2.1454,2.04246 2.1454,1.90618 2.1453,1.76918 2.1454,1.63279 2.1454,1.49849 2.1454,1.36676 2.1453,1.23963 2.1454,1.11805 2.1454,1.003 2.1454,0.89542 2.1454,0.79639 2.1453,0.70659 2.1454,0.62679 2.1454,0.55758 2.1454,0.49941 2.1454,0.4527 2.1454,0.41777 2.1453,0.39464 2.1454,0.38349 2.1453,0.38411 2.1455,0.39645 2.1453,0.41997 2.1454,0.45453"
     stroke-opacity="0.8"
     stroke-linecap="round"
     stroke-linejoin="round"
     stroke-miterlimit="10"
     stroke-width="2.98676"
     id="path1641-1-0"
     style="stroke:url(#linearGradient1254);stroke-width:5;stroke-miterlimit:10;stroke-dasharray:none;fill:#515151;fill-opacity:0.24528304;stroke-opacity:1" />
  <path
     fill="none"
     stroke="#000000"
     paint-order="fill stroke markers"
     d="M 508.18556,119.73168 1057.4025,521.59109"
     stroke-opacity="1"
     stroke-miterlimit="10"
     id="path1405-7-8"
     style="stroke-width:0.661677;stroke-miterlimit:10;stroke-dasharray:0.661677, 0.661677;stroke-dashoffset:0"
     sodipodi:nodetypes="cc" />
  <path
     style="fill:none;stroke:#ff0000;stroke-width:3;stroke-linecap:butt;stroke-linejoin:miter;stroke-opacity:1;stroke-miterlimit:4;stroke-dasharray:3,3;stroke-dashoffset:0"
     d="m 179.77368,370.28722 c 0,0 65.81852,-125.66119 99.43967,-125.11439 30.95137,0.50338 98.59271,66.58776 179.77187,63.03237 101.56891,-4.4484 99.35114,-204.49554 158.56073,-204.40826 46.33826,0.0683 77.85276,82.36697 158.81195,68.90221 0,0 46.07127,-16.15859 55.98005,-75.611299"
     id="path1276"
     sodipodi:nodetypes="csssc" />
</svg>
