<svg version="1.1" xmlns="http://www.w3.org/2000/svg" xmlns:xlink="http://www.w3.org/1999/xlink" width="1220" height="790"><defs><clipPath id="ZlCMLVbspSMt"><path fill="none" stroke="none" d=" M 0 0 L 1220 0 L 1220 790 L 0 790 L 0 0 Z"/></clipPath></defs><g transform="scale(1,1)" clip-path="url(#ZlCMLVbspSMt)"><g><rect fill="rgb(255,255,255)" stroke="none" x="0" y="0" width="1220" height="790" fill-opacity="1"/><path fill="none" stroke="rgb(46,125,50)" paint-order="fill stroke markers" d=" M 0 408.7501201775987 L 2.3828125 406.39257111896467 L 2.978515625 406.04587934624124 L 3.57421875 405.8004185667743 L 4.169921875 405.65740042518644 L 4.765625 405.61753088828254 L 5.361328125 405.68100676025307 L 5.95703125 405.8475147112084 L 6.552734375 406.11623282383925 L 7.1484375 406.48583465056856 L 8.33984375 407.5199027485198 L 9.53125 408.92932671458016 L 11.9140625 412.75621027152533 L 14.296875 417.6661020851942 L 16.679687499999943 423.2736104470374 L 19.062499999999943 429.13858569382677 L 21.4453125 434.80066883666 L 23.828125 439.8154264787993 L 26.210937499999943 443.78923568739623 L 27.40234375 445.28439665984524 L 28.593749999999943 446.410180603921 L 29.189453125 446.8273208499918 L 29.78515625 447.14438655118335 L 30.380859374999943 447.35981260633076 L 30.9765625 447.47253562835505 L 31.572265625 447.4819991933591 L 32.16796874999994 447.38815658725014 L 32.763671875 447.1914710363297 L 33.359375 446.8929134207141 L 33.95507812499994 446.49395748187163 L 34.55078125 445.9965725479328 L 35.7421875 444.7168102162296 L 38.12499999999994 441.11503469333746 L 40.5078125 436.37030070302586 L 42.890625 430.85503623526546 L 45.27343749999994 425.0021504613773 L 47.65624999999994 419.27105343232455 L 52.421875 409.92875797036055 L 53.61328124999994 408.30992258420326 L 54.8046875 407.0508635177599 L 55.40039062499994 406.56430077193295 L 55.99609375 406.176409985149 L 56.591796875 405.88910586568454 L 57.18749999999994 405.70380660544856 L 57.783203125 405.6214268794972 L 58.37890625 405.6423733310107 L 58.974609375 405.76654256401906 L 59.57031249999994 405.9933216537864 L 60.166015625 406.32159117233215 L 60.76171874999994 406.74973071415695 L 61.953125 407.8966837834148 L 63.14453124999994 409.41156242839867 L 64.3359375 411.2644925572237 L 66.71875 415.8323988557902 L 69.10156249999994 421.2418544096804 L 71.484375 427.0682552973926 L 73.8671875 432.85427034381667 L 76.24999999999994 438.14573837614915 L 81.015625 445.6550823460047 L 81.611328125 446.2098708705035 L 82.20703125 446.6676327095368 L 82.80273437499994 447.0261082570204 L 83.3984375 447.2835280043166 L 83.99414062499994 447.4386212748912 L 84.58984374999994 447.49062249663234 L 85.185546875 447.4392749808713 L 85.78125 447.2848321894503 L 86.37695312499994 447.0280564835831 L 86.97265625 446.67021536068364 L 88.16406249999994 445.6588925321163 L 89.35546875 444.27080744723287 L 90.546875 442.5333337715792 L 95.31249999999994 432.8631482565571 L 97.6953125 427.077562527629 L 100.07812499999994 421.2508604058045 L 104.84375 411.2708544964469 L 107.22656249999994 407.90091043957676 L 107.82226562499994 407.2792606615992 L 108.41796875 406.7527536543862 L 109.60937499999994 405.9950812643347 L 110.205078125 405.76765590741445 L 110.80078124999994 405.6428349115623 L 111.39648437499994 405.62123441874917 L 111.9921875 405.7029610534264 L 112.587890625 405.88761139620607 L 113.18359374999994 406.17427397522124 L 113.779296875 406.5615337653379 L 114.375 407.0474791730083 L 115.56640624999994 408.30535664543646 L 116.7578125 409.9231004799558 L 119.14062499999994 414.1041090826194 L 121.5234375 419.26232543855923 L 123.90625 424.99286612265627 L 126.28906249999994 430.84592430637554 L 128.67187499999994 436.36207640580426 L 133.4375 444.712177485652 L 134.03320312499994 445.39915954391245 L 134.62890624999994 445.993116753667 L 135.8203125 446.8907027125858 L 136.416015625 447.1899007938329 L 137.01171875 447.38723456142316 L 137.60742187499994 447.48172993551003 L 138.20312499999994 447.4729204675957 L 138.79882812499994 447.3608496430159 L 139.39453125 447.14607066628776 L 139.990234375 446.82964373037873 L 140.58593749999994 446.41313078337777 L 141.77734374999994 445.28855472478153 L 142.96875 443.7945196388912 L 145.35156249999994 439.82262944959 L 147.734375 434.8092254445903 L 150.11718749999994 429.1478243058193 L 152.5 423.2828058975293 L 154.8828125 417.67453259649426 L 157.26562499999994 412.76321410824795 L 159.6484375 408.9343541251821 L 160.83984374999994 407.5237828971541 L 162.03125 406.48849101894945 L 162.626953125 406.11825610336143 L 163.22265625 405.84889491455027 L 163.81835937499994 405.68173707444856 L 164.4140625 405.6176077083514 L 165.00976562499994 405.656823371929 L 165.60546874999994 405.7991904886436 L 166.201171875 406.0440063052822 L 166.796875 406.39006236089057 L 167.98828125 407.37857106458796 L 169.17968749999994 408.74522276110963 L 171.56249999999994 412.4982255097742 L 173.9453125 417.35448649049476 L 176.32812499999994 422.93282363500026 L 178.7109375 428.7953770138728 L 181.09374999999994 434.4819777376762 L 185.859375 443.5907367720415 L 186.455078125 444.40315787734914 L 187.05078124999994 445.12747060213417 L 188.24218749999994 446.29792205667127 L 188.83789062499994 446.7382831985984 L 189.43359375 447.07900930370846 L 190.029296875 447.3184184782425 L 190.62499999999994 447.4553289495379 L 191.220703125 447.4890648994997 L 191.81640624999994 447.4194598005775 L 192.41210937499994 447.24685723777895 L 193.0078125 446.97210921266435 L 193.603515625 446.5965719376922 L 194.19921875 446.12209914167744 L 195.390625 444.8861921705788 L 197.7734375 441.3613075271626 L 200.15624999999994 436.67413374432874 L 202.53906249999994 431.1925807437183 L 204.921875 425.34691158541074 L 207.30468749999994 419.59596986719424 L 209.6875 414.3911637541894 L 214.453125 407.17918460776076 L 215.04882812499994 406.66978032583404 L 215.64453124999994 406.25852733429383 L 216.240234375 405.94745566203846 L 216.8359375 405.7381008224799 L 217.431640625 405.63149623393497 L 218.02734374999994 405.62816811846136 L 218.62304687499994 405.7281329043179 L 219.21874999999994 405.9308971448713 L 219.81445312499994 406.23545995434966 L 220.41015625 406.64031794841935 L 221.60156249999994 407.74244043006985 L 222.79296874999994 409.2155302361209 L 223.984375 411.0305373694878 L 228.75 420.9083824094129 L 231.13281249999994 426.7227896834433 L 233.515625 432.52392771839556 L 238.28124999999994 442.3017863394225 L 239.47265625 444.0792053875942 L 240.6640625 445.51101432425116 L 241.85546874999994 446.56897722971956 L 242.45117187499994 446.9509463061247 L 243.04687499999994 447.23223059710836 L 243.642578125 447.41144162586653 L 244.23828125 447.4876947700991 L 244.83398437499994 447.4606136286866 L 245.4296875 447.33033187968323 L 246.02539062499994 447.0974926204545 L 246.62109374999994 446.76324519321696 L 247.8125 445.7976179165857 L 249.00390625 444.4524926563272 L 250.19531249999994 442.75439589081964 L 252.57812499999994 438.4395371625927 L 254.9609375 433.19172756053985 L 257.34374999999994 427.42288294460855 L 259.7265625 421.58581673050355 L 262.10937499999994 416.1386972458663 L 266.875 408.06037105185834 L 267.470703125 407.4168059251594 L 268.06640625 406.86770461766577 L 269.2578125 406.0632556936371 L 269.853515625 405.81187900156146 L 270.44921875 405.6628883763143 L 271.044921875 405.6170192661016 L 271.64062499999994 405.67449809023515 L 272.236328125 405.8350411214802 L 272.83203125 406.0978558865914 L 273.42773437499994 406.4616450781228 L 274.0234375 406.9246129582027 L 275.21484374999994 408.1384652817695 L 276.40625 409.71547514058483 L 281.17187499999994 418.9394469851728 L 283.5546875 424.6485402324144 L 285.9375 430.5071781212551 L 288.3203125 436.05549910047574 L 290.70312499999994 440.8579992968935 L 293.0859375 444.5377164827763 L 294.27734375 445.862153033547 L 295.46875 446.8058189390019 L 296.064453125 447.1287430230824 L 296.66015624999994 447.35010468077377 L 297.255859375 447.46881122564855 L 297.8515625 447.4842766979168 L 298.44726562499994 447.39642475684354 L 299.04296875 447.2056890575823 L 299.638671875 446.9130111105643 L 300.23437499999994 446.51983563401086 L 301.42578125 445.4402417668482 L 302.6171875 443.98819753533144 L 305 440.0880780496575 L 307.3828125 435.125608914545 L 309.765625 429.49030878563514 L 312.14843749999994 423.6245087828973 L 314.53125 417.9886326327298 L 319.296875 409.12338642464005 L 319.89257812499994 408.3519880596122 L 320.48828125 407.6704372634588 L 321.67968749999994 406.5898753616826 L 322.275390625 406.196198130663 L 322.87109375 405.90300988862856 L 323.46679687499994 405.7117578727209 L 324.0625 405.623386142016 L 324.658203125 405.6383309174552 L 325.25390625 405.75651842856973 L 325.849609375 405.97736527762646 L 326.4453125 406.2997813193986 L 327.63671874999994 407.2424614246398 L 328.828125 408.565968666352 L 331.21093749999994 412.2440685377271 L 333.59375 417.04537616212826 L 335.9765625 422.59302292027394 L 338.359375 428.45155786055716 L 340.74218749999994 434.1611275124909 L 343.12499999999994 439.2735711249335 L 347.890625 446.1802865037496 L 348.48632812499994 446.6437486163675 L 349.08203125 447.00804233420564 L 349.677734375 447.2713694289474 L 350.2734375 447.4324300641828 L 350.86914062499994 447.4904292116674 L 351.46484375 447.44508057574393 L 352.060546875 447.2966080065566 L 352.65624999999994 447.0457443950807 L 353.251953125 446.6937280554229 L 353.84765625 446.2422966122497 L 355.0390625 445.0505815808357 L 356.23046874999994 443.4941004601343 L 357.421875 441.6035477616636 L 359.8046875 436.9752106615415 L 362.18749999999994 431.52886193952224 L 364.5703125 425.69200136932585 L 366.953125 419.92278113700445 L 371.71874999999994 410.3577790365362 L 372.91015625 408.65883271185106 L 374.1015625 407.31278204139073 L 375.29296875 406.34617175304095 L 375.88867187499994 406.01141724328465 L 376.484375 405.7780638387751 L 377.080078125 405.6472634196553 L 377.67578124999994 405.61966164355255 L 378.271484375 405.69539475848035 L 378.8671875 405.8740889302902 L 379.46289062499994 406.15486208799376 L 380.05859375 406.53632827784537 L 381.24999999999994 407.59332002682925 L 382.44140625 409.02421982199576 L 383.63281249999994 410.8008096723522 L 386.015625 415.24479266274597 L 388.3984375 420.5764478299629 L 390.78125 426.377278031445 L 393.16406249999994 432.19195920971913 L 395.546875 437.5640801038031 L 400.3125 445.3617835982956 L 400.90820312499994 445.961226926584 L 401.50390625 446.4648709267806 L 402.69531249999994 447.17530174055514 L 403.291015625 447.3785817222999 L 403.88671875 447.47906602272536 L 404.48242187499994 447.47625863076803 L 405.07812499999994 447.37017340428895 L 405.673828125 447.1613340016684 L 406.26953125 446.85077129692115 L 406.86523437499994 446.44001829109123 L 407.4609375 445.93110254504535 L 408.65234374999994 444.6293034323092 L 409.84375 442.97104602587035 L 414.60937499999994 433.5184991168862 L 416.9921875 427.7679666645722 L 419.375 421.9221259878459 L 421.7578125 416.43983414747544 L 424.14062499999994 411.75141219722514 L 426.5234375 408.22486803103163 L 427.71484374999994 406.98801675106296 L 428.31054687499994 406.5130510923507 L 428.90625 406.13701037158427 L 429.501953125 405.8617508026901 L 430.09765624999994 405.6886311232115 L 430.693359375 405.61850588730243 L 431.2890625 405.6517212474731 L 431.88476562499994 405.78811324591084 L 432.48046875 406.0270086238088 L 433.076171875 406.36722814470966 L 433.67187499999994 406.8070924154577 L 434.86328125 407.9765890173061 L 436.05468749999994 409.51243542753616 L 438.4375 413.5554000313601 L 440.8203125 418.6186421600125 L 443.20312499999994 424.3047331920871 L 445.58593749999994 430.16735528169664 L 447.96875 435.7463341460995 L 452.73437499999994 444.358357837471 L 453.33007812499994 445.08788858559006 L 453.92578125 445.72593098233176 L 455.11718749999994 446.7154198423245 L 455.712890625 447.0619819861377 L 456.30859375 447.30731124969776 L 456.90429687499994 447.4501966375715 L 457.5 447.48993283825354 L 458.095703125 447.42632370572824 L 458.69140624999994 447.2596832276867 L 459.287109375 446.99083397561895 L 459.8828125 446.62110304443314 L 461.07421874999994 445.5867853784632 L 462.265625 444.1771274418531 L 464.64843749999994 440.34984079365614 L 467.03124999999994 435.43965797585827 L 469.4140625 429.83199353877046 L 471.796875 423.9670093964217 L 474.17968749999994 418.30506523595255 L 476.56249999999994 413.2905835449701 L 478.9453125 409.3171655961127 L 480.13671874999994 407.82223418875446 L 481.328125 406.696696536794 L 481.92382812499994 406.2796842019077 L 482.51953124999994 405.9627487516796 L 483.115234375 405.74745464432925 L 483.71093749999994 405.6348646156143 L 484.30664062499994 405.62553443294956 L 484.90234375 405.7195101520255 L 485.49804687499994 405.9163278894676 L 486.09374999999994 406.21501611265984 L 486.689453125 406.6141004354283 L 487.28515625 407.11161089591315 L 488.4765625 408.3916132472324 L 490.859375 411.9938085708849 L 493.24218749999994 416.73885528124447 L 495.62499999999994 422.25430084203356 L 498.00781249999994 428.1072218674117 L 500.390625 433.8382055394234 L 505.15624999999994 443.179875018918 L 506.34765625 444.7984878434948 L 507.53906249999994 446.0573059812775 L 508.134765625 446.5437428482486 L 508.73046874999994 446.9315049693701 L 509.32617187499994 447.2186782714856 L 509.921875 447.40384520842736 L 510.517578125 447.48609175831405 L 511.11328124999994 447.46501193534976 L 511.708984375 447.34070979385314 L 512.3046875 447.11379891462366 L 512.900390625 446.78539937618166 L 513.49609375 446.3571322258312 L 514.6875 445.209933678229 L 515.87890625 443.69482654592196 L 517.0703125 441.84168942666867 L 519.453125 437.2734494612828 L 521.8359375 431.86378824198533 L 524.2187499999999 426.0373258335555 L 526.6015625 420.2513982400432 L 528.984375 414.9601597698181 L 533.75 407.4516194355704 L 534.345703125 406.8969544479948 L 534.94140625 406.4393193728644 L 535.537109375 406.080973190531 L 536.1328125 405.82368477105933 L 536.728515625 405.66872414272274 L 537.32421875 405.6168562228838 L 537.919921875 405.66833704220574 L 538.515625 405.82291248083266 L 539.111328125 406.0798195227772 L 539.7070312499999 406.4377900223235 L 540.8984375 407.44936318419957 L 542.08984375 408.8376832862901 L 543.2812499999999 410.57537202840376 L 548.046875 420.24614106829233 L 550.4296874999999 426.0318144358531 L 552.8125 431.8584552239895 L 557.578125 441.83792212143123 L 559.9609375 445.20743080868914 L 560.556640625 445.82895969552055 L 561.15234375 446.3553421523712 L 562.3437499999999 447.11275693830135 L 562.939453125 447.3400505130494 L 563.53515625 447.4647386044095 L 564.130859375 447.48620572645467 L 564.7265625 447.4043459130789 L 565.322265625 447.21956324106736 L 565.9179687499999 446.9327698354913 L 566.5136718749999 446.5453813672712 L 567.109375 446.0593100651364 L 568.30078125 444.80119162365145 L 569.4921874999999 443.1832251756054 L 571.875 439.00184352408235 L 574.2578124999999 433.843373934699 L 576.640625 428.11271970960445 L 579.0234375 422.25969658949765 L 581.4062499999999 416.7437254060463 L 586.171875 408.3943565790306 L 586.767578125 407.7074924688025 L 587.36328125 407.1136572895331 L 588.5546875 406.2163252122941 L 589.1503906249999 405.91725772902987 L 589.74609375 405.7200561416374 L 590.341796875 405.62569387749465 L 590.9375 405.63463672804164 L 591.533203125 405.7468405495386 L 592.12890625 405.96175148096853 L 592.7246093749999 406.2783086780083 L 593.3203124999999 406.6949495495737 L 594.51171875 407.819771936403 L 595.703125 409.31403663535997 L 598.0859375 413.2863182119272 L 600.4687499999999 418.2999983290329 L 602.8515625 423.9615386319072 L 605.234375 429.8265483329011 L 607.6171875 435.4346657387022 L 610 440.3456933804474 L 612.3828124999999 444.17415039513395 L 613.57421875 445.58448769787253 L 614.765625 446.6195300412713 L 615.361328125 446.9896358642769 L 615.9570312499999 447.25886592228716 L 616.5527343749999 447.4258912406579 L 617.1484375 447.48988734824843 L 617.744140625 447.4505383471796 L 618.33984375 447.30803847217055 L 618.935546875 447.06309113175627 L 619.53125 446.71690543611913 L 620.72265625 445.72814565086696 L 621.9140625 444.36125790648174 L 624.2968749999999 440.6078463947774 L 626.6796875 435.7512871023969 L 629.0625 430.17278551296266 L 631.4453124999999 424.3102144636541 L 633.828125 418.6237442309105 L 638.59375 409.5156388670074 L 639.1894531249999 408.7033289611631 L 639.7851562499999 407.97913233362743 L 640.9765625 406.80892545328123 L 641.572265625 406.3686915810274 L 642.16796875 406.02809523479976 L 642.763671875 405.7888176678408 L 643.3593749999999 405.65204000317146 L 643.955078125 405.6184374033257 L 644.55078125 405.68817573761066 L 645.146484375 405.8609107633416 L 645.7421875 406.1357898250942 L 646.337890625 406.5114560635862 L 646.9335937499999 406.9860551134123 L 648.125 408.222203986602 L 650.5078125 411.7475137634624 L 652.890625 416.4350073237998 L 655.2734375 421.91674964570564 L 657.65625 427.76246280872084 L 660.0390625 433.51329976099925 L 662.4218749999999 438.71786056080373 L 667.1875 445.92901398099207 L 667.783203125 446.43829312917956 L 668.37890625 446.8494180529032 L 668.974609375 447.16035935543346 L 669.5703125 447.3695821668902 L 670.1660156249999 447.47605372067426 L 670.76171875 447.4792484514147 L 671.357421875 447.37915058926706 L 671.953125 447.1762542377564 L 672.548828125 446.8715609347813 L 673.14453125 446.46657470881803 L 674.3359374999999 445.36420506581726 L 675.52734375 443.89088453658917 L 676.71875 442.07566766818417 L 681.4843749999999 432.1972684393991 L 683.8671875 426.38279093462114 L 686.25 420.58173168280894 L 691.015625 410.80444172291084 L 692.20703125 409.0272350548395 L 693.3984374999999 407.5956589802031 L 694.58984375 406.53794482653103 L 695.185546875 406.1561045613512 L 695.78125 405.8749511952167 L 696.376953125 405.6958725586598 L 696.9726562499999 405.6197526204656 L 697.5683593749999 405.64696712422125 L 698.1640625 405.77738173356886 L 698.759765625 406.010352695317 L 699.35546875 406.3447300171385 L 700.546875 407.310609106476 L 701.73828125 408.6559714291831 L 702.9296875 410.35428583190316 L 705.3124999999999 414.66950485894165 L 707.6953125 419.91755207805386 L 710.078125 425.6864929780368 L 712.4609374999999 431.5235065855703 L 714.84375 436.97042870225624 L 719.609375 445.04799799089346 L 720.2050781249999 445.69144317302545 L 720.8007812499999 446.24042073486424 L 721.9921875 447.0446132234025 L 722.587890625 447.2958584914606 L 723.18359375 447.44471641699 L 723.779296875 447.49045220681757 L 724.3749999999999 447.43284009972837 L 724.970703125 447.272164480869 L 725.56640625 447.00921847796434 L 726.162109375 446.64530004627704 L 726.7578125 446.1822055616346 L 727.9492187499999 444.96811041941237 L 729.140625 443.3908755564981 L 733.90625 434.16626353962704 L 736.2890624999999 428.457048191844 L 738.671875 422.59843660361804 L 741.0546875 417.0502882617568 L 743.4374999999999 412.24809348863374 L 745.8203125 408.56879053841703 L 747.01171875 407.2445920169273 L 748.203125 406.3011786156652 L 748.798828125 405.97838466417573 L 749.39453125 405.7571548735012 L 749.990234375 405.6385812791465 L 750.5859375 405.6232491846305 L 751.1816406249999 405.7112342723083 L 751.7773437499999 405.9021022297876 L 752.373046875 406.1949108937835 L 752.96875 406.58821490082903 L 754.16015625 407.6680567456316 L 755.3515624999999 409.12033279472695 L 757.734375 413.0208495580213 L 760.1171875 417.98360226967833 L 762.4999999999999 423.6190500153081 L 764.8828125 429.48485008807546 L 767.265625 435.12057875608434 L 772.03125 443.9851443216539 L 772.626953125 444.7564291105961 L 773.22265625 445.43786169993797 L 774.4140624999999 446.51817564986345 L 775.009765625 446.91172435978484 L 775.60546875 447.2047818918358 L 776.201171875 447.3959016540858 L 776.796875 447.48414024028995 L 777.392578125 447.4690620867354 L 777.9882812499999 447.3507416222727 L 778.5839843749999 447.12976290091984 L 779.1796875 446.80721671885215 L 780.37109375 445.86428408689784 L 781.5625 444.54053878429215 L 783.9453125 440.86202458940915 L 786.328125 436.0604114270578 L 788.7109375 430.5125918990828 L 791.09375 424.6540305182987 L 793.4765624999999 418.9445828305842 L 795.859375 413.832400013754 L 800.625 406.9265315474316 L 801.2207031249999 406.463196028316 L 801.81640625 406.09903154194143 L 802.412109375 405.83583567871176 L 803.0078125 405.6749076272512 L 803.603515625 405.61704176134367 L 804.19921875 405.66252371874117 L 804.794921875 405.8111289911976 L 805.3906249999999 406.0621240326871 L 805.986328125 406.4142698803375 L 806.58203125 406.86582827020453 L 807.7734375 408.05778702030636 L 808.9648437499999 409.61449431745405 L 810.15625 411.505251189828 L 812.5390625 416.13391503782316 L 814.921875 421.5804612578462 L 817.3046875 427.4173745739837 L 819.6875 433.1864986600013 L 824.4531249999999 442.75090307295534 L 825.64453125 444.4496318009839 L 826.8359375 445.79544544112446 L 828.02734375 446.7618039398361 L 828.623046875 447.09642856299524 L 829.21875 447.3296502705511 L 829.814453125 447.46031783244365 L 830.41015625 447.48778624685605 L 831.005859375 447.41191992407545 L 831.6015625 447.23309335579137 L 832.1972656249999 446.95218926652853 L 832.79296875 446.57059425633736 L 833.984375 445.51335373030753 L 835.17578125 444.0822210389438 L 836.3671875 442.30541876605747 L 838.75 437.86108862151804 L 841.1328125 432.5292117138773 L 843.515625 426.72830259074436 L 845.8984375 420.91369150438305 L 848.28125 415.54178421405703 L 853.046875 407.74486144847083 L 853.642578125 407.1455399299139 L 854.23828125 406.6420212550091 L 855.4296874999999 405.93184914967384 L 856.025390625 405.72870127403877 L 856.62109375 405.62835004751133 L 857.216796875 405.6312908242751 L 857.8125 405.73750908805425 L 858.408203125 405.94648052376925 L 859.00390625 406.257173605663 L 859.599609375 406.66805468912304 L 860.1953125 407.1770955810655 L 861.38671875 408.4791337369318 L 862.578125 410.1376112920654 L 867.34375 419.59077034509227 L 869.7265625 425.34140770065545 L 872.109375 431.18720451225386 L 874.4921874999999 436.6693071622212 L 876.875 441.3574094468993 L 879.2578125 444.8835285638325 L 880.44921875 446.1201379712314 L 881.044921875 446.59497738746717 L 881.640625 446.97088915368647 L 882.2363281249999 447.24601769250893 L 882.83203125 447.4190049131825 L 883.427734375 447.488996915397 L 884.0234375 447.45564820431093 L 884.619140625 447.3191233959845 L 885.21484375 447.0800964048011 L 885.810546875 446.73974711688834 L 886.4062499999999 446.29975556595843 L 887.59765625 445.13001436198346 L 888.7890625 443.5939406183585 L 891.171875 439.5505906574535 L 893.5546875 434.48707999795954 L 895.9375 428.8008583390513 L 898.3203125 422.9382537798965 L 900.703125 417.35943922722004 L 905.4687499999999 408.748122404951 L 906.064453125 408.01870748514546 L 906.66015625 407.380785275311 L 907.8515625 406.39154747325864 L 908.447265625 406.0451149612053 L 909.04296875 405.7999172155693 L 909.6386718749999 405.6571645825845 L 910.234375 405.6175617184511 L 910.830078125 405.68130411100805 L 911.42578125 405.84807711476566 L 912.021484375 406.11705750405974 L 912.6171875 406.486917536662 L 913.80859375 407.52148476214603 L 915 408.93137665771513 L 917.3828124999999 412.75906636569454 L 919.765625 417.66954014724814 L 922.1484375 423.277360613472 L 924.53125 429.14235360315627 L 926.9140625 434.80415873470685 L 929.296875 439.81836443330144 L 931.6796875 443.7913910897483 L 932.8710937499999 445.28609291972384 L 934.0625 446.41138427031444 L 934.658203125 446.82826869058744 L 935.25390625 447.1450738872461 L 935.849609375 447.3602360450292 L 936.4453124999999 447.4726930795091 L 937.041015625 447.4818898797577 L 937.63671875 447.3877810484875 L 938.232421875 447.1908311261421 L 938.828125 446.89201229782907 L 939.423828125 446.492799594416 L 940.01953125 445.995163611476 L 941.2109375 444.71492125106533 L 943.59375 441.1123061562711 L 945.9765625 436.3669467648789 L 948.3593749999999 430.8513201564114 L 950.7421875 424.99836392766815 L 953.125 419.2674936598198 L 957.890625 409.9264502396051 L 959.08203125 408.30805998991775 L 960.2734375 407.0494827911461 L 960.869140625 406.5631718070306 L 961.46484375 406.17553835475985 L 962.060546875 405.8884958723545 L 962.65625 405.7034612602295 L 963.251953125 405.6213478870838 L 963.84765625 405.64256108132554 L 964.443359375 405.76699613028836 L 965.0390625 405.9940387971142 L 965.634765625 406.3225683527523 L 966.23046875 406.750963108107 L 967.4218749999999 407.8984071246209 L 968.61328125 409.4137427317932 L 969.8046875 411.2670868262378 L 972.1875 415.83566042088125 L 974.5703125 421.24552726110556 L 976.953125 427.07205114234586 L 979.3359375 432.8578912353722 L 981.71875 438.14890009998334 L 986.4843749999999 445.65663673688505 L 987.080078125 446.211178182977 L 987.67578125 446.6686864904416 L 988.271484375 447.0269033046784 L 988.8671875 447.28406039421 L 989.462890625 447.43888837903444 L 990.05859375 447.4906229965447 L 990.6542968749999 447.4390088740852 L 991.25 447.2843007895233 L 991.845703125 447.0272624136138 L 992.44140625 446.66916254036397 L 993.6328125 445.65733905349674 L 994.82421875 444.2687839456145 L 996.015625 442.53088015132863 L 1000.78125 432.85952766609023 L 1003.1640625 427.0737667074685 L 1005.546875 421.2471873009294 L 1010.3125 411.2682594974586 L 1012.6953125 407.899186207518 L 1013.291015625 407.27777821694326 L 1013.8867187499999 406.7515203147832 L 1015.078125 405.99436313920194 L 1015.673828125 405.76720134849506 L 1016.26953125 405.64264616265217 L 1016.865234375 405.6213124115515 L 1017.4609374999999 405.70330540295276 L 1018.056640625 405.8882204026767 L 1018.65234375 406.1751446324557 L 1019.248046875 406.56266177559394 L 1019.84375 407.0488589681965 L 1021.03515625 408.3072183683934 L 1022.2265625 409.92540741666284 L 1024.609375 414.1071620826644 L 1026.9921875 419.2658848630765 L 1029.375 424.9966525820485 L 1031.7578125 430.84964059041744 L 1034.140625 436.3654308125372 L 1038.90625 444.71406731806917 L 1039.501953125 445.4008134746171 L 1040.09765625 445.99452661851876 L 1041.2890625 446.8916048066996 L 1041.884765625 447.19054168952204 L 1042.48046875 447.3876110950953 L 1043.076171875 447.481840248518 L 1043.671875 447.4727640154119 L 1044.267578125 447.3604271979203 L 1044.86328125 447.1453843135558 L 1045.458984375 446.8286968579879 L 1046.0546875 446.41192806528386 L 1047.24609375 445.2868593594702 L 1048.4375 443.7923650597333 L 1050.8203125 439.8196921285613 L 1053.203125 434.8057359405737 L 1055.5859375 429.1440565201477 L 1057.96875 423.27905557467415 L 1060.3515625 417.6710941102194 L 1062.734375 412.7603573553553 L 1065.1171875 408.93230334052697 L 1066.30859375 407.52219997467415 L 1067.5 406.48740717459197 L 1068.095703125 406.11743044721186 L 1068.69140625 405.84833152221614 L 1069.287109375 405.6814387269497 L 1069.8828125 405.6175758783921 L 1070.478515625 405.6570582166285 L 1071.07421875 405.79969084876035 L 1071.669921875 406.0447697109363 L 1072.265625 406.3910850437556 L 1073.45703125 407.38009590243274 L 1074.6484375 408.74721968344244 L 1077.03125 412.50103992732465 L 1079.4140625 417.3578974914323 L 1081.796875 422.9365634799271 L 1084.1796875 428.7991521514677 L 1086.5625 434.4854918463946 L 1091.328125 443.5929434649456 L 1091.923828125 444.40514216464777 L 1092.51953125 445.1292226889793 L 1093.7109375 446.29918498551245 L 1094.306640625 446.7392915844732 L 1094.90234375 447.07975816901796 L 1095.498046875 447.31890412643435 L 1096.09375 447.4555489833532 L 1096.689453125 447.4890182328066 L 1097.28515625 447.41914666373225 L 1097.880859375 447.24627917648917 L 1098.4765625 446.97126908035875 L 1099.072265625 446.59547388143574 L 1099.66796875 446.1207485817004 L 1100.859375 444.88435781658404 L 1103.2421875 441.35862293526606 L 1105.625 436.67080963596715 L 1108.0078125 431.18887803783844 L 1110.390625 425.3431209181819 L 1112.7734375 419.59238877912685 L 1115.15625 414.38807333531605 L 1119.921875 407.17774570066126 L 1120.517578125 406.6685916904005 L 1121.11328125 406.2575948378739 L 1121.708984375 405.94678390762533 L 1122.3046875 405.73769312599075 L 1122.900390625 405.6313546078431 L 1123.49609375 405.6282932618621 L 1124.091796875 405.7285241994778 L 1124.6875 405.9315526602774 L 1125.283203125 406.23637645424384 L 1125.87890625 406.64149090877066 L 1127.0703125 407.74410770405785 L 1128.26171875 409.2176589443487 L 1129.453125 411.03308553286644 L 1134.21875 420.91203886928776 L 1136.6015625 426.7265865570043 L 1138.984375 432.5275669779778 L 1143.75 442.3042881963547 L 1144.94140625 444.08128246971296 L 1146.1328125 445.51262567055795 L 1147.32421875 446.5700910637364 L 1147.919921875 446.9518025145514 L 1148.515625 447.232824953525 L 1149.111328125 447.4117711964082 L 1149.70703125 447.48775792793816 L 1150.302734375 447.4604100620631 L 1150.8984375 447.3298625934436 L 1151.494140625 447.0967599310916 L 1152.08984375 446.76225271743544 L 1153.28125 445.7961218233335 L 1154.47265625 444.45052244924 L 1155.6640625 442.7519904232718 L 1158.046875 438.4364111329028 L 1160.4296875 433.18812633988273 L 1162.8125 427.4190892032827 L 1165.1953125 421.5821282503144 L 1167.578125 416.1354035463666 L 1172.34375 408.05859122951705 L 1172.939453125 407.41526599724244 L 1173.53515625 406.86641218557236 L 1174.7265625 406.06247613913695 L 1175.322265625 405.81136229716225 L 1175.91796875 405.6626370725747 L 1176.513671875 405.6170346035082 L 1177.109375 405.6747799930794 L 1177.705078125 405.83558819823196 L 1178.30078125 406.098665436768 L 1178.896484375 406.4627131056189 L 1179.4921875 406.9259341910161 L 1180.68359375 408.14027214191117 L 1181.875 409.7177319959557 L 1186.640625 418.9429841092614 L 1189.0234375 424.65232151064293 L 1191.40625 430.51090675008237 L 1193.7890625 436.058882408965 L 1196.171875 440.8607717193082 L 1198.5546875 444.53966040360615 L 1199.74609375 445.86362088492695 L 1200.9375 446.806781774239 L 1201.533203125 447.1294455904833 L 1202.12890625 447.350543512322 L 1202.724609375 447.4689841551818 L 1203.3203125 447.4841828718195 L 1203.916015625 447.3960646382605 L 1204.51171875 447.20506442413244 L 1205.107421875 446.91212504556626 L 1205.703125 446.5186925112626 L 1206.89453125 445.438602697699 L 1208.0859375 443.986094842966 L 1210.46875 440.08518083412315 L 1212.8515625 435.1221445867268 L 1215.234375 429.4865492707134 L 1217.6171875 423.6207491761483 L 1220 417.98516803663665" stroke-opacity="0.8" stroke-linecap="round" stroke-linejoin="round" stroke-miterlimit="10" stroke-width="2.5"/></g></g></svg>