<svg version="1.1" xmlns="http://www.w3.org/2000/svg" xmlns:xlink="http://www.w3.org/1999/xlink" width="1220" height="790"><defs><clipPath id="uprkHLGbzsoL"><path fill="none" stroke="none" d=" M 0 0 L 1220 0 L 1220 790 L 0 790 L 0 0 Z"/></clipPath></defs><g transform="scale(1,1)" clip-path="url(#uprkHLGbzsoL)"><g><rect fill="rgb(255,255,255)" stroke="none" x="0" y="0" width="1220" height="790" fill-opacity="1"/><path fill="none" stroke="rgb(0,0,0)" paint-order="fill stroke markers" d=" M 0.5 357.5 L 1218.5 357.5" stroke-opacity="1" stroke-miterlimit="10"/><path fill="none" stroke="rgb(0,0,0)" paint-order="fill stroke markers" d=" M 1219.5 357.5 L 1215.5 353.5" stroke-opacity="1" stroke-miterlimit="10"/><path fill="none" stroke="rgb(0,0,0)" paint-order="fill stroke markers" d=" M 1219.5 357.5 L 1215.5 361.5" stroke-opacity="1" stroke-miterlimit="10"/><path fill="none" stroke="rgb(0,0,0)" paint-order="fill stroke markers" d=" M 31.5 357.5 L 31.5 360.5" stroke-opacity="1" stroke-miterlimit="10"/><path fill="none" stroke="rgb(0,0,0)" paint-order="fill stroke markers" d=" M 114.5 357.5 L 114.5 360.5" stroke-opacity="1" stroke-miterlimit="10"/><path fill="none" stroke="rgb(0,0,0)" paint-order="fill stroke markers" d=" M 196.5 357.5 L 196.5 360.5" stroke-opacity="1" stroke-miterlimit="10"/><path fill="none" stroke="rgb(0,0,0)" paint-order="fill stroke markers" d=" M 279.5 357.5 L 279.5 360.5" stroke-opacity="1" stroke-miterlimit="10"/><path fill="none" stroke="rgb(0,0,0)" paint-order="fill stroke markers" d=" M 361.5 357.5 L 361.5 360.5" stroke-opacity="1" stroke-miterlimit="10"/><path fill="none" stroke="rgb(0,0,0)" paint-order="fill stroke markers" d=" M 443.5 357.5 L 443.5 360.5" stroke-opacity="1" stroke-miterlimit="10"/><path fill="none" stroke="rgb(0,0,0)" paint-order="fill stroke markers" d=" M 526.5 357.5 L 526.5 360.5" stroke-opacity="1" stroke-miterlimit="10"/><path fill="none" stroke="rgb(0,0,0)" paint-order="fill stroke markers" d=" M 608.5 357.5 L 608.5 360.5" stroke-opacity="1" stroke-miterlimit="10"/><path fill="none" stroke="rgb(0,0,0)" paint-order="fill stroke markers" d=" M 691.5 357.5 L 691.5 360.5" stroke-opacity="1" stroke-miterlimit="10"/><path fill="none" stroke="rgb(0,0,0)" paint-order="fill stroke markers" d=" M 773.5 357.5 L 773.5 360.5" stroke-opacity="1" stroke-miterlimit="10"/><path fill="none" stroke="rgb(0,0,0)" paint-order="fill stroke markers" d=" M 856.5 357.5 L 856.5 360.5" stroke-opacity="1" stroke-miterlimit="10"/><path fill="none" stroke="rgb(0,0,0)" paint-order="fill stroke markers" d=" M 938.5 357.5 L 938.5 360.5" stroke-opacity="1" stroke-miterlimit="10"/><path fill="none" stroke="rgb(0,0,0)" paint-order="fill stroke markers" d=" M 1021.5 357.5 L 1021.5 360.5" stroke-opacity="1" stroke-miterlimit="10"/><path fill="none" stroke="rgb(0,0,0)" paint-order="fill stroke markers" d=" M 1103.5 357.5 L 1103.5 360.5" stroke-opacity="1" stroke-miterlimit="10"/><path fill="none" stroke="rgb(0,0,0)" paint-order="fill stroke markers" d=" M 1185.5 357.5 L 1185.5 360.5" stroke-opacity="1" stroke-miterlimit="10"/><path fill="none" stroke="rgb(255,153,0)" paint-order="fill stroke markers" d=" M 443.9909512119639 357.5366259921798 L 447.96875 360.4644130275513 M 447.96875 360.4644130275513 L 452.734375 363.78364276321787 L 457.5 366.4709517587464 M 457.5 366.4709517587464 L 462.265625 368.1291017310927 L 463.45703125 368.34597325203754 L 464.6484375 368.4766098951095 L 467.03125 368.4698555211122 L 469.4140625 368.09705325625214 L 471.796875 367.35784168928546 L 474.1796875 366.2636668999143 L 476.5625 364.8378111741952 L 481.328125 361.14097909734926 L 486.09375 356.6684712416965 L 490.859375 351.9525640448366 L 495.625 347.5991133900595 L 500.390625 344.21699023563514 L 502.7734375 343.06256546641833 L 505.15625 342.34218201703345 L 506.34765625 342.1588962008361 L 507.5390625 342.09952154388947 L 509.921875 342.3652382837697 L 511.11328125 342.6943844885469 L 512.3046875 343.1554817433231 L 514.6875 344.4707864030429 L 517.0703125 346.2953706677823 L 519.453125 348.59687663784115 L 524.21875 354.42001079999727 L 528.984375 361.36905179443977 L 533.75 368.668082253619 L 538.515625 375.40502136540186 L 543.28125 380.6197868775312 L 544.47265625 381.5765414481954 L 545.6640625 382.36751976454906 L 546.85546875 382.9803281265943 L 548.046875 383.4033540619205 L 549.23828125 383.62585396936436 L 550.4296875 383.63803637332717 L 551.025390625 383.56247839546916 L 551.62109375 383.4311401940429 L 552.8125 382.9975074674142 L 554.00390625 382.33064998041675 L 555.1953125 381.4253093243132 L 557.578125 378.8846045154222 L 559.9609375 375.35974709126975 L 562.34375 370.85735515323427 L 564.7265625 365.4068477828491 L 567.109375 359.0604226688061 L 569.4921875 351.8924652424359 L 571.875 343.9983950176854 L 574.2578125 335.4929697270096 L 576.640625 326.50808234226946 L 579.0234375 317.19009976984614 L 581.40625 307.6968045312101 L 583.7890625 298.19401173373524 L 586.171875 288.8519427913567 L 588.5546875 279.84144440951536 L 590.9375 271.3301460990978 L 593.3203125 263.47865178773435 L 595.703125 256.43686087865336 L 598.0859375 250.34051136127647 L 600.46875 245.30803236742827 L 602.8515625 241.4377860240065 L 604.04296875 239.96317509287616 L 605.234375 238.80576877332564 L 606.42578125 237.97127973420072 L 607.021484375 237.6764804008256 L 607.6171875 237.46383077144282 L 608.212890625 237.33359379773927 L 608.80859375 237.2859305504114 L 609.404296875 237.32089998201099 L 610 237.4384588401416 M 610 237.4384588401416 L 611.19140625 237.9206613341758 L 611.787109375 238.28470876531833 L 612.3828125 238.730154091168 L 613.57421875 239.86293756679686 L 614.765625 241.3134201470495 L 617.1484375 245.137362259954 L 619.53125 250.12688199905315 L 621.9140625 256.18443695847486 L 624.296875 263.19232054139206 L 626.6796875 271.0154036874772 L 629.0625 279.5042687836134 L 631.4453125 288.4986562407931 L 633.828125 297.83113659102463 L 636.2109375 307.33091565530407 L 638.59375 316.82767749143335 L 640.9765625 326.15536951487377 L 643.359375 335.1558363935725 L 645.7421875 343.6822139762022 L 648.125 351.6020014829771 L 650.5078125 358.799739266848 L 652.890625 365.17923038124604 L 655.2734375 370.6652566601157 L 657.65625 375.2047536777119 L 660.0390625 378.76742342997466 L 662.421875 381.3457784669311 L 663.61328125 382.26961961891925 L 664.8046875 382.9546260987352 L 665.99609375 383.4059595609474 L 666.591796875 383.5459509667124 L 667.1875 383.6300157918669 L 668.37890625 383.6343651814214 L 668.974609375 383.5568205877432 L 669.5703125 383.4276865762078 L 670.76171875 383.01969500854415 L 671.953125 382.4210638328708 L 674.3359375 380.6988658966599 L 676.71875 378.36239019994184 L 681.484375 372.2967856180344 L 686.25 365.17048094349747 L 691.015625 357.9323978833815 L 695.78125 351.4391280110771 L 700.546875 346.3752210454235 L 702.9296875 344.53161563501806 L 705.3125 343.19635330738765 L 706.50390625 342.72512490136774 L 707.6953125 342.3858504162105 L 710.078125 342.1001889394789 L 711.26953125 342.1498928096846 L 712.4609375 342.32380110877847 L 714.84375 343.0265647026747 L 717.2265625 344.1652671574177 L 719.609375 345.6853873274354 L 724.375 349.6076906549395 L 729.140625 354.2129746090099 L 733.90625 358.88447746009575 L 738.671875 363.0435516354514 L 743.4375 366.2148403771497 L 745.8203125 367.32225940939406 L 748.203125 368.0753918774433 L 750.5859375 368.46233530733485 L 752.96875 368.48300247397106 L 755.3515625 368.1487511538475 L 757.734375 367.4816791354837 L 762.5 365.2848400449741 M 762.5 365.2848400449741 L 767.265625 362.2394123870602 L 772.03125 358.776052746345 M 772.03125 358.776052746345 L 773.7177558538024 357.5366259921798" stroke-opacity="0.8" stroke-linecap="round" stroke-linejoin="round" stroke-miterlimit="10" stroke-width="2.5"/><path fill="none" stroke="rgb(51,170,112)" paint-order="fill stroke markers" d=" M 856.1494580446583 357.5366259921798 L 857.8125 358.7587263246817 M 857.8125 358.7587263246817 L 862.578125 362.2230100962404 L 867.34375 365.27159628623747 L 872.109375 367.47355416881487 L 874.4921875 368.1437602654042 L 876.875 368.48141353404407 M 876.875 368.48141353404407 L 881.640625 368.0809970948972 L 882.236328125 367.92768444040433 L 882.83203125 367.7515377336994 L 884.0234375 367.33143203791417 L 886.40625 366.2274052660295 L 891.171875 363.0619193055352 L 895.9375 358.9066521655389 L 900.703125 354.23631502261026 L 905.46875 349.6291958757162 L 910.234375 345.70204667517316 L 912.6171875 344.1784743740361 L 915 343.0357332987696 M 915 343.0357332987696 L 917.3828125 342.328446179377 L 918.57421875 342.1521312744962 L 919.765625 342.0999460980617 L 922.1484375 342.3804918822746 L 923.33984375 342.7171693670693 L 924.53125 343.1858006025935 L 926.9140625 344.51594842701905 L 929.296875 346.35468177744553 L 934.0625 351.4102192836721 L 938.828125 357.8979596965345 L 943.59375 365.1343622078437 L 948.359375 372.2635031156917 L 953.125 378.33669143391984 L 955.5078125 380.67867777310204 L 957.890625 382.407436695938 L 959.08203125 383.0097091512422 L 960.2734375 383.42156127264263 L 961.46484375 383.6323016490187 L 962.060546875 383.659173305655 L 962.65625 383.6321956055104 L 963.84765625 383.4125431716974 L 964.443359375 383.2179691816413 L 965.0390625 382.9657514679337 L 966.23046875 382.2854009778049 L 967.421875 381.3663052111339 L 969.8046875 378.7976051299453 L 972.1875 375.24462875320535 L 974.5703125 370.71464057217634 L 976.953125 365.2377132565033 L 979.3359375 358.8666891017659 L 981.71875 351.6765729406879 L 984.1015625 343.7633626412549 L 986.484375 335.2423382046778 L 988.8671875 326.24584495651106 L 991.25 316.92061999587 L 993.6328125 307.4247235507552 L 996.015625 297.9241478326219 L 998.3984375 288.58918508152755 L 1000.78125 279.5906434847715 L 1003.1640625 271.0960043339931 L 1005.546875 263.26561601803064 L 1007.9296875 256.2490201582412 L 1010.3125 250.18150237537404 L 1015.078125 241.34513061547347 L 1015.673828125 240.57751036501116 L 1016.26953125 239.88845792696145 L 1017.4609375 238.7493584411134 L 1018.65234375 237.9334548268027 L 1019.248046875 237.64802408972213 L 1019.84375 237.4447782411674 L 1020.439453125 237.32396861027968 L 1021.03515625 237.28574461051886 L 1021.630859375 237.33015351967148 L 1022.2265625 237.45714041023734 L 1022.822265625 237.66654823030638 L 1023.41796875 237.95811803479643 L 1024.609375 238.78620078759502 L 1025.80078125 239.93729745861197 L 1026.9921875 241.40572639644853 L 1029.375 245.2641118592814 L 1031.7578125 250.28559071736925 L 1034.140625 256.37201068207474 L 1036.5234375 263.4051274782664 L 1038.90625 271.24935879176644 L 1041.2890625 279.75492825474896 L 1043.671875 288.76131970351275 L 1046.0546875 298.1009543779351 L 1048.4375 307.6029984978749 L 1050.8203125 317.09720588108803 L 1053.203125 326.41770002408515 L 1055.5859375 335.4066023464288 L 1057.96875 343.9174180257299 L 1060.3515625 351.8180978836541 L 1062.734375 358.9937039185622 L 1065.1171875 365.3486170572952 L 1067.5 370.80823820724333 M 1067.5 370.80823820724333 L 1072.265625 378.8547001509639 L 1073.45703125 380.25245013163925 L 1074.6484375 381.40505560814563 L 1075.83984375 382.3151372293718 L 1077.03125 382.9866448398925 L 1078.22265625 383.4248120721998 L 1078.818359375 383.5583667279192 L 1079.4140625 383.6361034765214 L 1080.60546875 383.62815460197163 L 1081.201171875 383.5446551237036 L 1081.796875 383.4097054860995 L 1082.98828125 382.9905280498388 L 1084.1796875 382.3813479311845 L 1086.5625 380.64014741178977 L 1088.9453125 378.2877181582976 L 1091.328125 375.43520896563587 L 1096.09375 368.7034128726327 L 1100.859375 361.40483757753515 L 1105.625 354.45202901600794 L 1110.390625 348.62176209487274 L 1115.15625 344.4863101197798 L 1116.34765625 343.76108379778924 L 1117.5390625 343.165886435067 L 1119.921875 342.37044888465283 L 1121.11328125 342.17010361445574 L 1122.3046875 342.0996209384396 L 1124.6875 342.337402080795 L 1125.87890625 342.63801325664014 L 1127.0703125 343.0532742661119 L 1129.453125 344.20367585237625 L 1134.21875 347.5795996925782 L 1138.984375 351.9297309152033 L 1143.75 356.64537058448707 M 1143.75 356.64537058448707 L 1148.515625 361.1204673596731 L 1153.28125 364.82222809669435 L 1158.046875 367.34876907619685 L 1159.23828125 367.76551067714695 L 1160.4296875 368.0915513370163 L 1162.8125 368.4679791022306 L 1165.1953125 368.4782988145473 L 1167.578125 368.1341863047667 L 1169.9609375 367.45803264126874 L 1172.34375 366.48192630743193 L 1177.109375 363.79877969474944 L 1181.875 360.4815755254915 M 1181.875 360.4815755254915 L 1185.8762626864968 357.5366259921798" stroke-opacity="0.8" stroke-linecap="round" stroke-linejoin="round" stroke-miterlimit="10" stroke-width="2.5"/><path fill="none" stroke="rgb(204,102,255)" paint-order="fill stroke markers" d=" M 31.832444379269305 357.5366259921798 L 33.359374999999886 358.65824065582905 M 33.359374999999886 358.65824065582905 L 38.125 362.1276642230395 M 38.125 362.1276642230395 L 42.890625 365.1943641049986 L 47.65625 367.42584691116775 L 50.0390625 368.1141718997819 L 52.421875 368.4715165420054 L 54.8046875 368.4750966883743 L 57.1875 368.11280971966073 L 59.5703125 367.3839609776232 L 61.953125 366.2996571858196 L 66.71875 363.1679869950867 L 71.484375 359.0350324961386 L 76.25 354.3717363648886 M 76.25 354.3717363648886 L 81.015625 349.7542693918969 L 85.78125 345.79929093148985 L 88.1640625 344.2558159882852 L 90.546875 343.08975246197593 L 92.9296875 342.3563084375462 L 94.12109375 342.1660656764599 L 95.3125 342.0995126791046 L 97.6953125 342.3504136241611 L 98.88671875000006 342.6720304306371 L 100.078125 343.12559230684764 L 102.46093750000006 344.4260409461252 L 104.84375000000006 346.23644971617597 L 109.609375 351.2432194379623 L 114.37500000000006 357.6985557448456 L 119.140625 364.92479761143693 L 123.90625 372.0699338814063 L 128.67187500000006 378.18665771041543 L 131.0546875 380.5603975935652 L 133.4375 382.3270212637462 L 134.62890625000006 382.95032761797705 L 135.8203125 383.38449228893705 L 137.01171875 383.6187197572355 L 138.20312500000006 383.6431620020797 L 138.798828125 383.5739146873456 L 139.39453125 383.44899707178286 L 140.5859375 383.02850213535885 L 141.77734375000006 382.37512047924724 L 142.96875 381.4835219492417 L 145.35156250000006 378.9707995765155 L 147.73437500000006 375.4740664668795 L 152.5 365.57524996597954 M 152.5 365.57524996597954 L 154.88281250000006 359.25348464994306 L 157.265625 352.1077639107807 L 159.6484375 344.2329275226345 L 162.03125000000006 335.7432091488328 L 164.41406250000006 326.77004723244664 L 166.796875 317.459435987419 L 169.1796875 307.96887746348324 L 171.56250000000006 298.4640066998179 L 173.9453125 289.1149711935749 L 176.328125 280.0926530273729 L 178.71093750000006 271.56482681821245 L 181.09375000000006 263.6923490251646 L 183.4765625 256.62547400746723 L 185.859375 250.50038955029254 L 190.625 241.53145314398253 L 191.220703125 240.74601038347632 L 191.81640625000006 240.03892769994718 L 193.0078125 238.86323319589206 L 194.19921875 238.0101721909612 L 194.794921875 237.70600901852077 L 195.39062500000006 237.483959040706 L 195.986328125 237.3442968266962 L 196.58203125 237.28719510132856 L 197.17773437500006 237.31272449078713 L 197.7734375 237.42085341861065 L 198.369140625 237.61144815218728 L 198.96484375 237.88427299966042 L 200.15625 238.6751627041968 L 201.34765625000006 239.78961473042693 L 202.5390625 241.2221276090786 L 204.92187500000006 245.01156499173817 L 207.3046875 249.96904588776127 L 209.6875 255.99763963770295 L 212.07031250000006 262.9801795643175 L 214.45312500000006 270.7819924229867 L 216.8359375 279.2540221727352 L 219.21875 288.23626880100744 L 221.60156250000006 297.5614552424445 L 223.984375 307.05883006052204 L 226.3671875 316.55801064710846 L 228.75000000000006 325.89277130695723 L 231.1328125 334.90468273051783 L 233.515625 343.44651394857124 L 235.8984375 351.38531476843207 L 238.28124999999994 358.60510571320924 L 240.6640625 365.00911336521744 L 243.046875 370.521501444852 L 247.81250000000006 378.67934225027483 L 249.00390625 380.1052044000682 L 250.1953125 381.2857090176708 L 251.38671875000006 382.22332235673 L 252.578125 382.92184456223237 L 253.76953125 383.38636513955475 L 254.365234375 383.5328051888983 L 254.96093750000006 383.62321091673186 L 256.15234375 383.63988690853694 L 256.74804687500006 383.5683126524509 L 257.34375 383.445010534655 L 258.53515625000006 383.0482396845712 L 259.7265625 382.46019515853857 L 262.10937500000006 380.75708263894023 L 264.4921875 378.43665119224056 L 266.875 375.6095879332165 L 271.64062499999994 368.9080889793015 L 276.40625 361.6125943182089 L 281.171875 354.638305410479 L 285.9375 348.76693844362217 L 290.703125 344.5773369534268 L 291.89453125 343.83739571055384 L 293.0859375 343.2272493575961 L 295.46875 342.401681145743 L 296.66015625 342.1863839819152 L 297.8515625 342.10117336455073 L 300.234375 342.3105918891462 L 301.42578125 342.5977669086955 L 302.6171875 343.00021152008367 L 305 344.12717022933543 M 305 344.12717022933543 L 309.765625 347.4668740197806 L 314.53125 351.79745559996996 L 319.296875 356.5112505672417 L 324.0625 361.0011078648612 L 328.828125 364.7312648595905 L 333.59375 367.2954599319474 L 334.78515625 367.72246191134417 L 335.9765625 368.0589328990683 L 338.359375 368.45639194782143 L 340.7421875 368.48741588186635 L 343.125 368.16304384625647 M 343.125 368.16304384625647 L 347.890625 366.5450896903496 L 350.2734375 365.32313529327877 L 352.65625 363.8862802177579 M 352.65625 363.8862802177579 L 357.421875 360.58104435555936 M 357.421875 360.58104435555936 L 361.5592490211079 357.5366259921798" stroke-opacity="0.8" stroke-linecap="round" stroke-linejoin="round" stroke-miterlimit="10" stroke-width="2.5"/></g></g></svg>