<?xml version="1.0" encoding="UTF-8" standalone="no"?>
<svg
   xmlns:dc="http://purl.org/dc/elements/1.1/"
   xmlns:cc="http://creativecommons.org/ns#"
   xmlns:rdf="http://www.w3.org/1999/02/22-rdf-syntax-ns#"
   xmlns:svg="http://www.w3.org/2000/svg"
   xmlns="http://www.w3.org/2000/svg"
   xmlns:sodipodi="http://sodipodi.sourceforge.net/DTD/sodipodi-0.dtd"
   xmlns:inkscape="http://www.inkscape.org/namespaces/inkscape"
   width="1920"
   height="1080"
   viewBox="0 0 508 285.75"
   version="1.1"
   id="svg8"
   inkscape:version="1.0.1 (c497b03c, 2020-09-10)"
   sodipodi:docname="window_advance_illustration.svg">
  <defs
     id="defs2">
    <marker
       style="overflow:visible;"
       id="marker13992"
       refX="0.0"
       refY="0.0"
       orient="auto"
       inkscape:stockid="Arrow1Lend"
       inkscape:isstock="true">
      <path
         transform="scale(0.8) rotate(180) translate(12.5,0)"
         style="fill-rule:evenodd;stroke:#000000;stroke-width:1pt;stroke-opacity:1;fill:#000000;fill-opacity:1"
         d="M 0.0,0.0 L 5.0,-5.0 L -12.5,0.0 L 5.0,5.0 L 0.0,0.0 z "
         id="path13990" />
    </marker>
    <inkscape:path-effect
       effect="bspline"
       id="path-effect13981"
       is_visible="true"
       lpeversion="1"
       weight="33.333333"
       steps="2"
       helper_size="0"
       apply_no_weight="true"
       apply_with_weight="true"
       only_selected="false" />
    <inkscape:path-effect
       effect="bspline"
       id="path-effect13976"
       is_visible="true"
       lpeversion="1"
       weight="33.333333"
       steps="2"
       helper_size="0"
       apply_no_weight="true"
       apply_with_weight="true"
       only_selected="false" />
    <inkscape:path-effect
       effect="bspline"
       id="path-effect13972"
       is_visible="true"
       lpeversion="1"
       weight="33.333333"
       steps="2"
       helper_size="0"
       apply_no_weight="true"
       apply_with_weight="true"
       only_selected="false" />
    <inkscape:path-effect
       effect="bspline"
       id="path-effect13900"
       is_visible="true"
       lpeversion="1"
       weight="33.333333"
       steps="2"
       helper_size="0"
       apply_no_weight="true"
       apply_with_weight="true"
       only_selected="false" />
    <inkscape:path-effect
       effect="bspline"
       id="path-effect13491"
       is_visible="true"
       lpeversion="1"
       weight="33.333333"
       steps="2"
       helper_size="0"
       apply_no_weight="true"
       apply_with_weight="true"
       only_selected="false" />
    <inkscape:path-effect
       effect="bspline"
       id="path-effect11648"
       is_visible="true"
       lpeversion="1"
       weight="33.333333"
       steps="2"
       helper_size="0"
       apply_no_weight="true"
       apply_with_weight="true"
       only_selected="false" />
    <clipPath
       id="ZlCMLVbspSMt">
      <path
         fill="none"
         stroke="none"
         d=" M 0 0 L 1220 0 L 1220 790 L 0 790 L 0 0 Z"
         id="path1693" />
    </clipPath>
  </defs>
  <sodipodi:namedview
     id="base"
     pagecolor="#ffffff"
     bordercolor="#666666"
     borderopacity="1.0"
     inkscape:pageopacity="1"
     inkscape:pageshadow="2"
     inkscape:zoom="0.63555273"
     inkscape:cx="852.52807"
     inkscape:cy="596.76084"
     inkscape:document-units="px"
     inkscape:current-layer="layer1"
     inkscape:document-rotation="0"
     showgrid="false"
     units="px"
     inkscape:showpageshadow="false"
     inkscape:window-width="1600"
     inkscape:window-height="812"
     inkscape:window-x="1276"
     inkscape:window-y="23"
     inkscape:window-maximized="0"
     inkscape:pagecheckerboard="false"
     borderlayer="false"
     showguides="true"
     inkscape:guide-bbox="true" />
  <metadata
     id="metadata5">
    <rdf:RDF>
      <cc:Work
         rdf:about="">
        <dc:format>image/svg+xml</dc:format>
        <dc:type
           rdf:resource="http://purl.org/dc/dcmitype/StillImage" />
        <dc:title />
      </cc:Work>
    </rdf:RDF>
  </metadata>
  <g
     inkscape:label="Layer 1"
     inkscape:groupmode="layer"
     id="layer1">
    <path
       id="rect13861"
       style="opacity:1;fill:#000000;fill-opacity:0.0808081;stroke:#000000;stroke-width:0.105833;stroke-miterlimit:4.6;stroke-dasharray:none;stroke-dashoffset:15.988;stroke-opacity:1;paint-order:stroke fill markers"
       d="m 286.51273,208.29421 36.22978,0 -2.10062,5.72642 2.24781,5.30908 -36.37697,0 z"
       sodipodi:nodetypes="cccccc" />
    <circle
       id="path130"
       style="fill:#000000;stroke:#000000;stroke-width:0.264583"
       cx="45.851349"
       cy="240.34169"
       r="0" />
    <rect
       style="opacity:1;fill:#000000;fill-opacity:0.0808081;stroke:#000000;stroke-width:0.10583333;stroke-miterlimit:4.5999999;stroke-dasharray:none;stroke-dashoffset:15.988;stroke-opacity:1;paint-order:stroke fill markers"
       id="rect11672"
       width="116.55437"
       height="10.993361"
       x="65.2173"
       y="109.4794" />
    <rect
       style="opacity:1;fill:#000000;fill-opacity:0.0808081;stroke:#000000;stroke-width:0.10583333;stroke-miterlimit:4.5999999;stroke-dasharray:none;stroke-dashoffset:15.988;stroke-opacity:1;paint-order:stroke fill markers"
       id="rect13429"
       width="116.55437"
       height="10.993361"
       x="198.34698"
       y="109.4794" />
    <rect
       style="opacity:1;fill:#000000;fill-opacity:0.0808081;stroke:#000000;stroke-width:0.105833;stroke-miterlimit:4.6;stroke-dasharray:none;stroke-dashoffset:15.988;stroke-opacity:1;paint-order:stroke fill markers"
       id="rect13437"
       width="116.55437"
       height="10.993361"
       x="150.4782"
       y="142.28212" />
    <path
       id="rect13435"
       style="opacity:1;fill:#000000;fill-opacity:0.0808081;stroke:#000000;stroke-width:0.105833;stroke-miterlimit:4.6;stroke-dasharray:none;stroke-dashoffset:15.988;stroke-opacity:1;paint-order:stroke fill markers"
       d="m 57.663011,142.27714 92.820169,0 v 11.00334 H 57.533682 l 1.922016,-5.37023 z"
       sodipodi:nodetypes="cccccc" />
    <path
       id="rect13441"
       style="opacity:1;fill:#000000;fill-opacity:0.0808081;stroke:#000000;stroke-width:0.105833;stroke-miterlimit:4.6;stroke-dasharray:none;stroke-dashoffset:15.988;stroke-opacity:1;paint-order:stroke fill markers"
       d="m 267.03256,142.24246 h 55.81777 l -2.34724,5.69019 2.45131,5.34283 h -55.92184 z"
       sodipodi:nodetypes="ccsccc" />
    <text
       xml:space="preserve"
       style="font-size:9.73796px;line-height:1.25;font-family:'Times New Roman';-inkscape-font-specification:'Times New Roman, ';word-spacing:0px;stroke-width:0.0973796"
       x="370.67426"
       y="116.80266"
       id="text13781"><tspan
         sodipodi:role="line"
         id="tspan13779"
         x="370.67426"
         y="116.80266"
         style="stroke-width:0.0973796">$T_a &gt; T_w$</tspan></text>
    <text
       xml:space="preserve"
       style="font-size:9.73796px;line-height:1.25;font-family:'Times New Roman';-inkscape-font-specification:'Times New Roman, ';word-spacing:0px;stroke-width:0.0973796"
       x="370.67426"
       y="149.22609"
       id="text13787"><tspan
         sodipodi:role="line"
         id="tspan13785"
         x="370.67426"
         y="149.22609"
         style="stroke-width:0.0973796">$T_a = T_w$</tspan></text>
    <text
       xml:space="preserve"
       style="font-size:9.73796px;line-height:1.25;font-family:'Times New Roman';-inkscape-font-specification:'Times New Roman, ';word-spacing:0px;stroke-width:0.0973796"
       x="370.67426"
       y="195.46095"
       id="text13791"><tspan
         sodipodi:role="line"
         id="tspan13789"
         x="370.67426"
         y="195.46095"
         style="stroke-width:0.0973796">$T_a &lt; T_w$</tspan></text>
    <rect
       style="opacity:1;fill:#000000;fill-opacity:0.0808081;stroke:#000000;stroke-width:0.105523;stroke-miterlimit:4.6;stroke-dasharray:none;stroke-dashoffset:15.988;stroke-opacity:1;paint-order:stroke fill markers"
       id="rect13845"
       width="115.87174"
       height="10.993361"
       x="118.98708"
       y="186.30748" />
    <rect
       style="opacity:1;fill:#000000;fill-opacity:0.0808081;stroke:#000000;stroke-width:0.105833;stroke-miterlimit:4.6;stroke-dasharray:none;stroke-dashoffset:15.988;stroke-opacity:1;paint-order:stroke fill markers"
       id="rect13855"
       width="116.55437"
       height="10.993361"
       x="202.6801"
       y="197.30084" />
    <path
       id="path13979"
       style="fill:none;stroke:#000000;stroke-width:0.264343;stroke-linecap:butt;stroke-linejoin:miter;stroke-miterlimit:4;stroke-dasharray:none;stroke-opacity:1"
       d="m 314.89351,103.27232 c 0,-1.8877 0,-3.77554 -9.71247,-4.71953 -9.71248,-0.94399 -29.13651,-0.94399 -38.84866,-2.07222 -9.71214,-1.128237 -9.71214,-3.384753 -9.71214,-5.641454 m -58.27326,12.433204 c 0,-1.8877 0,-3.77554 9.71248,-4.71953 9.71247,-0.94399 29.13649,-0.94399 38.84863,-2.07222 9.71215,-1.128237 9.71215,-3.384753 9.71215,-5.641454" />
    <text
       xml:space="preserve"
       style="font-size:6.06192px;line-height:1.25;font-family:'Times New Roman';-inkscape-font-specification:'Times New Roman, ';text-align:center;word-spacing:0px;text-anchor:middle;stroke-width:0.0606192"
       x="256.0304"
       y="85.174606"
       id="text13986"><tspan
         sodipodi:role="line"
         id="tspan13984"
         x="256.0304"
         y="85.174606"
         style="text-align:center;text-anchor:middle;stroke-width:0.0606192">$T_w$</tspan></text>
    <path
       style="fill:none;stroke:#000000;stroke-width:0.248375px;stroke-linecap:butt;stroke-linejoin:miter;stroke-opacity:1;marker-end:url(#marker13992)"
       d="M 64.158966,109.57551 C 49.127707,96.636923 100.61785,65.290929 196.8299,108.82407"
       id="path13988"
       sodipodi:nodetypes="cc" />
    <path
       style="fill:none;stroke:#000000;stroke-width:0.165423;stroke-linecap:butt;stroke-linejoin:miter;stroke-miterlimit:4;stroke-dasharray:0.165423, 1.32338;stroke-dashoffset:0;stroke-opacity:1"
       d="m 198.34698,109.4794 v -6.20708"
       id="path14072" />
    <path
       style="fill:none;stroke:#000000;stroke-width:0.165423;stroke-linecap:butt;stroke-linejoin:miter;stroke-miterlimit:4;stroke-dasharray:0.165423, 1.32338;stroke-dashoffset:0;stroke-opacity:1"
       d="m 314.90137,109.4794 v -6.20708"
       id="path14074" />
    <text
       xml:space="preserve"
       style="font-size:6.06192px;line-height:1.25;font-family:'Times New Roman';-inkscape-font-specification:'Times New Roman, ';text-align:center;word-spacing:0px;text-anchor:middle;stroke-width:0.0606192"
       x="102.11948"
       y="80.719261"
       id="text14078"><tspan
         sodipodi:role="line"
         id="tspan14076"
         x="102.11948"
         y="80.719261"
         style="text-align:center;text-anchor:middle;stroke-width:0.0606192">$T_a$</tspan></text>
    <path
       fill="none"
       stroke="#2e7d32"
       paint-order="fill stroke markers"
       d="m 58.595545,111.09731 0.515234,-0.50977 0.128808,-0.0749 0.128809,-0.053 0.128808,-0.0309 0.128809,-0.009 0.128808,0.0137 0.128808,0.036 0.128809,0.0581 0.128809,0.0799 0.257617,0.22359 0.257617,0.30476 0.515234,0.82749 0.515234,1.06166 0.515234,1.21251 0.515235,1.26818 0.515233,1.22431 0.515235,1.08434 0.515234,0.85925 0.257617,0.3233 0.257617,0.24343 0.128809,0.0902 0.128808,0.0686 0.128809,0.0466 0.128808,0.0243 0.128809,0.002 0.128809,-0.0203 0.128808,-0.0425 0.128809,-0.0646 0.128808,-0.0863 0.128809,-0.10755 0.257616,-0.27673 0.515235,-0.77881 0.515234,-1.02595 0.515234,-1.19256 0.515234,-1.26557 0.515235,-1.23923 1.030467,-2.02008 0.257618,-0.35004 0.257617,-0.27224 0.128808,-0.10522 0.128809,-0.0839 0.128808,-0.0621 0.128809,-0.0401 0.128808,-0.0178 0.128809,0.005 0.128809,0.0268 0.128808,0.049 0.128809,0.0709 0.128808,0.0926 0.257617,0.24801 0.257617,0.32756 0.257618,0.40066 0.515233,0.98771 0.515235,1.16968 0.515234,1.25984 0.515234,1.25112 0.515234,1.14416 1.030468,1.62375 0.128809,0.11996 0.128808,0.099 0.128809,0.0776 0.128808,0.0557 0.128809,0.0335 0.128809,0.0113 0.128808,-0.0111 0.128809,-0.0334 0.128808,-0.0555 0.128809,-0.0774 0.257617,-0.21868 0.257617,-0.30014 0.257617,-0.3757 1.030469,-2.09097 0.515233,-1.25102 0.515233,-1.2599 1.03047,-2.15797 0.515234,-0.72868 0.128809,-0.13442 0.128809,-0.11385 0.257615,-0.16383 0.12881,-0.0492 0.128808,-0.027 0.128808,-0.005 0.12881,0.0176 0.128808,0.04 0.128807,0.062 0.128811,0.0837 0.128808,0.10508 0.257618,0.27199 0.257615,0.3498 0.515234,0.90406 0.515236,1.11536 0.515233,1.23911 0.515234,1.2656 0.515233,1.19276 1.03047,1.80554 0.128808,0.14854 0.12881,0.12843 0.257615,0.19409 0.12881,0.0647 0.128808,0.0427 0.128808,0.0204 0.128808,-0.002 0.12881,-0.0242 0.128808,-0.0464 0.128807,-0.0684 0.128811,-0.0901 0.257616,-0.24318 0.257617,-0.32304 0.515234,-0.85885 0.515234,-1.08404 0.515235,-1.22416 0.515234,-1.26819 0.515234,-1.21267 0.515234,-1.06198 0.515235,-0.82791 0.257616,-0.305 0.257618,-0.22386 0.128807,-0.0801 0.12881,-0.0583 0.128808,-0.0361 0.128808,-0.0139 0.128811,0.008 0.128807,0.0308 0.128808,0.053 0.128807,0.0749 0.257619,0.21374 0.257618,0.29551 0.515233,0.81151 0.515234,1.05007 0.515233,1.2062 0.515236,1.26765 0.515234,1.22962 1.030467,1.96958 0.12881,0.17567 0.128808,0.15661 0.257618,0.25309 0.128808,0.0952 0.128807,0.0737 0.12881,0.0517 0.128808,0.0296 0.128808,0.007 0.128816,-0.015 0.1288,-0.0373 0.12881,-0.0594 0.12881,-0.0812 0.12881,-0.10259 0.25761,-0.26725 0.51524,-0.76218 0.51523,-1.0135 0.51524,-1.18528 0.51523,-1.264 0.51524,-1.24353 0.51523,-1.12542 1.03047,-1.55945 0.12881,-0.11015 0.12881,-0.0889 0.1288,-0.0673 0.12882,-0.0453 0.1288,-0.023 0.12881,-6.5e-4 0.12881,0.0217 0.12881,0.0438 0.12881,0.0659 0.1288,0.0875 0.25762,0.23832 0.25762,0.31852 0.25761,0.39246 1.03048,2.13587 0.51523,1.25725 0.51523,1.25438 1.03047,2.11426 0.25761,0.38433 0.25762,0.3096 0.25762,0.22876 0.12881,0.0826 0.12881,0.0608 0.12881,0.0387 0.12881,0.0165 0.1288,-0.006 0.12882,-0.0282 0.1288,-0.0504 0.12881,-0.0722 0.25762,-0.2088 0.25761,-0.29086 0.25762,-0.36717 0.51523,-0.933 0.51524,-1.13473 0.51524,-1.2474 0.51523,-1.26214 0.51523,-1.17782 1.03047,-1.74678 0.1288,-0.13916 0.12881,-0.11873 0.25762,-0.17395 0.12881,-0.0543 0.12881,-0.0322 0.12881,-0.01 0.1288,0.0124 0.12882,0.0347 0.1288,0.0568 0.12881,0.0786 0.1288,0.10011 0.25762,0.26247 0.25762,0.341 1.03047,1.99449 0.51523,1.23447 0.51524,1.26681 0.51523,1.19971 0.51524,1.03844 0.51523,0.79567 0.25762,0.28637 0.25762,0.20405 0.1288,0.0698 0.12881,0.0479 0.12881,0.0257 0.12881,0.003 0.12881,-0.019 0.12881,-0.0413 0.12881,-0.0632 0.1288,-0.085 0.25762,-0.23344 0.25761,-0.31396 0.51525,-0.84333 0.51523,-1.07303 0.51523,-1.21852 0.51523,-1.26836 0.51524,-1.21864 1.03047,-1.91692 0.1288,-0.1668 0.12882,-0.14738 0.25761,-0.23365 0.12881,-0.0851 0.12881,-0.0634 0.1288,-0.0413 0.12882,-0.0191 0.1288,0.003 0.12881,0.0256 0.12881,0.0477 0.12881,0.0697 0.25762,0.20384 0.25761,0.28618 0.51523,0.79531 0.51525,1.03819 0.51523,1.19956 0.51523,1.26679 0.51523,1.23457 0.51524,1.10546 1.03047,1.49344 0.12881,0.10021 0.12881,0.0788 0.1288,0.057 0.12882,0.0348 0.1288,0.0126 0.12881,-0.01 0.1288,-0.0321 0.12882,-0.0543 0.1288,-0.0761 0.12881,-0.0976 0.25762,-0.25769 0.25762,-0.33655 0.25761,-0.4088 0.51524,-1.00078 0.51524,-1.17766 0.51523,-1.2621 0.51523,-1.24748 1.03047,-2.06823 0.25761,-0.36736 0.25762,-0.29106 0.25762,-0.20901 0.12881,-0.0724 0.12881,-0.0505 0.12881,-0.0283 0.12881,-0.006 0.1288,0.0164 0.12881,0.0386 0.12881,0.0607 0.12881,0.0825 0.25762,0.22855 0.25761,0.30941 0.25762,0.38414 0.51523,0.96092 0.51524,1.15286 0.51524,1.25432 0.51523,1.2573 0.51523,1.16161 1.03047,1.6861 0.12881,0.12961 0.1288,0.10891 0.25762,0.15361 0.12881,0.044 0.12881,0.0217 0.12881,-6.5e-4 0.12881,-0.023 0.12881,-0.0452 0.12881,-0.0672 0.1288,-0.0888 0.12881,-0.11004 0.25762,-0.28148 0.25762,-0.35857 1.03046,-2.04392 0.51524,-1.24343 0.51524,-1.26404 0.51523,-1.18544 0.51523,-1.01378 0.51523,-0.76254 0.25762,-0.26744 0.12881,-0.1027 0.12881,-0.0813 0.12881,-0.0595 0.1288,-0.0374 0.12882,-0.0151 0.1288,0.007 0.12881,0.0295 0.12881,0.0516 0.12881,0.0736 0.12881,0.0951 0.25762,0.25288 0.25761,0.33209 0.51524,0.87421 0.51523,1.09482 0.51523,1.22951 0.51524,1.26767 0.51524,1.20633 1.03046,1.86218 0.12881,0.15774 0.12881,0.13797 0.25761,0.21395 0.12882,0.075 0.1288,0.053 0.12881,0.0309 0.12881,0.009 0.12881,-0.0137 0.1288,-0.036 0.12882,-0.0581 0.1288,-0.0799 0.25762,-0.22364 0.25762,-0.30481 0.51523,-0.82758 0.51524,-1.06172 0.51523,-1.21255 0.51523,-1.26817 0.51524,-1.22428 0.51524,-1.08428 0.51523,-0.85917 0.25761,-0.32325 0.25762,-0.24337 0.12881,-0.0902 0.12881,-0.0686 0.12881,-0.0466 0.1288,-0.0243 0.12882,-0.002 0.1288,0.0203 0.12881,0.0426 0.12881,0.0646 0.12881,0.0863 0.1288,0.10757 0.25762,0.27678 0.51524,0.7789 0.51523,1.02601 0.51524,1.1926 0.51523,1.26558 0.51523,1.2392 1.03047,2.01995 0.25762,0.34999 0.25762,0.27219 0.1288,0.10518 0.12881,0.0838 0.12881,0.0621 0.12881,0.04 0.12881,0.0177 0.12881,-0.005 0.12881,-0.0269 0.1288,-0.049 0.12882,-0.071 0.1288,-0.0926 0.25761,-0.24806 0.25762,-0.32761 0.25762,-0.40071 0.51524,-0.98779 0.51523,-1.16972 0.51523,-1.25986 0.51524,-1.25109 0.51523,-1.14412 1.03047,-1.62356 0.12881,-0.11994 0.12881,-0.099 0.1288,-0.0775 0.12882,-0.0556 0.1288,-0.0335 0.12881,-0.0112 0.12881,0.0111 0.12881,0.0334 0.12881,0.0556 0.12881,0.0774 0.25761,0.21873 0.25762,0.3002 0.25761,0.37573 1.03048,2.09111 0.51523,1.25103 0.51523,1.25989 1.03047,2.15786 0.51524,0.72859 0.1288,0.13439 0.12882,0.11382 0.25761,0.16378 0.12881,0.0491 0.12881,0.027 0.1288,0.005 0.12882,-0.0177 0.1288,-0.04 0.12881,-0.062 0.12881,-0.0838 0.12881,-0.10511 0.25762,-0.27204 0.25761,-0.34985 0.51523,-0.90414 0.51525,-1.11542 0.51523,-1.23913 0.51523,-1.26559 0.51523,-1.19271 1.03047,-1.80539 0.12881,-0.14851 0.12881,-0.12841 0.25762,-0.19403 0.1288,-0.0646 0.12882,-0.0427 0.1288,-0.0204 0.12881,0.002 0.12881,0.0243 0.12881,0.0465 0.1288,0.0685 0.12882,0.0901 0.25761,0.24322 0.25762,0.32311 0.51523,0.85892 0.51524,1.0841 0.51524,1.22419 0.51523,1.2682 0.51523,1.21263 0.51523,1.06191 0.51524,0.82782 0.25761,0.30496 0.25762,0.22381 0.12881,0.08 0.12881,0.0582 0.12881,0.0361 0.12881,0.0138 0.1288,-0.008 0.12882,-0.0308 0.1288,-0.053 0.12881,-0.0749 0.25762,-0.2138 0.25762,-0.29555 0.51523,-0.8116 0.51523,-1.05014 0.51524,-1.20623 0.51524,-1.26767 0.51523,-1.22957 1.03046,-1.96944 0.12882,-0.17565 0.1288,-0.15659 0.25761,-0.25304 0.12882,-0.0952 0.1288,-0.0736 0.12881,-0.0517 0.12881,-0.0296 0.12881,-0.007 0.12881,0.015 0.12881,0.0374 0.12881,0.0594 0.1288,0.0812 0.12882,0.10262 0.25761,0.26729 0.51523,0.76227 0.51524,1.01358 0.51523,1.18531 0.51524,1.26402 0.51523,1.2435 0.51524,1.12538 1.03046,1.55926 0.12881,0.11012 0.12881,0.0889 0.12881,0.0673 0.1288,0.0453 0.12882,0.023 0.1288,6.5e-4 0.12881,-0.0217 0.12881,-0.0439 0.12881,-0.0659 0.12881,-0.0876 0.25762,-0.23836 0.25762,-0.31858 0.25761,-0.39251 1.03047,-2.136 0.51523,-1.25726 0.51524,-1.25436 1.03047,-2.11413 0.25761,-0.38429 0.25762,-0.30954 0.25762,-0.22872 0.12881,-0.0826 0.1288,-0.0608 0.12881,-0.0387 0.12881,-0.0164 0.12881,0.006 0.1288,0.0282 0.12882,0.0503 0.1288,0.0723 0.25762,0.20886 0.25762,0.2909 0.25762,0.36723 0.51523,0.93308 0.51523,1.13477 0.51524,1.24742 0.51523,1.26214 0.51524,1.17778 1.03047,1.74661 0.1288,0.13913 0.12881,0.11871 0.25762,0.17388 0.12881,0.0543 0.1288,0.0322 0.12882,0.01 0.1288,-0.0124 0.12881,-0.0347 0.12881,-0.0569 0.12881,-0.0787 0.1288,-0.10013 0.25762,-0.26253 0.25762,-0.34104 1.03047,-1.99464 0.51523,-1.23449 0.51524,-1.26681 0.51523,-1.19967 0.51524,-1.03838 0.51523,-0.79557 0.25762,-0.28634 0.25762,-0.20399 0.1288,-0.0698 0.12881,-0.0478 0.12881,-0.0257 0.12881,-0.003 0.12881,0.019 0.1288,0.0413 0.12882,0.0633 0.1288,0.085 0.25762,0.2335 0.25761,0.31402 0.51524,0.84341 0.51524,1.07309 0.51523,1.21855 0.51523,1.26836 0.51523,1.21861 1.03048,1.91677 0.1288,0.16679 0.12882,0.14734 0.25761,0.23359 0.12881,0.0851 0.12881,0.0633 0.1288,0.0413 0.12881,0.019 0.12881,-0.003 0.12881,-0.0256 0.12881,-0.0478 0.12881,-0.0697 0.25761,-0.20388 0.25762,-0.28624 0.51523,-0.7954 0.51524,-1.03825 0.51524,-1.1996 0.51523,-1.26679 0.51523,-1.23456 0.51523,-1.1054 1.03048,-1.49325 0.1288,-0.10019 0.12882,-0.0788 0.1288,-0.0569 0.12881,-0.0348 0.12881,-0.0125 0.12881,0.01 0.1288,0.0321 0.12881,0.0543 0.12881,0.0762 0.12881,0.0976 0.25762,0.25774 0.25761,0.3366 0.25762,0.40884 0.51523,1.00086 0.51524,1.17769 0.51524,1.26212 0.51523,1.24746 1.03046,2.0681 0.25762,0.36731 0.25762,0.29101 0.25762,0.20895 0.12881,0.0723 0.12881,0.0504 0.1288,0.0283 0.12882,0.006 0.1288,-0.0164 0.12881,-0.0387 0.12881,-0.0607 0.12881,-0.0825 0.25761,-0.2286 0.25762,-0.30946 0.25762,-0.3842 0.51523,-0.961 0.51524,-1.1529 0.51523,-1.25433 0.51524,-1.25728 0.51523,-1.16157 1.03046,-1.68593 0.12882,-0.12959 0.1288,-0.10887 0.25762,-0.15356 0.12881,-0.044 0.12881,-0.0217 0.12881,6.5e-4 0.12881,0.023 0.1288,0.0452 0.12882,0.0672 0.1288,0.0888 0.12881,0.11007 0.25762,0.28153 0.25761,0.35862 1.03047,2.04405 0.51524,1.24346 0.51523,1.26403 0.51524,1.1854 0.51523,1.0137 0.51523,0.76245 0.25762,0.26739 0.12881,0.10267 0.1288,0.0813 0.12882,0.0595 0.1288,0.0374 0.12881,0.0151 0.12881,-0.007 0.12881,-0.0295 0.12881,-0.0516 0.12881,-0.0736 0.12881,-0.0951 0.25762,-0.25294 0.25761,-0.33214 0.51523,-0.87429 0.51524,-1.09488 0.51523,-1.22953 0.51524,-1.26767 0.51523,-1.2063 1.03047,-1.86202 0.12881,-0.15772 0.12881,-0.13795 0.25761,-0.21389 0.12882,-0.0749 0.1288,-0.053 0.12881,-0.0309 0.1288,-0.009 0.12882,0.0138 0.1288,0.036 0.12881,0.0582 0.12881,0.08 0.25762,0.22371 0.25762,0.30485 0.51523,0.82767 0.51523,1.06179 0.51524,1.21257 0.51523,1.26818 0.51524,1.22425 0.51523,1.08422 0.51524,0.85908 0.25761,0.3232 0.25762,0.24333 0.12881,0.0901 0.12881,0.0685 0.12881,0.0465 0.1288,0.0243 0.12882,0.002 0.1288,-0.0203 0.12881,-0.0426 0.1288,-0.0647 0.12882,-0.0863 0.1288,-0.1076 0.25762,-0.27683 0.51524,-0.77899 0.51523,-1.02608 0.51523,-1.19265 0.51524,-1.26558 0.51523,-1.23918 1.03047,-2.01981 0.25762,-0.34994 0.25762,-0.27215 0.1288,-0.10514 0.12881,-0.0838 0.12881,-0.062 0.12881,-0.04 0.12881,-0.0177 0.12881,0.005 0.12881,0.0269 0.1288,0.0491 0.12882,0.071 0.1288,0.0926 0.25761,0.24811 0.25762,0.32766 0.25762,0.40074 0.51524,0.98787 0.51523,1.16977 0.51523,1.25986 0.51524,1.25107 0.51523,1.14407 1.03047,1.6234 0.12881,0.11991 0.12881,0.0989 0.1288,0.0775 0.12882,0.0556 0.1288,0.0335 0.12881,0.0112 0.12881,-0.0112 0.12881,-0.0334 0.12881,-0.0556 0.12881,-0.0774 0.25761,-0.21878 0.25762,-0.30025 0.25761,-0.37579 1.03046,-2.09123 0.51526,-1.25105 0.51523,-1.25988 1.03046,-2.15774 0.51524,-0.72849 0.1288,-0.13437 0.12881,-0.11379 0.25762,-0.16372 0.1288,-0.0491 0.12881,-0.0269 0.12881,-0.005 0.12881,0.0177 0.12881,0.04 0.1288,0.062 0.12881,0.0838 0.1288,0.10513 0.25765,0.27209 0.25761,0.3499 0.51523,0.90421 0.51524,1.11548 0.51523,1.23915 0.51523,1.2656 0.51523,1.19267 1.03048,1.80522 0.12881,0.14849 0.12881,0.12838 0.25761,0.19398 0.12881,0.0646 0.12881,0.0426 0.12881,0.0204 0.12881,-0.002 0.1288,-0.0243 0.12881,-0.0465 0.12881,-0.0685 0.12881,-0.0901 0.25761,-0.24327 0.25762,-0.32316 0.51523,-0.85901 0.51523,-1.08416 0.51523,-1.22422 0.51526,-1.26819 0.51523,-1.21261 0.51523,-1.06184 0.51523,-0.82774 0.25761,-0.3049 0.25762,-0.22376 0.12881,-0.08 0.12881,-0.0582 0.1288,-0.0361 0.12882,-0.0138 0.1288,0.008 0.12881,0.0308 0.1288,0.053 0.12882,0.0749 0.25761,0.21385 0.25761,0.29561 0.51526,0.81169 0.51523,1.05019 0.51523,1.20627 0.51524,1.26767 0.51523,1.22956 1.03046,1.9693 0.12881,0.17561 0.1288,0.15657 0.25762,0.25298 0.12881,0.0952 0.12881,0.0736 0.1288,0.0517 0.12883,0.0295 0.12881,0.007 0.1288,-0.0151 0.12882,-0.0374 0.1288,-0.0595 0.12881,-0.0812 0.12881,-0.10265 0.25762,-0.26734 0.51523,-0.76237 0.51523,-1.01364 0.51523,-1.18536 0.51523,-1.26402 0.51523,-1.24348 0.51526,-1.12532 1.03046,-1.55909 0.12881,-0.11009 0.1288,-0.0889 0.12881,-0.0672 0.12881,-0.0452 0.12881,-0.023 0.1288,-6.4e-4 0.12881,0.0217 0.12881,0.0439 0.12881,0.0659 0.12881,0.0876 0.25762,0.23842 0.25761,0.31862 0.25761,0.39255 1.03049,2.13612 0.51523,1.25728 0.51523,1.25434 1.03047,2.11401 0.25761,0.38424 0.25762,0.3095 0.25761,0.22866 0.12881,0.0825 0.1288,0.0608 0.12882,0.0387 0.1288,0.0164 0.12881,-0.006 0.12881,-0.0282 0.12881,-0.0504 0.12881,-0.0723 0.25763,-0.20891 0.25761,-0.29096 0.25762,-0.36727 0.51524,-0.93315 0.51523,-1.13484 0.51523,-1.24743 0.51523,-1.26212 0.51523,-1.17775 1.03049,-1.74645 0.1288,-0.1391 0.12881,-0.11868 0.25762,-0.17383 0.1288,-0.0543 0.12881,-0.0322 0.12881,-0.01 0.12881,0.0125 0.12881,0.0347 0.1288,0.0569 0.12881,0.0787 0.12881,0.10016 0.25761,0.26257 0.25762,0.34109 1.03046,1.99478 0.51523,1.23453 0.51526,1.26679 0.51523,1.19964 0.51523,1.03831 0.51524,0.79549 0.25761,0.28627 0.25762,0.20394 0.1288,0.0698 0.12881,0.0478 0.12881,0.0256 0.1288,0.003 0.12882,-0.019 0.1288,-0.0413 0.12881,-0.0633 0.1288,-0.0851 0.25762,-0.23355 0.25762,-0.31407 0.51525,-0.8435"
       stroke-opacity="0.8"
       stroke-linecap="round"
       stroke-linejoin="round"
       stroke-miterlimit="10"
       stroke-width="0.540573"
       id="path1700"
       style="stroke:#d40000;stroke-width:0.540544;stroke-miterlimit:10;stroke-dasharray:0.540544, 1.62163;stroke-dashoffset:0"
       sodipodi:nodetypes="cccccccccccccccccccccccccccccccccccccccccccccccccccccccccccccccccccccccccccccccccccccccccccccccccccccccccccccccccccccccccccccccccccccccccccccccccccccccccccccccccccccccccccccccccccccccccccccccccccccccccccccccccccccccccccccccccccccccccccccccccccccccccccccccccccccccccccccccccccccccccccccccccccccccccccccccccccccccccccccccccccccccccccccccccccccccccccccccccccccccccccccccccccccccccccccccccccccccccccccccccccccccccccccccccccccccccccccccccccccccccccccccccccccccccccccccccccccccccccccccccccccccccccccccccccccccccccccccccccccccccccccccccccccccccccccccccccccccccccccccccccccccccccccccccccccccccccccccccccccccccccccccccccccccccccccccccccccccccccccccccccccccccccccccccccccccccccccccccccccccccccccccccccccccccccccccccccccccccccccccccccccccccccccccccccccccccccccccccccccccccccccccccccccccccccccccccccccccccccccccccccccccccccccccccccccccccccccccccccccccccccccccccccccccccccccccccccccccccccc" />
    <path
       fill="none"
       stroke="#2e7d32"
       paint-order="fill stroke markers"
       d="m 64.778354,119.24026 0.128809,0.0902 0.128808,0.0686 0.128809,0.0466 0.128808,0.0243 0.128809,0.002 0.128809,-0.0203 0.128808,-0.0425 0.128809,-0.0646 0.128808,-0.0863 0.128809,-0.10755 0.257616,-0.27673 0.515235,-0.77881 0.515234,-1.02595 0.515234,-1.19256 0.515234,-1.26557 0.515235,-1.23923 1.030467,-2.02008 0.257618,-0.35004 0.257617,-0.27224 0.128808,-0.10522 0.128809,-0.0839 0.128808,-0.0621 0.128809,-0.0401 0.128808,-0.0178 0.128809,0.005 0.128809,0.0268 0.128808,0.049 0.128809,0.0709 0.128808,0.0926 0.257617,0.24801 0.257617,0.32756 0.257618,0.40066 0.515233,0.98771 0.515235,1.16968 0.515234,1.25984 0.515234,1.25112 0.515234,1.14416 1.030468,1.62375 0.128809,0.11996 0.128808,0.099 0.128809,0.0776 0.128808,0.0557 0.128809,0.0335 0.128809,0.0113 0.128808,-0.0111 0.128809,-0.0334 0.128808,-0.0555 0.128809,-0.0774 0.257617,-0.21868 0.257617,-0.30014 0.257617,-0.3757 1.030469,-2.09097 0.515233,-1.25102 0.515233,-1.2599 1.03047,-2.15797 0.515234,-0.72868 0.128809,-0.13442 0.128809,-0.11385 0.257615,-0.16383 0.12881,-0.0492 0.128808,-0.027 0.128808,-0.005 0.12881,0.0176 0.128808,0.04 0.128807,0.062 0.128811,0.0837 0.128808,0.10508 0.257618,0.27199 0.257615,0.3498 0.515234,0.90406 0.515236,1.11536 0.515233,1.23911 0.515234,1.2656 0.515233,1.19276 1.03047,1.80554 0.128808,0.14854 0.12881,0.12843 0.257615,0.19409 0.12881,0.0647 0.128808,0.0427 0.128808,0.0204 0.128808,-0.002 0.12881,-0.0242 0.128808,-0.0464 0.128807,-0.0684 0.128811,-0.0901 0.257616,-0.24318 0.257617,-0.32304 0.515234,-0.85885 0.515234,-1.08404 0.515235,-1.22416 0.515234,-1.26819 0.515234,-1.21267 0.515234,-1.06198 0.515235,-0.82791 0.257616,-0.305 0.257618,-0.22386 0.128807,-0.0801 0.12881,-0.0583 0.128808,-0.0361 0.128808,-0.0139 0.128811,0.008 0.128807,0.0308 0.128808,0.053 0.128807,0.0749 0.257619,0.21374 0.257618,0.29551 0.515233,0.81151 0.515234,1.05007 0.515233,1.2062 0.515236,1.26765 0.515234,1.22962 1.030467,1.96958 0.12881,0.17567 0.128808,0.15661 0.257618,0.25309 0.128808,0.0952 0.128807,0.0737 0.12881,0.0517 0.128808,0.0296 0.128808,0.007 0.128816,-0.015 0.1288,-0.0373 0.12881,-0.0594 0.12881,-0.0812 0.12881,-0.10259 0.25761,-0.26725 0.51524,-0.76218 0.51523,-1.0135 0.51524,-1.18528 0.51523,-1.264 0.51524,-1.24353 0.51523,-1.12542 1.03047,-1.55945 0.12881,-0.11015 0.12881,-0.0889 0.1288,-0.0673 0.12882,-0.0453 0.1288,-0.023 0.12881,-6.5e-4 0.12881,0.0217 0.12881,0.0438 0.12881,0.0659 0.1288,0.0875 0.25762,0.23832 0.25762,0.31852 0.25761,0.39246 1.03048,2.13587 0.51523,1.25725 0.51523,1.25438 1.03047,2.11426 0.25761,0.38433 0.25762,0.3096 0.25762,0.22876 0.12881,0.0826 0.12881,0.0608 0.12881,0.0387 0.12881,0.0165 0.1288,-0.006 0.12882,-0.0282 0.1288,-0.0504 0.12881,-0.0722 0.25762,-0.2088 0.25761,-0.29086 0.25762,-0.36717 0.51523,-0.933 0.51524,-1.13473 0.51524,-1.2474 0.51523,-1.26214 0.51523,-1.17782 1.03047,-1.74678 0.1288,-0.13916 0.12881,-0.11873 0.25762,-0.17395 0.12881,-0.0543 0.12881,-0.0322 0.12881,-0.01 0.1288,0.0124 0.12882,0.0347 0.1288,0.0568 0.12881,0.0786 0.1288,0.10011 0.25762,0.26247 0.25762,0.341 1.03047,1.99449 0.51523,1.23447 0.51524,1.26681 0.51523,1.19971 0.51524,1.03844 0.51523,0.79567 0.25762,0.28637 0.25762,0.20405 0.1288,0.0698 0.12881,0.0479 0.12881,0.0257 0.12881,0.003 0.12881,-0.019 0.12881,-0.0413 0.12881,-0.0632 0.1288,-0.085 0.25762,-0.23344 0.25761,-0.31396 0.51525,-0.84333 0.51523,-1.07303 0.51523,-1.21852 0.51523,-1.26836 0.51524,-1.21864 1.03047,-1.91692 0.1288,-0.1668 0.12882,-0.14738 0.25761,-0.23365 0.12881,-0.0851 0.12881,-0.0634 0.1288,-0.0413 0.12882,-0.0191 0.1288,0.003 0.12881,0.0256 0.12881,0.0477 0.12881,0.0697 0.25762,0.20384 0.25761,0.28618 0.51523,0.79531 0.51525,1.03819 0.51523,1.19956 0.51523,1.26679 0.51523,1.23457 0.51524,1.10546 1.03047,1.49344 0.12881,0.10021 0.12881,0.0788 0.1288,0.057 0.12882,0.0348 0.1288,0.0126 0.12881,-0.01 0.1288,-0.0321 0.12882,-0.0543 0.1288,-0.0761 0.12881,-0.0976 0.25762,-0.25769 0.25762,-0.33655 0.25761,-0.4088 0.51524,-1.00078 0.51524,-1.17766 0.51523,-1.2621 0.51523,-1.24748 1.03047,-2.06823 0.25761,-0.36736 0.25762,-0.29106 0.25762,-0.20901 0.12881,-0.0724 0.12881,-0.0505 0.12881,-0.0283 0.12881,-0.006 0.1288,0.0164 0.12881,0.0386 0.12881,0.0607 0.12881,0.0825 0.25762,0.22855 0.25761,0.30941 0.25762,0.38414 0.51523,0.96092 0.51524,1.15286 0.51524,1.25432 0.51523,1.2573 0.51523,1.16161 1.03047,1.6861 0.12881,0.12961 0.1288,0.10891 0.25762,0.15361 0.12881,0.044 0.12881,0.0217 0.12881,-6.5e-4 0.12881,-0.023 0.12881,-0.0452 0.12881,-0.0672 0.1288,-0.0888 0.12881,-0.11004 0.25762,-0.28148 0.25762,-0.35857 1.03046,-2.04392 0.51524,-1.24343 0.51524,-1.26404 0.51523,-1.18544 0.51523,-1.01378 0.51523,-0.76254 0.25762,-0.26744 0.12881,-0.1027 0.12881,-0.0813 0.12881,-0.0595 0.1288,-0.0374 0.12882,-0.0151 0.1288,0.007 0.12881,0.0295 0.12881,0.0516 0.12881,0.0736 0.12881,0.0951 0.25762,0.25288 0.25761,0.33209 0.51524,0.87421 0.51523,1.09482 0.51523,1.22951 0.51524,1.26767 0.51524,1.20633 1.03046,1.86218 0.12881,0.15774 0.12881,0.13797 0.25761,0.21395 0.12882,0.075 0.1288,0.053 0.12881,0.0309 0.12881,0.009 0.12881,-0.0137 0.1288,-0.036 0.12882,-0.0581 0.1288,-0.0799 0.25762,-0.22364 0.25762,-0.30481 0.51523,-0.82758 0.51524,-1.06172 0.51523,-1.21255 0.51523,-1.26817 0.51524,-1.22428 0.51524,-1.08428 0.51523,-0.85917 0.25761,-0.32325 0.25762,-0.24337 0.12881,-0.0902 0.12881,-0.0686 0.12881,-0.0466 0.1288,-0.0243 0.12882,-0.002 0.1288,0.0203 0.12881,0.0426 0.12881,0.0646 0.12881,0.0863 0.1288,0.10757 0.25762,0.27678 0.51524,0.7789 0.51523,1.02601 0.51524,1.1926 0.51523,1.26558 0.51523,1.2392 1.03047,2.01995 0.25762,0.34999 0.25762,0.27219 0.1288,0.10518 0.12881,0.0838 0.12881,0.0621 0.12881,0.04 0.12881,0.0177 0.12881,-0.005 0.12881,-0.0269 0.1288,-0.049 0.12882,-0.071 0.1288,-0.0926 0.25761,-0.24806 0.25762,-0.32761 0.25762,-0.40071 0.51524,-0.98779 0.51523,-1.16972 0.51523,-1.25986 0.51524,-1.25109 0.51523,-1.14412 1.03047,-1.62356 0.12881,-0.11994 0.12881,-0.099 0.1288,-0.0775 0.12882,-0.0556 0.1288,-0.0335 0.12881,-0.0112 0.12881,0.0111 0.12881,0.0334 0.12881,0.0556 0.12881,0.0774 0.25761,0.21873 0.25762,0.3002 0.25761,0.37573 1.03048,2.09111 0.51523,1.25103 0.51523,1.25989 1.03047,2.15786 0.51524,0.72859 0.1288,0.13439 0.12882,0.11382 0.25761,0.16378 0.12881,0.0491 0.12881,0.027 0.1288,0.005 0.12882,-0.0177 0.1288,-0.04 0.12881,-0.062 0.12881,-0.0838 0.12881,-0.10511 0.25762,-0.27204"
       stroke-opacity="0.8"
       stroke-linecap="round"
       stroke-linejoin="round"
       stroke-miterlimit="10"
       stroke-width="0.540573"
       id="path1736"
       style="stroke-width:0.64637708;stroke-miterlimit:10;stroke-dasharray:none;stroke-dashoffset:0;fill:none;fill-opacity:1;stroke:#2e7d32;stroke-opacity:1"
       sodipodi:nodetypes="ccccccccccccccccccccccccccccccccccccccccccccccccccccccccccccccccccccccccccccccccccccccccccccccccccccccccccccccccccccccccccccccccccccccccccccccccccccccccccccccccccccccccccccccccccccccccccccccccccccccccccccccccccccccccccccccccccccccccccccccccccccccccccccccccccccccccccccccccccccccccccccccccccccccccccccccccccccccccccccccccccccccccccccccccccccccccccccccccccccccccccccccccccccccccccccccccccccccccccc" />
    <path
       fill="none"
       stroke="#2e7d32"
       paint-order="fill stroke markers"
       d="m 198.224,110.53092 0.1288,0.0812 0.12882,0.10262 0.25761,0.26729 0.51523,0.76227 0.51524,1.01358 0.51523,1.18531 0.51524,1.26402 0.51523,1.2435 0.51524,1.12538 1.03046,1.55926 0.12881,0.11012 0.12881,0.0889 0.12881,0.0673 0.1288,0.0453 0.12882,0.023 0.1288,6.5e-4 0.12881,-0.0217 0.12881,-0.0439 0.12881,-0.0659 0.12881,-0.0876 0.25762,-0.23836 0.25762,-0.31858 0.25761,-0.39251 1.03047,-2.136 0.51523,-1.25726 0.51524,-1.25436 1.03047,-2.11413 0.25761,-0.38429 0.25762,-0.30954 0.25762,-0.22872 0.12881,-0.0826 0.1288,-0.0608 0.12881,-0.0387 0.12881,-0.0164 0.12881,0.006 0.1288,0.0282 0.12882,0.0503 0.1288,0.0723 0.25762,0.20886 0.25762,0.2909 0.25762,0.36723 0.51523,0.93308 0.51523,1.13477 0.51524,1.24742 0.51523,1.26214 0.51524,1.17778 1.03047,1.74661 0.1288,0.13913 0.12881,0.11871 0.25762,0.17388 0.12881,0.0543 0.1288,0.0322 0.12882,0.01 0.1288,-0.0124 0.12881,-0.0347 0.12881,-0.0569 0.12881,-0.0787 0.1288,-0.10013 0.25762,-0.26253 0.25762,-0.34104 1.03047,-1.99464 0.51523,-1.23449 0.51524,-1.26681 0.51523,-1.19967 0.51524,-1.03838 0.51523,-0.79557 0.25762,-0.28634 0.25762,-0.20399 0.1288,-0.0698 0.12881,-0.0478 0.12881,-0.0257 0.12881,-0.003 0.12881,0.019 0.1288,0.0413 0.12882,0.0633 0.1288,0.085 0.25762,0.2335 0.25761,0.31402 0.51524,0.84341 0.51524,1.07309 0.51523,1.21855 0.51523,1.26836 0.51523,1.21861 1.03048,1.91677 0.1288,0.16679 0.12882,0.14734 0.25761,0.23359 0.12881,0.0851 0.12881,0.0633 0.1288,0.0413 0.12881,0.019 0.12881,-0.003 0.12881,-0.0256 0.12881,-0.0478 0.12881,-0.0697 0.25761,-0.20388 0.25762,-0.28624 0.51523,-0.7954 0.51524,-1.03825 0.51524,-1.1996 0.51523,-1.26679 0.51523,-1.23456 0.51523,-1.1054 1.03048,-1.49325 0.1288,-0.10019 0.12882,-0.0788 0.1288,-0.0569 0.12881,-0.0348 0.12881,-0.0125 0.12881,0.01 0.1288,0.0321 0.12881,0.0543 0.12881,0.0762 0.12881,0.0976 0.25762,0.25774 0.25761,0.3366 0.25762,0.40884 0.51523,1.00086 0.51524,1.17769 0.51524,1.26212 0.51523,1.24746 1.03046,2.0681 0.25762,0.36731 0.25762,0.29101 0.25762,0.20895 0.12881,0.0723 0.12881,0.0504 0.1288,0.0283 0.12882,0.006 0.1288,-0.0164 0.12881,-0.0387 0.12881,-0.0607 0.12881,-0.0825 0.25761,-0.2286 0.25762,-0.30946 0.25762,-0.3842 0.51523,-0.961 0.51524,-1.1529 0.51523,-1.25433 0.51524,-1.25728 0.51523,-1.16157 1.03046,-1.68593 0.12882,-0.12959 0.1288,-0.10887 0.25762,-0.15356 0.12881,-0.044 0.12881,-0.0217 0.12881,6.5e-4 0.12881,0.023 0.1288,0.0452 0.12882,0.0672 0.1288,0.0888 0.12881,0.11007 0.25762,0.28153 0.25761,0.35862 1.03047,2.04405 0.51524,1.24346 0.51523,1.26403 0.51524,1.1854 0.51523,1.0137 0.51523,0.76245 0.25762,0.26739 0.12881,0.10267 0.1288,0.0813 0.12882,0.0595 0.1288,0.0374 0.12881,0.0151 0.12881,-0.007 0.12881,-0.0295 0.12881,-0.0516 0.12881,-0.0736 0.12881,-0.0951 0.25762,-0.25294 0.25761,-0.33214 0.51523,-0.87429 0.51524,-1.09488 0.51523,-1.22953 0.51524,-1.26767 0.51523,-1.2063 1.03047,-1.86202 0.12881,-0.15772 0.12881,-0.13795 0.25761,-0.21389 0.12882,-0.0749 0.1288,-0.053 0.12881,-0.0309 0.1288,-0.009 0.12882,0.0138 0.1288,0.036 0.12881,0.0582 0.12881,0.08 0.25762,0.22371 0.25762,0.30485 0.51523,0.82767 0.51523,1.06179 0.51524,1.21257 0.51523,1.26818 0.51524,1.22425 0.51523,1.08422 0.51524,0.85908 0.25761,0.3232 0.25762,0.24333 0.12881,0.0901 0.12881,0.0685 0.12881,0.0465 0.1288,0.0243 0.12882,0.002 0.1288,-0.0203 0.12881,-0.0426 0.1288,-0.0647 0.12882,-0.0863 0.1288,-0.1076 0.25762,-0.27683 0.51524,-0.77899 0.51523,-1.02608 0.51523,-1.19265 0.51524,-1.26558 0.51523,-1.23918 1.03047,-2.01981 0.25762,-0.34994 0.25762,-0.27215 0.1288,-0.10514 0.12881,-0.0838 0.12881,-0.062 0.12881,-0.04 0.12881,-0.0177 0.12881,0.005 0.12881,0.0269 0.1288,0.0491 0.12882,0.071 0.1288,0.0926 0.25761,0.24811 0.25762,0.32766 0.25762,0.40074 0.51524,0.98787 0.51523,1.16977 0.51523,1.25986 0.51524,1.25107 0.51523,1.14407 1.03047,1.6234 0.12881,0.11991 0.12881,0.0989 0.1288,0.0775 0.12882,0.0556 0.1288,0.0335 0.12881,0.0112 0.12881,-0.0112 0.12881,-0.0334 0.12881,-0.0556 0.12881,-0.0774 0.25761,-0.21878 0.25762,-0.30025 0.25761,-0.37579 1.03046,-2.09123 0.51526,-1.25105 0.51523,-1.25988 1.03046,-2.15774 0.51524,-0.72849 0.1288,-0.13437 0.12881,-0.11379 0.25762,-0.16372 0.1288,-0.0491 0.12881,-0.0269 0.12881,-0.005 0.12881,0.0177 0.12881,0.04 0.1288,0.062 0.12881,0.0838 0.1288,0.10513 0.25765,0.27209 0.25761,0.3499 0.51523,0.90421 0.51524,1.11548 0.51523,1.23915 0.51523,1.2656 0.51523,1.19267 1.03048,1.80522 0.12881,0.14849 0.12881,0.12838 0.25761,0.19398 0.12881,0.0646 0.12881,0.0426 0.12881,0.0204 0.12881,-0.002 0.1288,-0.0243 0.12881,-0.0465 0.12881,-0.0685 0.12881,-0.0901 0.25761,-0.24327 0.25762,-0.32316 0.51523,-0.85901 0.51523,-1.08416 0.51523,-1.22422 0.51526,-1.26819 0.51523,-1.21261 0.51523,-1.06184 0.51523,-0.82774 0.25761,-0.3049 0.25762,-0.22376 0.12881,-0.08 0.12881,-0.0582 0.1288,-0.0361 0.12882,-0.0138 0.1288,0.008 0.12881,0.0308 0.1288,0.053 0.12882,0.0749 0.25761,0.21385 0.25761,0.29561 0.51526,0.81169 0.51523,1.05019 0.51523,1.20627 0.51524,1.26767 0.51523,1.22956 1.03046,1.9693 0.12881,0.17561 0.1288,0.15657 0.25762,0.25298 0.12881,0.0952 0.12881,0.0736 0.1288,0.0517 0.12883,0.0295 0.12881,0.007 0.1288,-0.0151 0.12882,-0.0374 0.1288,-0.0595 0.12881,-0.0812 0.12881,-0.10265 0.25762,-0.26734 0.51523,-0.76237 0.51523,-1.01364 0.51523,-1.18536 0.51523,-1.26402 0.51523,-1.24348 0.51526,-1.12532 1.03046,-1.55909 0.12881,-0.11009 0.1288,-0.0889 0.12881,-0.0672 0.12881,-0.0452 0.12881,-0.023 0.1288,-6.4e-4 0.12881,0.0217 0.12881,0.0439 0.12881,0.0659 0.12881,0.0876 0.25762,0.23842 0.25761,0.31862 0.25761,0.39255 1.03049,2.13612 0.51523,1.25728 0.51523,1.25434 1.03047,2.11401 0.25761,0.38424 0.25762,0.3095 0.25761,0.22866 0.12881,0.0825 0.1288,0.0608 0.12882,0.0387 0.1288,0.0164 0.12881,-0.006 0.12881,-0.0282 0.12881,-0.0504 0.12881,-0.0723 0.25763,-0.20891 0.25761,-0.29096 0.25762,-0.36727 0.51524,-0.93315 0.51523,-1.13484 0.51523,-1.24743 0.51523,-1.26212 0.51523,-1.17775 1.03049,-1.74645 0.1288,-0.1391 0.12881,-0.11868 0.25762,-0.17383 0.1288,-0.0543 0.12881,-0.0322 0.12881,-0.01 0.12881,0.0125 0.12881,0.0347 0.1288,0.0569 0.12881,0.0787 0.12881,0.10016 0.25761,0.26257 0.25762,0.34109"
       stroke-opacity="0.8"
       stroke-linecap="round"
       stroke-linejoin="round"
       stroke-miterlimit="10"
       stroke-width="0.540573"
       id="path1738"
       style="stroke-width:0.64558333;stroke-miterlimit:10;stroke-dasharray:none;stroke-dashoffset:0;stroke:#2e7d32;stroke-opacity:1"
       sodipodi:nodetypes="ccccccccccccccccccccccccccccccccccccccccccccccccccccccccccccccccccccccccccccccccccccccccccccccccccccccccccccccccccccccccccccccccccccccccccccccccccccccccccccccccccccccccccccccccccccccccccccccccccccccccccccccccccccccccccccccccccccccccccccccccccccccccccccccccccccccccccccccccccccccccccccccccccccccccccccccccccccccccccccccccccccccccccccccccccccccccccccccccccccccccccccccccccccccccccccccccccc" />
    <path
       fill="none"
       stroke="#2e7d32"
       paint-order="fill stroke markers"
       d="m 58.595545,143.92439 0.515234,-0.50977 0.128808,-0.0749 0.128809,-0.053 0.128808,-0.0309 0.128809,-0.009 0.128808,0.0137 0.128808,0.036 0.128809,0.0581 0.128809,0.0799 0.257617,0.22359 0.257617,0.30476 0.515234,0.82749 0.515234,1.06166 0.515234,1.21251 0.515235,1.26818 0.515233,1.22431 0.515235,1.08434 0.515234,0.85925 0.257617,0.3233 0.257617,0.24343 0.128809,0.0902 0.128808,0.0686 0.128809,0.0466 0.128808,0.0243 0.128809,0.002 0.128809,-0.0203 0.128808,-0.0425 0.128809,-0.0646 0.128808,-0.0863 0.128809,-0.10755 0.257616,-0.27673 0.515235,-0.77881 0.515234,-1.02595 0.515234,-1.19256 0.515234,-1.26557 0.515235,-1.23923 1.030467,-2.02008 0.257618,-0.35004 0.257617,-0.27224 0.128808,-0.10522 0.128809,-0.0839 0.128808,-0.0621 0.128809,-0.0401 0.128808,-0.0178 0.128809,0.005 0.128809,0.0268 0.128808,0.049 0.128809,0.0709 0.128808,0.0926 0.257617,0.24801 0.257617,0.32756 0.257618,0.40066 0.515233,0.98771 0.515235,1.16968 0.515234,1.25984 0.515234,1.25112 0.515234,1.14416 1.030468,1.62375 0.128809,0.11996 0.128808,0.099 0.128809,0.0776 0.128808,0.0557 0.128809,0.0335 0.128809,0.0113 0.128808,-0.0111 0.128809,-0.0334 0.128808,-0.0555 0.128809,-0.0774 0.257617,-0.21868 0.257617,-0.30014 0.257617,-0.3757 1.030469,-2.09097 0.515233,-1.25102 0.515233,-1.2599 1.03047,-2.15797 0.515234,-0.72868 0.128809,-0.13442 0.128809,-0.11385 0.257615,-0.16383 0.12881,-0.0492 0.128808,-0.027 0.128808,-0.005 0.12881,0.0176 0.128808,0.04 0.128807,0.062 0.128811,0.0837 0.128808,0.10508 0.257618,0.27199 0.257615,0.3498 0.515234,0.90406 0.515236,1.11536 0.515233,1.23911 0.515234,1.2656 0.515233,1.19276 1.03047,1.80554 0.128808,0.14854 0.12881,0.12843 0.257615,0.19409 0.12881,0.0647 0.128808,0.0427 0.128808,0.0204 0.128808,-0.002 0.12881,-0.0242 0.128808,-0.0464 0.128807,-0.0684 0.128811,-0.0901 0.257616,-0.24318 0.257617,-0.32304 0.515234,-0.85885 0.515234,-1.08404 0.515235,-1.22416 0.515234,-1.26819 0.515234,-1.21267 0.515234,-1.06198 0.515235,-0.82791 0.257616,-0.305 0.257618,-0.22386 0.128807,-0.0801 0.12881,-0.0583 0.128808,-0.0361 0.128808,-0.0139 0.128811,0.008 0.128807,0.0308 0.128808,0.053 0.128807,0.0749 0.257619,0.21374 0.257618,0.29551 0.515233,0.81151 0.515234,1.05007 0.515233,1.2062 0.515236,1.26765 0.515234,1.22962 1.030467,1.96958 0.12881,0.17567 0.128808,0.15661 0.257618,0.25309 0.128808,0.0952 0.128807,0.0737 0.12881,0.0517 0.128808,0.0296 0.128808,0.007 0.128816,-0.015 0.1288,-0.0373 0.12881,-0.0594 0.12881,-0.0812 0.12881,-0.10259 0.25761,-0.26725 0.51524,-0.76218 0.51523,-1.0135 0.51524,-1.18528 0.51523,-1.264 0.51524,-1.24353 0.51523,-1.12542 1.03047,-1.55945 0.12881,-0.11015 0.12881,-0.0889 0.1288,-0.0673 0.12882,-0.0453 0.1288,-0.023 0.12881,-6.5e-4 0.12881,0.0217 0.12881,0.0438 0.12881,0.0659 0.1288,0.0875 0.25762,0.23832 0.25762,0.31852 0.25761,0.39246 1.03048,2.13587 0.51523,1.25725 0.51523,1.25438 1.03047,2.11426 0.25761,0.38433 0.25762,0.3096 0.25762,0.22876 0.12881,0.0826 0.12881,0.0608 0.12881,0.0387 0.12881,0.0165 0.1288,-0.006 0.12882,-0.0282 0.1288,-0.0504 0.12881,-0.0722 0.25762,-0.2088 0.25761,-0.29086 0.25762,-0.36717 0.51523,-0.933 0.51524,-1.13473 0.51524,-1.2474 0.51523,-1.26214 0.51523,-1.17782 1.03047,-1.74678 0.1288,-0.13916 0.12881,-0.11873 0.25762,-0.17395 0.12881,-0.0543 0.12881,-0.0322 0.12881,-0.01 0.1288,0.0124 0.12882,0.0347 0.1288,0.0568 0.12881,0.0786 0.1288,0.10011 0.25762,0.26247 0.25762,0.341 1.03047,1.99449 0.51523,1.23447 0.51524,1.26681 0.51523,1.19971 0.51524,1.03844 0.51523,0.79567 0.25762,0.28637 0.25762,0.20405 0.1288,0.0698 0.12881,0.0479 0.12881,0.0257 0.12881,0.003 0.12881,-0.019 0.12881,-0.0413 0.12881,-0.0632 0.1288,-0.085 0.25762,-0.23344 0.25761,-0.31396 0.51525,-0.84333 0.51523,-1.07303 0.51523,-1.21852 0.51523,-1.26836 0.51524,-1.21864 1.03047,-1.91692 0.1288,-0.1668 0.12882,-0.14738 0.25761,-0.23365 0.12881,-0.0851 0.12881,-0.0634 0.1288,-0.0413 0.12882,-0.0191 0.1288,0.003 0.12881,0.0256 0.12881,0.0477 0.12881,0.0697 0.25762,0.20384 0.25761,0.28618 0.51523,0.79531 0.51525,1.03819 0.51523,1.19956 0.51523,1.26679 0.51523,1.23457 0.51524,1.10546 1.03047,1.49344 0.12881,0.10021 0.12881,0.0788 0.1288,0.057 0.12882,0.0348 0.1288,0.0126 0.12881,-0.01 0.1288,-0.0321 0.12882,-0.0543 0.1288,-0.0761 0.12881,-0.0976 0.25762,-0.25769 0.25762,-0.33655 0.25761,-0.4088 0.51524,-1.00078 0.51524,-1.17766 0.51523,-1.2621 0.51523,-1.24748 1.03047,-2.06823 0.25761,-0.36736 0.25762,-0.29106 0.25762,-0.20901 0.12881,-0.0724 0.12881,-0.0505 0.12881,-0.0283 0.12881,-0.006 0.1288,0.0164 0.12881,0.0386 0.12881,0.0607 0.12881,0.0825 0.25762,0.22855 0.25761,0.30941 0.25762,0.38414 0.51523,0.96092 0.51524,1.15286 0.51524,1.25432 0.51523,1.2573 0.51523,1.16161 1.03047,1.6861 0.12881,0.12961 0.1288,0.10891 0.25762,0.15361 0.12881,0.044 0.12881,0.0217 0.12881,-6.5e-4 0.12881,-0.023 0.12881,-0.0452 0.12881,-0.0672 0.1288,-0.0888 0.12881,-0.11004 0.25762,-0.28148 0.25762,-0.35857 1.03046,-2.04392 0.51524,-1.24343 0.51524,-1.26404 0.51523,-1.18544 0.51523,-1.01378 0.51523,-0.76254 0.25762,-0.26744 0.12881,-0.1027 0.12881,-0.0813 0.12881,-0.0595 0.1288,-0.0374 0.12882,-0.0151 0.1288,0.007 0.12881,0.0295 0.12881,0.0516 0.12881,0.0736 0.12881,0.0951 0.25762,0.25288 0.25761,0.33209 0.51524,0.87421 0.51523,1.09482 0.51523,1.22951 0.51524,1.26767 0.51524,1.20633 1.03046,1.86218 0.12881,0.15774 0.12881,0.13797 0.25761,0.21395 0.12882,0.075 0.1288,0.053 0.12881,0.0309 0.12881,0.009 0.12881,-0.0137 0.1288,-0.036 0.12882,-0.0581 0.1288,-0.0799 0.25762,-0.22364 0.25762,-0.30481 0.51523,-0.82758 0.51524,-1.06172 0.51523,-1.21255 0.51523,-1.26817 0.51524,-1.22428 0.51524,-1.08428 0.51523,-0.85917 0.25761,-0.32325 0.25762,-0.24337 0.12881,-0.0902 0.12881,-0.0686 0.12881,-0.0466 0.1288,-0.0243 0.12882,-0.002 0.1288,0.0203 0.12881,0.0426 0.12881,0.0646 0.12881,0.0863 0.1288,0.10757 0.25762,0.27678 0.51524,0.7789 0.51523,1.02601 0.51524,1.1926 0.51523,1.26558 0.51523,1.2392 1.03047,2.01995 0.25762,0.34999 0.25762,0.27219 0.1288,0.10518 0.12881,0.0838 0.12881,0.0621 0.12881,0.04 0.12881,0.0177 0.12881,-0.005 0.12881,-0.0269 0.1288,-0.049 0.12882,-0.071 0.1288,-0.0926 0.25761,-0.24806 0.25762,-0.32761 0.25762,-0.40071 0.51524,-0.98779 0.51523,-1.16972 0.51523,-1.25986 0.51524,-1.25109 0.51523,-1.14412 1.03047,-1.62356 0.12881,-0.11994 0.12881,-0.099 0.1288,-0.0775 0.12882,-0.0556 0.1288,-0.0335 0.12881,-0.0112 0.12881,0.0111 0.12881,0.0334 0.12881,0.0556 0.12881,0.0774 0.25761,0.21873 0.25762,0.3002 0.25761,0.37573 1.03048,2.09111 0.51523,1.25103 0.51523,1.25989 1.03047,2.15786 0.51524,0.72859 0.1288,0.13439 0.12882,0.11382 0.25761,0.16378 0.12881,0.0491 0.12881,0.027 0.1288,0.005 0.12882,-0.0177 0.1288,-0.04 0.12881,-0.062 0.12881,-0.0838 0.12881,-0.10511 0.25762,-0.27204 0.25761,-0.34985 0.51523,-0.90414 0.51525,-1.11542 0.51523,-1.23913 0.51523,-1.26559 0.51523,-1.19271 1.03047,-1.80539 0.12881,-0.14851 0.12881,-0.12841 0.25762,-0.19403 0.1288,-0.0646 0.12882,-0.0427 0.1288,-0.0204 0.12881,0.002 0.12881,0.0243 0.12881,0.0465 0.1288,0.0685 0.12882,0.0901 0.25761,0.24322 0.25762,0.32311 0.51523,0.85892 0.51524,1.0841 0.51524,1.22419 0.51523,1.2682 0.51523,1.21263 0.51523,1.06191 0.51524,0.82782 0.25761,0.30496 0.25762,0.22381 0.12881,0.08 0.12881,0.0582 0.12881,0.0361 0.12881,0.0138 0.1288,-0.008 0.12882,-0.0308 0.1288,-0.053 0.12881,-0.0749 0.25762,-0.2138 0.25762,-0.29555 0.51523,-0.8116 0.51523,-1.05014 0.51524,-1.20623 0.51524,-1.26767 0.51523,-1.22957 1.03046,-1.96944 0.12882,-0.17565 0.1288,-0.15659 0.25761,-0.25304 0.12882,-0.0952 0.1288,-0.0736 0.12881,-0.0517 0.12881,-0.0296 0.12881,-0.007 0.12881,0.015 0.12881,0.0374 0.12881,0.0594 0.1288,0.0812 0.12882,0.10262 0.25761,0.26729 0.51523,0.76227 0.51524,1.01358 0.51523,1.18531 0.51524,1.26402 0.51523,1.2435 0.51524,1.12538 1.03046,1.55926 0.12881,0.11012 0.12881,0.0889 0.12881,0.0673 0.1288,0.0453 0.12882,0.023 0.1288,6.5e-4 0.12881,-0.0217 0.12881,-0.0439 0.12881,-0.0659 0.12881,-0.0876 0.25762,-0.23836 0.25762,-0.31858 0.25761,-0.39251 1.03047,-2.136 0.51523,-1.25726 0.51524,-1.25436 1.03047,-2.11413 0.25761,-0.38429 0.25762,-0.30954 0.25762,-0.22872 0.12881,-0.0826 0.1288,-0.0608 0.12881,-0.0387 0.12881,-0.0164 0.12881,0.006 0.1288,0.0282 0.12882,0.0503 0.1288,0.0723 0.25762,0.20886 0.25762,0.2909 0.25762,0.36723 0.51523,0.93308 0.51523,1.13477 0.51524,1.24742 0.51523,1.26214 0.51524,1.17778 1.03047,1.74661 0.1288,0.13913 0.12881,0.11871 0.25762,0.17388 0.12881,0.0543 0.1288,0.0322 0.12882,0.01 0.1288,-0.0124 0.12881,-0.0347 0.12881,-0.0569 0.12881,-0.0787 0.1288,-0.10013 0.25762,-0.26253 0.25762,-0.34104 1.03047,-1.99464 0.51523,-1.23449 0.51524,-1.26681 0.51523,-1.19967 0.51524,-1.03838 0.51523,-0.79557 0.25762,-0.28634 0.25762,-0.20399 0.1288,-0.0698 0.12881,-0.0478 0.12881,-0.0257 0.12881,-0.003 0.12881,0.019 0.1288,0.0413 0.12882,0.0633 0.1288,0.085 0.25762,0.2335 0.25761,0.31402 0.51524,0.84341 0.51524,1.07309 0.51523,1.21855 0.51523,1.26836 0.51523,1.21861 1.03048,1.91677 0.1288,0.16679 0.12882,0.14734 0.25761,0.23359 0.12881,0.0851 0.12881,0.0633 0.1288,0.0413 0.12881,0.019 0.12881,-0.003 0.12881,-0.0256 0.12881,-0.0478 0.12881,-0.0697 0.25761,-0.20388 0.25762,-0.28624 0.51523,-0.7954 0.51524,-1.03825 0.51524,-1.1996 0.51523,-1.26679 0.51523,-1.23456 0.51523,-1.1054 1.03048,-1.49325 0.1288,-0.10019 0.12882,-0.0788 0.1288,-0.0569 0.12881,-0.0348 0.12881,-0.0125 0.12881,0.01 0.1288,0.0321 0.12881,0.0543 0.12881,0.0762 0.12881,0.0976 0.25762,0.25774 0.25761,0.3366 0.25762,0.40884 0.51523,1.00086 0.51524,1.17769 0.51524,1.26212 0.51523,1.24746 1.03046,2.0681 0.25762,0.36731 0.25762,0.29101 0.25762,0.20895 0.12881,0.0723 0.12881,0.0504 0.1288,0.0283 0.12882,0.006 0.1288,-0.0164 0.12881,-0.0387 0.12881,-0.0607 0.12881,-0.0825 0.25761,-0.2286 0.25762,-0.30946 0.25762,-0.3842 0.51523,-0.961 0.51524,-1.1529 0.51523,-1.25433 0.51524,-1.25728 0.51523,-1.16157 1.03046,-1.68593 0.12882,-0.12959 0.1288,-0.10887 0.25762,-0.15356 0.12881,-0.044 0.12881,-0.0217 0.12881,6.5e-4 0.12881,0.023 0.1288,0.0452 0.12882,0.0672 0.1288,0.0888 0.12881,0.11007 0.25762,0.28153 0.25761,0.35862 1.03047,2.04405 0.51524,1.24346 0.51523,1.26403 0.51524,1.1854 0.51523,1.0137 0.51523,0.76245 0.25762,0.26739 0.12881,0.10267 0.1288,0.0813 0.12882,0.0595 0.1288,0.0374 0.12881,0.0151 0.12881,-0.007 0.12881,-0.0295 0.12881,-0.0516 0.12881,-0.0736 0.12881,-0.0951 0.25762,-0.25294 0.25761,-0.33214 0.51523,-0.87429 0.51524,-1.09488 0.51523,-1.22953 0.51524,-1.26767 0.51523,-1.2063 1.03047,-1.86202 0.12881,-0.15772 0.12881,-0.13795 0.25761,-0.21389 0.12882,-0.0749 0.1288,-0.053 0.12881,-0.0309 0.1288,-0.009 0.12882,0.0138 0.1288,0.036 0.12881,0.0582 0.12881,0.08 0.25762,0.22371 0.25762,0.30485 0.51523,0.82767 0.51523,1.06179 0.51524,1.21257 0.51523,1.26818 0.51524,1.22425 0.51523,1.08422 0.51524,0.85908 0.25761,0.3232 0.25762,0.24333 0.12881,0.0901 0.12881,0.0685 0.12881,0.0465 0.1288,0.0243 0.12882,0.002 0.1288,-0.0203 0.12881,-0.0426 0.1288,-0.0647 0.12882,-0.0863 0.1288,-0.1076 0.25762,-0.27683 0.51524,-0.77899 0.51523,-1.02608 0.51523,-1.19265 0.51524,-1.26558 0.51523,-1.23918 1.03047,-2.01981 0.25762,-0.34994 0.25762,-0.27215 0.1288,-0.10514 0.12881,-0.0838 0.12881,-0.062 0.12881,-0.04 0.12881,-0.0177 0.12881,0.005 0.12881,0.0269 0.1288,0.0491 0.12882,0.071 0.1288,0.0926 0.25761,0.24811 0.25762,0.32766 0.25762,0.40074 0.51524,0.98787 0.51523,1.16977 0.51523,1.25986 0.51524,1.25107 0.51523,1.14407 1.03047,1.6234 0.12881,0.11991 0.12881,0.0989 0.1288,0.0775 0.12882,0.0556 0.1288,0.0335 0.12881,0.0112 0.12881,-0.0112 0.12881,-0.0334 0.12881,-0.0556 0.12881,-0.0774 0.25761,-0.21878 0.25762,-0.30025 0.25761,-0.37579 1.03046,-2.09123 0.51526,-1.25105 0.51523,-1.25988 1.03046,-2.15774 0.51524,-0.72849 0.1288,-0.13437 0.12881,-0.11379 0.25762,-0.16372 0.1288,-0.0491 0.12881,-0.0269 0.12881,-0.005 0.12881,0.0177 0.12881,0.04 0.1288,0.062 0.12881,0.0838 0.1288,0.10513 0.25765,0.27209 0.25761,0.3499 0.51523,0.90421 0.51524,1.11548 0.51523,1.23915 0.51523,1.2656 0.51523,1.19267 1.03048,1.80522 0.12881,0.14849 0.12881,0.12838 0.25761,0.19398 0.12881,0.0646 0.12881,0.0426 0.12881,0.0204 0.12881,-0.002 0.1288,-0.0243 0.12881,-0.0465 0.12881,-0.0685 0.12881,-0.0901 0.25761,-0.24327 0.25762,-0.32316 0.51523,-0.85901 0.51523,-1.08416 0.51523,-1.22422 0.51526,-1.26819 0.51523,-1.21261 0.51523,-1.06184 0.51523,-0.82774 0.25761,-0.3049 0.25762,-0.22376 0.12881,-0.08 0.12881,-0.0582 0.1288,-0.0361 0.12882,-0.0138 0.1288,0.008 0.12881,0.0308 0.1288,0.053 0.12882,0.0749 0.25761,0.21385 0.25761,0.29561 0.51526,0.81169 0.51523,1.05019 0.51523,1.20627 0.51524,1.26767 0.51523,1.22956 1.03046,1.9693 0.12881,0.17561 0.1288,0.15657 0.25762,0.25298 0.12881,0.0952 0.12881,0.0736 0.1288,0.0517 0.12883,0.0295 0.12881,0.007 0.1288,-0.0151 0.12882,-0.0374 0.1288,-0.0595 0.12881,-0.0812 0.12881,-0.10265 0.25762,-0.26734 0.51523,-0.76237 0.51523,-1.01364 0.51523,-1.18536 0.51523,-1.26402 0.51523,-1.24348 0.51526,-1.12532 1.03046,-1.55909 0.12881,-0.11009 0.1288,-0.0889 0.12881,-0.0672 0.12881,-0.0452 0.12881,-0.023 0.1288,-6.4e-4 0.12881,0.0217 0.12881,0.0439 0.12881,0.0659 0.12881,0.0876 0.25762,0.23842 0.25761,0.31862 0.25761,0.39255 1.03049,2.13612 0.51523,1.25728 0.51523,1.25434 1.03047,2.11401 0.25761,0.38424 0.25762,0.3095 0.25761,0.22866 0.12881,0.0825 0.1288,0.0608 0.12882,0.0387 0.1288,0.0164 0.12881,-0.006 0.12881,-0.0282 0.12881,-0.0504 0.12881,-0.0723 0.25763,-0.20891 0.25761,-0.29096 0.25762,-0.36727 0.51524,-0.93315 0.51523,-1.13484 0.51523,-1.24743 0.51523,-1.26212 0.51523,-1.17775 1.03049,-1.74645 0.1288,-0.1391 0.12881,-0.11868 0.25762,-0.17383 0.1288,-0.0543 0.12881,-0.0322 0.12881,-0.01 0.12881,0.0125 0.12881,0.0347 0.1288,0.0569 0.12881,0.0787 0.12881,0.10016 0.25761,0.26257 0.25762,0.34109 1.03046,1.99478 0.51523,1.23453 0.51526,1.26679 0.51523,1.19964 0.51523,1.03831 0.51524,0.79549 0.25761,0.28627 0.25762,0.20394 0.1288,0.0698 0.12881,0.0478 0.12881,0.0256 0.1288,0.003 0.12882,-0.019 0.1288,-0.0413 0.12881,-0.0633 0.1288,-0.0851 0.25762,-0.23355 0.25762,-0.31407 0.51525,-0.8435 0.51524,-1.07315"
       stroke-opacity="0.8"
       stroke-linecap="round"
       stroke-linejoin="round"
       stroke-miterlimit="10"
       stroke-width="0.540573"
       id="path1740"
       style="stroke:#008000;stroke-width:0.645583;stroke-miterlimit:10;stroke-dasharray:none;stroke-dashoffset:0;stroke-opacity:1"
       sodipodi:nodetypes="ccccccccccccccccccccccccccccccccccccccccccccccccccccccccccccccccccccccccccccccccccccccccccccccccccccccccccccccccccccccccccccccccccccccccccccccccccccccccccccccccccccccccccccccccccccccccccccccccccccccccccccccccccccccccccccccccccccccccccccccccccccccccccccccccccccccccccccccccccccccccccccccccccccccccccccccccccccccccccccccccccccccccccccccccccccccccccccccccccccccccccccccccccccccccccccccccccccccccccccccccccccccccccccccccccccccccccccccccccccccccccccccccccccccccccccccccccccccccccccccccccccccccccccccccccccccccccccccccccccccccccccccccccccccccccccccccccccccccccccccccccccccccccccccccccccccccccccccccccccccccccccccccccccccccccccccccccccccccccccccccccccccccccccccccccccccccccccccccccccccccccccccccccccccccccccccccccccccccccccccccccccccccccccccccccccccccccccccccccccccccccccccccccccccccccccccccccccccccccccccccccccccccccccccccccccccccccccccccccccccccccccccccccccccccccccccccccccccccccccc" />
    <path
       fill="none"
       stroke="#2e7d32"
       paint-order="fill stroke markers"
       d="m 58.595545,176.89401 0.515234,-0.50977 0.128808,-0.0749 0.128809,-0.053 0.128808,-0.0309 0.128809,-0.009 0.128808,0.0137 0.128808,0.036 0.128809,0.0581 0.128809,0.0799 0.257617,0.22359 0.257617,0.30476 0.515234,0.82749 0.515234,1.06166 0.515234,1.21251 0.515235,1.26818 0.515233,1.22431 0.515235,1.08434 0.515234,0.85925 0.257617,0.3233 0.257617,0.24343 0.128809,0.0902 0.128808,0.0686 0.128809,0.0466 0.128808,0.0243 0.128809,0.002 0.128809,-0.0203 0.128808,-0.0425 0.128809,-0.0646 0.128808,-0.0863 0.128809,-0.10755 0.257616,-0.27673 0.515235,-0.77881 0.515234,-1.02595 0.515234,-1.19256 0.515234,-1.26557 0.515235,-1.23923 1.030467,-2.02008 0.257618,-0.35004 0.257617,-0.27224 0.128808,-0.10522 0.128809,-0.0839 0.128808,-0.0621 0.128809,-0.0401 0.128808,-0.0178 0.128809,0.005 0.128809,0.0268 0.128808,0.049 0.128809,0.0709 0.128808,0.0926 0.257617,0.24801 0.257617,0.32756 0.257618,0.40066 0.515233,0.98771 0.515235,1.16968 0.515234,1.25984 0.515234,1.25112 0.515234,1.14416 1.030468,1.62375 0.128809,0.11996 0.128808,0.099 0.128809,0.0776 0.128808,0.0557 0.128809,0.0335 0.128809,0.0113 0.128808,-0.0111 0.128809,-0.0334 0.128808,-0.0555 0.128809,-0.0774 0.257617,-0.21868 0.257617,-0.30014 0.257617,-0.3757 1.030469,-2.09097 0.515233,-1.25102 0.515233,-1.2599 1.03047,-2.15797 0.515234,-0.72868 0.128809,-0.13442 0.128809,-0.11385 0.257615,-0.16383 0.12881,-0.0492 0.128808,-0.027 0.128808,-0.005 0.12881,0.0176 0.128808,0.04 0.128807,0.062 0.128811,0.0837 0.128808,0.10508 0.257618,0.27199 0.257615,0.3498 0.515234,0.90406 0.515236,1.11536 0.515233,1.23911 0.515234,1.2656 0.515233,1.19276 1.03047,1.80554 0.128808,0.14854 0.12881,0.12843 0.257615,0.19409 0.12881,0.0647 0.128808,0.0427 0.128808,0.0204 0.128808,-0.002 0.12881,-0.0242 0.128808,-0.0464 0.128807,-0.0684 0.128811,-0.0901 0.257616,-0.24318 0.257617,-0.32304 0.515234,-0.85885 0.515234,-1.08404 0.515235,-1.22416 0.515234,-1.26819 0.515234,-1.21267 0.515234,-1.06198 0.515235,-0.82791 0.257616,-0.305 0.257618,-0.22386 0.128807,-0.0801 0.12881,-0.0583 0.128808,-0.0361 0.128808,-0.0139 0.128811,0.008 0.128807,0.0308 0.128808,0.053 0.128807,0.0749 0.257619,0.21374 0.257618,0.29551 0.515233,0.81151 0.515234,1.05007 0.515233,1.2062 0.515236,1.26765 0.515234,1.22962 1.030467,1.96958 0.12881,0.17567 0.128808,0.15661 0.257618,0.25309 0.128808,0.0952 0.128807,0.0737 0.12881,0.0517 0.128808,0.0296 0.128808,0.007 0.128816,-0.015 0.1288,-0.0373 0.12881,-0.0594 0.12881,-0.0812 0.12881,-0.10259 0.25761,-0.26725 0.51524,-0.76218 0.51523,-1.0135 0.51524,-1.18528 0.51523,-1.264 0.51524,-1.24353 0.51523,-1.12542 1.03047,-1.55945 0.12881,-0.11015 0.12881,-0.0889 0.1288,-0.0673 0.12882,-0.0453 0.1288,-0.023 0.12881,-6.5e-4 0.12881,0.0217 0.12881,0.0438 0.12881,0.0659 0.1288,0.0875 0.25762,0.23832 0.25762,0.31852 0.25761,0.39246 1.03048,2.13587 0.51523,1.25725 0.51523,1.25438 1.03047,2.11426 0.25761,0.38433 0.25762,0.3096 0.25762,0.22876 0.12881,0.0826 0.12881,0.0608 0.12881,0.0387 0.12881,0.0165 0.1288,-0.006 0.12882,-0.0282 0.1288,-0.0504 0.12881,-0.0722 0.25762,-0.2088 0.25761,-0.29086 0.25762,-0.36717 0.51523,-0.933 0.51524,-1.13473 0.51524,-1.2474 0.51523,-1.26214 0.51523,-1.17782 1.03047,-1.74678 0.1288,-0.13916 0.12881,-0.11873 0.25762,-0.17395 0.12881,-0.0543 0.12881,-0.0322 0.12881,-0.01 0.1288,0.0124 0.12882,0.0347 0.1288,0.0568 0.12881,0.0786 0.1288,0.10011 0.25762,0.26247 0.25762,0.341 1.03047,1.99449 0.51523,1.23447 0.51524,1.26681 0.51523,1.19971 0.51524,1.03844 0.51523,0.79567 0.25762,0.28637 0.25762,0.20405 0.1288,0.0698 0.12881,0.0479 0.12881,0.0257 0.12881,0.003 0.12881,-0.019 0.12881,-0.0413 0.12881,-0.0632 0.1288,-0.085 0.25762,-0.23344 0.25761,-0.31396 0.51525,-0.84333 0.51523,-1.07303 0.51523,-1.21852 0.51523,-1.26836 0.51524,-1.21864 1.03047,-1.91692 0.1288,-0.1668 0.12882,-0.14738 0.25761,-0.23365 0.12881,-0.0851 0.12881,-0.0634 0.1288,-0.0413 0.12882,-0.0191 0.1288,0.003 0.12881,0.0256 0.12881,0.0477 0.12881,0.0697 0.25762,0.20384 0.25761,0.28618 0.51523,0.79531 0.51525,1.03819 0.51523,1.19956 0.51523,1.26679 0.51523,1.23457 0.51524,1.10546 1.03047,1.49344 0.12881,0.10021 0.12881,0.0788 0.1288,0.057 0.12882,0.0348 0.1288,0.0126 0.12881,-0.01 0.1288,-0.0321 0.12882,-0.0543 0.1288,-0.0761 0.12881,-0.0976 0.25762,-0.25769 0.25762,-0.33655 0.25761,-0.4088 0.51524,-1.00078 0.51524,-1.17766 0.51523,-1.2621 0.51523,-1.24748 1.03047,-2.06823 0.25761,-0.36736 0.25762,-0.29106 0.25762,-0.20901 0.12881,-0.0724 0.12881,-0.0505 0.12881,-0.0283 0.12881,-0.006 0.1288,0.0164 0.12881,0.0386 0.12881,0.0607 0.12881,0.0825 0.25762,0.22855 0.25761,0.30941 0.25762,0.38414 0.51523,0.96092 0.51524,1.15286 0.51524,1.25432 0.51523,1.2573 0.51523,1.16161 1.03047,1.6861 0.12881,0.12961 0.1288,0.10891 0.25762,0.15361 0.12881,0.044 0.12881,0.0217 0.12881,-6.5e-4 0.12881,-0.023 0.12881,-0.0452 0.12881,-0.0672 0.1288,-0.0888 0.12881,-0.11004 0.25762,-0.28148 0.25762,-0.35857 1.03046,-2.04392 0.51524,-1.24343 0.51524,-1.26404 0.51523,-1.18544 0.51523,-1.01378"
       stroke-opacity="0.8"
       stroke-linecap="round"
       stroke-linejoin="round"
       stroke-miterlimit="10"
       stroke-width="0.540573"
       id="path1742"
       style="stroke:#008000;stroke-width:0.645583;stroke-miterlimit:10;stroke-dasharray:none;stroke-dashoffset:0;stroke-opacity:1"
       sodipodi:nodetypes="ccccccccccccccccccccccccccccccccccccccccccccccccccccccccccccccccccccccccccccccccccccccccccccccccccccccccccccccccccccccccccccccccccccccccccccccccccccccccccccccccccccccccccccccccccccccccccccccccccccccccccccccccccccccccccccccccccccccccccccccccccccccccccccccccccccccccccccccccccccccccccccccccccccccccccccccccc" />
    <path
       id="path1744"
       style="opacity:1;fill:#000000;fill-opacity:0.0808081;stroke:#000000;stroke-width:0.105833;stroke-miterlimit:4.6;stroke-dasharray:none;stroke-dashoffset:15.988;stroke-opacity:1;paint-order:stroke fill markers"
       d="m 57.663011,175.30414 h 92.820169 v 11.00334 H 57.533682 l 1.922016,-5.37023 z"
       sodipodi:nodetypes="cccccc" />
    <path
       fill="none"
       stroke="#2e7d32"
       paint-order="fill stroke markers"
       d="m 119.39317,190.12804 0.51523,1.23447 0.51524,1.26681 0.51523,1.19971 0.51524,1.03844 0.51523,0.79567 0.25762,0.28637 0.25762,0.20405 0.1288,0.0698 0.12881,0.0479 0.12881,0.0257 0.12881,0.003 0.12881,-0.019 0.12881,-0.0413 0.12881,-0.0632 0.1288,-0.085 0.25762,-0.23344 0.25761,-0.31396 0.51525,-0.84333 0.51523,-1.07303 0.51523,-1.21852 0.51523,-1.26836 0.51524,-1.21864 1.03047,-1.91692 0.1288,-0.1668 0.12882,-0.14738 0.25761,-0.23365 0.12881,-0.0851 0.12881,-0.0634 0.1288,-0.0413 0.12882,-0.0191 0.1288,0.003 0.12881,0.0256 0.12881,0.0477 0.12881,0.0697 0.25762,0.20384 0.25761,0.28618 0.51523,0.79531 0.51525,1.03819 0.51523,1.19956 0.51523,1.26679 0.51523,1.23457 0.51524,1.10546 1.03047,1.49344 0.12881,0.10021 0.12881,0.0788 0.1288,0.057 0.12882,0.0348 0.1288,0.0126 0.12881,-0.01 0.1288,-0.0321 0.12882,-0.0543 0.1288,-0.0761 0.12881,-0.0976 0.25762,-0.25769 0.25762,-0.33655 0.25761,-0.4088 0.51524,-1.00078 0.51524,-1.17766 0.51523,-1.2621 0.51523,-1.24748 1.03047,-2.06823 0.25761,-0.36736 0.25762,-0.29106 0.25762,-0.20901 0.12881,-0.0724 0.12881,-0.0505 0.12881,-0.0283 0.12881,-0.006 0.1288,0.0164 0.12881,0.0386 0.12881,0.0607 0.12881,0.0825 0.25762,0.22855 0.25761,0.30941 0.25762,0.38414 0.51523,0.96092 0.51524,1.15286 0.51524,1.25432 0.51523,1.2573 0.51523,1.16161 1.03047,1.6861 0.12881,0.12961 0.1288,0.10891 0.25762,0.15361 0.12881,0.044 0.12881,0.0217 0.12881,-6.5e-4 0.12881,-0.023 0.12881,-0.0452 0.12881,-0.0672 0.1288,-0.0888 0.12881,-0.11004 0.25762,-0.28148 0.25762,-0.35857 1.03046,-2.04392 0.51524,-1.24343 0.51524,-1.26404 0.51523,-1.18544 0.51523,-1.01378 0.51523,-0.76254 0.25762,-0.26744 0.12881,-0.1027 0.12881,-0.0813 0.12881,-0.0595 0.1288,-0.0374 0.12882,-0.0151 0.1288,0.007 0.12881,0.0295 0.12881,0.0516 0.12881,0.0736 0.12881,0.0951 0.25762,0.25288 0.25761,0.33209 0.51524,0.87421 0.51523,1.09482 0.51523,1.22951 0.51524,1.26767 0.51524,1.20633 1.03046,1.86218 0.12881,0.15774 0.12881,0.13797 0.25761,0.21395 0.12882,0.075 0.1288,0.053 0.12881,0.0309 0.12881,0.009 0.12881,-0.0137 0.1288,-0.036 0.12882,-0.0581 0.1288,-0.0799 0.25762,-0.22364 0.25762,-0.30481 0.51523,-0.82758 0.51524,-1.06172 0.51523,-1.21255 0.51523,-1.26817 0.51524,-1.22428 0.51524,-1.08428 0.51523,-0.85917 0.25761,-0.32325 0.25762,-0.24337 0.12881,-0.0902 0.12881,-0.0686 0.12881,-0.0466 0.1288,-0.0243 0.12882,-0.002 0.1288,0.0203 0.12881,0.0426 0.12881,0.0646 0.12881,0.0863 0.1288,0.10757 0.25762,0.27678 0.51524,0.7789 0.51523,1.02601 0.51524,1.1926 0.51523,1.26558 0.51523,1.2392 1.03047,2.01995 0.25762,0.34999 0.25762,0.27219 0.1288,0.10518 0.12881,0.0838 0.12881,0.0621 0.12881,0.04 0.12881,0.0177 0.12881,-0.005 0.12881,-0.0269 0.1288,-0.049 0.12882,-0.071 0.1288,-0.0926 0.25761,-0.24806 0.25762,-0.32761 0.25762,-0.40071 0.51524,-0.98779 0.51523,-1.16972 0.51523,-1.25986 0.51524,-1.25109 0.51523,-1.14412 1.03047,-1.62356 0.12881,-0.11994 0.12881,-0.099 0.1288,-0.0775 0.12882,-0.0556 0.1288,-0.0335 0.12881,-0.0112 0.12881,0.0111 0.12881,0.0334 0.12881,0.0556 0.12881,0.0774 0.25761,0.21873 0.25762,0.3002 0.25761,0.37573 1.03048,2.09111 0.51523,1.25103 0.51523,1.25989 1.03047,2.15786 0.51524,0.72859 0.1288,0.13439 0.12882,0.11382 0.25761,0.16378 0.12881,0.0491 0.12881,0.027 0.1288,0.005 0.12882,-0.0177 0.1288,-0.04 0.12881,-0.062 0.12881,-0.0838 0.12881,-0.10511 0.25762,-0.27204 0.25761,-0.34985 0.51523,-0.90414 0.51525,-1.11542 0.51523,-1.23913 0.51523,-1.26559 0.51523,-1.19271 1.03047,-1.80539 0.12881,-0.14851 0.12881,-0.12841 0.25762,-0.19403 0.1288,-0.0646 0.12882,-0.0427 0.1288,-0.0204 0.12881,0.002 0.12881,0.0243 0.12881,0.0465 0.1288,0.0685 0.12882,0.0901 0.25761,0.24322 0.25762,0.32311 0.51523,0.85892 0.51524,1.0841 0.51524,1.22419 0.51523,1.2682 0.51523,1.21263 0.51523,1.06191 0.51524,0.82782 0.25761,0.30496 0.25762,0.22381 0.12881,0.08 0.12881,0.0582 0.12881,0.0361 0.12881,0.0138 0.1288,-0.008 0.12882,-0.0308 0.1288,-0.053 0.12881,-0.0749 0.25762,-0.2138 0.25762,-0.29555 0.51523,-0.8116 0.51523,-1.05014 0.51524,-1.20623 0.51524,-1.26767 0.51523,-1.22957 1.03046,-1.96944 0.12882,-0.17565 0.1288,-0.15659 0.25761,-0.25304 0.12882,-0.0952 0.1288,-0.0736 0.12881,-0.0517 0.12881,-0.0296 0.12881,-0.007 0.12881,0.015 0.12881,0.0374 0.12881,0.0594 0.1288,0.0812 0.12882,0.10262 0.25761,0.26729 0.51523,0.76227 0.51524,1.01358 0.51523,1.18531 0.51524,1.26402 0.51523,1.2435 0.51524,1.12538 1.03046,1.55926 0.12881,0.11012 0.12881,0.0889 0.12881,0.0673 0.1288,0.0453 0.12882,0.023 0.1288,6.5e-4 0.12881,-0.0217 0.12881,-0.0439 0.12881,-0.0659 0.12881,-0.0876 0.25762,-0.23836 0.25762,-0.31858 0.25761,-0.39251 1.03047,-2.136 0.51523,-1.25726 0.51524,-1.25436 1.03047,-2.11413 0.25761,-0.38429 0.25762,-0.30954 0.25762,-0.22872 0.12881,-0.0826 0.1288,-0.0608 0.12881,-0.0387 0.12881,-0.0164 0.12881,0.006 0.1288,0.0282 0.12882,0.0503 0.1288,0.0723 0.25762,0.20886 0.25762,0.2909 0.25762,0.36723 0.51523,0.93308 0.51523,1.13477 0.51524,1.24742 0.51523,1.26214 0.51524,1.17778 1.03047,1.74661 0.1288,0.13913 0.12881,0.11871 0.25762,0.17388 0.12881,0.0543 0.1288,0.0322 0.12882,0.01 0.1288,-0.0124 0.12881,-0.0347 0.12881,-0.0569 0.12881,-0.0787 0.1288,-0.10013 0.25762,-0.26253 0.25762,-0.34104 1.03047,-1.99464 0.51523,-1.23449 0.51524,-1.26681 0.51523,-1.19967 0.51524,-1.03838 0.51523,-0.79557 0.25762,-0.28634 0.25762,-0.20399 0.1288,-0.0698 0.12881,-0.0478 0.12881,-0.0257 0.12881,-0.003 0.12881,0.019 0.1288,0.0413 0.12882,0.0633 0.1288,0.085 0.25762,0.2335 0.25761,0.31402 0.51524,0.84341 0.51524,1.07309 0.51523,1.21855 0.51523,1.26836 0.51523,1.21861 1.03048,1.91677 0.1288,0.16679 0.12882,0.14734 0.25761,0.23359 0.12881,0.0851 0.12881,0.0633 0.1288,0.0413 0.12881,0.019 0.12881,-0.003 0.12881,-0.0256 0.12881,-0.0478 0.12881,-0.0697 0.25761,-0.20388 0.25762,-0.28624 0.51523,-0.7954 0.51524,-1.03825 0.51524,-1.1996 0.51523,-1.26679 0.51523,-1.23456 0.51523,-1.1054 1.03048,-1.49325 0.1288,-0.10019 0.12882,-0.0788 0.1288,-0.0569 0.12881,-0.0348 0.12881,-0.0125 0.12881,0.01 0.1288,0.0321 0.12881,0.0543 0.12881,0.0762 0.12881,0.0976 0.25762,0.25774 0.25761,0.3366 0.25762,0.40884 0.51523,1.00086"
       stroke-opacity="0.8"
       stroke-linecap="round"
       stroke-linejoin="round"
       stroke-miterlimit="10"
       stroke-width="0.540573"
       id="path1746"
       style="stroke:#008000;stroke-width:0.64558297;stroke-miterlimit:10;stroke-dasharray:0.64558297,1.93674891;stroke-dashoffset:0;stroke-opacity:1"
       sodipodi:nodetypes="cccccccccccccccccccccccccccccccccccccccccccccccccccccccccccccccccccccccccccccccccccccccccccccccccccccccccccccccccccccccccccccccccccccccccccccccccccccccccccccccccccccccccccccccccccccccccccccccccccccccccccccccccccccccccccccccccccccccccccccccccccccccccccccccccccccccccccccccccccccccccccccccccccccccccccccccccccccccccccccccccccccccccccccccccccccccccccccccccccccccccccccccccccccccccccccccc" />
    <path
       fill="none"
       stroke="#2e7d32"
       paint-order="fill stroke markers"
       d="m 203.37633,207.30779 0.12882,0.023 0.1288,6.5e-4 0.12881,-0.0217 0.12881,-0.0439 0.12881,-0.0659 0.12881,-0.0876 0.25762,-0.23836 0.25762,-0.31858 0.25761,-0.39251 1.03047,-2.136 0.51523,-1.25726 0.51524,-1.25436 1.03047,-2.11413 0.25761,-0.38429 0.25762,-0.30954 0.25762,-0.22872 0.12881,-0.0826 0.1288,-0.0608 0.12881,-0.0387 0.12881,-0.0164 0.12881,0.006 0.1288,0.0282 0.12882,0.0503 0.1288,0.0723 0.25762,0.20886 0.25762,0.2909 0.25762,0.36723 0.51523,0.93308 0.51523,1.13477 0.51524,1.24742 0.51523,1.26214 0.51524,1.17778 1.03047,1.74661 0.1288,0.13913 0.12881,0.11871 0.25762,0.17388 0.12881,0.0543 0.1288,0.0322 0.12882,0.01 0.1288,-0.0124 0.12881,-0.0347 0.12881,-0.0569 0.12881,-0.0787 0.1288,-0.10013 0.25762,-0.26253 0.25762,-0.34104 1.03047,-1.99464 0.51523,-1.23449 0.51524,-1.26681 0.51523,-1.19967 0.51524,-1.03838 0.51523,-0.79557 0.25762,-0.28634 0.25762,-0.20399 0.1288,-0.0698 0.12881,-0.0478 0.12881,-0.0257 0.12881,-0.003 0.12881,0.019 0.1288,0.0413 0.12882,0.0633 0.1288,0.085 0.25762,0.2335 0.25761,0.31402 0.51524,0.84341 0.51524,1.07309 0.51523,1.21855 0.51523,1.26836 0.51523,1.21861 1.03048,1.91677 0.1288,0.16679 0.12882,0.14734 0.25761,0.23359 0.12881,0.0851 0.12881,0.0633 0.1288,0.0413 0.12881,0.019 0.12881,-0.003 0.12881,-0.0256 0.12881,-0.0478 0.12881,-0.0697 0.25761,-0.20388 0.25762,-0.28624 0.51523,-0.7954 0.51524,-1.03825 0.51524,-1.1996 0.51523,-1.26679 0.51523,-1.23456 0.51523,-1.1054 1.03048,-1.49325 0.1288,-0.10019 0.12882,-0.0788 0.1288,-0.0569 0.12881,-0.0348 0.12881,-0.0125 0.12881,0.01 0.1288,0.0321 0.12881,0.0543 0.12881,0.0762 0.12881,0.0976 0.25762,0.25774 0.25761,0.3366 0.25762,0.40884 0.51523,1.00086 0.51524,1.17769 0.51524,1.26212 0.51523,1.24746 1.03046,2.0681 0.25762,0.36731 0.25762,0.29101 0.25762,0.20895 0.12881,0.0723 0.12881,0.0504 0.1288,0.0283 0.12882,0.006 0.1288,-0.0164 0.12881,-0.0387 0.12881,-0.0607 0.12881,-0.0825 0.25761,-0.2286 0.25762,-0.30946 0.25762,-0.3842 0.51523,-0.961 0.51524,-1.1529 0.51523,-1.25433 0.51524,-1.25728 0.51523,-1.16157 1.03046,-1.68593 0.12882,-0.12959 0.1288,-0.10887 0.25762,-0.15356 0.12881,-0.044 0.12881,-0.0217 0.12881,6.5e-4 0.12881,0.023 0.1288,0.0452 0.12882,0.0672 0.1288,0.0888 0.12881,0.11007 0.25762,0.28153 0.25761,0.35862 1.03047,2.04405 0.51524,1.24346 0.51523,1.26403 0.51524,1.1854 0.51523,1.0137 0.51523,0.76245 0.25762,0.26739 0.12881,0.10267 0.1288,0.0813 0.12882,0.0595 0.1288,0.0374 0.12881,0.0151 0.12881,-0.007 0.12881,-0.0295 0.12881,-0.0516 0.12881,-0.0736 0.12881,-0.0951 0.25762,-0.25294 0.25761,-0.33214 0.51523,-0.87429 0.51524,-1.09488 0.51523,-1.22953 0.51524,-1.26767 0.51523,-1.2063 1.03047,-1.86202 0.12881,-0.15772 0.12881,-0.13795 0.25761,-0.21389 0.12882,-0.0749 0.1288,-0.053 0.12881,-0.0309 0.1288,-0.009 0.12882,0.0138 0.1288,0.036 0.12881,0.0582 0.12881,0.08 0.25762,0.22371 0.25762,0.30485 0.51523,0.82767 0.51523,1.06179 0.51524,1.21257 0.51523,1.26818 0.51524,1.22425 0.51523,1.08422 0.51524,0.85908 0.25761,0.3232 0.25762,0.24333 0.12881,0.0901 0.12881,0.0685 0.12881,0.0465 0.1288,0.0243 0.12882,0.002 0.1288,-0.0203 0.12881,-0.0426 0.1288,-0.0647 0.12882,-0.0863 0.1288,-0.1076 0.25762,-0.27683 0.51524,-0.77899 0.51523,-1.02608 0.51523,-1.19265 0.51524,-1.26558 0.51523,-1.23918 1.03047,-2.01981 0.25762,-0.34994 0.25762,-0.27215 0.1288,-0.10514 0.12881,-0.0838 0.12881,-0.062 0.12881,-0.04 0.12881,-0.0177 0.12881,0.005 0.12881,0.0269 0.1288,0.0491 0.12882,0.071 0.1288,0.0926 0.25761,0.24811 0.25762,0.32766 0.25762,0.40074 0.51524,0.98787 0.51523,1.16977 0.51523,1.25986 0.51524,1.25107 0.51523,1.14407 1.03047,1.6234 0.12881,0.11991 0.12881,0.0989 0.1288,0.0775 0.12882,0.0556 0.1288,0.0335 0.12881,0.0112 0.12881,-0.0112 0.12881,-0.0334 0.12881,-0.0556 0.12881,-0.0774 0.25761,-0.21878 0.25762,-0.30025 0.25761,-0.37579 1.03046,-2.09123 0.51526,-1.25105 0.51523,-1.25988 1.03046,-2.15774 0.51524,-0.72849 0.1288,-0.13437 0.12881,-0.11379 0.25762,-0.16372 0.1288,-0.0491 0.12881,-0.0269 0.12881,-0.005 0.12881,0.0177 0.12881,0.04 0.1288,0.062 0.12881,0.0838 0.1288,0.10513 0.25765,0.27209 0.25761,0.3499 0.51523,0.90421 0.51524,1.11548 0.51523,1.23915 0.51523,1.2656 0.51523,1.19267 1.03048,1.80522 0.12881,0.14849 0.12881,0.12838 0.25761,0.19398 0.12881,0.0646 0.12881,0.0426 0.12881,0.0204 0.12881,-0.002 0.1288,-0.0243 0.12881,-0.0465 0.12881,-0.0685 0.12881,-0.0901 0.25761,-0.24327 0.25762,-0.32316 0.51523,-0.85901 0.51523,-1.08416 0.51523,-1.22422 0.51526,-1.26819 0.51523,-1.21261 0.51523,-1.06184 0.51523,-0.82774 0.25761,-0.3049 0.25762,-0.22376 0.12881,-0.08 0.12881,-0.0582 0.1288,-0.0361 0.12882,-0.0138 0.1288,0.008 0.12881,0.0308 0.1288,0.053 0.12882,0.0749 0.25761,0.21385 0.25761,0.29561 0.51526,0.81169 0.51523,1.05019 0.51523,1.20627 0.51524,1.26767 0.51523,1.22956 1.03046,1.9693 0.12881,0.17561 0.1288,0.15657 0.25762,0.25298 0.12881,0.0952 0.12881,0.0736 0.1288,0.0517 0.12883,0.0295 0.12881,0.007 0.1288,-0.0151 0.12882,-0.0374 0.1288,-0.0595 0.12881,-0.0812 0.12881,-0.10265 0.25762,-0.26734 0.51523,-0.76237 0.51523,-1.01364 0.51523,-1.18536 0.51523,-1.26402 0.51523,-1.24348 0.51526,-1.12532 1.03046,-1.55909 0.12881,-0.11009 0.1288,-0.0889 0.12881,-0.0672 0.12881,-0.0452 0.12881,-0.023 0.1288,-6.4e-4 0.12881,0.0217 0.12881,0.0439 0.12881,0.0659 0.12881,0.0876 0.25762,0.23842 0.25761,0.31862 0.25761,0.39255 1.03049,2.13612 0.51523,1.25728 0.51523,1.25434 1.03047,2.11401 0.25761,0.38424 0.25762,0.3095 0.25761,0.22866 0.12881,0.0825 0.1288,0.0608 0.12882,0.0387 0.1288,0.0164 0.12881,-0.006 0.12881,-0.0282 0.12881,-0.0504 0.12881,-0.0723 0.25763,-0.20891 0.25761,-0.29096 0.25762,-0.36727 0.51524,-0.93315 0.51523,-1.13484 0.51523,-1.24743 0.51523,-1.26212 0.51523,-1.17775 1.03049,-1.74645 0.1288,-0.1391 0.12881,-0.11868 0.25762,-0.17383 0.1288,-0.0543 0.12881,-0.0322 0.12881,-0.01 0.12881,0.0125 0.12881,0.0347 0.1288,0.0569 0.12881,0.0787 0.12881,0.10016 0.25761,0.26257 0.25762,0.34109 1.03046,1.99478 0.51523,1.23453 0.51526,1.26679 0.51523,1.19964 0.51523,1.03831 0.51524,0.79549 0.25761,0.28627 0.25762,0.20394 0.1288,0.0698 0.12881,0.0478 0.12881,0.0256 0.1288,0.003 0.12882,-0.019"
       stroke-opacity="0.8"
       stroke-linecap="round"
       stroke-linejoin="round"
       stroke-miterlimit="10"
       stroke-width="0.540573"
       id="path1748"
       style="stroke:#008000;stroke-width:0.64558297;stroke-miterlimit:10;stroke-dasharray:0.64558297,1.93674891;stroke-dashoffset:0;stroke-opacity:1"
       sodipodi:nodetypes="cccccccccccccccccccccccccccccccccccccccccccccccccccccccccccccccccccccccccccccccccccccccccccccccccccccccccccccccccccccccccccccccccccccccccccccccccccccccccccccccccccccccccccccccccccccccccccccccccccccccccccccccccccccccccccccccccccccccccccccccccccccccccccccccccccccccccccccccccccccccccccccccccccccccccccccccccccccccccccccccccccccccccccccccccccccccccccccccccccccccccccccccccccccccccccccccccc" />
    <path
       fill="none"
       stroke="#2e7d32"
       paint-order="fill stroke markers"
       d="m 286.84426,214.19122 0.51526,-1.26819 0.51523,-1.21261 0.51523,-1.06184 0.51523,-0.82774 0.25761,-0.3049 0.25762,-0.22376 0.12881,-0.08 0.12881,-0.0582 0.1288,-0.0361 0.12882,-0.0138 0.1288,0.008 0.12881,0.0308 0.1288,0.053 0.12882,0.0749 0.25761,0.21385 0.25761,0.29561 0.51526,0.81169 0.51523,1.05019 0.51523,1.20627 0.51524,1.26767 0.51523,1.22956 1.03046,1.9693 0.12881,0.17561 0.1288,0.15657 0.25762,0.25298 0.12881,0.0952 0.12881,0.0736 0.1288,0.0517 0.12883,0.0295 0.12881,0.007 0.1288,-0.0151 0.12882,-0.0374 0.1288,-0.0595 0.12881,-0.0812 0.12881,-0.10265 0.25762,-0.26734 0.51523,-0.76237 0.51523,-1.01364 0.51523,-1.18536 0.51523,-1.26402 0.51523,-1.24348 0.51526,-1.12532 1.03046,-1.55909 0.12881,-0.11009 0.1288,-0.0889 0.12881,-0.0672 0.12881,-0.0452 0.12881,-0.023 0.1288,-6.4e-4 0.12881,0.0217 0.12881,0.0439 0.12881,0.0659 0.12881,0.0876 0.25762,0.23842 0.25761,0.31862 0.25761,0.39255 1.03049,2.13612 0.51523,1.25728 0.51523,1.25434 1.03047,2.11401 0.25761,0.38424 0.25762,0.3095 0.25761,0.22866 0.12881,0.0825 0.1288,0.0608 0.12882,0.0387 0.1288,0.0164 0.12881,-0.006 0.12881,-0.0282 0.12881,-0.0504 0.12881,-0.0723 0.25763,-0.20891 0.25761,-0.29096 0.25762,-0.36727 0.51524,-0.93315 0.51523,-1.13484 0.51523,-1.24743 0.51523,-1.26212 0.51523,-1.17775 1.03049,-1.74645 0.1288,-0.1391 0.12881,-0.11868 0.25762,-0.17383 0.1288,-0.0543 0.12881,-0.0322 0.12881,-0.01 0.12881,0.0125 0.12881,0.0347 0.1288,0.0569 0.12881,0.0787 0.12881,0.10016 0.25761,0.26257 0.25762,0.34109 1.03046,1.99478 0.51523,1.23453 0.51526,1.26679 0.51523,1.19964 0.51523,1.03831 0.51524,0.79549 0.25761,0.28627 0.25762,0.20394 0.1288,0.0698 0.12881,0.0478 0.12881,0.0256 0.1288,0.003 0.12882,-0.019 0.1288,-0.0413 0.12881,-0.0633 0.1288,-0.0851 0.25762,-0.23355 0.25762,-0.31407 0.51525,-0.8435 0.51524,-1.07315"
       stroke-opacity="0.8"
       stroke-linecap="round"
       stroke-linejoin="round"
       stroke-miterlimit="10"
       stroke-width="0.540573"
       id="path1750"
       style="stroke:#008000;stroke-width:0.64558297;stroke-miterlimit:10;stroke-dasharray:0.64558297,1.93674891;stroke-dashoffset:0;stroke-opacity:1"
       sodipodi:nodetypes="cccccccccccccccccccccccccccccccccccccccccccccccccccccccccccccccccccccccccccccccccccccccccccccccccccccccccccccccccc" />
    <path
       fill="none"
       stroke="#2e7d32"
       paint-order="fill stroke markers"
       d="m 151.5953,187.26207 0.12882,-0.0151 0.1288,0.007 0.12881,0.0295 0.12881,0.0516 0.12881,0.0736 0.12881,0.0951 0.25762,0.25288 0.25761,0.33209 0.51524,0.87421 0.51523,1.09482 0.51523,1.22951 0.51524,1.26767 0.51524,1.20633 1.03046,1.86218 0.12881,0.15774 0.12881,0.13797 0.25761,0.21395 0.12882,0.075 0.1288,0.053 0.12881,0.0309 0.12881,0.009 0.12881,-0.0137 0.1288,-0.036 0.12882,-0.0581 0.1288,-0.0799 0.25762,-0.22364 0.25762,-0.30481 0.51523,-0.82758 0.51524,-1.06172 0.51523,-1.21255 0.51523,-1.26817 0.51524,-1.22428 0.51524,-1.08428 0.51523,-0.85917 0.25761,-0.32325 0.25762,-0.24337 0.12881,-0.0902 0.12881,-0.0686 0.12881,-0.0466 0.1288,-0.0243 0.12882,-0.002 0.1288,0.0203 0.12881,0.0426 0.12881,0.0646 0.12881,0.0863 0.1288,0.10757 0.25762,0.27678 0.51524,0.7789 0.51523,1.02601 0.51524,1.1926 0.51523,1.26558 0.51523,1.2392 1.03047,2.01995 0.25762,0.34999 0.25762,0.27219 0.1288,0.10518 0.12881,0.0838 0.12881,0.0621 0.12881,0.04 0.12881,0.0177 0.12881,-0.005 0.12881,-0.0269 0.1288,-0.049 0.12882,-0.071 0.1288,-0.0926 0.25761,-0.24806 0.25762,-0.32761 0.25762,-0.40071 0.51524,-0.98779 0.51523,-1.16972 0.51523,-1.25986 0.51524,-1.25109 0.51523,-1.14412 1.03047,-1.62356 0.12881,-0.11994 0.12881,-0.099 0.1288,-0.0775 0.12882,-0.0556 0.1288,-0.0335 0.12881,-0.0112 0.12881,0.0111 0.12881,0.0334 0.12881,0.0556 0.12881,0.0774 0.25761,0.21873 0.25762,0.3002 0.25761,0.37573 1.03048,2.09111 0.51523,1.25103 0.51523,1.25989 1.03047,2.15786 0.51524,0.72859 0.1288,0.13439 0.12882,0.11382 0.25761,0.16378 0.12881,0.0491 0.12881,0.027 0.1288,0.005 0.12882,-0.0177 0.1288,-0.04 0.12881,-0.062 0.12881,-0.0838 0.12881,-0.10511 0.25762,-0.27204 0.25761,-0.34985 0.51523,-0.90414 0.51525,-1.11542 0.51523,-1.23913 0.51523,-1.26559 0.51523,-1.19271 1.03047,-1.80539 0.12881,-0.14851 0.12881,-0.12841 0.25762,-0.19403 0.1288,-0.0646 0.12882,-0.0427 0.1288,-0.0204 0.12881,0.002 0.12881,0.0243 0.12881,0.0465 0.1288,0.0685 0.12882,0.0901 0.25761,0.24322 0.25762,0.32311 0.51523,0.85892 0.51524,1.0841 0.51524,1.22419 0.51523,1.2682 0.51523,1.21263 0.51523,1.06191 0.51524,0.82782 0.25761,0.30496 0.25762,0.22381 0.12881,0.08 0.12881,0.0582 0.12881,0.0361 0.12881,0.0138 0.1288,-0.008 0.12882,-0.0308 0.1288,-0.053 0.12881,-0.0749 0.25762,-0.2138 0.25762,-0.29555 0.51523,-0.8116 0.51523,-1.05014 0.51524,-1.20623 0.51524,-1.26767 0.51523,-1.22957 1.03046,-1.96944 0.12882,-0.17565 0.1288,-0.15659 0.25761,-0.25304 0.12882,-0.0952 0.1288,-0.0736 0.12881,-0.0517 0.12881,-0.0296 0.12881,-0.007 0.12881,0.015 0.12881,0.0374 0.12881,0.0594 0.1288,0.0812 0.12882,0.10262 0.25761,0.26729 0.51523,0.76227 0.51524,1.01358 0.51523,1.18531 0.51524,1.26402 0.51523,1.2435 0.51524,1.12538 1.03046,1.55926 0.12881,0.11012 0.12881,0.0889 0.12881,0.0673 0.1288,0.0453 0.12882,0.023 0.1288,6.5e-4 0.12881,-0.0217 0.12881,-0.0439 0.12881,-0.0659 0.12881,-0.0876 0.25762,-0.23836 0.25762,-0.31858 0.25761,-0.39251 1.03047,-2.136 0.51523,-1.25726 0.51524,-1.25436 1.03047,-2.11413 0.25761,-0.38429 0.25762,-0.30954 0.25762,-0.22872 0.12881,-0.0826 0.1288,-0.0608 0.12881,-0.0387 0.12881,-0.0164 0.12881,0.006 0.1288,0.0282 0.12882,0.0503 0.1288,0.0723 0.25762,0.20886 0.25762,0.2909 0.25762,0.36723 0.51523,0.93308 0.51523,1.13477 0.51524,1.24742 0.51523,1.26214 0.51524,1.17778 1.03047,1.74661 0.1288,0.13913 0.12881,0.11871 0.25762,0.17388 0.12881,0.0543 0.1288,0.0322 0.12882,0.01 0.1288,-0.0124 0.12881,-0.0347 0.12881,-0.0569 0.12881,-0.0787 0.1288,-0.10013 0.25762,-0.26253 0.25762,-0.34104 1.03047,-1.99464 0.51523,-1.23449 0.51524,-1.26681 0.51523,-1.19967 0.51524,-1.03838 0.51523,-0.79557 0.25762,-0.28634 0.25762,-0.20399 0.1288,-0.0698 0.12881,-0.0478 0.12881,-0.0257 0.12881,-0.003 0.12881,0.019 0.1288,0.0413 0.12882,0.0633 0.1288,0.085 0.25762,0.2335 0.25761,0.31402 0.51524,0.84341 0.51524,1.07309 0.51523,1.21855 0.51523,1.26836 0.51523,1.21861 1.03048,1.91677 0.1288,0.16679 0.12882,0.14734 0.25761,0.23359 0.12881,0.0851 0.12881,0.0633 0.1288,0.0413 0.12881,0.019 0.12881,-0.003 0.12881,-0.0256 0.12881,-0.0478 0.12881,-0.0697 0.25761,-0.20388 0.25762,-0.28624 0.51523,-0.7954 0.51524,-1.03825 0.51524,-1.1996 0.51523,-1.26679 0.51523,-1.23456 0.51523,-1.1054 1.03048,-1.49325 0.1288,-0.10019 0.12882,-0.0788 0.1288,-0.0569 0.12881,-0.0348 0.12881,-0.0125 0.12881,0.01 0.1288,0.0321 0.12881,0.0543 0.12881,0.0762 0.12881,0.0976 0.25762,0.25774 0.25761,0.3366 0.25762,0.40884 0.51523,1.00086"
       stroke-opacity="0.8"
       stroke-linecap="round"
       stroke-linejoin="round"
       stroke-miterlimit="10"
       stroke-width="0.540573"
       id="path1752"
       style="stroke:#008000;stroke-width:0.645583;stroke-miterlimit:10;stroke-dasharray:none;stroke-dashoffset:0;stroke-opacity:1"
       sodipodi:nodetypes="ccccccccccccccccccccccccccccccccccccccccccccccccccccccccccccccccccccccccccccccccccccccccccccccccccccccccccccccccccccccccccccccccccccccccccccccccccccccccccccccccccccccccccccccccccccccccccccccccccccccccccccccccccccccccccccccccccccccccccccccccccccccccccccccccccccccccccccccccccccccc" />
    <path
       fill="none"
       stroke="#2e7d32"
       paint-order="fill stroke markers"
       d="m 235.32086,202.99403 0.51523,1.24746 1.03046,2.0681 0.25762,0.36731 0.25762,0.29101 0.25762,0.20895 0.12881,0.0723 0.12881,0.0504 0.1288,0.0283 0.12882,0.006 0.1288,-0.0164 0.12881,-0.0387 0.12881,-0.0607 0.12881,-0.0825 0.25761,-0.2286 0.25762,-0.30946 0.25762,-0.3842 0.51523,-0.961 0.51524,-1.1529 0.51523,-1.25433 0.51524,-1.25728 0.51523,-1.16157 1.03046,-1.68593 0.12882,-0.12959 0.1288,-0.10887 0.25762,-0.15356 0.12881,-0.044 0.12881,-0.0217 0.12881,6.5e-4 0.12881,0.023 0.1288,0.0452 0.12882,0.0672 0.1288,0.0888 0.12881,0.11007 0.25762,0.28153 0.25761,0.35862 1.03047,2.04405 0.51524,1.24346 0.51523,1.26403 0.51524,1.1854 0.51523,1.0137 0.51523,0.76245 0.25762,0.26739 0.12881,0.10267 0.1288,0.0813 0.12882,0.0595 0.1288,0.0374 0.12881,0.0151 0.12881,-0.007 0.12881,-0.0295 0.12881,-0.0516 0.12881,-0.0736 0.12881,-0.0951 0.25762,-0.25294 0.25761,-0.33214 0.51523,-0.87429 0.51524,-1.09488 0.51523,-1.22953 0.51524,-1.26767 0.51523,-1.2063 1.03047,-1.86202 0.12881,-0.15772 0.12881,-0.13795 0.25761,-0.21389 0.12882,-0.0749 0.1288,-0.053 0.12881,-0.0309 0.1288,-0.009 0.12882,0.0138 0.1288,0.036 0.12881,0.0582 0.12881,0.08 0.25762,0.22371 0.25762,0.30485 0.51523,0.82767 0.51523,1.06179 0.51524,1.21257 0.51523,1.26818 0.51524,1.22425 0.51523,1.08422 0.51524,0.85908 0.25761,0.3232 0.25762,0.24333 0.12881,0.0901 0.12881,0.0685 0.12881,0.0465 0.1288,0.0243 0.12882,0.002 0.1288,-0.0203 0.12881,-0.0426 0.1288,-0.0647 0.12882,-0.0863 0.1288,-0.1076 0.25762,-0.27683 0.51524,-0.77899 0.51523,-1.02608 0.51523,-1.19265 0.51524,-1.26558 0.51523,-1.23918 1.03047,-2.01981 0.25762,-0.34994 0.25762,-0.27215 0.1288,-0.10514 0.12881,-0.0838 0.12881,-0.062 0.12881,-0.04 0.12881,-0.0177 0.12881,0.005 0.12881,0.0269 0.1288,0.0491 0.12882,0.071 0.1288,0.0926 0.25761,0.24811 0.25762,0.32766 0.25762,0.40074 0.51524,0.98787 0.51523,1.16977 0.51523,1.25986 0.51524,1.25107 0.51523,1.14407 1.03047,1.6234 0.12881,0.11991 0.12881,0.0989 0.1288,0.0775 0.12882,0.0556 0.1288,0.0335 0.12881,0.0112 0.12881,-0.0112 0.12881,-0.0334 0.12881,-0.0556 0.12881,-0.0774 0.25761,-0.21878 0.25762,-0.30025 0.25761,-0.37579 1.03046,-2.09123 0.51526,-1.25105 0.51523,-1.25988 1.03046,-2.15774 0.51524,-0.72849 0.1288,-0.13437 0.12881,-0.11379 0.25762,-0.16372 0.1288,-0.0491 0.12881,-0.0269 0.12881,-0.005 0.12881,0.0177 0.12881,0.04 0.1288,0.062 0.12881,0.0838 0.1288,0.10513 0.25765,0.27209 0.25761,0.3499 0.51523,0.90421 0.51524,1.11548 0.51523,1.23915 0.51523,1.2656 0.51523,1.19267 1.03048,1.80522 0.12881,0.14849 0.12881,0.12838 0.25761,0.19398 0.12881,0.0646 0.12881,0.0426 0.12881,0.0204 0.12881,-0.002 0.1288,-0.0243 0.12881,-0.0465 0.12881,-0.0685 0.12881,-0.0901 0.25761,-0.24327 0.25762,-0.32316 0.51523,-0.85901 0.51523,-1.08416 0.51523,-1.22422 0.51526,-1.26819 0.51523,-1.21261 0.51523,-1.06184 0.51523,-0.82774 0.25761,-0.3049 0.25762,-0.22376 0.12881,-0.08 0.12881,-0.0582 0.1288,-0.0361 0.12882,-0.0138 0.1288,0.008 0.12881,0.0308 0.1288,0.053 0.12882,0.0749 0.25761,0.21385 0.25761,0.29561 0.51526,0.81169 0.51523,1.05019 0.51523,1.20627 0.51524,1.26767 0.51523,1.22956 1.03046,1.9693 0.12881,0.17561 0.1288,0.15657 0.25762,0.25298 0.12881,0.0952 0.12881,0.0736 0.1288,0.0517 0.12883,0.0295 0.12881,0.007 0.1288,-0.0151 0.12882,-0.0374 0.1288,-0.0595 0.12881,-0.0812 0.12881,-0.10265 0.25762,-0.26734 0.51523,-0.76237 0.51523,-1.01364 0.51523,-1.18536 0.51523,-1.26402 0.51523,-1.24348 0.51526,-1.12532 1.03046,-1.55909 0.12881,-0.11009 0.1288,-0.0889 0.12881,-0.0672 0.12881,-0.0452 0.12881,-0.023 0.1288,-6.4e-4 0.12881,0.0217 0.12881,0.0439 0.12881,0.0659 0.12881,0.0876 0.25762,0.23842 0.25761,0.31862 0.25761,0.39255 1.03049,2.13612 0.51523,1.25728 0.51523,1.25434 1.03047,2.11401 0.25761,0.38424 0.25762,0.3095 0.25761,0.22866 0.12881,0.0825 0.1288,0.0608 0.12882,0.0387 0.1288,0.0164 0.12881,-0.006 0.12881,-0.0282 0.12881,-0.0504 0.12881,-0.0723 0.25763,-0.20891 0.25761,-0.29096 0.25762,-0.36727 0.51524,-0.93315 0.51523,-1.13484 0.51523,-1.24743 0.51523,-1.26212 0.51523,-1.17775 1.03049,-1.74645 0.1288,-0.1391 0.12881,-0.11868 0.25762,-0.17383 0.1288,-0.0543 0.12881,-0.0322 0.12881,-0.01 0.12881,0.0125 0.12881,0.0347 0.1288,0.0569 0.12881,0.0787 0.12881,0.10016 0.25761,0.26257 0.25762,0.34109 1.03046,1.99478 0.51523,1.23453 0.51526,1.26679 0.51523,1.19964 0.51523,1.03831 0.51524,0.79549 0.25761,0.28627 0.25762,0.20394 0.1288,0.0698 0.12881,0.0478 0.12881,0.0256 0.1288,0.003 0.12882,-0.019"
       stroke-opacity="0.8"
       stroke-linecap="round"
       stroke-linejoin="round"
       stroke-miterlimit="10"
       stroke-width="0.540573"
       id="path1754"
       style="stroke:#008000;stroke-width:0.645583;stroke-miterlimit:10;stroke-dasharray:none;stroke-dashoffset:0;stroke-opacity:1"
       sodipodi:nodetypes="cccccccccccccccccccccccccccccccccccccccccccccccccccccccccccccccccccccccccccccccccccccccccccccccccccccccccccccccccccccccccccccccccccccccccccccccccccccccccccccccccccccccccccccccccccccccccccccccccccccccccccccccccccccccccccccccccccccccccccccccccccccccccccccccccccccccccccccccccccccccc" />
    <path
       fill="none"
       stroke="#2e7d32"
       paint-order="fill stroke markers"
       d="m 319.56163,217.71325 0.25762,-0.31407 0.51525,-0.8435 0.51524,-1.07315"
       stroke-opacity="0.8"
       stroke-linecap="round"
       stroke-linejoin="round"
       stroke-miterlimit="10"
       stroke-width="0.540573"
       id="path1756"
       style="stroke:#008000;stroke-width:0.645583;stroke-miterlimit:10;stroke-dasharray:none;stroke-dashoffset:0;stroke-opacity:1"
       sodipodi:nodetypes="cccc" />
  </g>
</svg>
